<?xml version="1.0" encoding="UTF-8"?>
<svg xmlns="http://www.w3.org/2000/svg" width="811" height="69">
   <defs>
      <style type="text/css">
    @namespace "http://www.w3.org/2000/svg";
    .line                 {fill: none; stroke: #332900; stroke-width: 1;}
    .bold-line            {stroke: #141000; shape-rendering: crispEdges; stroke-width: 2;}
    .thin-line            {stroke: #1F1800; shape-rendering: crispEdges}
    .filled               {fill: #332900; stroke: none;}
    text.terminal         {font-family: Verdana, Sans-serif;
                            font-size: 12px;
                            fill: #141000;
                            font-weight: bold;
                          }
    text.nonterminal      {font-family: Verdana, Sans-serif;
                            font-size: 12px;
                            fill: #1A1400;
                            font-weight: normal;
                          }
    text.regexp           {font-family: Verdana, Sans-serif;
                            font-size: 12px;
                            fill: #1F1800;
                            font-weight: normal;
                          }
    rect, circle, polygon {fill: #332900; stroke: #332900;}
    rect.terminal         {fill: #FFDB4D; stroke: #332900; stroke-width: 1;}
    rect.nonterminal      {fill: #FFEC9E; stroke: #332900; stroke-width: 1;}
    rect.text             {fill: none; stroke: none;}
    polygon.regexp        {fill: #FFF4C7; stroke: #332900; stroke-width: 1;}
  </style>
   </defs>
   <polygon points="9 17 1 13 1 21"/>
   <polygon points="17 17 9 13 9 21"/>
   <rect x="31" y="3" width="72" height="32" rx="10"/>
   <rect x="29"
          y="1"
          width="72"
          height="32"
          class="terminal"
          rx="10"/>
   <text class="terminal" x="39" y="21">CREATE</text>
   <rect x="123" y="3" width="66" height="32" rx="10"/>
   <rect x="121"
          y="1"
          width="66"
          height="32"
          class="terminal"
          rx="10"/>
   <text class="terminal" x="131" y="21">GRAPH</text>
   <a xmlns:xlink="http://www.w3.org/1999/xlink"
       xlink:href="#QualifiedName"
       xlink:title="QualifiedName">
      <rect x="209" y="3" width="112" height="32"/>
      <rect x="207" y="1" width="112" height="32" class="nonterminal"/>
      <text class="nonterminal" x="217" y="21">QualifiedName</text>
   </a>
   <rect x="361" y="35" width="34" height="32" rx="10"/>
   <rect x="359"
          y="33"
          width="34"
          height="32"
          class="terminal"
          rx="10"/>
   <text class="terminal" x="369" y="53">IF</text>
   <rect x="415" y="35" width="48" height="32" rx="10"/>
   <rect x="413"
          y="33"
          width="48"
          height="32"
          class="terminal"
          rx="10"/>
   <text class="terminal" x="423" y="53">NOT</text>
   <rect x="483" y="35" width="70" height="32" rx="10"/>
   <rect x="481"
          y="33"
          width="70"
          height="32"
          class="terminal"
          rx="10"/>
   <text class="terminal" x="491" y="53">EXISTS</text>
   <rect x="593" y="3" width="38" height="32" rx="10"/>
   <rect x="591"
          y="1"
          width="38"
          height="32"
          class="terminal"
          rx="10"/>
   <text class="terminal" x="601" y="21">AS</text>
   <a xmlns:xlink="http://www.w3.org/1999/xlink"
       xlink:href="#GraphConstructor"
       xlink:title="GraphConstructor">
      <rect x="651" y="3" width="132" height="32"/>
      <rect x="649" y="1" width="132" height="32" class="nonterminal"/>
      <text class="nonterminal" x="659" y="21">GraphConstructor</text>
   </a>
   <path class="line"
          d="m17 17 h2 m0 0 h10 m72 0 h10 m0 0 h10 m66 0 h10 m0 0 h10 m112 0 h10 m20 0 h10 m0 0 h202 m-232 0 h20 m212 0 h20 m-252 0 q10 0 10 10 m232 0 q0 -10 10 -10 m-242 10 v12 m232 0 v-12 m-232 12 q0 10 10 10 m212 0 q10 0 10 -10 m-222 10 h10 m34 0 h10 m0 0 h10 m48 0 h10 m0 0 h10 m70 0 h10 m20 -32 h10 m38 0 h10 m0 0 h10 m132 0 h10 m3 0 h-3"/>
   <polygon points="801 17 809 13 809 21"/>
   <polygon points="801 17 793 13 793 21"/>
</svg>
