<?xml version="1.0" encoding="UTF-8"?>
<svg xmlns="http://www.w3.org/2000/svg" width="227" height="301">
   <defs>
      <style type="text/css">
    @namespace "http://www.w3.org/2000/svg";
    .line                 {fill: none; stroke: #332900; stroke-width: 1;}
    .bold-line            {stroke: #141000; shape-rendering: crispEdges; stroke-width: 2;}
    .thin-line            {stroke: #1F1800; shape-rendering: crispEdges}
    .filled               {fill: #332900; stroke: none;}
    text.terminal         {font-family: Verdana, Sans-serif;
                            font-size: 12px;
                            fill: #141000;
                            font-weight: bold;
                          }
    text.nonterminal      {font-family: Verdana, Sans-serif;
                            font-size: 12px;
                            fill: #1A1400;
                            font-weight: normal;
                          }
    text.regexp           {font-family: Verdana, Sans-serif;
                            font-size: 12px;
                            fill: #1F1800;
                            font-weight: normal;
                          }
    rect, circle, polygon {fill: #332900; stroke: #332900;}
    rect.terminal         {fill: #FFDB4D; stroke: #332900; stroke-width: 1;}
    rect.nonterminal      {fill: #FFEC9E; stroke: #332900; stroke-width: 1;}
    rect.text             {fill: none; stroke: none;}
    polygon.regexp        {fill: #FFF4C7; stroke: #332900; stroke-width: 1;}
  </style>
   </defs>
   <polygon points="9 17 1 13 1 21"/>
   <polygon points="17 17 9 13 9 21"/>
   <a xmlns:xlink="http://www.w3.org/1999/xlink"
       xlink:href="#CreateDataverse"
       xlink:title="CreateDataverse">
      <rect x="51" y="3" width="128" height="32"/>
      <rect x="49" y="1" width="128" height="32" class="nonterminal"/>
      <text class="nonterminal" x="59" y="21">CreateDataverse</text>
   </a>
   <a xmlns:xlink="http://www.w3.org/1999/xlink"
       xlink:href="#CreateType"
       xlink:title="CreateType">
      <rect x="51" y="47" width="92" height="32"/>
      <rect x="49" y="45" width="92" height="32" class="nonterminal"/>
      <text class="nonterminal" x="59" y="65">CreateType</text>
   </a>
   <a xmlns:xlink="http://www.w3.org/1999/xlink"
       xlink:href="#CreateDataset"
       xlink:title="CreateDataset">
      <rect x="51" y="91" width="112" height="32"/>
      <rect x="49" y="89" width="112" height="32" class="nonterminal"/>
      <text class="nonterminal" x="59" y="109">CreateDataset</text>
   </a>
   <a xmlns:xlink="http://www.w3.org/1999/xlink"
       xlink:href="#CreateIndex"
       xlink:title="CreateIndex">
      <rect x="51" y="135" width="98" height="32"/>
      <rect x="49" y="133" width="98" height="32" class="nonterminal"/>
      <text class="nonterminal" x="59" y="153">CreateIndex</text>
   </a>
   <a xmlns:xlink="http://www.w3.org/1999/xlink"
       xlink:href="#CreateSynonym"
       xlink:title="CreateSynonym">
      <rect x="51" y="179" width="120" height="32"/>
      <rect x="49" y="177" width="120" height="32" class="nonterminal"/>
      <text class="nonterminal" x="59" y="197">CreateSynonym</text>
   </a>
   <a xmlns:xlink="http://www.w3.org/1999/xlink"
       xlink:href="#CreateFunction"
       xlink:title="CreateFunction">
      <rect x="51" y="223" width="116" height="32"/>
      <rect x="49" y="221" width="116" height="32" class="nonterminal"/>
      <text class="nonterminal" x="59" y="241">CreateFunction</text>
   </a>
   <a xmlns:xlink="http://www.w3.org/1999/xlink"
       xlink:href="#CreateGraph"
       xlink:title="CreateGraph">
      <rect x="51" y="267" width="102" height="32"/>
      <rect x="49" y="265" width="102" height="32" class="nonterminal"/>
      <text class="nonterminal" x="59" y="285">CreateGraph</text>
   </a>
   <path class="line"
          d="m17 17 h2 m20 0 h10 m128 0 h10 m-168 0 h20 m148 0 h20 m-188 0 q10 0 10 10 m168 0 q0 -10 10 -10 m-178 10 v24 m168 0 v-24 m-168 24 q0 10 10 10 m148 0 q10 0 10 -10 m-158 10 h10 m92 0 h10 m0 0 h36 m-158 -10 v20 m168 0 v-20 m-168 20 v24 m168 0 v-24 m-168 24 q0 10 10 10 m148 0 q10 0 10 -10 m-158 10 h10 m112 0 h10 m0 0 h16 m-158 -10 v20 m168 0 v-20 m-168 20 v24 m168 0 v-24 m-168 24 q0 10 10 10 m148 0 q10 0 10 -10 m-158 10 h10 m98 0 h10 m0 0 h30 m-158 -10 v20 m168 0 v-20 m-168 20 v24 m168 0 v-24 m-168 24 q0 10 10 10 m148 0 q10 0 10 -10 m-158 10 h10 m120 0 h10 m0 0 h8 m-158 -10 v20 m168 0 v-20 m-168 20 v24 m168 0 v-24 m-168 24 q0 10 10 10 m148 0 q10 0 10 -10 m-158 10 h10 m116 0 h10 m0 0 h12 m-158 -10 v20 m168 0 v-20 m-168 20 v24 m168 0 v-24 m-168 24 q0 10 10 10 m148 0 q10 0 10 -10 m-158 10 h10 m102 0 h10 m0 0 h26 m23 -264 h-3"/>
   <polygon points="217 17 225 13 225 21"/>
   <polygon points="217 17 209 13 209 21"/>
</svg>
