<svg xmlns="http://www.w3.org/2000/svg" width="535" height="37">         <defs>            <style type="text/css">    @namespace "http://www.w3.org/2000/svg";    .line                 {fill: none; stroke: #332900; stroke-width: 1;}    .bold-line            {stroke: #141000; shape-rendering: crispEdges; stroke-width: 2;}    .thin-line            {stroke: #1F1800; shape-rendering: crispEdges}    .filled               {fill: #332900; stroke: none;}    text.terminal         {font-family: Verdana, Sans-serif;                            font-size: 12px;                            fill: #141000;                            font-weight: bold;                          }    text.nonterminal      {font-family: Verdana, Sans-serif;                            font-size: 12px;                            fill: #1A1400;                            font-weight: normal;                          }    text.regexp           {font-family: Verdana, Sans-serif;                            font-size: 12px;                            fill: #1F1800;                            font-weight: normal;                          }    rect, circle, polygon {fill: #332900; stroke: #332900;}    rect.terminal         {fill: #FFDB4D; stroke: #332900; stroke-width: 1;}    rect.nonterminal      {fill: #FFEC9E; stroke: #332900; stroke-width: 1;}    rect.text             {fill: none; stroke: none;}    polygon.regexp        {fill: #FFF4C7; stroke: #332900; stroke-width: 1;}  </style>         </defs>         <polygon points="9 17 1 13 1 21"/>         <polygon points="17 17 9 13 9 21"/>         <rect x="31" y="3" width="82" height="32" rx="10"/>         <rect x="29" y="1" width="82" height="32" class="terminal" rx="10"/>         <text class="terminal" x="39" y="21">DECLARE</text>         <rect x="133" y="3" width="66" height="32" rx="10"/>         <rect x="131" y="1" width="66" height="32" class="terminal" rx="10"/>         <text class="terminal" x="141" y="21">GRAPH</text><a xmlns:xlink="http://www.w3.org/1999/xlink" xlink:href="#Identifier" xlink:title="Identifier">            <rect x="219" y="3" width="78" height="32"/>            <rect x="217" y="1" width="78" height="32" class="nonterminal"/>            <text class="nonterminal" x="227" y="21">Identifier</text></a><rect x="317" y="3" width="38" height="32" rx="10"/>         <rect x="315" y="1" width="38" height="32" class="terminal" rx="10"/>         <text class="terminal" x="325" y="21">AS</text><a xmlns:xlink="http://www.w3.org/1999/xlink" xlink:href="#GraphConstructor" xlink:title="GraphConstructor">            <rect x="375" y="3" width="132" height="32"/>            <rect x="373" y="1" width="132" height="32" class="nonterminal"/>            <text class="nonterminal" x="383" y="21">GraphConstructor</text></a><svg:path xmlns:svg="http://www.w3.org/2000/svg" class="line" d="m17 17 h2 m0 0 h10 m82 0 h10 m0 0 h10 m66 0 h10 m0 0 h10 m78 0 h10 m0 0 h10 m38 0 h10 m0 0 h10 m132 0 h10 m3 0 h-3"/>         <polygon points="525 17 533 13 533 21"/>         <polygon points="525 17 517 13 517 21"/></svg>