<svg xmlns="http://www.w3.org/2000/svg" width="769" height="101">         <defs>            <style type="text/css">    @namespace "http://www.w3.org/2000/svg";    .line                 {fill: none; stroke: #333300; stroke-width: 1;}    .bold-line            {stroke: #141400; shape-rendering: crispEdges; stroke-width: 2;}    .thin-line            {stroke: #1F1F00; shape-rendering: crispEdges}    .filled               {fill: #333300; stroke: none;}    text.terminal         {font-family: Verdana, Sans-serif;                            font-size: 12px;                            fill: #141400;                            font-weight: bold;                          }    text.nonterminal      {font-family: Verdana, Sans-serif;                            font-size: 12px;                            fill: #1A1A00;                            font-weight: normal;                          }    text.regexp           {font-family: Verdana, Sans-serif;                            font-size: 12px;                            fill: #1F1F00;                            font-weight: normal;                          }    rect, circle, polygon {fill: #333300; stroke: #333300;}    rect.terminal         {fill: #FFFF4D; stroke: #333300; stroke-width: 1;}    rect.nonterminal      {fill: #FFFF9E; stroke: #333300; stroke-width: 1;}    rect.text             {fill: none; stroke: none;}    polygon.regexp        {fill: #FFFFC7; stroke: #333300; stroke-width: 1;}  </style>         </defs>         <polygon points="9 17 1 13 1 21"/>         <polygon points="17 17 9 13 9 21"/>         <rect x="31" y="3" width="70" height="32" rx="10"/>         <rect x="29" y="1" width="70" height="32" class="terminal" rx="10"/>         <text class="terminal" x="39" y="21">DELETE</text>         <rect x="121" y="3" width="60" height="32" rx="10"/>         <rect x="119" y="1" width="60" height="32" class="terminal" rx="10"/>         <text class="terminal" x="129" y="21">FROM</text><a xmlns:xlink="http://www.w3.org/1999/xlink" xlink:href="#QualifiedName" xlink:title="QualifiedName">            <rect x="201" y="3" width="112" height="32"/>            <rect x="199" y="1" width="112" height="32" class="nonterminal"/>            <text class="nonterminal" x="209" y="21">QualifiedName</text></a><rect x="373" y="67" width="38" height="32" rx="10"/>         <rect x="371" y="65" width="38" height="32" class="terminal" rx="10"/>         <text class="terminal" x="381" y="85">AS</text><a xmlns:xlink="http://www.w3.org/1999/xlink" xlink:href="#Variable" xlink:title="Variable">            <rect x="451" y="35" width="72" height="32"/>            <rect x="449" y="33" width="72" height="32" class="nonterminal"/>            <text class="nonterminal" x="459" y="53">Variable</text></a><rect x="583" y="35" width="70" height="32" rx="10"/>         <rect x="581" y="33" width="70" height="32" class="terminal" rx="10"/>         <text class="terminal" x="591" y="53">WHERE</text><a xmlns:xlink="http://www.w3.org/1999/xlink" xlink:href="#Expr" xlink:title="Expr">            <rect x="673" y="35" width="48" height="32"/>            <rect x="671" y="33" width="48" height="32" class="nonterminal"/>            <text class="nonterminal" x="681" y="53">Expr</text></a><svg:path xmlns:svg="http://www.w3.org/2000/svg" class="line" d="m17 17 h2 m0 0 h10 m70 0 h10 m0 0 h10 m60 0 h10 m0 0 h10 m112 0 h10 m20 0 h10 m0 0 h180 m-210 0 h20 m190 0 h20 m-230 0 q10 0 10 10 m210 0 q0 -10 10 -10 m-220 10 v12 m210 0 v-12 m-210 12 q0 10 10 10 m190 0 q10 0 10 -10 m-180 10 h10 m0 0 h48 m-78 0 h20 m58 0 h20 m-98 0 q10 0 10 10 m78 0 q0 -10 10 -10 m-88 10 v12 m78 0 v-12 m-78 12 q0 10 10 10 m58 0 q10 0 10 -10 m-68 10 h10 m38 0 h10 m20 -32 h10 m72 0 h10 m40 -32 h10 m0 0 h148 m-178 0 h20 m158 0 h20 m-198 0 q10 0 10 10 m178 0 q0 -10 10 -10 m-188 10 v12 m178 0 v-12 m-178 12 q0 10 10 10 m158 0 q10 0 10 -10 m-168 10 h10 m70 0 h10 m0 0 h10 m48 0 h10 m23 -32 h-3"/>         <polygon points="759 17 767 13 767 21"/>         <polygon points="759 17 751 13 751 21"/></svg>