<svg xmlns="http://www.w3.org/2000/svg" width="621" height="345">         <defs>            <style type="text/css">    @namespace "http://www.w3.org/2000/svg";    .line                 {fill: none; stroke: #333300; stroke-width: 1;}    .bold-line            {stroke: #141400; shape-rendering: crispEdges; stroke-width: 2;}    .thin-line            {stroke: #1F1F00; shape-rendering: crispEdges}    .filled               {fill: #333300; stroke: none;}    text.terminal         {font-family: Verdana, Sans-serif;                            font-size: 12px;                            fill: #141400;                            font-weight: bold;                          }    text.nonterminal      {font-family: Verdana, Sans-serif;                            font-size: 12px;                            fill: #1A1A00;                            font-weight: normal;                          }    text.regexp           {font-family: Verdana, Sans-serif;                            font-size: 12px;                            fill: #1F1F00;                            font-weight: normal;                          }    rect, circle, polygon {fill: #333300; stroke: #333300;}    rect.terminal         {fill: #FFFF4D; stroke: #333300; stroke-width: 1;}    rect.nonterminal      {fill: #FFFF9E; stroke: #333300; stroke-width: 1;}    rect.text             {fill: none; stroke: none;}    polygon.regexp        {fill: #FFFFC7; stroke: #333300; stroke-width: 1;}  </style>         </defs>         <polygon points="9 17 1 13 1 21"/>         <polygon points="17 17 9 13 9 21"/>         <rect x="31" y="3" width="58" height="32" rx="10"/>         <rect x="29" y="1" width="58" height="32" class="terminal" rx="10"/>         <text class="terminal" x="39" y="21">DROP</text>         <rect x="129" y="3" width="100" height="32" rx="10"/>         <rect x="127" y="1" width="100" height="32" class="terminal" rx="10"/>         <text class="terminal" x="137" y="21">DATAVERSE</text><a xmlns:xlink="http://www.w3.org/1999/xlink" xlink:href="#DataverseName" xlink:title="DataverseName">            <rect x="249" y="3" width="122" height="32"/>            <rect x="247" y="1" width="122" height="32" class="nonterminal"/>            <text class="nonterminal" x="257" y="21">DataverseName</text></a><rect x="149" y="47" width="54" height="32" rx="10"/>         <rect x="147" y="45" width="54" height="32" class="terminal" rx="10"/>         <text class="terminal" x="157" y="65">TYPE</text>         <rect x="149" y="91" width="82" height="32" rx="10"/>         <rect x="147" y="89" width="82" height="32" class="terminal" rx="10"/>         <text class="terminal" x="157" y="109">DATASET</text>         <rect x="149" y="135" width="88" height="32" rx="10"/>         <rect x="147" y="133" width="88" height="32" class="terminal" rx="10"/>         <text class="terminal" x="157" y="153">SYNONYM</text>         <rect x="149" y="179" width="58" height="32" rx="10"/>         <rect x="147" y="177" width="58" height="32" class="terminal" rx="10"/>         <text class="terminal" x="157" y="197">VIEW</text>         <rect x="149" y="223" width="66" height="32" rx="10"/>         <rect x="147" y="221" width="66" height="32" class="terminal" rx="10"/>         <text class="terminal" x="157" y="241">GRAPH</text><a xmlns:xlink="http://www.w3.org/1999/xlink" xlink:href="#QualifiedName" xlink:title="QualifiedName">            <rect x="277" y="47" width="112" height="32"/>            <rect x="275" y="45" width="112" height="32" class="nonterminal"/>            <text class="nonterminal" x="285" y="65">QualifiedName</text></a><rect x="129" y="267" width="64" height="32" rx="10"/>         <rect x="127" y="265" width="64" height="32" class="terminal" rx="10"/>         <text class="terminal" x="137" y="285">INDEX</text><a xmlns:xlink="http://www.w3.org/1999/xlink" xlink:href="#DoubleQualifiedName" xlink:title="DoubleQualifiedName">            <rect x="213" y="267" width="156" height="32"/>            <rect x="211" y="265" width="156" height="32" class="nonterminal"/>            <text class="nonterminal" x="221" y="285">DoubleQualifiedName</text></a><rect x="129" y="311" width="92" height="32" rx="10"/>         <rect x="127" y="309" width="92" height="32" class="terminal" rx="10"/>         <text class="terminal" x="137" y="329">FUNCTION</text><a xmlns:xlink="http://www.w3.org/1999/xlink" xlink:href="#FunctionSignature" xlink:title="FunctionSignature">            <rect x="241" y="311" width="134" height="32"/>            <rect x="239" y="309" width="134" height="32" class="nonterminal"/>            <text class="nonterminal" x="249" y="329">FunctionSignature</text></a><rect x="449" y="35" width="34" height="32" rx="10"/>         <rect x="447" y="33" width="34" height="32" class="terminal" rx="10"/>         <text class="terminal" x="457" y="53">IF</text>         <rect x="503" y="35" width="70" height="32" rx="10"/>         <rect x="501" y="33" width="70" height="32" class="terminal" rx="10"/>         <text class="terminal" x="511" y="53">EXISTS</text>         <svg:path xmlns:svg="http://www.w3.org/2000/svg" class="line" d="m17 17 h2 m0 0 h10 m58 0 h10 m20 0 h10 m100 0 h10 m0 0 h10 m122 0 h10 m0 0 h18 m-300 0 h20 m280 0 h20 m-320 0 q10 0 10 10 m300 0 q0 -10 10 -10 m-310 10 v24 m300 0 v-24 m-300 24 q0 10 10 10 m280 0 q10 0 10 -10 m-270 10 h10 m54 0 h10 m0 0 h34 m-128 0 h20 m108 0 h20 m-148 0 q10 0 10 10 m128 0 q0 -10 10 -10 m-138 10 v24 m128 0 v-24 m-128 24 q0 10 10 10 m108 0 q10 0 10 -10 m-118 10 h10 m82 0 h10 m0 0 h6 m-118 -10 v20 m128 0 v-20 m-128 20 v24 m128 0 v-24 m-128 24 q0 10 10 10 m108 0 q10 0 10 -10 m-118 10 h10 m88 0 h10 m-118 -10 v20 m128 0 v-20 m-128 20 v24 m128 0 v-24 m-128 24 q0 10 10 10 m108 0 q10 0 10 -10 m-118 10 h10 m58 0 h10 m0 0 h30 m-118 -10 v20 m128 0 v-20 m-128 20 v24 m128 0 v-24 m-128 24 q0 10 10 10 m108 0 q10 0 10 -10 m-118 10 h10 m66 0 h10 m0 0 h22 m20 -176 h10 m112 0 h10 m-290 -10 v20 m300 0 v-20 m-300 20 v200 m300 0 v-200 m-300 200 q0 10 10 10 m280 0 q10 0 10 -10 m-290 10 h10 m64 0 h10 m0 0 h10 m156 0 h10 m0 0 h20 m-290 -10 v20 m300 0 v-20 m-300 20 v24 m300 0 v-24 m-300 24 q0 10 10 10 m280 0 q10 0 10 -10 m-290 10 h10 m92 0 h10 m0 0 h10 m134 0 h10 m0 0 h14 m40 -308 h10 m0 0 h134 m-164 0 h20 m144 0 h20 m-184 0 q10 0 10 10 m164 0 q0 -10 10 -10 m-174 10 v12 m164 0 v-12 m-164 12 q0 10 10 10 m144 0 q10 0 10 -10 m-154 10 h10 m34 0 h10 m0 0 h10 m70 0 h10 m23 -32 h-3"/>         <polygon points="611 17 619 13 619 21"/>         <polygon points="611 17 603 13 603 21"/></svg>