<svg xmlns="http://www.w3.org/2000/svg" width="451" height="201">         <defs>            <style type="text/css">    @namespace "http://www.w3.org/2000/svg";    .line                 {fill: none; stroke: #332900; stroke-width: 1;}    .bold-line            {stroke: #141000; shape-rendering: crispEdges; stroke-width: 2;}    .thin-line            {stroke: #1F1800; shape-rendering: crispEdges}    .filled               {fill: #332900; stroke: none;}    text.terminal         {font-family: Verdana, Sans-serif;                            font-size: 12px;                            fill: #141000;                            font-weight: bold;                          }    text.nonterminal      {font-family: Verdana, Sans-serif;                            font-size: 12px;                            fill: #1A1400;                            font-weight: normal;                          }    text.regexp           {font-family: Verdana, Sans-serif;                            font-size: 12px;                            fill: #1F1800;                            font-weight: normal;                          }    rect, circle, polygon {fill: #332900; stroke: #332900;}    rect.terminal         {fill: #FFDB4D; stroke: #332900; stroke-width: 1;}    rect.nonterminal      {fill: #FFEC9E; stroke: #332900; stroke-width: 1;}    rect.text             {fill: none; stroke: none;}    polygon.regexp        {fill: #FFF4C7; stroke: #332900; stroke-width: 1;}  </style>         </defs>         <polygon points="9 17 1 13 1 21"/>         <polygon points="17 17 9 13 9 21"/><a xmlns:xlink="http://www.w3.org/1999/xlink" xlink:href="#RepetitionQuantifier" xlink:title="RepetitionQuantifier">            <rect x="51" y="3" width="146" height="32"/>            <rect x="49" y="1" width="146" height="32" class="nonterminal"/>            <text class="nonterminal" x="59" y="21">RepetitionQuantifier</text></a><a xmlns:xlink="http://www.w3.org/1999/xlink" xlink:href="#LabelSetDetail" xlink:title="LabelSetDetail">            <rect x="51" y="47" width="112" height="32"/>            <rect x="49" y="45" width="112" height="32" class="nonterminal"/>            <text class="nonterminal" x="59" y="65">LabelSetDetail</text></a><a xmlns:xlink="http://www.w3.org/1999/xlink" xlink:href="#RepetitionQuantifier" xlink:title="RepetitionQuantifier">            <rect x="203" y="79" width="146" height="32"/>            <rect x="201" y="77" width="146" height="32" class="nonterminal"/>            <text class="nonterminal" x="211" y="97">RepetitionQuantifier</text></a><rect x="203" y="123" width="70" height="32" rx="10"/>         <rect x="201" y="121" width="70" height="32" class="terminal" rx="10"/>         <text class="terminal" x="211" y="141">WHERE</text><a xmlns:xlink="http://www.w3.org/1999/xlink" xlink:href="#Expression" xlink:title="Expression">            <rect x="293" y="123" width="90" height="32"/>            <rect x="291" y="121" width="90" height="32" class="nonterminal"/>            <text class="nonterminal" x="301" y="141">Expression</text></a><rect x="51" y="167" width="70" height="32" rx="10"/>         <rect x="49" y="165" width="70" height="32" class="terminal" rx="10"/>         <text class="terminal" x="59" y="185">WHERE</text><a xmlns:xlink="http://www.w3.org/1999/xlink" xlink:href="#Expression" xlink:title="Expression">            <rect x="141" y="167" width="90" height="32"/>            <rect x="139" y="165" width="90" height="32" class="nonterminal"/>            <text class="nonterminal" x="149" y="185">Expression</text></a><svg:path xmlns:svg="http://www.w3.org/2000/svg" class="line" d="m17 17 h2 m20 0 h10 m146 0 h10 m0 0 h206 m-392 0 h20 m372 0 h20 m-412 0 q10 0 10 10 m392 0 q0 -10 10 -10 m-402 10 v24 m392 0 v-24 m-392 24 q0 10 10 10 m372 0 q10 0 10 -10 m-382 10 h10 m112 0 h10 m20 0 h10 m0 0 h190 m-220 0 h20 m200 0 h20 m-240 0 q10 0 10 10 m220 0 q0 -10 10 -10 m-230 10 v12 m220 0 v-12 m-220 12 q0 10 10 10 m200 0 q10 0 10 -10 m-210 10 h10 m146 0 h10 m0 0 h34 m-210 -10 v20 m220 0 v-20 m-220 20 v24 m220 0 v-24 m-220 24 q0 10 10 10 m200 0 q10 0 10 -10 m-210 10 h10 m70 0 h10 m0 0 h10 m90 0 h10 m-362 -86 v20 m392 0 v-20 m-392 20 v100 m392 0 v-100 m-392 100 q0 10 10 10 m372 0 q10 0 10 -10 m-382 10 h10 m70 0 h10 m0 0 h10 m90 0 h10 m0 0 h172 m23 -164 h-3"/>         <polygon points="441 17 449 13 449 21"/>         <polygon points="441 17 433 13 433 21"/></svg>