<?xml version="1.0" encoding="UTF-8"?>
<svg xmlns="http://www.w3.org/2000/svg" width="895" height="81">
   <defs>
      <style type="text/css">
    @namespace "http://www.w3.org/2000/svg";
    .line                 {fill: none; stroke: #332900; stroke-width: 1;}
    .bold-line            {stroke: #141000; shape-rendering: crispEdges; stroke-width: 2;}
    .thin-line            {stroke: #1F1800; shape-rendering: crispEdges}
    .filled               {fill: #332900; stroke: none;}
    text.terminal         {font-family: Verdana, Sans-serif;
                            font-size: 12px;
                            fill: #141000;
                            font-weight: bold;
                          }
    text.nonterminal      {font-family: Verdana, Sans-serif;
                            font-size: 12px;
                            fill: #1A1400;
                            font-weight: normal;
                          }
    text.regexp           {font-family: Verdana, Sans-serif;
                            font-size: 12px;
                            fill: #1F1800;
                            font-weight: normal;
                          }
    rect, circle, polygon {fill: #332900; stroke: #332900;}
    rect.terminal         {fill: #FFDB4D; stroke: #332900; stroke-width: 1;}
    rect.nonterminal      {fill: #FFEC9E; stroke: #332900; stroke-width: 1;}
    rect.text             {fill: none; stroke: none;}
    polygon.regexp        {fill: #FFF4C7; stroke: #332900; stroke-width: 1;}
  </style>
   </defs>
   <polygon points="9 61 1 57 1 65"/>
   <polygon points="17 61 9 57 9 65"/>
   <rect x="31" y="47" width="76" height="32" rx="10"/>
   <rect x="29"
          y="45"
          width="76"
          height="32"
          class="terminal"
          rx="10"/>
   <text class="terminal" x="39" y="65">SOURCE</text>
   <rect x="127" y="47" width="46" height="32" rx="10"/>
   <rect x="125"
          y="45"
          width="46"
          height="32"
          class="terminal"
          rx="10"/>
   <text class="terminal" x="135" y="65">KEY</text>
   <rect x="193" y="47" width="26" height="32" rx="10"/>
   <rect x="191"
          y="45"
          width="26"
          height="32"
          class="terminal"
          rx="10"/>
   <text class="terminal" x="201" y="65">(</text>
   <a xmlns:xlink="http://www.w3.org/1999/xlink"
       xlink:href="#NestedField"
       xlink:title="NestedField">
      <rect x="259" y="47" width="94" height="32"/>
      <rect x="257" y="45" width="94" height="32" class="nonterminal"/>
      <text class="nonterminal" x="267" y="65">NestedField</text>
   </a>
   <rect x="259" y="3" width="24" height="32" rx="10"/>
   <rect x="257"
          y="1"
          width="24"
          height="32"
          class="terminal"
          rx="10"/>
   <text class="terminal" x="267" y="21">,</text>
   <rect x="393" y="47" width="26" height="32" rx="10"/>
   <rect x="391"
          y="45"
          width="26"
          height="32"
          class="terminal"
          rx="10"/>
   <text class="terminal" x="401" y="65">)</text>
   <rect x="439" y="47" width="116" height="32" rx="10"/>
   <rect x="437"
          y="45"
          width="116"
          height="32"
          class="terminal"
          rx="10"/>
   <text class="terminal" x="447" y="65">DESTINATION</text>
   <rect x="575" y="47" width="46" height="32" rx="10"/>
   <rect x="573"
          y="45"
          width="46"
          height="32"
          class="terminal"
          rx="10"/>
   <text class="terminal" x="583" y="65">KEY</text>
   <rect x="641" y="47" width="26" height="32" rx="10"/>
   <rect x="639"
          y="45"
          width="26"
          height="32"
          class="terminal"
          rx="10"/>
   <text class="terminal" x="649" y="65">(</text>
   <a xmlns:xlink="http://www.w3.org/1999/xlink"
       xlink:href="#NestedField"
       xlink:title="NestedField">
      <rect x="707" y="47" width="94" height="32"/>
      <rect x="705" y="45" width="94" height="32" class="nonterminal"/>
      <text class="nonterminal" x="715" y="65">NestedField</text>
   </a>
   <rect x="707" y="3" width="24" height="32" rx="10"/>
   <rect x="705"
          y="1"
          width="24"
          height="32"
          class="terminal"
          rx="10"/>
   <text class="terminal" x="715" y="21">,</text>
   <rect x="841" y="47" width="26" height="32" rx="10"/>
   <rect x="839"
          y="45"
          width="26"
          height="32"
          class="terminal"
          rx="10"/>
   <text class="terminal" x="849" y="65">)</text>
   <path class="line"
          d="m17 61 h2 m0 0 h10 m76 0 h10 m0 0 h10 m46 0 h10 m0 0 h10 m26 0 h10 m20 0 h10 m94 0 h10 m-134 0 l20 0 m-1 0 q-9 0 -9 -10 l0 -24 q0 -10 10 -10 m114 44 l20 0 m-20 0 q10 0 10 -10 l0 -24 q0 -10 -10 -10 m-114 0 h10 m24 0 h10 m0 0 h70 m20 44 h10 m26 0 h10 m0 0 h10 m116 0 h10 m0 0 h10 m46 0 h10 m0 0 h10 m26 0 h10 m20 0 h10 m94 0 h10 m-134 0 l20 0 m-1 0 q-9 0 -9 -10 l0 -24 q0 -10 10 -10 m114 44 l20 0 m-20 0 q10 0 10 -10 l0 -24 q0 -10 -10 -10 m-114 0 h10 m24 0 h10 m0 0 h70 m20 44 h10 m26 0 h10 m3 0 h-3"/>
   <polygon points="885 61 893 57 893 65"/>
   <polygon points="885 61 877 57 877 65"/>
</svg>
