<svg xmlns="http://www.w3.org/2000/svg" width="673" height="209">         <defs>            <style type="text/css">    @namespace "http://www.w3.org/2000/svg";    .line                 {fill: none; stroke: #332900; stroke-width: 1;}    .bold-line            {stroke: #141000; shape-rendering: crispEdges; stroke-width: 2;}    .thin-line            {stroke: #1F1800; shape-rendering: crispEdges}    .filled               {fill: #332900; stroke: none;}    text.terminal         {font-family: Verdana, Sans-serif;                            font-size: 12px;                            fill: #141000;                            font-weight: bold;                          }    text.nonterminal      {font-family: Verdana, Sans-serif;                            font-size: 12px;                            fill: #1A1400;                            font-weight: normal;                          }    text.regexp           {font-family: Verdana, Sans-serif;                            font-size: 12px;                            fill: #1F1800;                            font-weight: normal;                          }    rect, circle, polygon {fill: #332900; stroke: #332900;}    rect.terminal         {fill: #FFDB4D; stroke: #332900; stroke-width: 1;}    rect.nonterminal      {fill: #FFEC9E; stroke: #332900; stroke-width: 1;}    rect.text             {fill: none; stroke: none;}    polygon.regexp        {fill: #FFF4C7; stroke: #332900; stroke-width: 1;}  </style>         </defs>         <polygon points="9 17 1 13 1 21"/>         <polygon points="17 17 9 13 9 21"/>         <rect x="51" y="3" width="26" height="32" rx="10"/>         <rect x="49" y="1" width="26" height="32" class="terminal" rx="10"/>         <text class="terminal" x="59" y="21">-</text>         <rect x="117" y="35" width="26" height="32" rx="10"/>         <rect x="115" y="33" width="26" height="32" class="terminal" rx="10"/>         <text class="terminal" x="125" y="53">[</text><a xmlns:xlink="http://www.w3.org/1999/xlink" xlink:href="#Variable" xlink:title="Variable">            <rect x="183" y="67" width="72" height="32"/>            <rect x="181" y="65" width="72" height="32" class="nonterminal"/>            <text class="nonterminal" x="191" y="85">Variable</text></a><a xmlns:xlink="http://www.w3.org/1999/xlink" xlink:href="#EdgeDetail" xlink:title="EdgeDetail">            <rect x="315" y="67" width="88" height="32"/>            <rect x="313" y="65" width="88" height="32" class="nonterminal"/>            <text class="nonterminal" x="323" y="85">EdgeDetail</text></a><rect x="443" y="35" width="26" height="32" rx="10"/>         <rect x="441" y="33" width="26" height="32" class="terminal" rx="10"/>         <text class="terminal" x="451" y="53">]</text>         <rect x="489" y="35" width="26" height="32" rx="10"/>         <rect x="487" y="33" width="26" height="32" class="terminal" rx="10"/>         <text class="terminal" x="497" y="53">-</text>         <rect x="575" y="35" width="30" height="32" rx="10"/>         <rect x="573" y="33" width="30" height="32" class="terminal" rx="10"/>         <text class="terminal" x="583" y="53">&gt;</text>         <rect x="51" y="111" width="30" height="32" rx="10"/>         <rect x="49" y="109" width="30" height="32" class="terminal" rx="10"/>         <text class="terminal" x="59" y="129">&lt;</text>         <rect x="101" y="111" width="26" height="32" rx="10"/>         <rect x="99" y="109" width="26" height="32" class="terminal" rx="10"/>         <text class="terminal" x="109" y="129">-</text>         <rect x="167" y="143" width="26" height="32" rx="10"/>         <rect x="165" y="141" width="26" height="32" class="terminal" rx="10"/>         <text class="terminal" x="175" y="161">[</text><a xmlns:xlink="http://www.w3.org/1999/xlink" xlink:href="#Variable" xlink:title="Variable">            <rect x="233" y="175" width="72" height="32"/>            <rect x="231" y="173" width="72" height="32" class="nonterminal"/>            <text class="nonterminal" x="241" y="193">Variable</text></a><a xmlns:xlink="http://www.w3.org/1999/xlink" xlink:href="#EdgeDetail" xlink:title="EdgeDetail">            <rect x="365" y="175" width="88" height="32"/>            <rect x="363" y="173" width="88" height="32" class="nonterminal"/>            <text class="nonterminal" x="373" y="193">EdgeDetail</text></a><rect x="493" y="143" width="26" height="32" rx="10"/>         <rect x="491" y="141" width="26" height="32" class="terminal" rx="10"/>         <text class="terminal" x="501" y="161">]</text>         <rect x="539" y="143" width="26" height="32" rx="10"/>         <rect x="537" y="141" width="26" height="32" class="terminal" rx="10"/>         <text class="terminal" x="547" y="161">-</text>         <svg:path xmlns:svg="http://www.w3.org/2000/svg" class="line" d="m17 17 h2 m20 0 h10 m26 0 h10 m20 0 h10 m0 0 h408 m-438 0 h20 m418 0 h20 m-458 0 q10 0 10 10 m438 0 q0 -10 10 -10 m-448 10 v12 m438 0 v-12 m-438 12 q0 10 10 10 m418 0 q10 0 10 -10 m-428 10 h10 m26 0 h10 m20 0 h10 m0 0 h82 m-112 0 h20 m92 0 h20 m-132 0 q10 0 10 10 m112 0 q0 -10 10 -10 m-122 10 v12 m112 0 v-12 m-112 12 q0 10 10 10 m92 0 q10 0 10 -10 m-102 10 h10 m72 0 h10 m40 -32 h10 m0 0 h98 m-128 0 h20 m108 0 h20 m-148 0 q10 0 10 10 m128 0 q0 -10 10 -10 m-138 10 v12 m128 0 v-12 m-128 12 q0 10 10 10 m108 0 q10 0 10 -10 m-118 10 h10 m88 0 h10 m20 -32 h10 m26 0 h10 m0 0 h10 m26 0 h10 m40 -32 h10 m0 0 h40 m-70 0 h20 m50 0 h20 m-90 0 q10 0 10 10 m70 0 q0 -10 10 -10 m-80 10 v12 m70 0 v-12 m-70 12 q0 10 10 10 m50 0 q10 0 10 -10 m-60 10 h10 m30 0 h10 m-594 -32 h20 m594 0 h20 m-634 0 q10 0 10 10 m614 0 q0 -10 10 -10 m-624 10 v88 m614 0 v-88 m-614 88 q0 10 10 10 m594 0 q10 0 10 -10 m-604 10 h10 m30 0 h10 m0 0 h10 m26 0 h10 m20 0 h10 m0 0 h408 m-438 0 h20 m418 0 h20 m-458 0 q10 0 10 10 m438 0 q0 -10 10 -10 m-448 10 v12 m438 0 v-12 m-438 12 q0 10 10 10 m418 0 q10 0 10 -10 m-428 10 h10 m26 0 h10 m20 0 h10 m0 0 h82 m-112 0 h20 m92 0 h20 m-132 0 q10 0 10 10 m112 0 q0 -10 10 -10 m-122 10 v12 m112 0 v-12 m-112 12 q0 10 10 10 m92 0 q10 0 10 -10 m-102 10 h10 m72 0 h10 m40 -32 h10 m0 0 h98 m-128 0 h20 m108 0 h20 m-148 0 q10 0 10 10 m128 0 q0 -10 10 -10 m-138 10 v12 m128 0 v-12 m-128 12 q0 10 10 10 m108 0 q10 0 10 -10 m-118 10 h10 m88 0 h10 m20 -32 h10 m26 0 h10 m0 0 h10 m26 0 h10 m20 -32 h40 m23 -108 h-3"/>         <polygon points="663 17 671 13 671 21"/>         <polygon points="663 17 655 13 655 21"/></svg>