<?xml version="1.0" encoding="UTF-8"?>
<svg xmlns="http://www.w3.org/2000/svg" width="827" height="81">
   <defs>
      <style type="text/css">
    @namespace "http://www.w3.org/2000/svg";
    .line                 {fill: none; stroke: #332200; stroke-width: 1;}
    .bold-line            {stroke: #140E00; shape-rendering: crispEdges; stroke-width: 2;}
    .thin-line            {stroke: #1F1400; shape-rendering: crispEdges}
    .filled               {fill: #332200; stroke: none;}
    text.terminal         {font-family: Verdana, Sans-serif;
                            font-size: 12px;
                            fill: #140E00;
                            font-weight: bold;
                          }
    text.nonterminal      {font-family: Verdana, Sans-serif;
                            font-size: 12px;
                            fill: #1A1100;
                            font-weight: normal;
                          }
    text.regexp           {font-family: Verdana, Sans-serif;
                            font-size: 12px;
                            fill: #1F1400;
                            font-weight: normal;
                          }
    rect, circle, polygon {fill: #332200; stroke: #332200;}
    rect.terminal         {fill: #FFC34D; stroke: #332200; stroke-width: 1;}
    rect.nonterminal      {fill: #FFDF9E; stroke: #332200; stroke-width: 1;}
    rect.text             {fill: none; stroke: none;}
    polygon.regexp        {fill: #FFECC7; stroke: #332200; stroke-width: 1;}
  </style>
   </defs>
   <polygon points="9 17 1 13 1 21"/>
   <polygon points="17 17 9 13 9 21"/>
   <rect x="31" y="3" width="56" height="32" rx="10"/>
   <rect x="29"
          y="1"
          width="56"
          height="32"
          class="terminal"
          rx="10"/>
   <text class="terminal" x="39" y="21">EDGE</text>
   <a xmlns:xlink="http://www.w3.org/1999/xlink"
       xlink:href="#VertexDefinition"
       xlink:title="VertexDefinition">
      <rect x="107" y="3" width="122" height="32"/>
      <rect x="105" y="1" width="122" height="32" class="nonterminal"/>
      <text class="nonterminal" x="115" y="21">VertexDefinition</text>
   </a>
   <rect x="269" y="3" width="26" height="32" rx="10"/>
   <rect x="267"
          y="1"
          width="26"
          height="32"
          class="terminal"
          rx="10"/>
   <text class="terminal" x="277" y="21">-</text>
   <rect x="315" y="3" width="26" height="32" rx="10"/>
   <rect x="313"
          y="1"
          width="26"
          height="32"
          class="terminal"
          rx="10"/>
   <text class="terminal" x="323" y="21">[</text>
   <rect x="361" y="3" width="24" height="32" rx="10"/>
   <rect x="359"
          y="1"
          width="24"
          height="32"
          class="terminal"
          rx="10"/>
   <text class="terminal" x="369" y="21">:</text>
   <a xmlns:xlink="http://www.w3.org/1999/xlink"
       xlink:href="#LabelName"
       xlink:title="LabelName">
      <rect x="405" y="3" width="90" height="32"/>
      <rect x="403" y="1" width="90" height="32" class="nonterminal"/>
      <text class="nonterminal" x="413" y="21">LabelName</text>
   </a>
   <rect x="515" y="3" width="26" height="32" rx="10"/>
   <rect x="513"
          y="1"
          width="26"
          height="32"
          class="terminal"
          rx="10"/>
   <text class="terminal" x="523" y="21">]</text>
   <rect x="561" y="3" width="26" height="32" rx="10"/>
   <rect x="559"
          y="1"
          width="26"
          height="32"
          class="terminal"
          rx="10"/>
   <text class="terminal" x="569" y="21">-</text>
   <rect x="607" y="3" width="30" height="32" rx="10"/>
   <rect x="605"
          y="1"
          width="30"
          height="32"
          class="terminal"
          rx="10"/>
   <text class="terminal" x="615" y="21">&gt;</text>
   <rect x="269" y="47" width="30" height="32" rx="10"/>
   <rect x="267"
          y="45"
          width="30"
          height="32"
          class="terminal"
          rx="10"/>
   <text class="terminal" x="277" y="65">&lt;</text>
   <rect x="319" y="47" width="26" height="32" rx="10"/>
   <rect x="317"
          y="45"
          width="26"
          height="32"
          class="terminal"
          rx="10"/>
   <text class="terminal" x="327" y="65">-</text>
   <rect x="365" y="47" width="26" height="32" rx="10"/>
   <rect x="363"
          y="45"
          width="26"
          height="32"
          class="terminal"
          rx="10"/>
   <text class="terminal" x="373" y="65">[</text>
   <rect x="411" y="47" width="24" height="32" rx="10"/>
   <rect x="409"
          y="45"
          width="24"
          height="32"
          class="terminal"
          rx="10"/>
   <text class="terminal" x="419" y="65">:</text>
   <a xmlns:xlink="http://www.w3.org/1999/xlink"
       xlink:href="#LabelName"
       xlink:title="LabelName">
      <rect x="455" y="47" width="90" height="32"/>
      <rect x="453" y="45" width="90" height="32" class="nonterminal"/>
      <text class="nonterminal" x="463" y="65">LabelName</text>
   </a>
   <rect x="565" y="47" width="26" height="32" rx="10"/>
   <rect x="563"
          y="45"
          width="26"
          height="32"
          class="terminal"
          rx="10"/>
   <text class="terminal" x="573" y="65">]</text>
   <rect x="611" y="47" width="26" height="32" rx="10"/>
   <rect x="609"
          y="45"
          width="26"
          height="32"
          class="terminal"
          rx="10"/>
   <text class="terminal" x="619" y="65">-</text>
   <a xmlns:xlink="http://www.w3.org/1999/xlink"
       xlink:href="#VertexDefinition"
       xlink:title="VertexDefinition">
      <rect x="677" y="3" width="122" height="32"/>
      <rect x="675" y="1" width="122" height="32" class="nonterminal"/>
      <text class="nonterminal" x="685" y="21">VertexDefinition</text>
   </a>
   <path class="line"
          d="m17 17 h2 m0 0 h10 m56 0 h10 m0 0 h10 m122 0 h10 m20 0 h10 m26 0 h10 m0 0 h10 m26 0 h10 m0 0 h10 m24 0 h10 m0 0 h10 m90 0 h10 m0 0 h10 m26 0 h10 m0 0 h10 m26 0 h10 m0 0 h10 m30 0 h10 m-408 0 h20 m388 0 h20 m-428 0 q10 0 10 10 m408 0 q0 -10 10 -10 m-418 10 v24 m408 0 v-24 m-408 24 q0 10 10 10 m388 0 q10 0 10 -10 m-398 10 h10 m30 0 h10 m0 0 h10 m26 0 h10 m0 0 h10 m26 0 h10 m0 0 h10 m24 0 h10 m0 0 h10 m90 0 h10 m0 0 h10 m26 0 h10 m0 0 h10 m26 0 h10 m20 -44 h10 m122 0 h10 m3 0 h-3"/>
   <polygon points="817 17 825 13 825 21"/>
   <polygon points="817 17 809 13 809 21"/>
</svg>
