<svg xmlns="http://www.w3.org/2000/svg" width="757" height="273">         <defs>            <style type="text/css">    @namespace "http://www.w3.org/2000/svg";    .line                 {fill: none; stroke: #333300; stroke-width: 1;}    .bold-line            {stroke: #141400; shape-rendering: crispEdges; stroke-width: 2;}    .thin-line            {stroke: #1F1F00; shape-rendering: crispEdges}    .filled               {fill: #333300; stroke: none;}    text.terminal         {font-family: Verdana, Sans-serif;                            font-size: 12px;                            fill: #141400;                            font-weight: bold;                          }    text.nonterminal      {font-family: Verdana, Sans-serif;                            font-size: 12px;                            fill: #1A1A00;                            font-weight: normal;                          }    text.regexp           {font-family: Verdana, Sans-serif;                            font-size: 12px;                            fill: #1F1F00;                            font-weight: normal;                          }    rect, circle, polygon {fill: #333300; stroke: #333300;}    rect.terminal         {fill: #FFFF4D; stroke: #333300; stroke-width: 1;}    rect.nonterminal      {fill: #FFFF9E; stroke: #333300; stroke-width: 1;}    rect.text             {fill: none; stroke: none;}    polygon.regexp        {fill: #FFFFC7; stroke: #333300; stroke-width: 1;}  </style>         </defs>         <polygon points="9 17 1 13 1 21"/>         <polygon points="17 17 9 13 9 21"/>         <rect x="51" y="3" width="26" height="32" rx="10"/>         <rect x="49" y="1" width="26" height="32" class="terminal" rx="10"/>         <text class="terminal" x="59" y="21">-</text>         <rect x="117" y="35" width="26" height="32" rx="10"/>         <rect x="115" y="33" width="26" height="32" class="terminal" rx="10"/>         <text class="terminal" x="125" y="53">[</text><a xmlns:xlink="http://www.w3.org/1999/xlink" xlink:href="#Variable" xlink:title="Variable">            <rect x="183" y="67" width="72" height="32"/>            <rect x="181" y="65" width="72" height="32" class="nonterminal"/>            <text class="nonterminal" x="191" y="85">Variable</text></a><rect x="315" y="67" width="24" height="32" rx="10"/>         <rect x="313" y="65" width="24" height="32" class="terminal" rx="10"/>         <text class="terminal" x="323" y="85">:</text><a xmlns:xlink="http://www.w3.org/1999/xlink" xlink:href="#EdgeDetail" xlink:title="EdgeDetail">            <rect x="379" y="99" width="88" height="32"/>            <rect x="377" y="97" width="88" height="32" class="nonterminal"/>            <text class="nonterminal" x="387" y="117">EdgeDetail</text></a><rect x="527" y="35" width="26" height="32" rx="10"/>         <rect x="525" y="33" width="26" height="32" class="terminal" rx="10"/>         <text class="terminal" x="535" y="53">]</text>         <rect x="573" y="35" width="26" height="32" rx="10"/>         <rect x="571" y="33" width="26" height="32" class="terminal" rx="10"/>         <text class="terminal" x="581" y="53">-</text>         <rect x="659" y="35" width="30" height="32" rx="10"/>         <rect x="657" y="33" width="30" height="32" class="terminal" rx="10"/>         <text class="terminal" x="667" y="53">&gt;</text>         <rect x="51" y="143" width="30" height="32" rx="10"/>         <rect x="49" y="141" width="30" height="32" class="terminal" rx="10"/>         <text class="terminal" x="59" y="161">&lt;</text>         <rect x="101" y="143" width="26" height="32" rx="10"/>         <rect x="99" y="141" width="26" height="32" class="terminal" rx="10"/>         <text class="terminal" x="109" y="161">-</text>         <rect x="167" y="175" width="26" height="32" rx="10"/>         <rect x="165" y="173" width="26" height="32" class="terminal" rx="10"/>         <text class="terminal" x="175" y="193">[</text><a xmlns:xlink="http://www.w3.org/1999/xlink" xlink:href="#Variable" xlink:title="Variable">            <rect x="233" y="207" width="72" height="32"/>            <rect x="231" y="205" width="72" height="32" class="nonterminal"/>            <text class="nonterminal" x="241" y="225">Variable</text></a><rect x="365" y="207" width="24" height="32" rx="10"/>         <rect x="363" y="205" width="24" height="32" class="terminal" rx="10"/>         <text class="terminal" x="373" y="225">:</text><a xmlns:xlink="http://www.w3.org/1999/xlink" xlink:href="#EdgeDetail" xlink:title="EdgeDetail">            <rect x="429" y="239" width="88" height="32"/>            <rect x="427" y="237" width="88" height="32" class="nonterminal"/>            <text class="nonterminal" x="437" y="257">EdgeDetail</text></a><rect x="577" y="175" width="26" height="32" rx="10"/>         <rect x="575" y="173" width="26" height="32" class="terminal" rx="10"/>         <text class="terminal" x="585" y="193">]</text>         <rect x="623" y="175" width="26" height="32" rx="10"/>         <rect x="621" y="173" width="26" height="32" class="terminal" rx="10"/>         <text class="terminal" x="631" y="193">-</text>         <svg:path xmlns:svg="http://www.w3.org/2000/svg" class="line" d="m17 17 h2 m20 0 h10 m26 0 h10 m20 0 h10 m0 0 h492 m-522 0 h20 m502 0 h20 m-542 0 q10 0 10 10 m522 0 q0 -10 10 -10 m-532 10 v12 m522 0 v-12 m-522 12 q0 10 10 10 m502 0 q10 0 10 -10 m-512 10 h10 m26 0 h10 m20 0 h10 m0 0 h82 m-112 0 h20 m92 0 h20 m-132 0 q10 0 10 10 m112 0 q0 -10 10 -10 m-122 10 v12 m112 0 v-12 m-112 12 q0 10 10 10 m92 0 q10 0 10 -10 m-102 10 h10 m72 0 h10 m40 -32 h10 m0 0 h182 m-212 0 h20 m192 0 h20 m-232 0 q10 0 10 10 m212 0 q0 -10 10 -10 m-222 10 v12 m212 0 v-12 m-212 12 q0 10 10 10 m192 0 q10 0 10 -10 m-202 10 h10 m24 0 h10 m20 0 h10 m0 0 h98 m-128 0 h20 m108 0 h20 m-148 0 q10 0 10 10 m128 0 q0 -10 10 -10 m-138 10 v12 m128 0 v-12 m-128 12 q0 10 10 10 m108 0 q10 0 10 -10 m-118 10 h10 m88 0 h10 m40 -64 h10 m26 0 h10 m0 0 h10 m26 0 h10 m40 -32 h10 m0 0 h40 m-70 0 h20 m50 0 h20 m-90 0 q10 0 10 10 m70 0 q0 -10 10 -10 m-80 10 v12 m70 0 v-12 m-70 12 q0 10 10 10 m50 0 q10 0 10 -10 m-60 10 h10 m30 0 h10 m-678 -32 h20 m678 0 h20 m-718 0 q10 0 10 10 m698 0 q0 -10 10 -10 m-708 10 v120 m698 0 v-120 m-698 120 q0 10 10 10 m678 0 q10 0 10 -10 m-688 10 h10 m30 0 h10 m0 0 h10 m26 0 h10 m20 0 h10 m0 0 h492 m-522 0 h20 m502 0 h20 m-542 0 q10 0 10 10 m522 0 q0 -10 10 -10 m-532 10 v12 m522 0 v-12 m-522 12 q0 10 10 10 m502 0 q10 0 10 -10 m-512 10 h10 m26 0 h10 m20 0 h10 m0 0 h82 m-112 0 h20 m92 0 h20 m-132 0 q10 0 10 10 m112 0 q0 -10 10 -10 m-122 10 v12 m112 0 v-12 m-112 12 q0 10 10 10 m92 0 q10 0 10 -10 m-102 10 h10 m72 0 h10 m40 -32 h10 m0 0 h182 m-212 0 h20 m192 0 h20 m-232 0 q10 0 10 10 m212 0 q0 -10 10 -10 m-222 10 v12 m212 0 v-12 m-212 12 q0 10 10 10 m192 0 q10 0 10 -10 m-202 10 h10 m24 0 h10 m20 0 h10 m0 0 h98 m-128 0 h20 m108 0 h20 m-148 0 q10 0 10 10 m128 0 q0 -10 10 -10 m-138 10 v12 m128 0 v-12 m-128 12 q0 10 10 10 m108 0 q10 0 10 -10 m-118 10 h10 m88 0 h10 m40 -64 h10 m26 0 h10 m0 0 h10 m26 0 h10 m20 -32 h40 m23 -140 h-3"/>         <polygon points="747 17 755 13 755 21"/>         <polygon points="747 17 739 13 739 21"/></svg>