<svg xmlns="http://www.w3.org/2000/svg" width="567" height="213">         <defs>            <style type="text/css">    @namespace "http://www.w3.org/2000/svg";    .line                 {fill: none; stroke: #333300; stroke-width: 1;}    .bold-line            {stroke: #141400; shape-rendering: crispEdges; stroke-width: 2;}    .thin-line            {stroke: #1F1F00; shape-rendering: crispEdges}    .filled               {fill: #333300; stroke: none;}    text.terminal         {font-family: Verdana, Sans-serif;                            font-size: 12px;                            fill: #141400;                            font-weight: bold;                          }    text.nonterminal      {font-family: Verdana, Sans-serif;                            font-size: 12px;                            fill: #1A1A00;                            font-weight: normal;                          }    text.regexp           {font-family: Verdana, Sans-serif;                            font-size: 12px;                            fill: #1F1F00;                            font-weight: normal;                          }    rect, circle, polygon {fill: #333300; stroke: #333300;}    rect.terminal         {fill: #FFFF4D; stroke: #333300; stroke-width: 1;}    rect.nonterminal      {fill: #FFFF9E; stroke: #333300; stroke-width: 1;}    rect.text             {fill: none; stroke: none;}    polygon.regexp        {fill: #FFFFC7; stroke: #333300; stroke-width: 1;}  </style>         </defs>         <polygon points="9 61 1 57 1 65"/>         <polygon points="17 61 9 57 9 65"/><a xmlns:xlink="http://www.w3.org/1999/xlink" xlink:href="#LabelName" xlink:title="LabelName">            <rect x="71" y="47" width="90" height="32"/>            <rect x="69" y="45" width="90" height="32" class="nonterminal"/>            <text class="nonterminal" x="79" y="65">LabelName</text></a><rect x="71" y="3" width="26" height="32" rx="10"/>         <rect x="69" y="1" width="26" height="32" class="terminal" rx="10"/>         <text class="terminal" x="79" y="21">|</text>         <rect x="71" y="135" width="26" height="32" rx="10"/>         <rect x="69" y="133" width="26" height="32" class="terminal" rx="10"/>         <text class="terminal" x="79" y="153">(</text><a xmlns:xlink="http://www.w3.org/1999/xlink" xlink:href="#LabelName" xlink:title="LabelName">            <rect x="137" y="135" width="90" height="32"/>            <rect x="135" y="133" width="90" height="32" class="nonterminal"/>            <text class="nonterminal" x="145" y="153">LabelName</text></a><rect x="137" y="91" width="26" height="32" rx="10"/>         <rect x="135" y="89" width="26" height="32" class="terminal" rx="10"/>         <text class="terminal" x="145" y="109">|</text>         <rect x="267" y="135" width="26" height="32" rx="10"/>         <rect x="265" y="133" width="26" height="32" class="terminal" rx="10"/>         <text class="terminal" x="275" y="153">)</text><a xmlns:xlink="http://www.w3.org/1999/xlink" xlink:href="#LabelName" xlink:title="LabelName">            <rect x="71" y="179" width="90" height="32"/>            <rect x="69" y="177" width="90" height="32" class="nonterminal"/>            <text class="nonterminal" x="79" y="197">LabelName</text></a><a xmlns:xlink="http://www.w3.org/1999/xlink" xlink:href="#RepetitionQuantifier" xlink:title="RepetitionQuantifier">            <rect x="353" y="167" width="146" height="32"/>            <rect x="351" y="165" width="146" height="32" class="nonterminal"/>            <text class="nonterminal" x="361" y="185">RepetitionQuantifier</text></a><svg:path xmlns:svg="http://www.w3.org/2000/svg" class="line" d="m17 61 h2 m40 0 h10 m90 0 h10 m-130 0 l20 0 m-1 0 q-9 0 -9 -10 l0 -24 q0 -10 10 -10 m110 44 l20 0 m-20 0 q10 0 10 -10 l0 -24 q0 -10 -10 -10 m-110 0 h10 m26 0 h10 m0 0 h64 m20 44 h338 m-508 0 h20 m488 0 h20 m-528 0 q10 0 10 10 m508 0 q0 -10 10 -10 m-518 10 v68 m508 0 v-68 m-508 68 q0 10 10 10 m488 0 q10 0 10 -10 m-478 10 h10 m26 0 h10 m20 0 h10 m90 0 h10 m-130 0 l20 0 m-1 0 q-9 0 -9 -10 l0 -24 q0 -10 10 -10 m110 44 l20 0 m-20 0 q10 0 10 -10 l0 -24 q0 -10 -10 -10 m-110 0 h10 m26 0 h10 m0 0 h64 m20 44 h10 m26 0 h10 m-262 0 h20 m242 0 h20 m-282 0 q10 0 10 10 m262 0 q0 -10 10 -10 m-272 10 v24 m262 0 v-24 m-262 24 q0 10 10 10 m242 0 q10 0 10 -10 m-252 10 h10 m90 0 h10 m0 0 h132 m40 -44 h10 m0 0 h156 m-186 0 h20 m166 0 h20 m-206 0 q10 0 10 10 m186 0 q0 -10 10 -10 m-196 10 v12 m186 0 v-12 m-186 12 q0 10 10 10 m166 0 q10 0 10 -10 m-176 10 h10 m146 0 h10 m43 -120 h-3"/>         <polygon points="557 61 565 57 565 65"/>         <polygon points="557 61 549 57 549 65"/></svg>