<?xml version="1.0" encoding="UTF-8"?>
<svg xmlns="http://www.w3.org/2000/svg" width="641" height="81">
   <defs>
      <style type="text/css">
    @namespace "http://www.w3.org/2000/svg";
    .line                 {fill: none; stroke: #332200; stroke-width: 1;}
    .bold-line            {stroke: #140E00; shape-rendering: crispEdges; stroke-width: 2;}
    .thin-line            {stroke: #1F1400; shape-rendering: crispEdges}
    .filled               {fill: #332200; stroke: none;}
    text.terminal         {font-family: Verdana, Sans-serif;
                            font-size: 12px;
                            fill: #140E00;
                            font-weight: bold;
                          }
    text.nonterminal      {font-family: Verdana, Sans-serif;
                            font-size: 12px;
                            fill: #1A1100;
                            font-weight: normal;
                          }
    text.regexp           {font-family: Verdana, Sans-serif;
                            font-size: 12px;
                            fill: #1F1400;
                            font-weight: normal;
                          }
    rect, circle, polygon {fill: #332200; stroke: #332200;}
    rect.terminal         {fill: #FFC34D; stroke: #332200; stroke-width: 1;}
    rect.nonterminal      {fill: #FFDF9E; stroke: #332200; stroke-width: 1;}
    rect.text             {fill: none; stroke: none;}
    polygon.regexp        {fill: #FFECC7; stroke: #332200; stroke-width: 1;}
  </style>
   </defs>
   <polygon points="9 17 1 13 1 21"/>
   <polygon points="17 17 9 13 9 21"/>
   <a xmlns:xlink="http://www.w3.org/1999/xlink"
       xlink:href="#EdgeDefinition"
       xlink:title="EdgeDefinition">
      <rect x="31" y="3" width="112" height="32"/>
      <rect x="29" y="1" width="112" height="32" class="nonterminal"/>
      <text class="nonterminal" x="39" y="21">EdgeDefinition</text>
   </a>
   <a xmlns:xlink="http://www.w3.org/1999/xlink"
       xlink:href="#EdgeConstructorDetail"
       xlink:title="EdgeConstructorDetail">
      <rect x="163" y="3" width="162" height="32"/>
      <rect x="161" y="1" width="162" height="32" class="nonterminal"/>
      <text class="nonterminal" x="171" y="21">EdgeConstructorDetail</text>
   </a>
   <rect x="345" y="3" width="38" height="32" rx="10"/>
   <rect x="343"
          y="1"
          width="38"
          height="32"
          class="terminal"
          rx="10"/>
   <text class="terminal" x="353" y="21">AS</text>
   <a xmlns:xlink="http://www.w3.org/1999/xlink"
       xlink:href="#Selection"
       xlink:title="Selection">
      <rect x="423" y="3" width="78" height="32"/>
      <rect x="421" y="1" width="78" height="32" class="nonterminal"/>
      <text class="nonterminal" x="431" y="21">Selection</text>
   </a>
   <rect x="423" y="47" width="26" height="32" rx="10"/>
   <rect x="421"
          y="45"
          width="26"
          height="32"
          class="terminal"
          rx="10"/>
   <text class="terminal" x="431" y="65">(</text>
   <a xmlns:xlink="http://www.w3.org/1999/xlink"
       xlink:href="#Selection"
       xlink:title="Selection">
      <rect x="469" y="47" width="78" height="32"/>
      <rect x="467" y="45" width="78" height="32" class="nonterminal"/>
      <text class="nonterminal" x="477" y="65">Selection</text>
   </a>
   <rect x="567" y="47" width="26" height="32" rx="10"/>
   <rect x="565"
          y="45"
          width="26"
          height="32"
          class="terminal"
          rx="10"/>
   <text class="terminal" x="575" y="65">)</text>
   <path class="line"
          d="m17 17 h2 m0 0 h10 m112 0 h10 m0 0 h10 m162 0 h10 m0 0 h10 m38 0 h10 m20 0 h10 m78 0 h10 m0 0 h92 m-210 0 h20 m190 0 h20 m-230 0 q10 0 10 10 m210 0 q0 -10 10 -10 m-220 10 v24 m210 0 v-24 m-210 24 q0 10 10 10 m190 0 q10 0 10 -10 m-200 10 h10 m26 0 h10 m0 0 h10 m78 0 h10 m0 0 h10 m26 0 h10 m23 -44 h-3"/>
   <polygon points="631 17 639 13 639 21"/>
   <polygon points="631 17 623 13 623 21"/>
</svg>
