<svg xmlns="http://www.w3.org/2000/svg" width="775" height="235">         <defs>            <style type="text/css">    @namespace "http://www.w3.org/2000/svg";    .line                 {fill: none; stroke: #333300; stroke-width: 1;}    .bold-line            {stroke: #141400; shape-rendering: crispEdges; stroke-width: 2;}    .thin-line            {stroke: #1F1F00; shape-rendering: crispEdges}    .filled               {fill: #333300; stroke: none;}    text.terminal         {font-family: Verdana, Sans-serif;                            font-size: 12px;                            fill: #141400;                            font-weight: bold;                          }    text.nonterminal      {font-family: Verdana, Sans-serif;                            font-size: 12px;                            fill: #1A1A00;                            font-weight: normal;                          }    text.regexp           {font-family: Verdana, Sans-serif;                            font-size: 12px;                            fill: #1F1F00;                            font-weight: normal;                          }    rect, circle, polygon {fill: #333300; stroke: #333300;}    rect.terminal         {fill: #FFFF4D; stroke: #333300; stroke-width: 1;}    rect.nonterminal      {fill: #FFFF9E; stroke: #333300; stroke-width: 1;}    rect.text             {fill: none; stroke: none;}    polygon.regexp        {fill: #FFFFC7; stroke: #333300; stroke-width: 1;}  </style>         </defs>         <polygon points="9 61 1 57 1 65"/>         <polygon points="17 61 9 57 9 65"/><a xmlns:xlink="http://www.w3.org/1999/xlink" xlink:href="#EdgeDefinition" xlink:title="EdgeDefinition">            <rect x="31" y="47" width="112" height="32"/>            <rect x="29" y="45" width="112" height="32" class="nonterminal"/>            <text class="nonterminal" x="39" y="65">EdgeDefinition</text></a><rect x="163" y="47" width="76" height="32" rx="10"/>         <rect x="161" y="45" width="76" height="32" class="terminal" rx="10"/>         <text class="terminal" x="171" y="65">SOURCE</text>         <rect x="259" y="47" width="46" height="32" rx="10"/>         <rect x="257" y="45" width="46" height="32" class="terminal" rx="10"/>         <text class="terminal" x="267" y="65">KEY</text>         <rect x="325" y="47" width="26" height="32" rx="10"/>         <rect x="323" y="45" width="26" height="32" class="terminal" rx="10"/>         <text class="terminal" x="333" y="65">(</text><a xmlns:xlink="http://www.w3.org/1999/xlink" xlink:href="#NestedField" xlink:title="NestedField">            <rect x="391" y="47" width="94" height="32"/>            <rect x="389" y="45" width="94" height="32" class="nonterminal"/>            <text class="nonterminal" x="399" y="65">NestedField</text></a><rect x="391" y="3" width="24" height="32" rx="10"/>         <rect x="389" y="1" width="24" height="32" class="terminal" rx="10"/>         <text class="terminal" x="399" y="21">,</text>         <rect x="525" y="47" width="26" height="32" rx="10"/>         <rect x="523" y="45" width="26" height="32" class="terminal" rx="10"/>         <text class="terminal" x="533" y="65">)</text>         <rect x="571" y="47" width="116" height="32" rx="10"/>         <rect x="569" y="45" width="116" height="32" class="terminal" rx="10"/>         <text class="terminal" x="579" y="65">DESTINATION</text>         <rect x="707" y="47" width="46" height="32" rx="10"/>         <rect x="705" y="45" width="46" height="32" class="terminal" rx="10"/>         <text class="terminal" x="715" y="65">KEY</text>         <rect x="233" y="157" width="26" height="32" rx="10"/>         <rect x="231" y="155" width="26" height="32" class="terminal" rx="10"/>         <text class="terminal" x="241" y="175">(</text><a xmlns:xlink="http://www.w3.org/1999/xlink" xlink:href="#NestedField" xlink:title="NestedField">            <rect x="299" y="157" width="94" height="32"/>            <rect x="297" y="155" width="94" height="32" class="nonterminal"/>            <text class="nonterminal" x="307" y="175">NestedField</text></a><rect x="299" y="113" width="24" height="32" rx="10"/>         <rect x="297" y="111" width="24" height="32" class="terminal" rx="10"/>         <text class="terminal" x="307" y="131">,</text>         <rect x="433" y="157" width="26" height="32" rx="10"/>         <rect x="431" y="155" width="26" height="32" class="terminal" rx="10"/>         <text class="terminal" x="441" y="175">)</text>         <rect x="479" y="157" width="38" height="32" rx="10"/>         <rect x="477" y="155" width="38" height="32" class="terminal" rx="10"/>         <text class="terminal" x="487" y="175">AS</text><a xmlns:xlink="http://www.w3.org/1999/xlink" xlink:href="#Selection" xlink:title="Selection">            <rect x="557" y="157" width="78" height="32"/>            <rect x="555" y="155" width="78" height="32" class="nonterminal"/>            <text class="nonterminal" x="565" y="175">Selection</text></a><rect x="557" y="201" width="26" height="32" rx="10"/>         <rect x="555" y="199" width="26" height="32" class="terminal" rx="10"/>         <text class="terminal" x="565" y="219">(</text><a xmlns:xlink="http://www.w3.org/1999/xlink" xlink:href="#Selection" xlink:title="Selection">            <rect x="603" y="201" width="78" height="32"/>            <rect x="601" y="199" width="78" height="32" class="nonterminal"/>            <text class="nonterminal" x="611" y="219">Selection</text></a><rect x="701" y="201" width="26" height="32" rx="10"/>         <rect x="699" y="199" width="26" height="32" class="terminal" rx="10"/>         <text class="terminal" x="709" y="219">)</text>         <svg:path xmlns:svg="http://www.w3.org/2000/svg" class="line" d="m17 61 h2 m0 0 h10 m112 0 h10 m0 0 h10 m76 0 h10 m0 0 h10 m46 0 h10 m0 0 h10 m26 0 h10 m20 0 h10 m94 0 h10 m-134 0 l20 0 m-1 0 q-9 0 -9 -10 l0 -24 q0 -10 10 -10 m114 44 l20 0 m-20 0 q10 0 10 -10 l0 -24 q0 -10 -10 -10 m-114 0 h10 m24 0 h10 m0 0 h70 m20 44 h10 m26 0 h10 m0 0 h10 m116 0 h10 m0 0 h10 m46 0 h10 m2 0 l2 0 m2 0 l2 0 m2 0 l2 0 m-564 110 l2 0 m2 0 l2 0 m2 0 l2 0 m2 0 h10 m26 0 h10 m20 0 h10 m94 0 h10 m-134 0 l20 0 m-1 0 q-9 0 -9 -10 l0 -24 q0 -10 10 -10 m114 44 l20 0 m-20 0 q10 0 10 -10 l0 -24 q0 -10 -10 -10 m-114 0 h10 m24 0 h10 m0 0 h70 m20 44 h10 m26 0 h10 m0 0 h10 m38 0 h10 m20 0 h10 m78 0 h10 m0 0 h92 m-210 0 h20 m190 0 h20 m-230 0 q10 0 10 10 m210 0 q0 -10 10 -10 m-220 10 v24 m210 0 v-24 m-210 24 q0 10 10 10 m190 0 q10 0 10 -10 m-200 10 h10 m26 0 h10 m0 0 h10 m78 0 h10 m0 0 h10 m26 0 h10 m23 -44 h-3"/>         <polygon points="765 171 773 167 773 175"/>         <polygon points="765 171 757 167 757 175"/></svg>