<?xml version="1.0" encoding="UTF-8"?>
<svg xmlns="http://www.w3.org/2000/svg" width="831" height="191">
   <defs>
      <style type="text/css">
    @namespace "http://www.w3.org/2000/svg";
    .line                 {fill: none; stroke: #332900; stroke-width: 1;}
    .bold-line            {stroke: #141000; shape-rendering: crispEdges; stroke-width: 2;}
    .thin-line            {stroke: #1F1800; shape-rendering: crispEdges}
    .filled               {fill: #332900; stroke: none;}
    text.terminal         {font-family: Verdana, Sans-serif;
                            font-size: 12px;
                            fill: #141000;
                            font-weight: bold;
                          }
    text.nonterminal      {font-family: Verdana, Sans-serif;
                            font-size: 12px;
                            fill: #1A1400;
                            font-weight: normal;
                          }
    text.regexp           {font-family: Verdana, Sans-serif;
                            font-size: 12px;
                            fill: #1F1800;
                            font-weight: normal;
                          }
    rect, circle, polygon {fill: #332900; stroke: #332900;}
    rect.terminal         {fill: #FFDB4D; stroke: #332900; stroke-width: 1;}
    rect.nonterminal      {fill: #FFEC9E; stroke: #332900; stroke-width: 1;}
    rect.text             {fill: none; stroke: none;}
    polygon.regexp        {fill: #FFF4C7; stroke: #332900; stroke-width: 1;}
  </style>
   </defs>
   <polygon points="9 95 1 91 1 99"/>
   <polygon points="17 95 9 91 9 99"/>
   <rect x="51" y="81" width="66" height="32" rx="10"/>
   <rect x="49"
          y="79"
          width="66"
          height="32"
          class="terminal"
          rx="10"/>
   <text class="terminal" x="59" y="99">GRAPH</text>
   <a xmlns:xlink="http://www.w3.org/1999/xlink"
       xlink:href="#QualifiedName"
       xlink:title="QualifiedName">
      <rect x="137" y="81" width="112" height="32"/>
      <rect x="135" y="79" width="112" height="32" class="nonterminal"/>
      <text class="nonterminal" x="145" y="99">QualifiedName</text>
   </a>
   <rect x="289" y="113" width="68" height="32" rx="10"/>
   <rect x="287"
          y="111"
          width="68"
          height="32"
          class="terminal"
          rx="10"/>
   <text class="terminal" x="297" y="131">MATCH</text>
   <a xmlns:xlink="http://www.w3.org/1999/xlink"
       xlink:href="#MatchExpr"
       xlink:title="MatchExpr">
      <rect x="397" y="81" width="86" height="32"/>
      <rect x="395" y="79" width="86" height="32" class="nonterminal"/>
      <text class="nonterminal" x="405" y="99">MatchExpr</text>
   </a>
   <a xmlns:xlink="http://www.w3.org/1999/xlink"
       xlink:href="#MatchStep"
       xlink:title="MatchStep">
      <rect x="523" y="47" width="86" height="32"/>
      <rect x="521" y="45" width="86" height="32" class="nonterminal"/>
      <text class="nonterminal" x="531" y="65">MatchStep</text>
   </a>
   <a xmlns:xlink="http://www.w3.org/1999/xlink"
       xlink:href="#NamedExpr"
       xlink:title="NamedExpr">
      <rect x="51" y="157" width="92" height="32"/>
      <rect x="49" y="155" width="92" height="32" class="nonterminal"/>
      <text class="nonterminal" x="59" y="175">NamedExpr</text>
   </a>
   <a xmlns:xlink="http://www.w3.org/1999/xlink"
       xlink:href="#UnnestStep"
       xlink:title="UnnestStep">
      <rect x="689" y="47" width="94" height="32"/>
      <rect x="687" y="45" width="94" height="32" class="nonterminal"/>
      <text class="nonterminal" x="697" y="65">UnnestStep</text>
   </a>
   <a xmlns:xlink="http://www.w3.org/1999/xlink"
       xlink:href="#JoinStep"
       xlink:title="JoinStep">
      <rect x="689" y="3" width="74" height="32"/>
      <rect x="687" y="1" width="74" height="32" class="nonterminal"/>
      <text class="nonterminal" x="697" y="21">JoinStep</text>
   </a>
   <path class="line"
          d="m17 95 h2 m20 0 h10 m66 0 h10 m0 0 h10 m112 0 h10 m20 0 h10 m0 0 h78 m-108 0 h20 m88 0 h20 m-128 0 q10 0 10 10 m108 0 q0 -10 10 -10 m-118 10 v12 m108 0 v-12 m-108 12 q0 10 10 10 m88 0 q10 0 10 -10 m-98 10 h10 m68 0 h10 m20 -32 h10 m86 0 h10 m20 0 h10 m0 0 h96 m-126 0 l20 0 m-1 0 q-9 0 -9 -10 l0 -14 q0 -10 10 -10 m106 34 l20 0 m-20 0 q10 0 10 -10 l0 -14 q0 -10 -10 -10 m-106 0 h10 m86 0 h10 m-598 34 h20 m598 0 h20 m-638 0 q10 0 10 10 m618 0 q0 -10 10 -10 m-628 10 v56 m618 0 v-56 m-618 56 q0 10 10 10 m598 0 q10 0 10 -10 m-608 10 h10 m92 0 h10 m0 0 h486 m40 -76 h10 m0 0 h104 m-134 0 l20 0 m-1 0 q-9 0 -9 -10 l0 -14 q0 -10 10 -10 m114 34 l20 0 m-20 0 q10 0 10 -10 l0 -14 q0 -10 -10 -10 m-114 0 h10 m94 0 h10 m-124 10 l0 -44 q0 -10 10 -10 m124 54 l0 -44 q0 -10 -10 -10 m-114 0 h10 m74 0 h10 m0 0 h20 m23 78 h-3"/>
   <polygon points="821 95 829 91 829 99"/>
   <polygon points="821 95 813 91 813 99"/>
</svg>
