<svg xmlns="http://www.w3.org/2000/svg" width="755" height="291">         <defs>            <style type="text/css">    @namespace "http://www.w3.org/2000/svg";    .line                 {fill: none; stroke: #333300; stroke-width: 1;}    .bold-line            {stroke: #141400; shape-rendering: crispEdges; stroke-width: 2;}    .thin-line            {stroke: #1F1F00; shape-rendering: crispEdges}    .filled               {fill: #333300; stroke: none;}    text.terminal         {font-family: Verdana, Sans-serif;                            font-size: 12px;                            fill: #141400;                            font-weight: bold;                          }    text.nonterminal      {font-family: Verdana, Sans-serif;                            font-size: 12px;                            fill: #1A1A00;                            font-weight: normal;                          }    text.regexp           {font-family: Verdana, Sans-serif;                            font-size: 12px;                            fill: #1F1F00;                            font-weight: normal;                          }    rect, circle, polygon {fill: #333300; stroke: #333300;}    rect.terminal         {fill: #FFFF4D; stroke: #333300; stroke-width: 1;}    rect.nonterminal      {fill: #FFFF9E; stroke: #333300; stroke-width: 1;}    rect.text             {fill: none; stroke: none;}    polygon.regexp        {fill: #FFFFC7; stroke: #333300; stroke-width: 1;}  </style>         </defs>         <polygon points="9 139 1 135 1 143"/>         <polygon points="17 139 9 135 9 143"/>         <rect x="31" y="125" width="60" height="32" rx="10"/>         <rect x="29" y="123" width="60" height="32" class="terminal" rx="10"/>         <text class="terminal" x="39" y="143">FROM</text>         <rect x="131" y="125" width="66" height="32" rx="10"/>         <rect x="129" y="123" width="66" height="32" class="terminal" rx="10"/>         <text class="terminal" x="139" y="143">GRAPH</text>         <rect x="237" y="125" width="38" height="32" rx="10"/>         <rect x="235" y="123" width="38" height="32" class="terminal" rx="10"/>         <text class="terminal" x="245" y="143">AS</text><a xmlns:xlink="http://www.w3.org/1999/xlink" xlink:href="#GraphConstructor" xlink:title="GraphConstructor">            <rect x="295" y="125" width="132" height="32"/>            <rect x="293" y="123" width="132" height="32" class="nonterminal"/>            <text class="nonterminal" x="303" y="143">GraphConstructor</text></a><a xmlns:xlink="http://www.w3.org/1999/xlink" xlink:href="#QualifiedName" xlink:title="QualifiedName">            <rect x="237" y="169" width="112" height="32"/>            <rect x="235" y="167" width="112" height="32" class="nonterminal"/>            <text class="nonterminal" x="245" y="187">QualifiedName</text></a><a xmlns:xlink="http://www.w3.org/1999/xlink" xlink:href="#MatchExpr" xlink:title="MatchExpr">            <rect x="467" y="125" width="86" height="32"/>            <rect x="465" y="123" width="86" height="32" class="nonterminal"/>            <text class="nonterminal" x="475" y="143">MatchExpr</text></a><a xmlns:xlink="http://www.w3.org/1999/xlink" xlink:href="#MatchStep" xlink:title="MatchStep">            <rect x="593" y="91" width="86" height="32"/>            <rect x="591" y="89" width="86" height="32" class="nonterminal"/>            <text class="nonterminal" x="601" y="109">MatchStep</text></a><a xmlns:xlink="http://www.w3.org/1999/xlink" xlink:href="#UnnestStep" xlink:title="UnnestStep">            <rect x="593" y="47" width="94" height="32"/>            <rect x="591" y="45" width="94" height="32" class="nonterminal"/>            <text class="nonterminal" x="601" y="65">UnnestStep</text></a><a xmlns:xlink="http://www.w3.org/1999/xlink" xlink:href="#JoinStep" xlink:title="JoinStep">            <rect x="593" y="3" width="74" height="32"/>            <rect x="591" y="1" width="74" height="32" class="nonterminal"/>            <text class="nonterminal" x="601" y="21">JoinStep</text></a><a xmlns:xlink="http://www.w3.org/1999/xlink" xlink:href="#FromTerm" xlink:title="FromTerm">            <rect x="151" y="257" width="82" height="32"/>            <rect x="149" y="255" width="82" height="32" class="nonterminal"/>            <text class="nonterminal" x="159" y="275">FromTerm</text></a><rect x="151" y="213" width="24" height="32" rx="10"/>         <rect x="149" y="211" width="24" height="32" class="terminal" rx="10"/>         <text class="terminal" x="159" y="231">,</text>         <svg:path xmlns:svg="http://www.w3.org/2000/svg" class="line" d="m17 139 h2 m0 0 h10 m60 0 h10 m20 0 h10 m66 0 h10 m20 0 h10 m38 0 h10 m0 0 h10 m132 0 h10 m-230 0 h20 m210 0 h20 m-250 0 q10 0 10 10 m230 0 q0 -10 10 -10 m-240 10 v24 m230 0 v-24 m-230 24 q0 10 10 10 m210 0 q10 0 10 -10 m-220 10 h10 m112 0 h10 m0 0 h78 m20 -44 h10 m86 0 h10 m20 0 h10 m0 0 h104 m-134 0 l20 0 m-1 0 q-9 0 -9 -10 l0 -14 q0 -10 10 -10 m114 34 l20 0 m-20 0 q10 0 10 -10 l0 -14 q0 -10 -10 -10 m-114 0 h10 m86 0 h10 m0 0 h8 m-124 10 l0 -44 q0 -10 10 -10 m124 54 l0 -44 q0 -10 -10 -10 m-114 0 h10 m94 0 h10 m-124 10 l0 -44 q0 -10 10 -10 m124 54 l0 -44 q0 -10 -10 -10 m-114 0 h10 m74 0 h10 m0 0 h20 m-596 122 h20 m596 0 h20 m-636 0 q10 0 10 10 m616 0 q0 -10 10 -10 m-626 10 v112 m616 0 v-112 m-616 112 q0 10 10 10 m596 0 q10 0 10 -10 m-586 10 h10 m82 0 h10 m-122 0 l20 0 m-1 0 q-9 0 -9 -10 l0 -24 q0 -10 10 -10 m102 44 l20 0 m-20 0 q10 0 10 -10 l0 -24 q0 -10 -10 -10 m-102 0 h10 m24 0 h10 m0 0 h58 m20 44 h454 m23 -132 h-3"/>         <polygon points="745 139 753 135 753 143"/>         <polygon points="745 139 737 135 737 143"/></svg>