<?xml version="1.0" encoding="UTF-8"?>
<svg xmlns="http://www.w3.org/2000/svg" width="851" height="159">
   <defs>
      <style type="text/css">
    @namespace "http://www.w3.org/2000/svg";
    .line                 {fill: none; stroke: #332200; stroke-width: 1;}
    .bold-line            {stroke: #140E00; shape-rendering: crispEdges; stroke-width: 2;}
    .thin-line            {stroke: #1F1400; shape-rendering: crispEdges}
    .filled               {fill: #332200; stroke: none;}
    text.terminal         {font-family: Verdana, Sans-serif;
                            font-size: 12px;
                            fill: #140E00;
                            font-weight: bold;
                          }
    text.nonterminal      {font-family: Verdana, Sans-serif;
                            font-size: 12px;
                            fill: #1A1100;
                            font-weight: normal;
                          }
    text.regexp           {font-family: Verdana, Sans-serif;
                            font-size: 12px;
                            fill: #1F1400;
                            font-weight: normal;
                          }
    rect, circle, polygon {fill: #332200; stroke: #332200;}
    rect.terminal         {fill: #FFC34D; stroke: #332200; stroke-width: 1;}
    rect.nonterminal      {fill: #FFDF9E; stroke: #332200; stroke-width: 1;}
    rect.text             {fill: none; stroke: none;}
    polygon.regexp        {fill: #FFECC7; stroke: #332200; stroke-width: 1;}
  </style>
   </defs>
   <polygon points="9 95 1 91 1 99"/>
   <polygon points="17 95 9 91 9 99"/>
   <rect x="31" y="81" width="66" height="32" rx="10"/>
   <rect x="29"
          y="79"
          width="66"
          height="32"
          class="terminal"
          rx="10"/>
   <text class="terminal" x="39" y="99">GRAPH</text>
   <a xmlns:xlink="http://www.w3.org/1999/xlink"
       xlink:href="#GraphConstructor"
       xlink:title="GraphConstructor">
      <rect x="137" y="81" width="132" height="32"/>
      <rect x="135" y="79" width="132" height="32" class="nonterminal"/>
      <text class="nonterminal" x="145" y="99">GraphConstructor</text>
   </a>
   <a xmlns:xlink="http://www.w3.org/1999/xlink"
       xlink:href="#QualifiedName"
       xlink:title="QualifiedName">
      <rect x="137" y="125" width="112" height="32"/>
      <rect x="135" y="123" width="112" height="32" class="nonterminal"/>
      <text class="nonterminal" x="145" y="143">QualifiedName</text>
   </a>
   <rect x="329" y="113" width="68" height="32" rx="10"/>
   <rect x="327"
          y="111"
          width="68"
          height="32"
          class="terminal"
          rx="10"/>
   <text class="terminal" x="337" y="131">MATCH</text>
   <a xmlns:xlink="http://www.w3.org/1999/xlink"
       xlink:href="#MatchExpr"
       xlink:title="MatchExpr">
      <rect x="437" y="81" width="86" height="32"/>
      <rect x="435" y="79" width="86" height="32" class="nonterminal"/>
      <text class="nonterminal" x="445" y="99">MatchExpr</text>
   </a>
   <a xmlns:xlink="http://www.w3.org/1999/xlink"
       xlink:href="#MatchStep"
       xlink:title="MatchStep">
      <rect x="563" y="47" width="86" height="32"/>
      <rect x="561" y="45" width="86" height="32" class="nonterminal"/>
      <text class="nonterminal" x="571" y="65">MatchStep</text>
   </a>
   <a xmlns:xlink="http://www.w3.org/1999/xlink"
       xlink:href="#UnnestStep"
       xlink:title="UnnestStep">
      <rect x="709" y="47" width="94" height="32"/>
      <rect x="707" y="45" width="94" height="32" class="nonterminal"/>
      <text class="nonterminal" x="717" y="65">UnnestStep</text>
   </a>
   <a xmlns:xlink="http://www.w3.org/1999/xlink"
       xlink:href="#JoinStep"
       xlink:title="JoinStep">
      <rect x="709" y="3" width="74" height="32"/>
      <rect x="707" y="1" width="74" height="32" class="nonterminal"/>
      <text class="nonterminal" x="717" y="21">JoinStep</text>
   </a>
   <path class="line"
          d="m17 95 h2 m0 0 h10 m66 0 h10 m20 0 h10 m132 0 h10 m-172 0 h20 m152 0 h20 m-192 0 q10 0 10 10 m172 0 q0 -10 10 -10 m-182 10 v24 m172 0 v-24 m-172 24 q0 10 10 10 m152 0 q10 0 10 -10 m-162 10 h10 m112 0 h10 m0 0 h20 m40 -44 h10 m0 0 h78 m-108 0 h20 m88 0 h20 m-128 0 q10 0 10 10 m108 0 q0 -10 10 -10 m-118 10 v12 m108 0 v-12 m-108 12 q0 10 10 10 m88 0 q10 0 10 -10 m-98 10 h10 m68 0 h10 m20 -32 h10 m86 0 h10 m20 0 h10 m0 0 h96 m-126 0 l20 0 m-1 0 q-9 0 -9 -10 l0 -14 q0 -10 10 -10 m106 34 l20 0 m-20 0 q10 0 10 -10 l0 -14 q0 -10 -10 -10 m-106 0 h10 m86 0 h10 m40 34 h10 m0 0 h104 m-134 0 l20 0 m-1 0 q-9 0 -9 -10 l0 -14 q0 -10 10 -10 m114 34 l20 0 m-20 0 q10 0 10 -10 l0 -14 q0 -10 -10 -10 m-114 0 h10 m94 0 h10 m-124 10 l0 -44 q0 -10 10 -10 m124 54 l0 -44 q0 -10 -10 -10 m-114 0 h10 m74 0 h10 m0 0 h20 m23 78 h-3"/>
   <polygon points="841 95 849 91 849 99"/>
   <polygon points="841 95 833 91 833 99"/>
</svg>
