<?xml version="1.0" encoding="UTF-8"?>
<svg xmlns="http://www.w3.org/2000/svg" width="341" height="125">
   <defs>
      <style type="text/css">
    @namespace "http://www.w3.org/2000/svg";
    .line                 {fill: none; stroke: #332200; stroke-width: 1;}
    .bold-line            {stroke: #140E00; shape-rendering: crispEdges; stroke-width: 2;}
    .thin-line            {stroke: #1F1400; shape-rendering: crispEdges}
    .filled               {fill: #332200; stroke: none;}
    text.terminal         {font-family: Verdana, Sans-serif;
                            font-size: 12px;
                            fill: #140E00;
                            font-weight: bold;
                          }
    text.nonterminal      {font-family: Verdana, Sans-serif;
                            font-size: 12px;
                            fill: #1A1100;
                            font-weight: normal;
                          }
    text.regexp           {font-family: Verdana, Sans-serif;
                            font-size: 12px;
                            fill: #1F1400;
                            font-weight: normal;
                          }
    rect, circle, polygon {fill: #332200; stroke: #332200;}
    rect.terminal         {fill: #FFC34D; stroke: #332200; stroke-width: 1;}
    rect.nonterminal      {fill: #FFDF9E; stroke: #332200; stroke-width: 1;}
    rect.text             {fill: none; stroke: none;}
    polygon.regexp        {fill: #FFECC7; stroke: #332200; stroke-width: 1;}
  </style>
   </defs>
   <polygon points="9 61 1 57 1 65"/>
   <polygon points="17 61 9 57 9 65"/>
   <rect x="31" y="47" width="60" height="32" rx="10"/>
   <rect x="29"
          y="45"
          width="60"
          height="32"
          class="terminal"
          rx="10"/>
   <text class="terminal" x="39" y="65">FROM</text>
   <a xmlns:xlink="http://www.w3.org/1999/xlink"
       xlink:href="#FromTerm"
       xlink:title="FromTerm">
      <rect x="151" y="47" width="82" height="32"/>
      <rect x="149" y="45" width="82" height="32" class="nonterminal"/>
      <text class="nonterminal" x="159" y="65">FromTerm</text>
   </a>
   <a xmlns:xlink="http://www.w3.org/1999/xlink"
       xlink:href="#FromGraphTerm"
       xlink:title="FromGraphTerm">
      <rect x="151" y="91" width="122" height="32"/>
      <rect x="149" y="89" width="122" height="32" class="nonterminal"/>
      <text class="nonterminal" x="159" y="109">FromGraphTerm</text>
   </a>
   <rect x="131" y="3" width="24" height="32" rx="10"/>
   <rect x="129"
          y="1"
          width="24"
          height="32"
          class="terminal"
          rx="10"/>
   <text class="terminal" x="139" y="21">,</text>
   <path class="line"
          d="m17 61 h2 m0 0 h10 m60 0 h10 m40 0 h10 m82 0 h10 m0 0 h40 m-162 0 h20 m142 0 h20 m-182 0 q10 0 10 10 m162 0 q0 -10 10 -10 m-172 10 v24 m162 0 v-24 m-162 24 q0 10 10 10 m142 0 q10 0 10 -10 m-152 10 h10 m122 0 h10 m-182 -44 l20 0 m-1 0 q-9 0 -9 -10 l0 -24 q0 -10 10 -10 m182 44 l20 0 m-20 0 q10 0 10 -10 l0 -24 q0 -10 -10 -10 m-182 0 h10 m24 0 h10 m0 0 h138 m23 44 h-3"/>
   <polygon points="331 61 339 57 339 65"/>
   <polygon points="331 61 323 57 323 65"/>
</svg>
