<svg xmlns="http://www.w3.org/2000/svg" xmlns:xlink="http://www.w3.org/1999/xlink" xmlns:lucid="lucid" width="872" height="659"><g transform="translate(-120 -172)" lucid:page-tab-id="93N.Ck~-do4w"><path d="M762.74 241.66h82.13a6 6 0 0 1 6 6v20.38" stroke="#3a414a" stroke-width="2" fill="none"/><path d="M762.77 242.66h-1.1l.07-.98-.03-1.02h1.07zM851.87 269.04h-2V268h2z" stroke="#3a414a" stroke-width=".05" fill="#3a414a"/><path d="M400 435.98h67.33v18H400z" fill="none"/><use xlink:href="#a" transform="matrix(1,0,0,1,400,435.98095218314137) translate(5.995442708333346 13.497395833333332)"/><path d="M500 334.98c0 16.57-13.43 30-30 30s-30-13.43-30-30 13.43-30 30-30 30 13.43 30 30z" stroke="#3a414a" stroke-width="2" fill="#fff7a1"/><path d="M500 355.98h182.74v80H500z" fill="none"/><use xlink:href="#b" transform="matrix(1,0,0,1,500,355.9809521831414) translate(0 10.664062499999996)"/><use xlink:href="#c" transform="matrix(1,0,0,1,500,355.9809521831414) translate(0 23.997395833333325)"/><use xlink:href="#d" transform="matrix(1,0,0,1,500,355.9809521831414) translate(0 37.33072916666666)"/><use xlink:href="#e" transform="matrix(1,0,0,1,500,355.9809521831414) translate(16.00260416666666 37.33072916666666)"/><use xlink:href="#f" transform="matrix(1,0,0,1,500,355.9809521831414) translate(96.01562499999996 37.33072916666666)"/><use xlink:href="#g" transform="matrix(1,0,0,1,500,355.9809521831414) translate(112.01822916666661 37.33072916666666)"/><use xlink:href="#d" transform="matrix(1,0,0,1,500,355.9809521831414) translate(0 50.664062499999986)"/><use xlink:href="#h" transform="matrix(1,0,0,1,500,355.9809521831414) translate(16.00260416666666 50.664062499999986)"/><use xlink:href="#f" transform="matrix(1,0,0,1,500,355.9809521831414) translate(96.01562499999996 50.664062499999986)"/><use xlink:href="#i" transform="matrix(1,0,0,1,500,355.9809521831414) translate(112.01822916666661 50.664062499999986)"/><use xlink:href="#j" transform="matrix(1,0,0,1,500,355.9809521831414) translate(0 63.997395833333314)"/><path d="M760.74 241.66c0 16.57-13.43 30-30 30s-30-13.43-30-30 13.43-30 30-30 30 13.43 30 30z" stroke="#3a414a" stroke-width="2" fill="#fff7a1"/><path d="M761.74 269H944.5v80H761.73z" fill="none"/><use xlink:href="#b" transform="matrix(1,0,0,1,761.7425706382976,269.0000000000002) translate(0 10.664062499999996)"/><use xlink:href="#c" transform="matrix(1,0,0,1,761.7425706382976,269.0000000000002) translate(0 23.997395833333325)"/><use xlink:href="#d" transform="matrix(1,0,0,1,761.7425706382976,269.0000000000002) translate(0 37.33072916666666)"/><use xlink:href="#e" transform="matrix(1,0,0,1,761.7425706382976,269.0000000000002) translate(16.00260416666666 37.33072916666666)"/><use xlink:href="#f" transform="matrix(1,0,0,1,761.7425706382976,269.0000000000002) translate(96.01562499999996 37.33072916666666)"/><use xlink:href="#k" transform="matrix(1,0,0,1,761.7425706382976,269.0000000000002) translate(112.01822916666661 37.33072916666666)"/><use xlink:href="#d" transform="matrix(1,0,0,1,761.7425706382976,269.0000000000002) translate(0 50.664062499999986)"/><use xlink:href="#h" transform="matrix(1,0,0,1,761.7425706382976,269.0000000000002) translate(16.00260416666666 50.664062499999986)"/><use xlink:href="#f" transform="matrix(1,0,0,1,761.7425706382976,269.0000000000002) translate(96.01562499999996 50.664062499999986)"/><use xlink:href="#l" transform="matrix(1,0,0,1,761.7425706382976,269.0000000000002) translate(112.01822916666661 50.664062499999986)"/><use xlink:href="#j" transform="matrix(1,0,0,1,761.7425706382976,269.0000000000002) translate(0 63.997395833333314)"/><path d="M308.4 460.83c0 16.57-13.42 30-30 30-16.56 0-30-13.43-30-30s13.44-30 30-30c16.58 0 30 13.43 30 30z" stroke="#3a414a" stroke-width="2" fill="#fff7a1"/><path d="M308.4 481.32h300v80h-300z" fill="none"/><use xlink:href="#m" transform="matrix(1,0,0,1,308.40986102888263,481.3234975629373) translate(0 10.664062499999996)"/><use xlink:href="#c" transform="matrix(1,0,0,1,308.40986102888263,481.3234975629373) translate(0 23.997395833333325)"/><use xlink:href="#d" transform="matrix(1,0,0,1,308.40986102888263,481.3234975629373) translate(0 37.33072916666666)"/><use xlink:href="#n" transform="matrix(1,0,0,1,308.40986102888263,481.3234975629373) translate(16.00260416666666 37.33072916666666)"/><use xlink:href="#f" transform="matrix(1,0,0,1,308.40986102888263,481.3234975629373) translate(128.0208333333333 37.33072916666666)"/><use xlink:href="#o" transform="matrix(1,0,0,1,308.40986102888263,481.3234975629373) translate(144.02343749999994 37.33072916666666)"/><use xlink:href="#d" transform="matrix(1,0,0,1,308.40986102888263,481.3234975629373) translate(0 50.664062499999986)"/><use xlink:href="#p" transform="matrix(1,0,0,1,308.40986102888263,481.3234975629373) translate(16.00260416666666 50.664062499999986)"/><use xlink:href="#f" transform="matrix(1,0,0,1,308.40986102888263,481.3234975629373) translate(128.0208333333333 50.664062499999986)"/><use xlink:href="#q" transform="matrix(1,0,0,1,308.40986102888263,481.3234975629373) translate(144.02343749999994 50.664062499999986)"/><use xlink:href="#j" transform="matrix(1,0,0,1,308.40986102888263,481.3234975629373) translate(0 63.997395833333314)"/><path d="M680 460.83c0 16.57-13.43 30-30 30s-30-13.43-30-30 13.43-30 30-30 30 13.43 30 30z" stroke="#3a414a" stroke-width="2" fill="#fff7a1"/><path d="M680 481.83h336.04v80H680z" fill="none"/><use xlink:href="#m" transform="matrix(1,0,0,1,680,481.8327096094001) translate(0 10.664062499999996)"/><use xlink:href="#c" transform="matrix(1,0,0,1,680,481.8327096094001) translate(0 23.997395833333325)"/><use xlink:href="#d" transform="matrix(1,0,0,1,680,481.8327096094001) translate(0 37.33072916666666)"/><use xlink:href="#n" transform="matrix(1,0,0,1,680,481.8327096094001) translate(16.00260416666666 37.33072916666666)"/><use xlink:href="#f" transform="matrix(1,0,0,1,680,481.8327096094001) translate(128.0208333333333 37.33072916666666)"/><use xlink:href="#r" transform="matrix(1,0,0,1,680,481.8327096094001) translate(144.02343749999994 37.33072916666666)"/><use xlink:href="#d" transform="matrix(1,0,0,1,680,481.8327096094001) translate(0 50.664062499999986)"/><use xlink:href="#p" transform="matrix(1,0,0,1,680,481.8327096094001) translate(16.00260416666666 50.664062499999986)"/><use xlink:href="#f" transform="matrix(1,0,0,1,680,481.8327096094001) translate(128.0208333333333 50.664062499999986)"/><use xlink:href="#q" transform="matrix(1,0,0,1,680,481.8327096094001) translate(144.02343749999994 50.664062499999986)"/><use xlink:href="#j" transform="matrix(1,0,0,1,680,481.8327096094001) translate(0 63.997395833333314)"/><path d="M780 435.98h67.33v18H780z" fill="none"/><g><use xlink:href="#a" transform="matrix(1,0,0,1,780,435.98095218314137) translate(5.995442708333346 13.497395833333332)"/></g><path d="M552.67 220H620v18h-67.33z" fill="none"/><g><use xlink:href="#s" transform="matrix(1,0,0,1,552.6666666666666,220) translate(-14.007812499999979 13.497395833333332)"/></g><path d="M527.33 640.68H836.7v80H527.32z" fill="none"/><g><use xlink:href="#t" transform="matrix(1,0,0,1,527.3333333332606,640.6844670356588) translate(0 10.664062499999996)"/><use xlink:href="#c" transform="matrix(1,0,0,1,527.3333333332606,640.6844670356588) translate(0 23.997395833333325)"/><use xlink:href="#d" transform="matrix(1,0,0,1,527.3333333332606,640.6844670356588) translate(0 37.33072916666666)"/><use xlink:href="#u" transform="matrix(1,0,0,1,527.3333333332606,640.6844670356588) translate(16.00260416666666 37.33072916666666)"/><use xlink:href="#f" transform="matrix(1,0,0,1,527.3333333332606,640.6844670356588) translate(136.0221354166666 37.33072916666666)"/><use xlink:href="#v" transform="matrix(1,0,0,1,527.3333333332606,640.6844670356588) translate(152.02473958333326 37.33072916666666)"/><use xlink:href="#d" transform="matrix(1,0,0,1,527.3333333332606,640.6844670356588) translate(0 50.664062499999986)"/><use xlink:href="#w" transform="matrix(1,0,0,1,527.3333333332606,640.6844670356588) translate(16.00260416666666 50.664062499999986)"/><use xlink:href="#f" transform="matrix(1,0,0,1,527.3333333332606,640.6844670356588) translate(136.0221354166666 50.664062499999986)"/><use xlink:href="#x" transform="matrix(1,0,0,1,527.3333333332606,640.6844670356588) translate(152.02473958333326 50.664062499999986)"/><use xlink:href="#y" transform="matrix(1,0,0,1,527.3333333332606,640.6844670356588) translate(224.03645833333323 50.664062499999986)"/><use xlink:href="#j" transform="matrix(1,0,0,1,527.3333333332606,640.6844670356588) translate(0 63.997395833333314)"/></g><path d="M527.33 619.68c0 16.57-13.43 30-30 30s-30-13.43-30-30c0-16.56 13.43-30 30-30s30 13.44 30 30z" stroke="#3a414a" stroke-width="2" fill="#fff7a1"/><path d="M272 596h67.33v18H272z" fill="none"/><g><use xlink:href="#z" transform="matrix(1,0,0,1,272,596) translate(13.996744791666675 13.497395833333332)"/></g><path d="M588 596h67.33v18H588z" fill="none"/><g><use xlink:href="#z" transform="matrix(1,0,0,1,588,596) translate(13.996744791666675 13.497395833333332)"/></g><path d="M220 242c0 16.57-13.43 30-30 30s-30-13.43-30-30 13.43-30 30-30 30 13.43 30 30z" stroke="#3a414a" stroke-width="2" fill="#fff7a1"/><path d="M220 263h182.74v80H220z" fill="none"/><g><use xlink:href="#b" transform="matrix(1,0,0,1,220,262.9999999999999) translate(0 10.664062499999996)"/><use xlink:href="#c" transform="matrix(1,0,0,1,220,262.9999999999999) translate(0 23.997395833333325)"/><use xlink:href="#d" transform="matrix(1,0,0,1,220,262.9999999999999) translate(0 37.33072916666666)"/><use xlink:href="#e" transform="matrix(1,0,0,1,220,262.9999999999999) translate(16.00260416666666 37.33072916666666)"/><use xlink:href="#f" transform="matrix(1,0,0,1,220,262.9999999999999) translate(96.01562499999996 37.33072916666666)"/><use xlink:href="#A" transform="matrix(1,0,0,1,220,262.9999999999999) translate(112.01822916666661 37.33072916666666)"/><use xlink:href="#d" transform="matrix(1,0,0,1,220,262.9999999999999) translate(0 50.664062499999986)"/><use xlink:href="#h" transform="matrix(1,0,0,1,220,262.9999999999999) translate(16.00260416666666 50.664062499999986)"/><use xlink:href="#f" transform="matrix(1,0,0,1,220,262.9999999999999) translate(96.01562499999996 50.664062499999986)"/><use xlink:href="#B" transform="matrix(1,0,0,1,220,262.9999999999999) translate(112.01822916666661 50.664062499999986)"/><use xlink:href="#j" transform="matrix(1,0,0,1,220,262.9999999999999) translate(0 63.997395833333314)"/></g><path d="M320 220h67.33v18H320z" fill="none"/><g><use xlink:href="#s" transform="matrix(1,0,0,1,320,220) translate(-14.007812499999979 13.497395833333332)"/></g><path d="M250.77 711h337.3v80h-337.3z" fill="none"/><g><use xlink:href="#t" transform="matrix(1,0,0,1,250.77189224804548,711) translate(0 10.664062499999996)"/><use xlink:href="#c" transform="matrix(1,0,0,1,250.77189224804548,711) translate(0 23.997395833333325)"/><use xlink:href="#d" transform="matrix(1,0,0,1,250.77189224804548,711) translate(0 37.33072916666666)"/><use xlink:href="#u" transform="matrix(1,0,0,1,250.77189224804548,711) translate(16.00260416666666 37.33072916666666)"/><use xlink:href="#f" transform="matrix(1,0,0,1,250.77189224804548,711) translate(136.0221354166666 37.33072916666666)"/><use xlink:href="#C" transform="matrix(1,0,0,1,250.77189224804548,711) translate(152.02473958333326 37.33072916666666)"/><use xlink:href="#d" transform="matrix(1,0,0,1,250.77189224804548,711) translate(0 50.664062499999986)"/><use xlink:href="#w" transform="matrix(1,0,0,1,250.77189224804548,711) translate(16.00260416666666 50.664062499999986)"/><use xlink:href="#f" transform="matrix(1,0,0,1,250.77189224804548,711) translate(136.0221354166666 50.664062499999986)"/><use xlink:href="#D" transform="matrix(1,0,0,1,250.77189224804548,711) translate(152.02473958333326 50.664062499999986)"/><use xlink:href="#E" transform="matrix(1,0,0,1,250.77189224804548,711) translate(232.03776041666657 50.664062499999986)"/><use xlink:href="#F" transform="matrix(1,0,0,1,250.77189224804548,711) translate(264.0429687499999 50.664062499999986)"/><use xlink:href="#j" transform="matrix(1,0,0,1,250.77189224804548,711) translate(0 63.997395833333314)"/></g><path d="M250.77 690c0 16.57-13.43 30-30 30s-30-13.43-30-30 13.43-30 30-30 30 13.43 30 30z" stroke="#3a414a" stroke-width="2" fill="#fff7a1"/><path d="M450.57 292.44V248a6 6 0 0 0-6-6H239.5" stroke="#3a414a" stroke-width="2" fill="none"/><path d="M450.57 307.7l-4.64-14.26h9.27zM224.24 242l14.26-4.64v9.28z" stroke="#3a414a" stroke-width="2" fill="#3a414a"/><path d="M490.12 293v-45.34a6 6 0 0 1 6-6h185.12" stroke="#3a414a" stroke-width="2" fill="none"/><path d="M490.12 308.26L485.48 294h9.27zM696.5 241.66l-14.26 4.63V237z" stroke="#3a414a" stroke-width="2" fill="#3a414a"/><path d="M850.87 349.96v104.87a6 6 0 0 1-6 6H699.5" stroke="#3a414a" stroke-width="2" fill="none"/><path d="M851.87 350h-2v-1.04h2z" stroke="#3a414a" stroke-width=".05" fill="#3a414a"/><path d="M684.24 460.83l14.26-4.63v9.27z" stroke="#3a414a" stroke-width="2" fill="#3a414a"/><path d="M650 492.83v120.85a6 6 0 0 1-6 6h-97.16" stroke="#3a414a" stroke-width="2" fill="none"/><path d="M649.98 491.83l1.02-.03v1.06h-2v-1.1z" stroke="#3a414a" stroke-width=".05" fill="#3a414a"/><path d="M531.57 619.68l14.27-4.63v9.27z" stroke="#3a414a" stroke-width="2" fill="#3a414a"/><path d="M278.4 492.83v120.85a6 6 0 0 0 6 6h163.43" stroke="#3a414a" stroke-width="2" fill="none"/><path d="M278.4 491.83l1-.03v1.06h-2v-1.1z" stroke="#3a414a" stroke-width=".05" fill="#3a414a"/><path d="M463.1 619.68l-14.27 4.64v-9.27z" stroke="#3a414a" stroke-width="2" fill="#3a414a"/><path d="M470 366.98v87.85a6 6 0 0 1-6 6H327.9" stroke="#3a414a" stroke-width="2" fill="none"/><path d="M469.98 365.98l1.02-.03V367h-2v-1.1z" stroke="#3a414a" stroke-width=".05" fill="#3a414a"/><path d="M312.65 460.83l14.26-4.63v9.27z" stroke="#3a414a" stroke-width="2" fill="#3a414a"/><path d="M761.74 275a6 6 0 0 1 6-6H934a6 6 0 0 1 6 6v68a6 6 0 0 1-6 6H767.74a6 6 0 0 1-6-6z" stroke="#000" stroke-opacity="0" fill-opacity="0"/><defs><path fill="#3a414a" d="M285-1169c8 382 2 780 4 1169H129v-1349h237c86 239 188 461 253 720 69-258 169-481 255-720h225V0H937c2-390-5-788 6-1169-75 255-170 488-259 729H547c-90-240-185-475-262-729" id="G"/><path fill="#3a414a" d="M1034 0L896-382H333L196 0H0l510-1349h217L1228 0h-194zM847-531c-77-225-157-447-231-674-69 231-154 451-232 674h463" id="H"/><path fill="#3a414a" d="M473-1349c438-1 655 221 652 661C1122-268 945-8 532 0H162v-1349h311zm42 1193c308-4 416-205 418-532 2-330-131-509-459-505H353v1037h162" id="I"/><path fill="#3a414a" d="M162 0v-1349h919v156H353v422h668v154H353v461h769V0H162" id="J"/><path fill="#3a414a" d="M-5 220v-96h1238v96H-5" id="K"/><path fill="#3a414a" d="M802-711c201 25 350 118 350 331C1152-95 921 0 634 0H162v-1349c401 9 908-74 908 327 0 184-111 275-268 311zm-224-69c174-2 300-51 300-218 0-163-124-198-302-198H353v416h225zM353-153c281-2 612 44 606-244-5-271-329-233-606-234v478" id="L"/><path fill="#3a414a" d="M708-584V0H520v-584L36-1349h205l374 611 372-611h205" id="M"/><g id="a"><use transform="matrix(0.006510416666666664,0,0,0.006510416666666664,0,0)" xlink:href="#G"/><use transform="matrix(0.006510416666666664,0,0,0.006510416666666664,8.00130208333333,0)" xlink:href="#H"/><use transform="matrix(0.006510416666666664,0,0,0.006510416666666664,16.00260416666666,0)" xlink:href="#I"/><use transform="matrix(0.006510416666666664,0,0,0.006510416666666664,24.003906249999993,0)" xlink:href="#J"/><use transform="matrix(0.006510416666666664,0,0,0.006510416666666664,32.00520833333332,0)" xlink:href="#K"/><use transform="matrix(0.006510416666666664,0,0,0.006510416666666664,40.00651041666665,0)" xlink:href="#L"/><use transform="matrix(0.006510416666666664,0,0,0.006510416666666664,48.00781249999998,0)" xlink:href="#M"/></g><path fill="#3a414a" d="M604-135c236 0 291-142 291-376v-838h190v859c5 340-142 510-480 510-326 0-463-164-463-492v-877h191v851c-3 222 46 363 271 363" id="N"/><path fill="#3a414a" d="M873-819c-18-114-119-146-250-146-163 0-245 50-245 151 0 151 170 148 294 185 182 54 388 94 388 320 0 240-189 325-439 329-245 4-410-69-454-268l159-31c24 133 136 168 295 165 144-2 270-31 270-171 0-164-195-160-331-202-167-52-350-87-350-299 0-218 173-315 413-313 220 2 373 77 412 260" id="O"/><path fill="#3a414a" d="M617-1102c355 0 481 238 477 599H322c5 222 84 388 301 388 144 0 244-59 284-166l158 45C1002-72 854 20 623 20c-342 0-490-220-490-568 0-346 151-554 484-554zm291 461c-18-192-90-328-289-328-194 0-287 128-295 328h584" id="P"/><path fill="#3a414a" d="M839-1102c70 0 148 7 206 17v167c-112-18-268-36-363 15-129 69-208 203-208 395V0H294c-10-367 32-789-52-1082h171c21 75 41 161 48 250h5c67-152 152-270 373-270" id="Q"/><g id="b"><use transform="matrix(0.006510416666666664,0,0,0.006510416666666664,0,0)" xlink:href="#N"/><use transform="matrix(0.006510416666666664,0,0,0.006510416666666664,8.00130208333333,0)" xlink:href="#O"/><use transform="matrix(0.006510416666666664,0,0,0.006510416666666664,16.00260416666666,0)" xlink:href="#P"/><use transform="matrix(0.006510416666666664,0,0,0.006510416666666664,24.003906249999993,0)" xlink:href="#Q"/></g><path fill="#3a414a" d="M554 91c-26 118 8 195 133 195h213l-27 139H608c-175 0-267-118-235-303 24-135 74-259 74-401 0-133-108-173-235-182l26-137c170-10 291-81 320-231l69-352c40-175 147-303 352-303h265l-27 139c-125 7-282-24-352 44-37 36-57 86-69 151l-68 346c-33 149-145 232-284 274 115 31 208 119 178 274" id="R"/><use transform="matrix(0.006510416666666664,0,0,0.006510416666666664,0,0)" xlink:href="#R" id="c"/><path fill="#3a414a" d="M967-845H825l84-639h224zm-449 0H377l83-639h224" id="S"/><path fill="#3a414a" d="M419 20c-186 0-282-64-284-243 0-40 5-86 15-138l140-721h180c-47 251-101 497-144 752-25 145 40 219 181 211 211-12 308-150 344-336l122-627h181C1087-721 1010-369 950 0H780c6-58 18-129 28-185h-3C720-71 616 20 419 20" id="T"/><path fill="#3a414a" d="M706-965c-176 0-278 51-278 181 0 125 156 122 261 155 163 51 371 93 326 320C971-85 782 18 512 20c-227 2-392-53-402-268l165-31c1 144 117 166 263 165 166-2 306-45 306-201 0-97-96-115-178-141-139-45-315-63-388-174-17-26-26-59-26-98 0-260 204-371 480-371 203 0 355 61 361 260l-166 20c2-122-100-146-221-146" id="U"/><path fill="#3a414a" d="M726-1102c256 0 385 126 386 379 1 67-11 147-25 220H315c-7 39-13 78-13 121 2 164 74 267 238 267 154 0 260-65 317-166l149 45C916-82 760 20 514 20c-259 0-398-131-398-390 0-357 148-615 421-704 62-20 125-28 189-28zm202 461c22-192-41-335-226-328-212 9-312 142-358 328h584" id="V"/><path fill="#3a414a" d="M523-832c93-143 191-271 425-270 69 0 147 7 203 17l-33 167c-114-19-266-34-366 15-148 73-248 213-284 395L369 0H189l136-701c21-116 30-253 22-381h171c8 76 8 174 0 250h5" id="W"/><path fill="#3a414a" d="M-153 220l19-96h1238l-19 96H-153" id="X"/><path fill="#3a414a" d="M668-142h380L1020 0H38l28-142h422l155-798H324l27-142h499zm23-1150l37-192h200l-37 192H691" id="Y"/><path fill="#3a414a" d="M772 0c2-57 14-121 24-174h-5C708-49 608 26 420 26 203 26 113-90 112-311c0-65 8-138 24-221 74-377 241-566 502-566 165 0 259 55 298 184 37-190 73-380 110-570h180C1133-988 1028-504 944 0H772zm109-648c26-189-33-326-219-317-242 11-291 213-338 427-15 68-22 130-23 201 1 149 51 224 193 224 258 0 321-215 372-441 8-34 12-65 15-94" id="Z"/><g id="e"><use transform="matrix(0.006510416666666664,0,0,0.006510416666666664,0,0)" xlink:href="#S"/><use transform="matrix(0.006510416666666664,0,0,0.006510416666666664,8.00130208333333,0)" xlink:href="#T"/><use transform="matrix(0.006510416666666664,0,0,0.006510416666666664,16.00260416666666,0)" xlink:href="#U"/><use transform="matrix(0.006510416666666664,0,0,0.006510416666666664,24.003906249999993,0)" xlink:href="#V"/><use transform="matrix(0.006510416666666664,0,0,0.006510416666666664,32.00520833333332,0)" xlink:href="#W"/><use transform="matrix(0.006510416666666664,0,0,0.006510416666666664,40.00651041666665,0)" xlink:href="#X"/><use transform="matrix(0.006510416666666664,0,0,0.006510416666666664,48.00781249999998,0)" xlink:href="#Y"/><use transform="matrix(0.006510416666666664,0,0,0.006510416666666664,56.0091145833333,0)" xlink:href="#Z"/><use transform="matrix(0.006510416666666664,0,0,0.006510416666666664,64.01041666666664,0)" xlink:href="#S"/></g><path fill="#3a414a" d="M391 0l58-299h235L626 0H391zm152-783l58-299h235l-58 299H543" id="aa"/><use transform="matrix(0.006510416666666664,0,0,0.006510416666666664,0,0)" xlink:href="#aa" id="f"/><path fill="#3a414a" d="M261-1120c230-8 401-96 507-229h166L700-145h353L1025 0H52l28-145h439l199-1021c-97 119-281 184-486 194" id="ab"/><path fill="#3a414a" d="M83 363l298-662h265L206 363H83" id="ac"/><g id="g"><use transform="matrix(0.006510416666666664,0,0,0.006510416666666664,0,0)" xlink:href="#ab"/><use transform="matrix(0.006510416666666664,0,0,0.006510416666666664,8.00130208333333,0)" xlink:href="#ac"/></g><path fill="#3a414a" d="M815-1102c202-2 311 102 279 314-40 267-101 525-150 788H763l135-695c7-39 11-71 11-98 2-119-62-175-179-170-208 9-312 151-348 336L260 0H80c67-361 144-713 204-1082h170c-6 58-17 130-28 185h3c86-116 194-203 386-205" id="ad"/><path fill="#3a414a" d="M948-272c-17 76-19 161 70 161 21 0 42-3 60-7L1056-6c-45 10-88 14-142 16-138 6-175-86-155-217h-6C661-83 550 15 337 20 138 24 42-104 82-302c49-247 238-349 523-354l236-4c9-47 22-94 22-148 0-118-65-155-184-157-151-3-231 57-266 172l-185-17c67-189 220-292 480-292 245 0 377 119 330 364zm-678-27c-21 109 31 185 140 182 176-5 282-102 348-217 37-66 43-123 59-200-145 7-304-9-409 44-71 36-119 96-138 191" id="ae"/><path fill="#3a414a" d="M1000-783c14-86 16-180-76-180-43 0-83 29-120 85s-67 140-88 251L594 0H426c49-261 107-518 150-783 14-86 14-191-77-180-103 13-137 116-173 209-17 43-28 93-39 147L169 0H0c67-361 144-713 204-1082h149c-6 55-18 122-28 175h2c54-95 112-192 254-195 127-2 153 72 158 196 61-99 122-196 274-196 124 0 168 64 168 192 0 67-10 125-22 189L1019 0H851c49-261 106-518 149-783" id="af"/><g id="h"><use transform="matrix(0.006510416666666664,0,0,0.006510416666666664,0,0)" xlink:href="#S"/><use transform="matrix(0.006510416666666664,0,0,0.006510416666666664,8.00130208333333,0)" xlink:href="#ad"/><use transform="matrix(0.006510416666666664,0,0,0.006510416666666664,16.00260416666666,0)" xlink:href="#ae"/><use transform="matrix(0.006510416666666664,0,0,0.006510416666666664,24.003906249999993,0)" xlink:href="#af"/><use transform="matrix(0.006510416666666664,0,0,0.006510416666666664,32.00520833333332,0)" xlink:href="#V"/><use transform="matrix(0.006510416666666664,0,0,0.006510416666666664,40.00651041666665,0)" xlink:href="#S"/></g><path fill="#3a414a" d="M832 0c78-390 148-786 233-1169-124 253-264 488-400 729H528c-43-241-94-472-121-729C339-774 258-390 184 0H24l262-1349h237c39 239 98 457 113 720 117-256 262-480 395-720h225L994 0H832" id="ag"/><path fill="#3a414a" d="M9 279c104 15 163 3 243-53 63-44 133-143 181-237L171-1082h192c62 299 135 587 188 896 174-300 351-597 525-896h190L600 0c-97 160-186 316-352 396-73 35-176 36-265 18" id="ah"/><g id="i"><use transform="matrix(0.006510416666666664,0,0,0.006510416666666664,0,0)" xlink:href="#S"/><use transform="matrix(0.006510416666666664,0,0,0.006510416666666664,8.00130208333333,0)" xlink:href="#ag"/><use transform="matrix(0.006510416666666664,0,0,0.006510416666666664,16.00260416666666,0)" xlink:href="#ae"/><use transform="matrix(0.006510416666666664,0,0,0.006510416666666664,24.003906249999993,0)" xlink:href="#W"/><use transform="matrix(0.006510416666666664,0,0,0.006510416666666664,32.00520833333332,0)" xlink:href="#ah"/><use transform="matrix(0.006510416666666664,0,0,0.006510416666666664,40.00651041666665,0)" xlink:href="#S"/></g><path fill="#3a414a" d="M782-829c-28 162 86 226 230 231l-26 137c-170 10-290 80-320 232l-69 351c-41 174-150 303-353 303H-21L6 286c127-7 286 22 354-44 32-31 56-80 69-151l68-347c32-151 143-234 283-276-114-31-202-119-177-272 23-141 76-269 76-420 0-92-49-121-143-121H323l27-139h265c172-5 272 121 236 303" id="ai"/><use transform="matrix(0.006510416666666664,0,0,0.006510416666666664,0,0)" xlink:href="#ai" id="j"/><path fill="#3a414a" d="M708-869c260 2 424 154 372 425-54 284-253 464-590 464C243 20 91-77 84-315l186-21c11 141 96 212 253 209 216-5 334-129 370-313 35-180-76-283-251-282-126 0-208 47-281 101H185l188-728h801l-28 145H511L399-779c77-49 180-91 309-90" id="aj"/><g id="k"><use transform="matrix(0.006510416666666664,0,0,0.006510416666666664,0,0)" xlink:href="#aj"/><use transform="matrix(0.006510416666666664,0,0,0.006510416666666664,8.00130208333333,0)" xlink:href="#ac"/></g><path fill="#3a414a" d="M132 0l262-1349h191L353-156h672L995 0H132" id="ak"/><g id="l"><use transform="matrix(0.006510416666666664,0,0,0.006510416666666664,0,0)" xlink:href="#S"/><use transform="matrix(0.006510416666666664,0,0,0.006510416666666664,8.00130208333333,0)" xlink:href="#ak"/><use transform="matrix(0.006510416666666664,0,0,0.006510416666666664,16.00260416666666,0)" xlink:href="#ae"/><use transform="matrix(0.006510416666666664,0,0,0.006510416666666664,24.003906249999993,0)" xlink:href="#W"/><use transform="matrix(0.006510416666666664,0,0,0.006510416666666664,32.00520833333332,0)" xlink:href="#W"/><use transform="matrix(0.006510416666666664,0,0,0.006510416666666664,40.00651041666665,0)" xlink:href="#ah"/><use transform="matrix(0.006510416666666664,0,0,0.006510416666666664,48.00781249999998,0)" xlink:href="#S"/></g><path fill="#3a414a" d="M1121-976c0 225-142 341-344 379L1177 0H957L591-575H353V0H162v-1349h482c281 3 477 100 477 373zM633-726c181-1 296-73 296-247 0-149-101-223-304-223H353v470h280" id="al"/><path fill="#3a414a" d="M715 0H502L69-1082h202c94 253 197 500 285 758 19 57 36 126 52 183 96-335 234-626 350-941h201" id="am"/><path fill="#3a414a" d="M745-142h380V0H143v-142h422v-798H246v-142h499v940zM545-1292v-192h200v192H545" id="an"/><path fill="#3a414a" d="M1018 0H814c-67-224-138-444-200-673C552-442 476-224 407 0H204L21-1082h178c43 310 105 601 126 933 54-225 128-425 193-638h193c63 212 134 415 185 638 22-336 90-622 136-933h176" id="ao"/><g id="m"><use transform="matrix(0.006510416666666664,0,0,0.006510416666666664,0,0)" xlink:href="#al"/><use transform="matrix(0.006510416666666664,0,0,0.006510416666666664,8.00130208333333,0)" xlink:href="#P"/><use transform="matrix(0.006510416666666664,0,0,0.006510416666666664,16.00260416666666,0)" xlink:href="#am"/><use transform="matrix(0.006510416666666664,0,0,0.006510416666666664,24.003906249999993,0)" xlink:href="#an"/><use transform="matrix(0.006510416666666664,0,0,0.006510416666666664,32.00520833333332,0)" xlink:href="#P"/><use transform="matrix(0.006510416666666664,0,0,0.006510416666666664,40.00651041666665,0)" xlink:href="#ao"/></g><path fill="#3a414a" d="M610 0H397L174-1082h202l131 704c10 72 16 162 23 237 161-331 356-627 533-941h201" id="ap"/><path fill="#3a414a" d="M913 0H709c-23-224-51-444-69-673C534-442 415-224 302 0H99l27-1082h178c-17 313-15 643-55 933 97-223 211-425 317-638h193c22 211 51 414 61 638 86-332 210-623 317-933h176" id="aq"/><g id="n"><use transform="matrix(0.006510416666666664,0,0,0.006510416666666664,0,0)" xlink:href="#S"/><use transform="matrix(0.006510416666666664,0,0,0.006510416666666664,8.00130208333333,0)" xlink:href="#W"/><use transform="matrix(0.006510416666666664,0,0,0.006510416666666664,16.00260416666666,0)" xlink:href="#V"/><use transform="matrix(0.006510416666666664,0,0,0.006510416666666664,24.003906249999993,0)" xlink:href="#ap"/><use transform="matrix(0.006510416666666664,0,0,0.006510416666666664,32.00520833333332,0)" xlink:href="#Y"/><use transform="matrix(0.006510416666666664,0,0,0.006510416666666664,40.00651041666665,0)" xlink:href="#V"/><use transform="matrix(0.006510416666666664,0,0,0.006510416666666664,48.00781249999998,0)" xlink:href="#aq"/><use transform="matrix(0.006510416666666664,0,0,0.006510416666666664,56.0091145833333,0)" xlink:href="#X"/><use transform="matrix(0.006510416666666664,0,0,0.006510416666666664,64.01041666666664,0)" xlink:href="#Y"/><use transform="matrix(0.006510416666666664,0,0,0.006510416666666664,72.01171874999997,0)" xlink:href="#Z"/><use transform="matrix(0.006510416666666664,0,0,0.006510416666666664,80.0130208333333,0)" xlink:href="#S"/></g><path fill="#3a414a" d="M801-1349c273-6 458 108 405 373-42 211-195 340-418 379L1072 0H852L598-575H360L248 0H57l262-1349h482zM669-726c214-4 349-100 349-300 0-113-89-170-266-170H480l-91 470h280" id="ar"/><g id="o"><use transform="matrix(0.006510416666666664,0,0,0.006510416666666664,0,0)" xlink:href="#S"/><use transform="matrix(0.006510416666666664,0,0,0.006510416666666664,8.00130208333333,0)" xlink:href="#ar"/><use transform="matrix(0.006510416666666664,0,0,0.006510416666666664,16.00260416666666,0)" xlink:href="#ab"/><use transform="matrix(0.006510416666666664,0,0,0.006510416666666664,24.003906249999993,0)" xlink:href="#S"/><use transform="matrix(0.006510416666666664,0,0,0.006510416666666664,32.00520833333332,0)" xlink:href="#ac"/></g><path fill="#3a414a" d="M574 16c-199 5-309-85-269-285l131-671H268l27-142h170l113-282h120l-55 282h432l-27 142H616c-43 233-105 457-132 696-16 144 198 111 324 99 46-6 96-14 136-22L918-30C819-5 700 13 574 16" id="as"/><g id="p"><use transform="matrix(0.006510416666666664,0,0,0.006510416666666664,0,0)" xlink:href="#S"/><use transform="matrix(0.006510416666666664,0,0,0.006510416666666664,8.00130208333333,0)" xlink:href="#W"/><use transform="matrix(0.006510416666666664,0,0,0.006510416666666664,16.00260416666666,0)" xlink:href="#V"/><use transform="matrix(0.006510416666666664,0,0,0.006510416666666664,24.003906249999993,0)" xlink:href="#ap"/><use transform="matrix(0.006510416666666664,0,0,0.006510416666666664,32.00520833333332,0)" xlink:href="#Y"/><use transform="matrix(0.006510416666666664,0,0,0.006510416666666664,40.00651041666665,0)" xlink:href="#V"/><use transform="matrix(0.006510416666666664,0,0,0.006510416666666664,48.00781249999998,0)" xlink:href="#aq"/><use transform="matrix(0.006510416666666664,0,0,0.006510416666666664,56.0091145833333,0)" xlink:href="#X"/><use transform="matrix(0.006510416666666664,0,0,0.006510416666666664,64.01041666666664,0)" xlink:href="#as"/><use transform="matrix(0.006510416666666664,0,0,0.006510416666666664,72.01171874999997,0)" xlink:href="#Y"/><use transform="matrix(0.006510416666666664,0,0,0.006510416666666664,80.0130208333333,0)" xlink:href="#af"/><use transform="matrix(0.006510416666666664,0,0,0.006510416666666664,88.01432291666663,0)" xlink:href="#V"/><use transform="matrix(0.006510416666666664,0,0,0.006510416666666664,96.01562499999996,0)" xlink:href="#S"/></g><path fill="#3a414a" d="M1074-1484C764-1178 497-826 497-240c0 287 95 480 206 665H513C401 244 309 50 309-234c0-588 264-946 575-1250h190" id="at"/><path fill="#3a414a" d="M772-1370c250-5 434 113 380 368-48 227-231 344-394 464-130 96-274 183-388 290-35 33-63 67-86 102h723L979 0H39l23-117c190-289 528-436 773-668 71-67 136-137 136-262 0-129-96-175-227-175-165 0-275 97-315 238l-180-17c75-217 236-364 523-369" id="au"/><path fill="#3a414a" d="M778-1370c265 0 387 149 381 421-8 347-108 641-279 816C787-38 668 16 502 20 192 27 89-213 128-534c36-292 118-539 270-692 93-94 212-144 380-144zM332-675c-50 246-71 554 201 548 198-5 278-133 341-289 53-133 101-344 104-531 3-173-58-280-228-277-204 3-283 125-346 284-28 70-51 159-72 265" id="av"/><path fill="#3a414a" d="M319-464l31-160h560l-31 160H319" id="aw"/><path fill="#3a414a" d="M794-689c173 21 307 121 272 319-46 257-247 390-554 390C242 20 81-90 93-362l190-17c-8 173 87 252 258 250 204-3 343-96 343-288 0-182-207-196-405-192l31-156c246 10 459-51 459-286 0-122-89-172-225-171-169 1-285 96-324 233l-178-14c75-223 246-362 532-367 246-5 426 101 378 354-35 181-173 283-357 323" id="ax"/><path fill="#3a414a" d="M915-832c0 594-261 950-575 1257H148C458 120 728-231 728-816c0-288-97-482-209-668h192c111 180 204 370 204 652" id="ay"/><g id="q"><use transform="matrix(0.006510416666666664,0,0,0.006510416666666664,0,0)" xlink:href="#Z"/><use transform="matrix(0.006510416666666664,0,0,0.006510416666666664,8.00130208333333,0)" xlink:href="#ae"/><use transform="matrix(0.006510416666666664,0,0,0.006510416666666664,16.00260416666666,0)" xlink:href="#as"/><use transform="matrix(0.006510416666666664,0,0,0.006510416666666664,24.003906249999993,0)" xlink:href="#V"/><use transform="matrix(0.006510416666666664,0,0,0.006510416666666664,32.00520833333332,0)" xlink:href="#at"/><use transform="matrix(0.006510416666666664,0,0,0.006510416666666664,40.00651041666665,0)" xlink:href="#S"/><use transform="matrix(0.006510416666666664,0,0,0.006510416666666664,48.00781249999998,0)" xlink:href="#au"/><use transform="matrix(0.006510416666666664,0,0,0.006510416666666664,56.0091145833333,0)" xlink:href="#av"/><use transform="matrix(0.006510416666666664,0,0,0.006510416666666664,64.01041666666664,0)" xlink:href="#au"/><use transform="matrix(0.006510416666666664,0,0,0.006510416666666664,72.01171874999997,0)" xlink:href="#au"/><use transform="matrix(0.006510416666666664,0,0,0.006510416666666664,80.0130208333333,0)" xlink:href="#aw"/><use transform="matrix(0.006510416666666664,0,0,0.006510416666666664,88.01432291666663,0)" xlink:href="#av"/><use transform="matrix(0.006510416666666664,0,0,0.006510416666666664,96.01562499999996,0)" xlink:href="#ax"/><use transform="matrix(0.006510416666666664,0,0,0.006510416666666664,104.01692708333329,0)" xlink:href="#aw"/><use transform="matrix(0.006510416666666664,0,0,0.006510416666666664,112.0182291666666,0)" xlink:href="#av"/><use transform="matrix(0.006510416666666664,0,0,0.006510416666666664,120.01953124999993,0)" xlink:href="#ab"/><use transform="matrix(0.006510416666666664,0,0,0.006510416666666664,128.0208333333333,0)" xlink:href="#S"/><use transform="matrix(0.006510416666666664,0,0,0.006510416666666664,136.02213541666663,0)" xlink:href="#ay"/></g><g id="r"><use transform="matrix(0.006510416666666664,0,0,0.006510416666666664,0,0)" xlink:href="#S"/><use transform="matrix(0.006510416666666664,0,0,0.006510416666666664,8.00130208333333,0)" xlink:href="#ar"/><use transform="matrix(0.006510416666666664,0,0,0.006510416666666664,16.00260416666666,0)" xlink:href="#au"/><use transform="matrix(0.006510416666666664,0,0,0.006510416666666664,24.003906249999993,0)" xlink:href="#S"/><use transform="matrix(0.006510416666666664,0,0,0.006510416666666664,32.00520833333332,0)" xlink:href="#ac"/></g><path fill="#3a414a" d="M385-1193v494h676v158H385V0H194v-1349h891v156H385" id="az"/><path fill="#3a414a" d="M202-1349h823v156H709v1037h316V0H202v-156h316v-1037H202v-156" id="aA"/><path fill="#3a414a" d="M912-211c-10-84-18-177-18-274v-864h172V0H836L316-1130c7 79 16 167 16 254V0H162v-1349h222" id="aB"/><path fill="#3a414a" d="M614-1226c-167 1-283 53-283 213 0 183 186 193 334 234 230 63 463 120 463 409 0 286-219 387-518 390C309 23 131-98 79-338l185-37c34 165 149 248 351 246 184-2 324-58 324-238 0-203-207-221-372-266-210-57-422-111-422-377 0-267 201-356 470-360 279-5 430 101 480 324l-188 33c-28-141-121-215-293-213" id="aC"/><path fill="#3a414a" d="M1018 0H810c-67-251-137-496-194-756C558-495 487-250 419 0H211L0-1349h189c48 393 110 772 142 1181 58-262 128-512 197-763h175c69 251 139 500 197 763 37-402 92-789 139-1181h189" id="aD"/><path fill="#3a414a" d="M709-1193V0H519v-1193H76v-156h1076v156H709" id="aE"/><path fill="#3a414a" d="M875 0v-623H353V0H162v-1349h191v566h522v-566h191V0H875" id="aF"/><g id="s"><use transform="matrix(0.006510416666666664,0,0,0.006510416666666664,0,0)" xlink:href="#az"/><use transform="matrix(0.006510416666666664,0,0,0.006510416666666664,8.00130208333333,0)" xlink:href="#al"/><use transform="matrix(0.006510416666666664,0,0,0.006510416666666664,16.00260416666666,0)" xlink:href="#aA"/><use transform="matrix(0.006510416666666664,0,0,0.006510416666666664,24.003906249999993,0)" xlink:href="#J"/><use transform="matrix(0.006510416666666664,0,0,0.006510416666666664,32.00520833333332,0)" xlink:href="#aB"/><use transform="matrix(0.006510416666666664,0,0,0.006510416666666664,40.00651041666665,0)" xlink:href="#I"/><use transform="matrix(0.006510416666666664,0,0,0.006510416666666664,48.00781249999998,0)" xlink:href="#aC"/><use transform="matrix(0.006510416666666664,0,0,0.006510416666666664,56.0091145833333,0)" xlink:href="#K"/><use transform="matrix(0.006510416666666664,0,0,0.006510416666666664,64.01041666666664,0)" xlink:href="#aD"/><use transform="matrix(0.006510416666666664,0,0,0.006510416666666664,72.01171874999997,0)" xlink:href="#aA"/><use transform="matrix(0.006510416666666664,0,0,0.006510416666666664,80.0130208333333,0)" xlink:href="#aE"/><use transform="matrix(0.006510416666666664,0,0,0.006510416666666664,88.01432291666663,0)" xlink:href="#aF"/></g><path fill="#3a414a" d="M528 20c-247 0-343-132-343-381v-721h180v686c-4 177 45 284 224 277 194-8 279-136 279-336v-627h181c3 360-6 732 6 1082H885c-4-54-7-126-8-185h-3C809-64 714 20 528 20" id="aG"/><path fill="#3a414a" d="M706-1102c241 0 344 136 343 381V0H868v-695c1-168-57-273-220-268-190 6-283 138-283 336V0H185c-3-360 6-732-6-1082h170c4 54 7 126 8 185h3c63-121 164-204 346-205" id="aH"/><g id="t"><use transform="matrix(0.006510416666666664,0,0,0.006510416666666664,0,0)" xlink:href="#L"/><use transform="matrix(0.006510416666666664,0,0,0.006510416666666664,8.00130208333333,0)" xlink:href="#aG"/><use transform="matrix(0.006510416666666664,0,0,0.006510416666666664,16.00260416666666,0)" xlink:href="#O"/><use transform="matrix(0.006510416666666664,0,0,0.006510416666666664,24.003906249999993,0)" xlink:href="#an"/><use transform="matrix(0.006510416666666664,0,0,0.006510416666666664,32.00520833333332,0)" xlink:href="#aH"/><use transform="matrix(0.006510416666666664,0,0,0.006510416666666664,40.00651041666665,0)" xlink:href="#P"/><use transform="matrix(0.006510416666666664,0,0,0.006510416666666664,48.00781249999998,0)" xlink:href="#O"/><use transform="matrix(0.006510416666666664,0,0,0.006510416666666664,56.0091145833333,0)" xlink:href="#O"/></g><path fill="#3a414a" d="M809-1104c212 0 310 122 306 343-4 250-95 524-208 640C818-30 715 20 589 20c-161 0-261-59-300-184-11 55-26 116-41 164H74c18-68 35-148 49-223l245-1261h180c-39 193-73 391-116 580h4c79-124 190-200 373-200zM348-430c-24 189 33 326 217 317 240-12 292-213 339-427 14-65 21-126 22-196 0-150-52-229-193-229-257 0-320 212-371 441-7 34-11 65-14 94" id="aI"/><g id="u"><use transform="matrix(0.006510416666666664,0,0,0.006510416666666664,0,0)" xlink:href="#S"/><use transform="matrix(0.006510416666666664,0,0,0.006510416666666664,8.00130208333333,0)" xlink:href="#aI"/><use transform="matrix(0.006510416666666664,0,0,0.006510416666666664,16.00260416666666,0)" xlink:href="#T"/><use transform="matrix(0.006510416666666664,0,0,0.006510416666666664,24.003906249999993,0)" xlink:href="#U"/><use transform="matrix(0.006510416666666664,0,0,0.006510416666666664,32.00520833333332,0)" xlink:href="#Y"/><use transform="matrix(0.006510416666666664,0,0,0.006510416666666664,40.00651041666665,0)" xlink:href="#ad"/><use transform="matrix(0.006510416666666664,0,0,0.006510416666666664,48.00781249999998,0)" xlink:href="#V"/><use transform="matrix(0.006510416666666664,0,0,0.006510416666666664,56.0091145833333,0)" xlink:href="#U"/><use transform="matrix(0.006510416666666664,0,0,0.006510416666666664,64.01041666666664,0)" xlink:href="#U"/><use transform="matrix(0.006510416666666664,0,0,0.006510416666666664,72.01171874999997,0)" xlink:href="#X"/><use transform="matrix(0.006510416666666664,0,0,0.006510416666666664,80.0130208333333,0)" xlink:href="#Y"/><use transform="matrix(0.006510416666666664,0,0,0.006510416666666664,88.01432291666663,0)" xlink:href="#Z"/><use transform="matrix(0.006510416666666664,0,0,0.006510416666666664,96.01562499999996,0)" xlink:href="#S"/></g><path fill="#3a414a" d="M835-711c190 18 326 126 286 331C1069-115 841 0 529 0H57l262-1349c255 10 562-35 737 61 69 38 115 97 115 197 0 221-142 336-336 380zm-210-69c204-1 347-74 347-264 0-197-289-143-492-152l-80 416h225zm-81 627c228 0 392-77 392-293 0-233-325-177-565-185l-93 478h266" id="aJ"/><g id="v"><use transform="matrix(0.006510416666666664,0,0,0.006510416666666664,0,0)" xlink:href="#S"/><use transform="matrix(0.006510416666666664,0,0,0.006510416666666664,8.00130208333333,0)" xlink:href="#aJ"/><use transform="matrix(0.006510416666666664,0,0,0.006510416666666664,16.00260416666666,0)" xlink:href="#ax"/><use transform="matrix(0.006510416666666664,0,0,0.006510416666666664,24.003906249999993,0)" xlink:href="#S"/><use transform="matrix(0.006510416666666664,0,0,0.006510416666666664,32.00520833333332,0)" xlink:href="#ac"/></g><g id="w"><use transform="matrix(0.006510416666666664,0,0,0.006510416666666664,0,0)" xlink:href="#S"/><use transform="matrix(0.006510416666666664,0,0,0.006510416666666664,8.00130208333333,0)" xlink:href="#ad"/><use transform="matrix(0.006510416666666664,0,0,0.006510416666666664,16.00260416666666,0)" xlink:href="#ae"/><use transform="matrix(0.006510416666666664,0,0,0.006510416666666664,24.003906249999993,0)" xlink:href="#af"/><use transform="matrix(0.006510416666666664,0,0,0.006510416666666664,32.00520833333332,0)" xlink:href="#V"/><use transform="matrix(0.006510416666666664,0,0,0.006510416666666664,40.00651041666665,0)" xlink:href="#S"/></g><path fill="#3a414a" d="M305-328c2 145 68 191 220 193 255 4 322-161 364-376l163-838h190l-167 859C1015-179 865 20 496 20c-240 0-388-82-386-321 0-51 6-108 19-171l170-877h191c-59 315-126 624-180 944-5 28-5 54-5 77" id="aK"/><path fill="#3a414a" d="M522 20c-267 0-410-127-410-389 0-365 156-619 438-707 169-53 390-23 481 68 54 54 92 128 93 229l-194 14c0-132-80-198-224-196-263 3-339 192-386 415-13 63-19 121-19 174-1 166 74 255 240 253 161-2 266-84 309-215l188 12C961-121 793 20 522 20" id="aL"/><path fill="#3a414a" d="M659-142h380L1011 0H29l28-142h422l233-1200H423l27-142h469" id="aM"/><path fill="#3a414a" d="M743-845H602l83-639h224" id="aN"/><g id="x"><use transform="matrix(0.006510416666666664,0,0,0.006510416666666664,0,0)" xlink:href="#S"/><use transform="matrix(0.006510416666666664,0,0,0.006510416666666664,8.00130208333333,0)" xlink:href="#aK"/><use transform="matrix(0.006510416666666664,0,0,0.006510416666666664,16.00260416666666,0)" xlink:href="#ad"/><use transform="matrix(0.006510416666666664,0,0,0.006510416666666664,24.003906249999993,0)" xlink:href="#aL"/><use transform="matrix(0.006510416666666664,0,0,0.006510416666666664,32.00520833333332,0)" xlink:href="#aM"/><use transform="matrix(0.006510416666666664,0,0,0.006510416666666664,40.00651041666665,0)" xlink:href="#V"/><use transform="matrix(0.006510416666666664,0,0,0.006510416666666664,48.00781249999998,0)" xlink:href="#aN"/><use transform="matrix(0.006510416666666664,0,0,0.006510416666666664,56.0091145833333,0)" xlink:href="#U"/></g><path fill="#3a414a" d="M809 0L540-499l-151 98L311 0H131l288-1484h180L419-557l577-525h211L678-617 1020 0H809" id="aO"/><g id="y"><use transform="matrix(0.006510416666666664,0,0,0.006510416666666664,0,0)" xlink:href="#aJ"/><use transform="matrix(0.006510416666666664,0,0,0.006510416666666664,8.00130208333333,0)" xlink:href="#ae"/><use transform="matrix(0.006510416666666664,0,0,0.006510416666666664,16.00260416666666,0)" xlink:href="#aO"/><use transform="matrix(0.006510416666666664,0,0,0.006510416666666664,24.003906249999993,0)" xlink:href="#V"/><use transform="matrix(0.006510416666666664,0,0,0.006510416666666664,32.00520833333332,0)" xlink:href="#W"/><use transform="matrix(0.006510416666666664,0,0,0.006510416666666664,40.00651041666665,0)" xlink:href="#ah"/><use transform="matrix(0.006510416666666664,0,0,0.006510416666666664,48.00781249999998,0)" xlink:href="#S"/></g><path fill="#3a414a" d="M102-681c0-398 126-689 513-689 165 0 291 58 379 174s132 287 132 515c-1 318-88 554-298 657-123 61-317 58-438-3-206-104-288-341-288-654zm749 406c94-160 97-656-5-807-57-85-130-132-231-132-104 0-178 47-234 132-101 153-99 655 1 809 57 89 130 138 232 138 109 0 184-49 237-140" id="aP"/><g id="z"><use transform="matrix(0.006510416666666664,0,0,0.006510416666666664,0,0)" xlink:href="#H"/><use transform="matrix(0.006510416666666664,0,0,0.006510416666666664,8.00130208333333,0)" xlink:href="#L"/><use transform="matrix(0.006510416666666664,0,0,0.006510416666666664,16.00260416666666,0)" xlink:href="#aP"/><use transform="matrix(0.006510416666666664,0,0,0.006510416666666664,24.003906249999993,0)" xlink:href="#N"/><use transform="matrix(0.006510416666666664,0,0,0.006510416666666664,32.00520833333332,0)" xlink:href="#aE"/></g><path fill="#3a414a" d="M894-319L832 0H652l62-319H60l27-140 808-890h199L922-461h188l-28 142H894zm-18-835L242-461h500" id="aQ"/><g id="A"><use transform="matrix(0.006510416666666664,0,0,0.006510416666666664,0,0)" xlink:href="#aQ"/><use transform="matrix(0.006510416666666664,0,0,0.006510416666666664,8.00130208333333,0)" xlink:href="#ac"/></g><path fill="#3a414a" d="M747-1226c-195 1-328 74-328 254 0 150 168 158 292 193 206 58 444 122 384 409-56 265-271 388-594 390C217 22 49-81 40-338l192-37c3 179 117 247 303 246 215-2 375-80 375-283 0-168-187-179-325-221-168-51-357-87-357-299 0-308 229-433 548-438 258-4 409 81 417 324l-194 33c-2-154-93-214-252-213" id="aR"/><g id="B"><use transform="matrix(0.006510416666666664,0,0,0.006510416666666664,0,0)" xlink:href="#S"/><use transform="matrix(0.006510416666666664,0,0,0.006510416666666664,8.00130208333333,0)" xlink:href="#aR"/><use transform="matrix(0.006510416666666664,0,0,0.006510416666666664,16.00260416666666,0)" xlink:href="#T"/><use transform="matrix(0.006510416666666664,0,0,0.006510416666666664,24.003906249999993,0)" xlink:href="#U"/><use transform="matrix(0.006510416666666664,0,0,0.006510416666666664,32.00520833333332,0)" xlink:href="#ae"/><use transform="matrix(0.006510416666666664,0,0,0.006510416666666664,40.00651041666665,0)" xlink:href="#ad"/><use transform="matrix(0.006510416666666664,0,0,0.006510416666666664,48.00781249999998,0)" xlink:href="#S"/></g><g id="C"><use transform="matrix(0.006510416666666664,0,0,0.006510416666666664,0,0)" xlink:href="#S"/><use transform="matrix(0.006510416666666664,0,0,0.006510416666666664,8.00130208333333,0)" xlink:href="#aJ"/><use transform="matrix(0.006510416666666664,0,0,0.006510416666666664,16.00260416666666,0)" xlink:href="#au"/><use transform="matrix(0.006510416666666664,0,0,0.006510416666666664,24.003906249999993,0)" xlink:href="#S"/><use transform="matrix(0.006510416666666664,0,0,0.006510416666666664,32.00520833333332,0)" xlink:href="#ac"/></g><path fill="#3a414a" d="M724-1102c292 0 423 159 388 460-35 307-154 537-400 628-65 24-136 34-212 34-254-2-388-131-388-387 0-255 97-480 226-595 103-92 231-140 386-140zM381-747C294-559 211-98 524-113c294-14 359-254 399-525 28-194-32-337-222-331-174 5-260 94-320 222" id="aS"/><path fill="#3a414a" d="M909-793c2-119-62-175-179-170-208 9-312 151-348 336L260 0H80l288-1484h181c-40 197-71 402-123 587h3c84-115 190-205 379-205 182 0 290 76 289 259 0 38-4 79-13 122L944 0H763l135-695c7-39 11-71 11-98" id="aT"/><g id="D"><use transform="matrix(0.006510416666666664,0,0,0.006510416666666664,0,0)" xlink:href="#S"/><use transform="matrix(0.006510416666666664,0,0,0.006510416666666664,8.00130208333333,0)" xlink:href="#ag"/><use transform="matrix(0.006510416666666664,0,0,0.006510416666666664,16.00260416666666,0)" xlink:href="#aS"/><use transform="matrix(0.006510416666666664,0,0,0.006510416666666664,24.003906249999993,0)" xlink:href="#as"/><use transform="matrix(0.006510416666666664,0,0,0.006510416666666664,32.00520833333332,0)" xlink:href="#aT"/><use transform="matrix(0.006510416666666664,0,0,0.006510416666666664,40.00651041666665,0)" xlink:href="#V"/><use transform="matrix(0.006510416666666664,0,0,0.006510416666666664,48.00781249999998,0)" xlink:href="#W"/><use transform="matrix(0.006510416666666664,0,0,0.006510416666666664,56.0091145833333,0)" xlink:href="#aN"/><use transform="matrix(0.006510416666666664,0,0,0.006510416666666664,64.01041666666664,0)" xlink:href="#U"/></g><path fill="#3a414a" d="M404-910c-91 237-198 789 172 775 112-4 203-35 275-74l65-336H623l31-160h479l-111 572C890-56 737 20 530 20c-288 0-414-182-414-471 0-410 145-744 442-874 111-49 295-62 416-19 132 46 202 153 226 305l-182 56c-23-138-86-231-243-231-216 0-307 139-371 304" id="aU"/><g id="E"><use transform="matrix(0.006510416666666664,0,0,0.006510416666666664,0,0)" xlink:href="#aU"/><use transform="matrix(0.006510416666666664,0,0,0.006510416666666664,8.00130208333333,0)" xlink:href="#ae"/><use transform="matrix(0.006510416666666664,0,0,0.006510416666666664,16.00260416666666,0)" xlink:href="#U"/></g><g id="F"><use transform="matrix(0.006510416666666664,0,0,0.006510416666666664,0,0)" xlink:href="#aR"/><use transform="matrix(0.006510416666666664,0,0,0.006510416666666664,8.00130208333333,0)" xlink:href="#as"/><use transform="matrix(0.006510416666666664,0,0,0.006510416666666664,16.00260416666666,0)" xlink:href="#ae"/><use transform="matrix(0.006510416666666664,0,0,0.006510416666666664,24.003906249999993,0)" xlink:href="#as"/><use transform="matrix(0.006510416666666664,0,0,0.006510416666666664,32.00520833333332,0)" xlink:href="#Y"/><use transform="matrix(0.006510416666666664,0,0,0.006510416666666664,40.00651041666665,0)" xlink:href="#aS"/><use transform="matrix(0.006510416666666664,0,0,0.006510416666666664,48.00781249999998,0)" xlink:href="#ad"/><use transform="matrix(0.006510416666666664,0,0,0.006510416666666664,56.0091145833333,0)" xlink:href="#S"/></g></defs></g></svg>