<svg xmlns="http://www.w3.org/2000/svg" xmlns:xlink="http://www.w3.org/1999/xlink" xmlns:lucid="lucid" width="658" height="326"><g transform="translate(-306 -488)" lucid:page-tab-id="fe2i6gIdc00c"><path d="M660 530c0 16.57-13.43 30-30 30s-30-13.43-30-30 13.43-30 30-30 30 13.43 30 30z" stroke="#3a414a" stroke-width="2" fill="#fff7a1"/><path d="M660 550.5h300v80H660z" fill="none"/><use xlink:href="#a" transform="matrix(1,0,0,1,659.9999999999854,550.4907879535372) translate(0 10.664062499999996)"/><use xlink:href="#b" transform="matrix(1,0,0,1,659.9999999999854,550.4907879535372) translate(0 23.997395833333325)"/><use xlink:href="#c" transform="matrix(1,0,0,1,659.9999999999854,550.4907879535372) translate(0 37.33072916666666)"/><use xlink:href="#d" transform="matrix(1,0,0,1,659.9999999999854,550.4907879535372) translate(16.00260416666666 37.33072916666666)"/><use xlink:href="#e" transform="matrix(1,0,0,1,659.9999999999854,550.4907879535372) translate(128.0208333333333 37.33072916666666)"/><use xlink:href="#f" transform="matrix(1,0,0,1,659.9999999999854,550.4907879535372) translate(144.02343749999994 37.33072916666666)"/><use xlink:href="#c" transform="matrix(1,0,0,1,659.9999999999854,550.4907879535372) translate(0 50.664062499999986)"/><use xlink:href="#g" transform="matrix(1,0,0,1,659.9999999999854,550.4907879535372) translate(16.00260416666666 50.664062499999986)"/><use xlink:href="#e" transform="matrix(1,0,0,1,659.9999999999854,550.4907879535372) translate(128.0208333333333 50.664062499999986)"/><use xlink:href="#h" transform="matrix(1,0,0,1,659.9999999999854,550.4907879535372) translate(144.02343749999994 50.664062499999986)"/><use xlink:href="#i" transform="matrix(1,0,0,1,659.9999999999854,550.4907879535372) translate(0 63.997395833333314)"/><path d="M380 530c0 16.57-13.43 30-30 30s-30-13.43-30-30 13.43-30 30-30 30 13.43 30 30z" stroke="#3a414a" stroke-width="2" fill="#fff7a1"/><path d="M380 551h182.74v80H380z" fill="none"/><use xlink:href="#j" transform="matrix(1,0,0,1,380,551.0000000000001) translate(0 10.664062499999996)"/><use xlink:href="#b" transform="matrix(1,0,0,1,380,551.0000000000001) translate(0 23.997395833333325)"/><use xlink:href="#c" transform="matrix(1,0,0,1,380,551.0000000000001) translate(0 37.33072916666666)"/><use xlink:href="#k" transform="matrix(1,0,0,1,380,551.0000000000001) translate(16.00260416666666 37.33072916666666)"/><use xlink:href="#e" transform="matrix(1,0,0,1,380,551.0000000000001) translate(96.01562499999996 37.33072916666666)"/><use xlink:href="#l" transform="matrix(1,0,0,1,380,551.0000000000001) translate(112.01822916666661 37.33072916666666)"/><use xlink:href="#c" transform="matrix(1,0,0,1,380,551.0000000000001) translate(0 50.664062499999986)"/><use xlink:href="#m" transform="matrix(1,0,0,1,380,551.0000000000001) translate(16.00260416666666 50.664062499999986)"/><use xlink:href="#e" transform="matrix(1,0,0,1,380,551.0000000000001) translate(96.01562499999996 50.664062499999986)"/><use xlink:href="#n" transform="matrix(1,0,0,1,380,551.0000000000001) translate(112.01822916666661 50.664062499999986)"/><use xlink:href="#i" transform="matrix(1,0,0,1,380,551.0000000000001) translate(0 63.997395833333314)"/><path d="M598.17 532.8h-198.9" stroke="#3a414a" stroke-width="2" fill="none"/><path d="M599.08 532.25l.24 1.56h-1.18v-2h.92z" stroke="#3a414a" stroke-width=".05" fill="#3a414a"/><path d="M384 532.8l14.27-4.63v9.27z" stroke="#3a414a" stroke-width="2" fill="#3a414a"/><g><use xlink:href="#o" transform="matrix(1,0,0,1,484.0607892170691,536.8062529070238) translate(0 10.664062499999995)"/></g><path d="M660 710c0 16.57-13.43 30-30 30s-30-13.43-30-30 13.43-30 30-30 30 13.43 30 30z" stroke="#3a414a" stroke-width="2" fill="#fff7a1"/><path d="M660 730.5h300v80H660z" fill="none"/><g><use xlink:href="#a" transform="matrix(1,0,0,1,659.9999999999854,730.4907879535372) translate(0 10.664062499999996)"/><use xlink:href="#b" transform="matrix(1,0,0,1,659.9999999999854,730.4907879535372) translate(0 23.997395833333325)"/><use xlink:href="#c" transform="matrix(1,0,0,1,659.9999999999854,730.4907879535372) translate(0 37.33072916666666)"/><use xlink:href="#d" transform="matrix(1,0,0,1,659.9999999999854,730.4907879535372) translate(16.00260416666666 37.33072916666666)"/><use xlink:href="#e" transform="matrix(1,0,0,1,659.9999999999854,730.4907879535372) translate(128.0208333333333 37.33072916666666)"/><use xlink:href="#p" transform="matrix(1,0,0,1,659.9999999999854,730.4907879535372) translate(144.02343749999994 37.33072916666666)"/><use xlink:href="#c" transform="matrix(1,0,0,1,659.9999999999854,730.4907879535372) translate(0 50.664062499999986)"/><use xlink:href="#g" transform="matrix(1,0,0,1,659.9999999999854,730.4907879535372) translate(16.00260416666666 50.664062499999986)"/><use xlink:href="#e" transform="matrix(1,0,0,1,659.9999999999854,730.4907879535372) translate(128.0208333333333 50.664062499999986)"/><use xlink:href="#h" transform="matrix(1,0,0,1,659.9999999999854,730.4907879535372) translate(144.02343749999994 50.664062499999986)"/><use xlink:href="#i" transform="matrix(1,0,0,1,659.9999999999854,730.4907879535372) translate(0 63.997395833333314)"/></g><path d="M380 710c0 16.57-13.43 30-30 30s-30-13.43-30-30 13.43-30 30-30 30 13.43 30 30z" stroke="#3a414a" stroke-width="2" fill="#fff7a1"/><path d="M380 731h182.74v80H380z" fill="none"/><g><use xlink:href="#j" transform="matrix(1,0,0,1,380,731) translate(0 10.664062499999996)"/><use xlink:href="#b" transform="matrix(1,0,0,1,380,731) translate(0 23.997395833333325)"/><use xlink:href="#c" transform="matrix(1,0,0,1,380,731) translate(0 37.33072916666666)"/><use xlink:href="#k" transform="matrix(1,0,0,1,380,731) translate(16.00260416666666 37.33072916666666)"/><use xlink:href="#e" transform="matrix(1,0,0,1,380,731) translate(96.01562499999996 37.33072916666666)"/><use xlink:href="#q" transform="matrix(1,0,0,1,380,731) translate(112.01822916666661 37.33072916666666)"/><use xlink:href="#c" transform="matrix(1,0,0,1,380,731) translate(0 50.664062499999986)"/><use xlink:href="#m" transform="matrix(1,0,0,1,380,731) translate(16.00260416666666 50.664062499999986)"/><use xlink:href="#e" transform="matrix(1,0,0,1,380,731) translate(96.01562499999996 50.664062499999986)"/><use xlink:href="#r" transform="matrix(1,0,0,1,380,731) translate(112.01822916666661 50.664062499999986)"/><use xlink:href="#i" transform="matrix(1,0,0,1,380,731) translate(0 63.997395833333314)"/></g><path d="M598.17 712.8h-198.9" stroke="#3a414a" stroke-width="2" fill="none"/><path d="M599.08 712.25l.24 1.56h-1.18v-2h.92z" stroke="#3a414a" stroke-width=".05" fill="#3a414a"/><path d="M384 712.8l14.27-4.63v9.27z" stroke="#3a414a" stroke-width="2" fill="#3a414a"/><g><use xlink:href="#o" transform="matrix(1,0,0,1,484.0607892170691,716.8062529070238) translate(0 10.664062499999995)"/></g><defs><path fill="#3a414a" d="M1121-976c0 225-142 341-344 379L1177 0H957L591-575H353V0H162v-1349h482c281 3 477 100 477 373zM633-726c181-1 296-73 296-247 0-149-101-223-304-223H353v470h280" id="s"/><path fill="#3a414a" d="M617-1102c355 0 481 238 477 599H322c5 222 84 388 301 388 144 0 244-59 284-166l158 45C1002-72 854 20 623 20c-342 0-490-220-490-568 0-346 151-554 484-554zm291 461c-18-192-90-328-289-328-194 0-287 128-295 328h584" id="t"/><path fill="#3a414a" d="M715 0H502L69-1082h202c94 253 197 500 285 758 19 57 36 126 52 183 96-335 234-626 350-941h201" id="u"/><path fill="#3a414a" d="M745-142h380V0H143v-142h422v-798H246v-142h499v940zM545-1292v-192h200v192H545" id="v"/><path fill="#3a414a" d="M1018 0H814c-67-224-138-444-200-673C552-442 476-224 407 0H204L21-1082h178c43 310 105 601 126 933 54-225 128-425 193-638h193c63 212 134 415 185 638 22-336 90-622 136-933h176" id="w"/><g id="a"><use transform="matrix(0.006510416666666664,0,0,0.006510416666666664,0,0)" xlink:href="#s"/><use transform="matrix(0.006510416666666664,0,0,0.006510416666666664,8.00130208333333,0)" xlink:href="#t"/><use transform="matrix(0.006510416666666664,0,0,0.006510416666666664,16.00260416666666,0)" xlink:href="#u"/><use transform="matrix(0.006510416666666664,0,0,0.006510416666666664,24.003906249999993,0)" xlink:href="#v"/><use transform="matrix(0.006510416666666664,0,0,0.006510416666666664,32.00520833333332,0)" xlink:href="#t"/><use transform="matrix(0.006510416666666664,0,0,0.006510416666666664,40.00651041666665,0)" xlink:href="#w"/></g><path fill="#3a414a" d="M554 91c-26 118 8 195 133 195h213l-27 139H608c-175 0-267-118-235-303 24-135 74-259 74-401 0-133-108-173-235-182l26-137c170-10 291-81 320-231l69-352c40-175 147-303 352-303h265l-27 139c-125 7-282-24-352 44-37 36-57 86-69 151l-68 346c-33 149-145 232-284 274 115 31 208 119 178 274" id="x"/><use transform="matrix(0.006510416666666664,0,0,0.006510416666666664,0,0)" xlink:href="#x" id="b"/><path fill="#3a414a" d="M967-845H825l84-639h224zm-449 0H377l83-639h224" id="y"/><path fill="#3a414a" d="M523-832c93-143 191-271 425-270 69 0 147 7 203 17l-33 167c-114-19-266-34-366 15-148 73-248 213-284 395L369 0H189l136-701c21-116 30-253 22-381h171c8 76 8 174 0 250h5" id="z"/><path fill="#3a414a" d="M726-1102c256 0 385 126 386 379 1 67-11 147-25 220H315c-7 39-13 78-13 121 2 164 74 267 238 267 154 0 260-65 317-166l149 45C916-82 760 20 514 20c-259 0-398-131-398-390 0-357 148-615 421-704 62-20 125-28 189-28zm202 461c22-192-41-335-226-328-212 9-312 142-358 328h584" id="A"/><path fill="#3a414a" d="M610 0H397L174-1082h202l131 704c10 72 16 162 23 237 161-331 356-627 533-941h201" id="B"/><path fill="#3a414a" d="M668-142h380L1020 0H38l28-142h422l155-798H324l27-142h499zm23-1150l37-192h200l-37 192H691" id="C"/><path fill="#3a414a" d="M913 0H709c-23-224-51-444-69-673C534-442 415-224 302 0H99l27-1082h178c-17 313-15 643-55 933 97-223 211-425 317-638h193c22 211 51 414 61 638 86-332 210-623 317-933h176" id="D"/><path fill="#3a414a" d="M-153 220l19-96h1238l-19 96H-153" id="E"/><path fill="#3a414a" d="M772 0c2-57 14-121 24-174h-5C708-49 608 26 420 26 203 26 113-90 112-311c0-65 8-138 24-221 74-377 241-566 502-566 165 0 259 55 298 184 37-190 73-380 110-570h180C1133-988 1028-504 944 0H772zm109-648c26-189-33-326-219-317-242 11-291 213-338 427-15 68-22 130-23 201 1 149 51 224 193 224 258 0 321-215 372-441 8-34 12-65 15-94" id="F"/><g id="d"><use transform="matrix(0.006510416666666664,0,0,0.006510416666666664,0,0)" xlink:href="#y"/><use transform="matrix(0.006510416666666664,0,0,0.006510416666666664,8.00130208333333,0)" xlink:href="#z"/><use transform="matrix(0.006510416666666664,0,0,0.006510416666666664,16.00260416666666,0)" xlink:href="#A"/><use transform="matrix(0.006510416666666664,0,0,0.006510416666666664,24.003906249999993,0)" xlink:href="#B"/><use transform="matrix(0.006510416666666664,0,0,0.006510416666666664,32.00520833333332,0)" xlink:href="#C"/><use transform="matrix(0.006510416666666664,0,0,0.006510416666666664,40.00651041666665,0)" xlink:href="#A"/><use transform="matrix(0.006510416666666664,0,0,0.006510416666666664,48.00781249999998,0)" xlink:href="#D"/><use transform="matrix(0.006510416666666664,0,0,0.006510416666666664,56.0091145833333,0)" xlink:href="#E"/><use transform="matrix(0.006510416666666664,0,0,0.006510416666666664,64.01041666666664,0)" xlink:href="#C"/><use transform="matrix(0.006510416666666664,0,0,0.006510416666666664,72.01171874999997,0)" xlink:href="#F"/><use transform="matrix(0.006510416666666664,0,0,0.006510416666666664,80.0130208333333,0)" xlink:href="#y"/></g><path fill="#3a414a" d="M391 0l58-299h235L626 0H391zm152-783l58-299h235l-58 299H543" id="G"/><use transform="matrix(0.006510416666666664,0,0,0.006510416666666664,0,0)" xlink:href="#G" id="e"/><path fill="#3a414a" d="M801-1349c273-6 458 108 405 373-42 211-195 340-418 379L1072 0H852L598-575H360L248 0H57l262-1349h482zM669-726c214-4 349-100 349-300 0-113-89-170-266-170H480l-91 470h280" id="H"/><path fill="#3a414a" d="M261-1120c230-8 401-96 507-229h166L700-145h353L1025 0H52l28-145h439l199-1021c-97 119-281 184-486 194" id="I"/><path fill="#3a414a" d="M83 363l298-662h265L206 363H83" id="J"/><g id="f"><use transform="matrix(0.006510416666666664,0,0,0.006510416666666664,0,0)" xlink:href="#y"/><use transform="matrix(0.006510416666666664,0,0,0.006510416666666664,8.00130208333333,0)" xlink:href="#H"/><use transform="matrix(0.006510416666666664,0,0,0.006510416666666664,16.00260416666666,0)" xlink:href="#I"/><use transform="matrix(0.006510416666666664,0,0,0.006510416666666664,24.003906249999993,0)" xlink:href="#y"/><use transform="matrix(0.006510416666666664,0,0,0.006510416666666664,32.00520833333332,0)" xlink:href="#J"/></g><path fill="#3a414a" d="M574 16c-199 5-309-85-269-285l131-671H268l27-142h170l113-282h120l-55 282h432l-27 142H616c-43 233-105 457-132 696-16 144 198 111 324 99 46-6 96-14 136-22L918-30C819-5 700 13 574 16" id="K"/><path fill="#3a414a" d="M1000-783c14-86 16-180-76-180-43 0-83 29-120 85s-67 140-88 251L594 0H426c49-261 107-518 150-783 14-86 14-191-77-180-103 13-137 116-173 209-17 43-28 93-39 147L169 0H0c67-361 144-713 204-1082h149c-6 55-18 122-28 175h2c54-95 112-192 254-195 127-2 153 72 158 196 61-99 122-196 274-196 124 0 168 64 168 192 0 67-10 125-22 189L1019 0H851c49-261 106-518 149-783" id="L"/><g id="g"><use transform="matrix(0.006510416666666664,0,0,0.006510416666666664,0,0)" xlink:href="#y"/><use transform="matrix(0.006510416666666664,0,0,0.006510416666666664,8.00130208333333,0)" xlink:href="#z"/><use transform="matrix(0.006510416666666664,0,0,0.006510416666666664,16.00260416666666,0)" xlink:href="#A"/><use transform="matrix(0.006510416666666664,0,0,0.006510416666666664,24.003906249999993,0)" xlink:href="#B"/><use transform="matrix(0.006510416666666664,0,0,0.006510416666666664,32.00520833333332,0)" xlink:href="#C"/><use transform="matrix(0.006510416666666664,0,0,0.006510416666666664,40.00651041666665,0)" xlink:href="#A"/><use transform="matrix(0.006510416666666664,0,0,0.006510416666666664,48.00781249999998,0)" xlink:href="#D"/><use transform="matrix(0.006510416666666664,0,0,0.006510416666666664,56.0091145833333,0)" xlink:href="#E"/><use transform="matrix(0.006510416666666664,0,0,0.006510416666666664,64.01041666666664,0)" xlink:href="#K"/><use transform="matrix(0.006510416666666664,0,0,0.006510416666666664,72.01171874999997,0)" xlink:href="#C"/><use transform="matrix(0.006510416666666664,0,0,0.006510416666666664,80.0130208333333,0)" xlink:href="#L"/><use transform="matrix(0.006510416666666664,0,0,0.006510416666666664,88.01432291666663,0)" xlink:href="#A"/><use transform="matrix(0.006510416666666664,0,0,0.006510416666666664,96.01562499999996,0)" xlink:href="#y"/></g><path fill="#3a414a" d="M948-272c-17 76-19 161 70 161 21 0 42-3 60-7L1056-6c-45 10-88 14-142 16-138 6-175-86-155-217h-6C661-83 550 15 337 20 138 24 42-104 82-302c49-247 238-349 523-354l236-4c9-47 22-94 22-148 0-118-65-155-184-157-151-3-231 57-266 172l-185-17c67-189 220-292 480-292 245 0 377 119 330 364zm-678-27c-21 109 31 185 140 182 176-5 282-102 348-217 37-66 43-123 59-200-145 7-304-9-409 44-71 36-119 96-138 191" id="M"/><path fill="#3a414a" d="M1074-1484C764-1178 497-826 497-240c0 287 95 480 206 665H513C401 244 309 50 309-234c0-588 264-946 575-1250h190" id="N"/><path fill="#3a414a" d="M772-1370c250-5 434 113 380 368-48 227-231 344-394 464-130 96-274 183-388 290-35 33-63 67-86 102h723L979 0H39l23-117c190-289 528-436 773-668 71-67 136-137 136-262 0-129-96-175-227-175-165 0-275 97-315 238l-180-17c75-217 236-364 523-369" id="O"/><path fill="#3a414a" d="M778-1370c265 0 387 149 381 421-8 347-108 641-279 816C787-38 668 16 502 20 192 27 89-213 128-534c36-292 118-539 270-692 93-94 212-144 380-144zM332-675c-50 246-71 554 201 548 198-5 278-133 341-289 53-133 101-344 104-531 3-173-58-280-228-277-204 3-283 125-346 284-28 70-51 159-72 265" id="P"/><path fill="#3a414a" d="M319-464l31-160h560l-31 160H319" id="Q"/><path fill="#3a414a" d="M794-689c173 21 307 121 272 319-46 257-247 390-554 390C242 20 81-90 93-362l190-17c-8 173 87 252 258 250 204-3 343-96 343-288 0-182-207-196-405-192l31-156c246 10 459-51 459-286 0-122-89-172-225-171-169 1-285 96-324 233l-178-14c75-223 246-362 532-367 246-5 426 101 378 354-35 181-173 283-357 323" id="R"/><path fill="#3a414a" d="M915-832c0 594-261 950-575 1257H148C458 120 728-231 728-816c0-288-97-482-209-668h192c111 180 204 370 204 652" id="S"/><g id="h"><use transform="matrix(0.006510416666666664,0,0,0.006510416666666664,0,0)" xlink:href="#F"/><use transform="matrix(0.006510416666666664,0,0,0.006510416666666664,8.00130208333333,0)" xlink:href="#M"/><use transform="matrix(0.006510416666666664,0,0,0.006510416666666664,16.00260416666666,0)" xlink:href="#K"/><use transform="matrix(0.006510416666666664,0,0,0.006510416666666664,24.003906249999993,0)" xlink:href="#A"/><use transform="matrix(0.006510416666666664,0,0,0.006510416666666664,32.00520833333332,0)" xlink:href="#N"/><use transform="matrix(0.006510416666666664,0,0,0.006510416666666664,40.00651041666665,0)" xlink:href="#y"/><use transform="matrix(0.006510416666666664,0,0,0.006510416666666664,48.00781249999998,0)" xlink:href="#O"/><use transform="matrix(0.006510416666666664,0,0,0.006510416666666664,56.0091145833333,0)" xlink:href="#P"/><use transform="matrix(0.006510416666666664,0,0,0.006510416666666664,64.01041666666664,0)" xlink:href="#O"/><use transform="matrix(0.006510416666666664,0,0,0.006510416666666664,72.01171874999997,0)" xlink:href="#O"/><use transform="matrix(0.006510416666666664,0,0,0.006510416666666664,80.0130208333333,0)" xlink:href="#Q"/><use transform="matrix(0.006510416666666664,0,0,0.006510416666666664,88.01432291666663,0)" xlink:href="#P"/><use transform="matrix(0.006510416666666664,0,0,0.006510416666666664,96.01562499999996,0)" xlink:href="#R"/><use transform="matrix(0.006510416666666664,0,0,0.006510416666666664,104.01692708333329,0)" xlink:href="#Q"/><use transform="matrix(0.006510416666666664,0,0,0.006510416666666664,112.0182291666666,0)" xlink:href="#P"/><use transform="matrix(0.006510416666666664,0,0,0.006510416666666664,120.01953124999993,0)" xlink:href="#I"/><use transform="matrix(0.006510416666666664,0,0,0.006510416666666664,128.0208333333333,0)" xlink:href="#y"/><use transform="matrix(0.006510416666666664,0,0,0.006510416666666664,136.02213541666663,0)" xlink:href="#S"/></g><path fill="#3a414a" d="M782-829c-28 162 86 226 230 231l-26 137c-170 10-290 80-320 232l-69 351c-41 174-150 303-353 303H-21L6 286c127-7 286 22 354-44 32-31 56-80 69-151l68-347c32-151 143-234 283-276-114-31-202-119-177-272 23-141 76-269 76-420 0-92-49-121-143-121H323l27-139h265c172-5 272 121 236 303" id="T"/><use transform="matrix(0.006510416666666664,0,0,0.006510416666666664,0,0)" xlink:href="#T" id="i"/><path fill="#3a414a" d="M604-135c236 0 291-142 291-376v-838h190v859c5 340-142 510-480 510-326 0-463-164-463-492v-877h191v851c-3 222 46 363 271 363" id="U"/><path fill="#3a414a" d="M873-819c-18-114-119-146-250-146-163 0-245 50-245 151 0 151 170 148 294 185 182 54 388 94 388 320 0 240-189 325-439 329-245 4-410-69-454-268l159-31c24 133 136 168 295 165 144-2 270-31 270-171 0-164-195-160-331-202-167-52-350-87-350-299 0-218 173-315 413-313 220 2 373 77 412 260" id="V"/><path fill="#3a414a" d="M839-1102c70 0 148 7 206 17v167c-112-18-268-36-363 15-129 69-208 203-208 395V0H294c-10-367 32-789-52-1082h171c21 75 41 161 48 250h5c67-152 152-270 373-270" id="W"/><g id="j"><use transform="matrix(0.006510416666666664,0,0,0.006510416666666664,0,0)" xlink:href="#U"/><use transform="matrix(0.006510416666666664,0,0,0.006510416666666664,8.00130208333333,0)" xlink:href="#V"/><use transform="matrix(0.006510416666666664,0,0,0.006510416666666664,16.00260416666666,0)" xlink:href="#t"/><use transform="matrix(0.006510416666666664,0,0,0.006510416666666664,24.003906249999993,0)" xlink:href="#W"/></g><path fill="#3a414a" d="M419 20c-186 0-282-64-284-243 0-40 5-86 15-138l140-721h180c-47 251-101 497-144 752-25 145 40 219 181 211 211-12 308-150 344-336l122-627h181C1087-721 1010-369 950 0H780c6-58 18-129 28-185h-3C720-71 616 20 419 20" id="X"/><path fill="#3a414a" d="M706-965c-176 0-278 51-278 181 0 125 156 122 261 155 163 51 371 93 326 320C971-85 782 18 512 20c-227 2-392-53-402-268l165-31c1 144 117 166 263 165 166-2 306-45 306-201 0-97-96-115-178-141-139-45-315-63-388-174-17-26-26-59-26-98 0-260 204-371 480-371 203 0 355 61 361 260l-166 20c2-122-100-146-221-146" id="Y"/><g id="k"><use transform="matrix(0.006510416666666664,0,0,0.006510416666666664,0,0)" xlink:href="#y"/><use transform="matrix(0.006510416666666664,0,0,0.006510416666666664,8.00130208333333,0)" xlink:href="#X"/><use transform="matrix(0.006510416666666664,0,0,0.006510416666666664,16.00260416666666,0)" xlink:href="#Y"/><use transform="matrix(0.006510416666666664,0,0,0.006510416666666664,24.003906249999993,0)" xlink:href="#A"/><use transform="matrix(0.006510416666666664,0,0,0.006510416666666664,32.00520833333332,0)" xlink:href="#z"/><use transform="matrix(0.006510416666666664,0,0,0.006510416666666664,40.00651041666665,0)" xlink:href="#E"/><use transform="matrix(0.006510416666666664,0,0,0.006510416666666664,48.00781249999998,0)" xlink:href="#C"/><use transform="matrix(0.006510416666666664,0,0,0.006510416666666664,56.0091145833333,0)" xlink:href="#F"/><use transform="matrix(0.006510416666666664,0,0,0.006510416666666664,64.01041666666664,0)" xlink:href="#y"/></g><g id="l"><use transform="matrix(0.006510416666666664,0,0,0.006510416666666664,0,0)" xlink:href="#I"/><use transform="matrix(0.006510416666666664,0,0,0.006510416666666664,8.00130208333333,0)" xlink:href="#J"/></g><path fill="#3a414a" d="M815-1102c202-2 311 102 279 314-40 267-101 525-150 788H763l135-695c7-39 11-71 11-98 2-119-62-175-179-170-208 9-312 151-348 336L260 0H80c67-361 144-713 204-1082h170c-6 58-17 130-28 185h3c86-116 194-203 386-205" id="Z"/><g id="m"><use transform="matrix(0.006510416666666664,0,0,0.006510416666666664,0,0)" xlink:href="#y"/><use transform="matrix(0.006510416666666664,0,0,0.006510416666666664,8.00130208333333,0)" xlink:href="#Z"/><use transform="matrix(0.006510416666666664,0,0,0.006510416666666664,16.00260416666666,0)" xlink:href="#M"/><use transform="matrix(0.006510416666666664,0,0,0.006510416666666664,24.003906249999993,0)" xlink:href="#L"/><use transform="matrix(0.006510416666666664,0,0,0.006510416666666664,32.00520833333332,0)" xlink:href="#A"/><use transform="matrix(0.006510416666666664,0,0,0.006510416666666664,40.00651041666665,0)" xlink:href="#y"/></g><path fill="#3a414a" d="M832 0c78-390 148-786 233-1169-124 253-264 488-400 729H528c-43-241-94-472-121-729C339-774 258-390 184 0H24l262-1349h237c39 239 98 457 113 720 117-256 262-480 395-720h225L994 0H832" id="aa"/><path fill="#3a414a" d="M9 279c104 15 163 3 243-53 63-44 133-143 181-237L171-1082h192c62 299 135 587 188 896 174-300 351-597 525-896h190L600 0c-97 160-186 316-352 396-73 35-176 36-265 18" id="ab"/><g id="n"><use transform="matrix(0.006510416666666664,0,0,0.006510416666666664,0,0)" xlink:href="#y"/><use transform="matrix(0.006510416666666664,0,0,0.006510416666666664,8.00130208333333,0)" xlink:href="#aa"/><use transform="matrix(0.006510416666666664,0,0,0.006510416666666664,16.00260416666666,0)" xlink:href="#M"/><use transform="matrix(0.006510416666666664,0,0,0.006510416666666664,24.003906249999993,0)" xlink:href="#z"/><use transform="matrix(0.006510416666666664,0,0,0.006510416666666664,32.00520833333332,0)" xlink:href="#ab"/><use transform="matrix(0.006510416666666664,0,0,0.006510416666666664,40.00651041666665,0)" xlink:href="#y"/></g><path fill="#333" d="M285-1169c8 382 2 780 4 1169H129v-1349h237c86 239 188 461 253 720 69-258 169-481 255-720h225V0H937c2-390-5-788 6-1169-75 255-170 488-259 729H547c-90-240-185-475-262-729" id="ac"/><path fill="#333" d="M1034 0L896-382H333L196 0H0l510-1349h217L1228 0h-194zM847-531c-77-225-157-447-231-674-69 231-154 451-232 674h463" id="ad"/><path fill="#333" d="M473-1349c438-1 655 221 652 661C1122-268 945-8 532 0H162v-1349h311zm42 1193c308-4 416-205 418-532 2-330-131-509-459-505H353v1037h162" id="ae"/><path fill="#333" d="M162 0v-1349h919v156H353v422h668v154H353v461h769V0H162" id="af"/><path fill="#333" d="M-5 220v-96h1238v96H-5" id="ag"/><path fill="#333" d="M802-711c201 25 350 118 350 331C1152-95 921 0 634 0H162v-1349c401 9 908-74 908 327 0 184-111 275-268 311zm-224-69c174-2 300-51 300-218 0-163-124-198-302-198H353v416h225zM353-153c281-2 612 44 606-244-5-271-329-233-606-234v478" id="ah"/><path fill="#333" d="M708-584V0H520v-584L36-1349h205l374 611 372-611h205" id="ai"/><g id="o"><use transform="matrix(0.0065104166666666635,0,0,0.0065104166666666635,0,0)" xlink:href="#ac"/><use transform="matrix(0.0065104166666666635,0,0,0.0065104166666666635,8.001302083333329,0)" xlink:href="#ad"/><use transform="matrix(0.0065104166666666635,0,0,0.0065104166666666635,16.002604166666657,0)" xlink:href="#ae"/><use transform="matrix(0.0065104166666666635,0,0,0.0065104166666666635,24.003906249999986,0)" xlink:href="#af"/><use transform="matrix(0.0065104166666666635,0,0,0.0065104166666666635,32.005208333333314,0)" xlink:href="#ag"/><use transform="matrix(0.0065104166666666635,0,0,0.0065104166666666635,40.00651041666664,0)" xlink:href="#ah"/><use transform="matrix(0.0065104166666666635,0,0,0.0065104166666666635,48.00781249999997,0)" xlink:href="#ai"/></g><g id="p"><use transform="matrix(0.006510416666666664,0,0,0.006510416666666664,0,0)" xlink:href="#y"/><use transform="matrix(0.006510416666666664,0,0,0.006510416666666664,8.00130208333333,0)" xlink:href="#H"/><use transform="matrix(0.006510416666666664,0,0,0.006510416666666664,16.00260416666666,0)" xlink:href="#O"/><use transform="matrix(0.006510416666666664,0,0,0.006510416666666664,24.003906249999993,0)" xlink:href="#y"/><use transform="matrix(0.006510416666666664,0,0,0.006510416666666664,32.00520833333332,0)" xlink:href="#J"/></g><g id="q"><use transform="matrix(0.006510416666666664,0,0,0.006510416666666664,0,0)" xlink:href="#R"/><use transform="matrix(0.006510416666666664,0,0,0.006510416666666664,8.00130208333333,0)" xlink:href="#J"/></g><path fill="#3a414a" d="M898 0L535-638 339-469 248 0H57l262-1349h191L379-676l703-673h225L692-777 1122 0H898" id="aj"/><g id="r"><use transform="matrix(0.006510416666666664,0,0,0.006510416666666664,0,0)" xlink:href="#y"/><use transform="matrix(0.006510416666666664,0,0,0.006510416666666664,8.00130208333333,0)" xlink:href="#aj"/><use transform="matrix(0.006510416666666664,0,0,0.006510416666666664,16.00260416666666,0)" xlink:href="#A"/><use transform="matrix(0.006510416666666664,0,0,0.006510416666666664,24.003906249999993,0)" xlink:href="#B"/><use transform="matrix(0.006510416666666664,0,0,0.006510416666666664,32.00520833333332,0)" xlink:href="#C"/><use transform="matrix(0.006510416666666664,0,0,0.006510416666666664,40.00651041666665,0)" xlink:href="#Z"/><use transform="matrix(0.006510416666666664,0,0,0.006510416666666664,48.00781249999998,0)" xlink:href="#y"/></g></defs></g></svg>