<svg xmlns="http://www.w3.org/2000/svg" xmlns:xlink="http://www.w3.org/1999/xlink" xmlns:lucid="lucid" width="617.13" height="201.11"><g transform="translate(-457.87019553009253 -154.44444444444443)" lucid:page-tab-id="0_0"><path d="M750 283v31c0 3.3-2.7 6-6 6H576c-3.3 0-6-2.7-6-6v-11.88" stroke="#3a414a" stroke-width="3" fill="none"/><path d="M749.96 281.5l1.54-.05v1.6h-3v-1.67z" stroke="#3a414a" stroke-width=".05" fill="#3a414a"/><path d="M570 286.36l4.64 14.26h-9.28z" stroke="#3a414a" stroke-width="3" fill="#3a414a"/><use xlink:href="#a" transform="matrix(1,0,0,1,627.3280164930552,324) translate(0 12.441406249999995)"/><path d="M960 260h95v37.33h-95z" fill="none"/><use xlink:href="#b" transform="matrix(1,0,0,1,960,260) translate(10.160590277777779 23.66362847222222)"/><path d="M960 250c0 16.57-13.43 30-30 30s-30-13.43-30-30 13.43-30 30-30 30 13.43 30 30z" stroke="#3a414a" stroke-width="3" fill="#fff7a1"/><path d="M570 217v-21c0-3.3-2.7-6-6-6h-59.5c-3.3 0-6 2.7-6 6v48c0 3.3 2.7 6 6 6h13.38" stroke="#3a414a" stroke-width="3" fill="none"/><path d="M571.5 218.62l-1.46-.12-1.54.05v-1.6h3z" stroke="#3a414a" stroke-width=".05" fill="#3a414a"/><path d="M533.64 250l-14.26 4.64v-9.28z" stroke="#3a414a" stroke-width="3" fill="#3a414a"/><use xlink:href="#c" transform="matrix(1,0,0,1,473.87019553009253,170.44444444444443) translate(0 12.441406249999995)"/><path d="M750 217v-21c0-3.3 2.7-6 6-6h168c3.3 0 6 2.7 6 6v1.88" stroke="#3a414a" stroke-width="3" fill="none"/><path d="M751.5 218.62l-1.46-.12-1.54.05v-1.6h3z" stroke="#3a414a" stroke-width=".05" fill="#3a414a"/><path d="M930 213.64l-4.64-14.26h9.28z" stroke="#3a414a" stroke-width="3" fill="#3a414a"/><use xlink:href="#d" transform="matrix(1,0,0,1,816.6628689236048,170.44444444444443) translate(0 12.441406249999995)"/><path d="M780 250c0 16.57-13.43 30-30 30s-30-13.43-30-30 13.43-30 30-30 30 13.43 30 30z" stroke="#3a414a" stroke-width="3" fill="#fff7a1"/><path d="M760 260h95v37.33h-95z" fill="none"/><use xlink:href="#e" transform="matrix(1,0,0,1,760,260) translate(19.495442708333336 23.66362847222222)"/><path d="M600 250c0 16.57-13.43 30-30 30s-30-13.43-30-30 13.43-30 30-30 30 13.43 30 30z" stroke="#3a414a" stroke-width="3" fill="#fff7a1"/><path d="M600 260h55v37.33h-55z" fill="none"/><use xlink:href="#f" transform="matrix(1,0,0,1,600,260) translate(8.830295138888893 23.66362847222222)"/><defs><path fill="#333" d="M285-1169c8 382 2 780 4 1169H129v-1349h237c86 239 188 461 253 720 69-258 169-481 255-720h225V0H937c2-390-5-788 6-1169-75 255-170 488-259 729H547c-90-240-185-475-262-729" id="g"/><path fill="#333" d="M1034 0L896-382H333L196 0H0l510-1349h217L1228 0h-194zM847-531c-77-225-157-447-231-674-69 231-154 451-232 674h463" id="h"/><path fill="#333" d="M473-1349c438-1 655 221 652 661C1122-268 945-8 532 0H162v-1349h311zm42 1193c308-4 416-205 418-532 2-330-131-509-459-505H353v1037h162" id="i"/><path fill="#333" d="M162 0v-1349h919v156H353v422h668v154H353v461h769V0H162" id="j"/><path fill="#333" d="M-5 220v-96h1238v96H-5" id="k"/><path fill="#333" d="M802-711c201 25 350 118 350 331C1152-95 921 0 634 0H162v-1349c401 9 908-74 908 327 0 184-111 275-268 311zm-224-69c174-2 300-51 300-218 0-163-124-198-302-198H353v416h225zM353-153c281-2 612 44 606-244-5-271-329-233-606-234v478" id="l"/><path fill="#333" d="M708-584V0H520v-584L36-1349h205l374 611 372-611h205" id="m"/><g id="a"><use transform="matrix(0.0075954861111111075,0,0,0.0075954861111111075,0,0)" xlink:href="#g"/><use transform="matrix(0.0075954861111111075,0,0,0.0075954861111111075,9.334852430555552,0)" xlink:href="#h"/><use transform="matrix(0.0075954861111111075,0,0,0.0075954861111111075,18.669704861111104,0)" xlink:href="#i"/><use transform="matrix(0.0075954861111111075,0,0,0.0075954861111111075,28.004557291666657,0)" xlink:href="#j"/><use transform="matrix(0.0075954861111111075,0,0,0.0075954861111111075,37.33940972222221,0)" xlink:href="#k"/><use transform="matrix(0.0075954861111111075,0,0,0.0075954861111111075,46.67426215277776,0)" xlink:href="#l"/><use transform="matrix(0.0075954861111111075,0,0,0.0075954861111111075,56.00911458333331,0)" xlink:href="#m"/></g><path fill="#3a414a" d="M802-711c201 25 350 118 350 331C1152-95 921 0 634 0H162v-1349c401 9 908-74 908 327 0 184-111 275-268 311zm-224-69c174-2 300-51 300-218 0-163-124-198-302-198H353v416h225zM353-153c281-2 612 44 606-244-5-271-329-233-606-234v478" id="n"/><path fill="#3a414a" d="M528 20c-247 0-343-132-343-381v-721h180v686c-4 177 45 284 224 277 194-8 279-136 279-336v-627h181c3 360-6 732 6 1082H885c-4-54-7-126-8-185h-3C809-64 714 20 528 20" id="o"/><path fill="#3a414a" d="M873-819c-18-114-119-146-250-146-163 0-245 50-245 151 0 151 170 148 294 185 182 54 388 94 388 320 0 240-189 325-439 329-245 4-410-69-454-268l159-31c24 133 136 168 295 165 144-2 270-31 270-171 0-164-195-160-331-202-167-52-350-87-350-299 0-218 173-315 413-313 220 2 373 77 412 260" id="p"/><path fill="#3a414a" d="M745-142h380V0H143v-142h422v-798H246v-142h499v940zM545-1292v-192h200v192H545" id="q"/><path fill="#3a414a" d="M706-1102c241 0 344 136 343 381V0H868v-695c1-168-57-273-220-268-190 6-283 138-283 336V0H185c-3-360 6-732-6-1082h170c4 54 7 126 8 185h3c63-121 164-204 346-205" id="r"/><path fill="#3a414a" d="M617-1102c355 0 481 238 477 599H322c5 222 84 388 301 388 144 0 244-59 284-166l158 45C1002-72 854 20 623 20c-342 0-490-220-490-568 0-346 151-554 484-554zm291 461c-18-192-90-328-289-328-194 0-287 128-295 328h584" id="s"/><g id="b"><use transform="matrix(0.007595486111111109,0,0,0.007595486111111109,0,0)" xlink:href="#n"/><use transform="matrix(0.007595486111111109,0,0,0.007595486111111109,9.334852430555554,0)" xlink:href="#o"/><use transform="matrix(0.007595486111111109,0,0,0.007595486111111109,18.669704861111107,0)" xlink:href="#p"/><use transform="matrix(0.007595486111111109,0,0,0.007595486111111109,28.00455729166666,0)" xlink:href="#q"/><use transform="matrix(0.007595486111111109,0,0,0.007595486111111109,37.339409722222214,0)" xlink:href="#r"/><use transform="matrix(0.007595486111111109,0,0,0.007595486111111109,46.67426215277777,0)" xlink:href="#s"/><use transform="matrix(0.007595486111111109,0,0,0.007595486111111109,56.00911458333333,0)" xlink:href="#p"/><use transform="matrix(0.007595486111111109,0,0,0.007595486111111109,65.34396701388889,0)" xlink:href="#p"/></g><path fill="#333" d="M385-1193v494h676v158H385V0H194v-1349h891v156H385" id="t"/><path fill="#333" d="M1121-976c0 225-142 341-344 379L1177 0H957L591-575H353V0H162v-1349h482c281 3 477 100 477 373zM633-726c181-1 296-73 296-247 0-149-101-223-304-223H353v470h280" id="u"/><path fill="#333" d="M202-1349h823v156H709v1037h316V0H202v-156h316v-1037H202v-156" id="v"/><path fill="#333" d="M912-211c-10-84-18-177-18-274v-864h172V0H836L316-1130c7 79 16 167 16 254V0H162v-1349h222" id="w"/><path fill="#333" d="M614-1226c-167 1-283 53-283 213 0 183 186 193 334 234 230 63 463 120 463 409 0 286-219 387-518 390C309 23 131-98 79-338l185-37c34 165 149 248 351 246 184-2 324-58 324-238 0-203-207-221-372-266-210-57-422-111-422-377 0-267 201-356 470-360 279-5 430 101 480 324l-188 33c-28-141-121-215-293-213" id="x"/><path fill="#333" d="M1018 0H810c-67-251-137-496-194-756C558-495 487-250 419 0H211L0-1349h189c48 393 110 772 142 1181 58-262 128-512 197-763h175c69 251 139 500 197 763 37-402 92-789 139-1181h189" id="y"/><path fill="#333" d="M709-1193V0H519v-1193H76v-156h1076v156H709" id="z"/><path fill="#333" d="M875 0v-623H353V0H162v-1349h191v566h522v-566h191V0H875" id="A"/><g id="c"><use transform="matrix(0.0075954861111111075,0,0,0.0075954861111111075,0,0)" xlink:href="#t"/><use transform="matrix(0.0075954861111111075,0,0,0.0075954861111111075,9.334852430555552,0)" xlink:href="#u"/><use transform="matrix(0.0075954861111111075,0,0,0.0075954861111111075,18.669704861111104,0)" xlink:href="#v"/><use transform="matrix(0.0075954861111111075,0,0,0.0075954861111111075,28.004557291666657,0)" xlink:href="#j"/><use transform="matrix(0.0075954861111111075,0,0,0.0075954861111111075,37.33940972222221,0)" xlink:href="#w"/><use transform="matrix(0.0075954861111111075,0,0,0.0075954861111111075,46.67426215277776,0)" xlink:href="#i"/><use transform="matrix(0.0075954861111111075,0,0,0.0075954861111111075,56.00911458333331,0)" xlink:href="#x"/><use transform="matrix(0.0075954861111111075,0,0,0.0075954861111111075,65.34396701388886,0)" xlink:href="#k"/><use transform="matrix(0.0075954861111111075,0,0,0.0075954861111111075,74.67881944444441,0)" xlink:href="#y"/><use transform="matrix(0.0075954861111111075,0,0,0.0075954861111111075,84.01367187499997,0)" xlink:href="#v"/><use transform="matrix(0.0075954861111111075,0,0,0.0075954861111111075,93.34852430555553,0)" xlink:href="#z"/><use transform="matrix(0.0075954861111111075,0,0,0.0075954861111111075,102.68337673611109,0)" xlink:href="#A"/></g><path fill="#333" d="M102-681c0-398 126-689 513-689 165 0 291 58 379 174s132 287 132 515c-1 318-88 554-298 657-123 61-317 58-438-3-206-104-288-341-288-654zm749 406c94-160 97-656-5-807-57-85-130-132-231-132-104 0-178 47-234 132-101 153-99 655 1 809 57 89 130 138 232 138 109 0 184-49 237-140" id="B"/><path fill="#333" d="M604-135c236 0 291-142 291-376v-838h190v859c5 340-142 510-480 510-326 0-463-164-463-492v-877h191v851c-3 222 46 363 271 363" id="C"/><g id="d"><use transform="matrix(0.0075954861111111075,0,0,0.0075954861111111075,0,0)" xlink:href="#h"/><use transform="matrix(0.0075954861111111075,0,0,0.0075954861111111075,9.334852430555552,0)" xlink:href="#l"/><use transform="matrix(0.0075954861111111075,0,0,0.0075954861111111075,18.669704861111104,0)" xlink:href="#B"/><use transform="matrix(0.0075954861111111075,0,0,0.0075954861111111075,28.004557291666657,0)" xlink:href="#C"/><use transform="matrix(0.0075954861111111075,0,0,0.0075954861111111075,37.33940972222221,0)" xlink:href="#z"/></g><path fill="#3a414a" d="M1121-976c0 225-142 341-344 379L1177 0H957L591-575H353V0H162v-1349h482c281 3 477 100 477 373zM633-726c181-1 296-73 296-247 0-149-101-223-304-223H353v470h280" id="D"/><path fill="#3a414a" d="M715 0H502L69-1082h202c94 253 197 500 285 758 19 57 36 126 52 183 96-335 234-626 350-941h201" id="E"/><path fill="#3a414a" d="M1018 0H814c-67-224-138-444-200-673C552-442 476-224 407 0H204L21-1082h178c43 310 105 601 126 933 54-225 128-425 193-638h193c63 212 134 415 185 638 22-336 90-622 136-933h176" id="F"/><g id="e"><use transform="matrix(0.007595486111111109,0,0,0.007595486111111109,0,0)" xlink:href="#D"/><use transform="matrix(0.007595486111111109,0,0,0.007595486111111109,9.334852430555554,0)" xlink:href="#s"/><use transform="matrix(0.007595486111111109,0,0,0.007595486111111109,18.669704861111107,0)" xlink:href="#E"/><use transform="matrix(0.007595486111111109,0,0,0.007595486111111109,28.00455729166666,0)" xlink:href="#q"/><use transform="matrix(0.007595486111111109,0,0,0.007595486111111109,37.339409722222214,0)" xlink:href="#s"/><use transform="matrix(0.007595486111111109,0,0,0.007595486111111109,46.67426215277777,0)" xlink:href="#F"/></g><path fill="#3a414a" d="M604-135c236 0 291-142 291-376v-838h190v859c5 340-142 510-480 510-326 0-463-164-463-492v-877h191v851c-3 222 46 363 271 363" id="G"/><path fill="#3a414a" d="M839-1102c70 0 148 7 206 17v167c-112-18-268-36-363 15-129 69-208 203-208 395V0H294c-10-367 32-789-52-1082h171c21 75 41 161 48 250h5c67-152 152-270 373-270" id="H"/><g id="f"><use transform="matrix(0.007595486111111109,0,0,0.007595486111111109,0,0)" xlink:href="#G"/><use transform="matrix(0.007595486111111109,0,0,0.007595486111111109,9.334852430555554,0)" xlink:href="#p"/><use transform="matrix(0.007595486111111109,0,0,0.007595486111111109,18.669704861111107,0)" xlink:href="#s"/><use transform="matrix(0.007595486111111109,0,0,0.007595486111111109,28.00455729166666,0)" xlink:href="#H"/></g></defs></g></svg>