<svg xmlns="http://www.w3.org/2000/svg" xmlns:xlink="http://www.w3.org/1999/xlink" xmlns:lucid="lucid" width="903" height="743"><g transform="translate(-352 -62)" lucid:page-tab-id="93N.Ck~-do4w"><path d="M889.98 238l-.1-4.36-.3-5.04-.5-4.75-.67-4.52-.8-4.3-.97-4.1-1.1-3.94-1.24-3.8-1.37-3.68-1.5-3.56-1.63-3.46-1.76-3.38-1.9-3.3-2.08-3.25-2.22-3.2-2.4-3.15-2.58-3.13-2.78-3.1-3.02-3.08-3.27-3.07-3.57-3.07-3.87-3.07-4.24-3.07-4.65-3.08-5.12-3.1-5.68-3.13-6.33-3.13-7.08-3.16-7.98-3.16-9.06-3.15-10.37-3.13-11.98-3.07-13.98-2.96-16.53-2.78-19.83-2.5-24.3-2.03L672.5 115h-.52" stroke="#3a414a" stroke-width="2" stroke-linejoin="round" fill="none"/><path d="M891 239.08l-.98-.08-1.02.03-.02-1.04 2-.05z" stroke="#3a414a" stroke-width=".05" fill="#3a414a"/><path d="M656.7 114.85l14.3-4.5-.08 9.28z" stroke="#3a414a" stroke-width="2" fill="#3a414a"/><path d="M440 481c0 16.57-13.43 30-30 30s-30-13.43-30-30 13.43-30 30-30 30 13.43 30 30z" stroke="#3a414a" stroke-width="2" fill="#fff7a1"/><path d="M432 505h182.74v80H432z" fill="none"/><use xlink:href="#a" transform="matrix(1,0,0,1,432,505.00000000000034) translate(0 10.664062499999996)"/><use xlink:href="#b" transform="matrix(1,0,0,1,432,505.00000000000034) translate(0 23.997395833333325)"/><use xlink:href="#c" transform="matrix(1,0,0,1,432,505.00000000000034) translate(0 37.33072916666666)"/><use xlink:href="#d" transform="matrix(1,0,0,1,432,505.00000000000034) translate(16.00260416666666 37.33072916666666)"/><use xlink:href="#e" transform="matrix(1,0,0,1,432,505.00000000000034) translate(96.01562499999996 37.33072916666666)"/><use xlink:href="#f" transform="matrix(1,0,0,1,432,505.00000000000034) translate(112.01822916666661 37.33072916666666)"/><use xlink:href="#c" transform="matrix(1,0,0,1,432,505.00000000000034) translate(0 50.664062499999986)"/><use xlink:href="#g" transform="matrix(1,0,0,1,432,505.00000000000034) translate(16.00260416666666 50.664062499999986)"/><use xlink:href="#e" transform="matrix(1,0,0,1,432,505.00000000000034) translate(96.01562499999996 50.664062499999986)"/><use xlink:href="#h" transform="matrix(1,0,0,1,432,505.00000000000034) translate(112.01822916666661 50.664062499999986)"/><use xlink:href="#i" transform="matrix(1,0,0,1,432,505.00000000000034) translate(0 63.997395833333314)"/><path d="M920 701c0 16.57-13.43 30-30 30s-30-13.43-30-30 13.43-30 30-30 30 13.43 30 30z" stroke="#3a414a" stroke-width="2" fill="#fff7a1"/><path d="M917 724.34h182.74v80H917z" fill="none"/><use xlink:href="#a" transform="matrix(1,0,0,1,917.0006237239335,724.3425453797962) translate(0 10.664062499999996)"/><use xlink:href="#b" transform="matrix(1,0,0,1,917.0006237239335,724.3425453797962) translate(0 23.997395833333325)"/><use xlink:href="#c" transform="matrix(1,0,0,1,917.0006237239335,724.3425453797962) translate(0 37.33072916666666)"/><use xlink:href="#d" transform="matrix(1,0,0,1,917.0006237239335,724.3425453797962) translate(16.00260416666666 37.33072916666666)"/><use xlink:href="#e" transform="matrix(1,0,0,1,917.0006237239335,724.3425453797962) translate(96.01562499999996 37.33072916666666)"/><use xlink:href="#j" transform="matrix(1,0,0,1,917.0006237239335,724.3425453797962) translate(112.01822916666661 37.33072916666666)"/><use xlink:href="#c" transform="matrix(1,0,0,1,917.0006237239335,724.3425453797962) translate(0 50.664062499999986)"/><use xlink:href="#g" transform="matrix(1,0,0,1,917.0006237239335,724.3425453797962) translate(16.00260416666666 50.664062499999986)"/><use xlink:href="#e" transform="matrix(1,0,0,1,917.0006237239335,724.3425453797962) translate(96.01562499999996 50.664062499999986)"/><use xlink:href="#k" transform="matrix(1,0,0,1,917.0006237239335,724.3425453797962) translate(112.01822916666661 50.664062499999986)"/><use xlink:href="#i" transform="matrix(1,0,0,1,917.0006237239335,724.3425453797962) translate(0 63.997395833333314)"/><path d="M502.74 270.5c0 16.58-13.43 30-30 30s-30-13.42-30-30c0-16.56 13.43-30 30-30s30 13.44 30 30z" stroke="#3a414a" stroke-width="2" fill="#fff7a1"/><path d="M502.74 291h300v80h-300z" fill="none"/><use xlink:href="#l" transform="matrix(1,0,0,1,502.7431943622161,290.9999999999999) translate(0 10.664062499999996)"/><use xlink:href="#b" transform="matrix(1,0,0,1,502.7431943622161,290.9999999999999) translate(0 23.997395833333325)"/><use xlink:href="#c" transform="matrix(1,0,0,1,502.7431943622161,290.9999999999999) translate(0 37.33072916666666)"/><use xlink:href="#m" transform="matrix(1,0,0,1,502.7431943622161,290.9999999999999) translate(16.00260416666666 37.33072916666666)"/><use xlink:href="#e" transform="matrix(1,0,0,1,502.7431943622161,290.9999999999999) translate(128.0208333333333 37.33072916666666)"/><use xlink:href="#n" transform="matrix(1,0,0,1,502.7431943622161,290.9999999999999) translate(144.02343749999994 37.33072916666666)"/><use xlink:href="#c" transform="matrix(1,0,0,1,502.7431943622161,290.9999999999999) translate(0 50.664062499999986)"/><use xlink:href="#o" transform="matrix(1,0,0,1,502.7431943622161,290.9999999999999) translate(16.00260416666666 50.664062499999986)"/><use xlink:href="#e" transform="matrix(1,0,0,1,502.7431943622161,290.9999999999999) translate(128.0208333333333 50.664062499999986)"/><use xlink:href="#p" transform="matrix(1,0,0,1,502.7431943622161,290.9999999999999) translate(144.02343749999994 50.664062499999986)"/><use xlink:href="#i" transform="matrix(1,0,0,1,502.7431943622161,290.9999999999999) translate(0 63.997395833333314)"/><path d="M920 270c0 16.57-13.43 30-30 30s-30-13.43-30-30 13.43-30 30-30 30 13.43 30 30zM652.46 114.82c0 16.57-13.43 30-30 30s-30-13.43-30-30 13.43-30 30-30 30 13.43 30 30zM620 701c0 16.57-13.43 30-30 30s-30-13.43-30-30 13.43-30 30-30 30 13.43 30 30z" stroke="#3a414a" stroke-width="2" fill="#fff7a1"/><path d="M616 725h182.74v80H616z" fill="none"/><use xlink:href="#a" transform="matrix(1,0,0,1,616,725.0000000000002) translate(0 10.664062499999996)"/><use xlink:href="#b" transform="matrix(1,0,0,1,616,725.0000000000002) translate(0 23.997395833333325)"/><use xlink:href="#c" transform="matrix(1,0,0,1,616,725.0000000000002) translate(0 37.33072916666666)"/><use xlink:href="#d" transform="matrix(1,0,0,1,616,725.0000000000002) translate(16.00260416666666 37.33072916666666)"/><use xlink:href="#e" transform="matrix(1,0,0,1,616,725.0000000000002) translate(96.01562499999996 37.33072916666666)"/><use xlink:href="#q" transform="matrix(1,0,0,1,616,725.0000000000002) translate(112.01822916666661 37.33072916666666)"/><use xlink:href="#c" transform="matrix(1,0,0,1,616,725.0000000000002) translate(0 50.664062499999986)"/><use xlink:href="#g" transform="matrix(1,0,0,1,616,725.0000000000002) translate(16.00260416666666 50.664062499999986)"/><use xlink:href="#e" transform="matrix(1,0,0,1,616,725.0000000000002) translate(96.01562499999996 50.664062499999986)"/><use xlink:href="#r" transform="matrix(1,0,0,1,616,725.0000000000002) translate(112.01822916666661 50.664062499999986)"/><use xlink:href="#i" transform="matrix(1,0,0,1,616,725.0000000000002) translate(0 63.997395833333314)"/><path d="M760 481c0 16.57-13.43 30-30 30s-30-13.43-30-30 13.43-30 30-30 30 13.43 30 30z" stroke="#3a414a" stroke-width="2" fill="#fff7a1"/><path d="M747.63 511h182.74v80H747.63z" fill="none"/><use xlink:href="#a" transform="matrix(1,0,0,1,747.6284028188846,511.0000000000001) translate(0 10.664062499999996)"/><use xlink:href="#b" transform="matrix(1,0,0,1,747.6284028188846,511.0000000000001) translate(0 23.997395833333325)"/><use xlink:href="#c" transform="matrix(1,0,0,1,747.6284028188846,511.0000000000001) translate(0 37.33072916666666)"/><use xlink:href="#d" transform="matrix(1,0,0,1,747.6284028188846,511.0000000000001) translate(16.00260416666666 37.33072916666666)"/><use xlink:href="#e" transform="matrix(1,0,0,1,747.6284028188846,511.0000000000001) translate(96.01562499999996 37.33072916666666)"/><use xlink:href="#s" transform="matrix(1,0,0,1,747.6284028188846,511.0000000000001) translate(112.01822916666661 37.33072916666666)"/><use xlink:href="#c" transform="matrix(1,0,0,1,747.6284028188846,511.0000000000001) translate(0 50.664062499999986)"/><use xlink:href="#g" transform="matrix(1,0,0,1,747.6284028188846,511.0000000000001) translate(16.00260416666666 50.664062499999986)"/><use xlink:href="#e" transform="matrix(1,0,0,1,747.6284028188846,511.0000000000001) translate(96.01562499999996 50.664062499999986)"/><use xlink:href="#t" transform="matrix(1,0,0,1,747.6284028188846,511.0000000000001) translate(112.01822916666661 50.664062499999986)"/><use xlink:href="#i" transform="matrix(1,0,0,1,747.6284028188846,511.0000000000001) translate(0 63.997395833333314)"/><path d="M1080 481c0 16.57-13.43 30-30 30s-30-13.43-30-30 13.43-30 30-30 30 13.43 30 30z" stroke="#3a414a" stroke-width="2" fill="#fff7a1"/><path d="M1070.96 508h182.74v80h-182.74z" fill="none"/><g><use xlink:href="#a" transform="matrix(1,0,0,1,1070.9617361522182,508.0000000000002) translate(0 10.664062499999996)"/><use xlink:href="#b" transform="matrix(1,0,0,1,1070.9617361522182,508.0000000000002) translate(0 23.997395833333325)"/><use xlink:href="#c" transform="matrix(1,0,0,1,1070.9617361522182,508.0000000000002) translate(0 37.33072916666666)"/><use xlink:href="#d" transform="matrix(1,0,0,1,1070.9617361522182,508.0000000000002) translate(16.00260416666666 37.33072916666666)"/><use xlink:href="#e" transform="matrix(1,0,0,1,1070.9617361522182,508.0000000000002) translate(96.01562499999996 37.33072916666666)"/><use xlink:href="#u" transform="matrix(1,0,0,1,1070.9617361522182,508.0000000000002) translate(112.01822916666661 37.33072916666666)"/><use xlink:href="#c" transform="matrix(1,0,0,1,1070.9617361522182,508.0000000000002) translate(0 50.664062499999986)"/><use xlink:href="#g" transform="matrix(1,0,0,1,1070.9617361522182,508.0000000000002) translate(16.00260416666666 50.664062499999986)"/><use xlink:href="#e" transform="matrix(1,0,0,1,1070.9617361522182,508.0000000000002) translate(96.01562499999996 50.664062499999986)"/><use xlink:href="#v" transform="matrix(1,0,0,1,1070.9617361522182,508.0000000000002) translate(112.01822916666661 50.664062499999986)"/><use xlink:href="#i" transform="matrix(1,0,0,1,1070.9617361522182,508.0000000000002) translate(0 63.997395833333314)"/></g><path d="M392.67 454.1l-1.84-2.5-2.38-3.53-2.34-3.78-2.26-4.07-2.2-4.33-2.1-4.63-2-4.93-1.87-5.24-1.72-5.54-1.55-5.82-1.34-6.1-1.13-6.32-.88-6.52-.6-6.66-.35-6.74-.05-6.74.22-6.68.5-6.56.75-6.37.98-6.13 1.2-5.86 1.37-5.55 1.53-5.22 1.66-4.9 1.77-4.58 1.85-4.26 1.93-3.95 1.98-3.68 2.02-3.4 2.05-3.13 2.07-2.9 2.1-2.7 2.1-2.47 2.1-2.3 2.13-2.1 2.14-1.97 2.13-1.8 2.16-1.67 2.16-1.55 2.2-1.4 2.2-1.3 2.23-1.2 2.25-1.1 2.3-.97 2.3-.9 2.38-.78.66-.2" stroke="#3a414a" stroke-width="2" stroke-linejoin="round" fill="none"/><path d="M394.16 454.42l-.9.47-.8.6-.6-.84 1.6-1.2z" stroke="#3a414a" stroke-width=".05" fill="#3a414a"/><path d="M438.54 270.97l-13.47 6.6-1.3-9.18z" stroke="#3a414a" stroke-width="2" fill="#3a414a"/><path d="M757.96 465.7L816 452.44l26.07-4.75 17.07-2.36 13.1-1.25 11.06-.6 10.05-.1 9.75.3 10.14.73 11.55 1.35 15.45 2.46 64.6 13.8" stroke="#3a414a" stroke-width="2" stroke-linejoin="round" fill="none"/><path d="M758.2 466.66l-.74.17-.97-1.83 1.26-.3z" stroke="#3a414a" stroke-width=".05" fill="#3a414a"/><path d="M1019.77 465.24l-14.92 1.55 1.94-9.08z" stroke="#3a414a" stroke-width="2" fill="#3a414a"/><path d="M1024.13 499.56L974 512.32l-23.48 4.88-16.6 2.72-13.56 1.64-12.07.94-11.43.4-11.38-.06-11.98-.58-13.32-1.2-16.03-2.15-21.78-3.85-39.25-8.7-10.26-2.57" stroke="#3a414a" stroke-width="2" stroke-linejoin="round" fill="none"/><path d="M1025.77 500.17l-1.42.36-.5-1.94.6-.15z" stroke="#3a414a" stroke-width=".05" fill="#3a414a"/><path d="M758.08 500.1l14.96-1.06-2.24 9z" stroke="#3a414a" stroke-width="2" fill="#3a414a"/><path d="M687.43 456.92l-42.27-14.26-14.38-4.04-10.1-2.38-8.36-1.6-7.58-1.12-7.33-.77-7.48-.47-4.5-.13-11.66.03-11.78.53-12.87 1.14-15.04 1.95-18.96 3.28-26.23 5.7-41.65 10.9-13.6 3.92" stroke="#3a414a" stroke-width="2" stroke-linejoin="round" fill="none"/><path d="M701.9 461.8l-15-.17 2.96-8.78z" stroke="#3a414a" stroke-width="2" fill="#3a414a"/><path d="M433.9 460.55l-.53.16-.42-.54-1.15-1.08 1.56-.45z" stroke="#3a414a" stroke-width=".05" fill="#3a414a"/><path d="M457.3 495.4l13.06 3.1 24.4 4.7 20.9 3.1 19.1 2.04 18.67 1.2 19.6.4 22.76-.46 32.6-2.1 75.84-7.8" stroke="#3a414a" stroke-width="2" stroke-linejoin="round" fill="none"/><path d="M442.46 491.9l14.95-1.23-2.13 9.02z" stroke="#3a414a" stroke-width="2" fill="#3a414a"/><path d="M705.95 500.4l-1.63.18-.2-2 .4-.03z" stroke="#3a414a" stroke-width=".05" fill="#3a414a"/><path d="M903.02 672.03l-.94-7.24-.65-7.4-.3-6.68-.03-6.13.22-5.66.42-5.26.6-4.92.78-4.65.92-4.4 1.06-4.2 1.2-4.06 1.36-3.92 1.5-3.8 1.64-3.74 1.8-3.67 2-3.62 2.16-3.63 2.4-3.63 2.65-3.67 2.96-3.74 3.3-3.84 3.73-4 4.27-4.22 5-4.52 5.97-4.97 7.4-5.66 9.86-6.9 15.35-9.76 34.48-20.12" stroke="#3a414a" stroke-width="2" stroke-linejoin="round" fill="none"/><path d="M904.22 673.5l-2.14-.95-.05-.42 1.98-.25z" stroke="#3a414a" stroke-width=".05" fill="#3a414a"/><path d="M1027.32 506.33l-10 11.2-4.66-8.02z" stroke="#3a414a" stroke-width="2" fill="#3a414a"/><path d="M1040.4 511.43l.3 3.85.18 5-.04 5.15-.26 5.33-.5 5.5-.77 5.67-1.03 5.88-1.34 6.08-1.66 6.26-2 6.45-2.37 6.63-2.75 6.8-3.15 6.93-3.56 7.04-3.97 7.1-4.37 7.08-4.75 7.02-5.08 6.9-5.38 6.67-5.62 6.4-5.78 6.07-5.88 5.67-5.9 5.26-5.9 4.8-5.78 4.32-5.66 3.87-5.5 3.43-5.3 3-5.1 2.63-4.9 2.27-3.53 1.45" stroke="#3a414a" stroke-width="2" stroke-linejoin="round" fill="none"/><path d="M1039.85 510.3l1.5.4.06.68-1.98.15-.1-1.47z" stroke="#3a414a" stroke-width=".05" fill="#3a414a"/><path d="M918.48 682.38l12.28-8.6 2.7 8.86z" stroke="#3a414a" stroke-width="2" fill="#3a414a"/><path d="M598.3 670.2l4.3-15.35 4.87-14.93 5.1-13.68 5.3-12.56 5.43-11.55 5.57-10.63 5.66-9.8 5.75-9.04 5.82-8.36 5.88-7.73 5.94-7.17 6-6.65 6.05-6.17 6.1-5.73 6.2-5.32 6.24-4.95 6.33-4.6.83-.53" stroke="#3a414a" stroke-width="2" stroke-linejoin="round" fill="none"/><path d="M599.28 670.44l-.27.97-1.93-.5.3-1z" stroke="#3a414a" stroke-width=".05" fill="#3a414a"/><path d="M708.66 507.45l-9.72 11.42-4.86-7.9z" stroke="#3a414a" stroke-width="2" fill="#3a414a"/><path d="M729.98 513l-.2 9.05-.57 9.27-.9 8.63-1.2 8.08-1.44 7.6-1.7 7.23-1.9 6.9-2.15 6.6-2.36 6.35-2.6 6.17-2.8 6-3.07 5.85-3.32 5.75-3.6 5.68-3.93 5.64-4.26 5.6-4.65 5.62-5.08 5.66-5.6 5.72-6.22 5.83-6.92 5.97-7.77 6.15-8.8 6.4-10.1 6.7-6.48 3.92" stroke="#3a414a" stroke-width="2" stroke-linejoin="round" fill="none"/><path d="M729.98 512l1.02-.03-.02 1.08-2-.04.02-1.08z" stroke="#3a414a" stroke-width=".05" fill="#3a414a"/><path d="M619.07 682.95l10.08-11.1 4.6 8.04z" stroke="#3a414a" stroke-width="2" fill="#3a414a"/><path d="M636.46 717.22l52.84 11.8 21.1 3.62 15.08 1.93 12.4 1.06 11 .47h10.17l9.8-.4 9.7-.8 9.9-1.24 10.37-1.74 11.16-2.37 12.4-3.18 14.3-4.3 17.26-6.02 6.6-2.5" stroke="#3a414a" stroke-width="2" stroke-linejoin="round" fill="none"/><path d="M621.56 713.9l14.94-1.42-2.02 9.04z" stroke="#3a414a" stroke-width="2" fill="#3a414a"/><path d="M861.48 713.18l.48.9-1.08.4-.7-1.87 1-.36z" stroke="#3a414a" stroke-width=".05" fill="#3a414a"/><path d="M621.03 693.18l19.58-6.16 17.18-4.6 15.02-3.38 13.62-2.46 12.73-1.75 12.2-1.16 12.05-.63 12.2-.13 12.72.4 13.76 1.02 15.58 1.8 18.95 3.02 26.33 5.34 19.1 4.64" stroke="#3a414a" stroke-width="2" stroke-linejoin="round" fill="none"/><path d="M621.35 694.13l-1.1.34-.12-.8-.38-1.14 1-.3z" stroke="#3a414a" stroke-width=".05" fill="#3a414a"/><path d="M856.88 692.72l-14.96 1.14 2.2-9z" stroke="#3a414a" stroke-width="2" fill="#3a414a"/><path d="M1049.98 449l-.23-11.17-.76-12-1.24-11.68-1.65-11.23-2.03-10.7-2.37-10.1-2.64-9.45-2.86-8.83-3.05-8.2-3.18-7.58-3.3-7-3.4-6.48-3.43-5.98-3.5-5.5-3.53-5.1-3.55-4.68-3.6-4.34-3.6-4-3.62-3.7-3.64-3.43-3.68-3.16-3.7-2.94-3.7-2.7-3.77-2.5-3.8-2.3-3.85-2.12-3.9-1.94-3.98-1.77-4.05-1.6-4.13-1.44-4.24-1.3-4.34-1.1-4.48-.96-3.75-.63" stroke="#3a414a" stroke-width="2" stroke-linejoin="round" fill="none"/><path d="M1051 450.08l-.98-.08-1.02.03-.02-1.04 2-.05z" stroke="#3a414a" stroke-width=".05" fill="#3a414a"/><path d="M924.23 270.25l14.57-3.54-.7 9.26z" stroke="#3a414a" stroke-width="2" fill="#3a414a"/><path d="M820 166a6 6 0 0 1 6-6h68a6 6 0 0 1 6 6v22.32a6 6 0 0 1-6 6h-68a6 6 0 0 1-6-6zM976.67 317a6 6 0 0 1 6-6h81.3a6 6 0 0 1 6 6v28a6 6 0 0 1-6 6h-81.3a6 6 0 0 1-6-6z" stroke="#fff" fill="#fff"/><path d="M916.67 291h336.03v80H916.67z" fill="none"/><g><use xlink:href="#l" transform="matrix(1,0,0,1,916.6666666666671,290.9999999999999) translate(0 10.664062499999996)"/><use xlink:href="#b" transform="matrix(1,0,0,1,916.6666666666671,290.9999999999999) translate(0 23.997395833333325)"/><use xlink:href="#c" transform="matrix(1,0,0,1,916.6666666666671,290.9999999999999) translate(0 37.33072916666666)"/><use xlink:href="#m" transform="matrix(1,0,0,1,916.6666666666671,290.9999999999999) translate(16.00260416666666 37.33072916666666)"/><use xlink:href="#e" transform="matrix(1,0,0,1,916.6666666666671,290.9999999999999) translate(128.0208333333333 37.33072916666666)"/><use xlink:href="#w" transform="matrix(1,0,0,1,916.6666666666671,290.9999999999999) translate(144.02343749999994 37.33072916666666)"/><use xlink:href="#c" transform="matrix(1,0,0,1,916.6666666666671,290.9999999999999) translate(0 50.664062499999986)"/><use xlink:href="#o" transform="matrix(1,0,0,1,916.6666666666671,290.9999999999999) translate(16.00260416666666 50.664062499999986)"/><use xlink:href="#e" transform="matrix(1,0,0,1,916.6666666666671,290.9999999999999) translate(128.0208333333333 50.664062499999986)"/><use xlink:href="#p" transform="matrix(1,0,0,1,916.6666666666671,290.9999999999999) translate(144.02343749999994 50.664062499999986)"/><use xlink:href="#i" transform="matrix(1,0,0,1,916.6666666666671,290.9999999999999) translate(0 63.997395833333314)"/></g><path d="M504.75 270.5l4.27-.1 5.17-.33 5.04-.53 4.94-.73 4.85-.9 4.75-1.12 4.65-1.3 4.57-1.5 4.47-1.65 4.38-1.84 4.3-2.03 4.2-2.2 4.1-2.37 4.02-2.55 3.92-2.72 3.8-2.9 3.72-3.07 3.6-3.25 3.5-3.4 3.36-3.6 3.24-3.74 3.1-3.92 2.97-4.1 2.8-4.23 2.67-4.4 2.5-4.54 2.34-4.7 2.16-4.85 1.98-4.97 1.78-5.1 1.58-5.25 1.37-5.36 1.17-5.47.94-5.6.24-1.88" stroke="#3a414a" stroke-width="2" stroke-linejoin="round" fill="none"/><path d="M504.8 271.5h-1.14l.08-.97-.03-1.02h1.05z" stroke="#3a414a" stroke-width=".05" fill="#3a414a"/><path d="M622.25 149.05l3.66 14.54-9.24-.63z" stroke="#3a414a" stroke-width="2" fill="#3a414a"/><path d="M652.46 137.16h309.36v80H652.46z" fill="none"/><g><use xlink:href="#x" transform="matrix(1,0,0,1,652.4627409650279,137.16004953111693) translate(0 10.664062499999996)"/><use xlink:href="#b" transform="matrix(1,0,0,1,652.4627409650279,137.16004953111693) translate(0 23.997395833333325)"/><use xlink:href="#c" transform="matrix(1,0,0,1,652.4627409650279,137.16004953111693) translate(0 37.33072916666666)"/><use xlink:href="#y" transform="matrix(1,0,0,1,652.4627409650279,137.16004953111693) translate(16.00260416666666 37.33072916666666)"/><use xlink:href="#e" transform="matrix(1,0,0,1,652.4627409650279,137.16004953111693) translate(136.0221354166666 37.33072916666666)"/><use xlink:href="#z" transform="matrix(1,0,0,1,652.4627409650279,137.16004953111693) translate(152.02473958333326 37.33072916666666)"/><use xlink:href="#c" transform="matrix(1,0,0,1,652.4627409650279,137.16004953111693) translate(0 50.664062499999986)"/><use xlink:href="#A" transform="matrix(1,0,0,1,652.4627409650279,137.16004953111693) translate(16.00260416666666 50.664062499999986)"/><use xlink:href="#e" transform="matrix(1,0,0,1,652.4627409650279,137.16004953111693) translate(136.0221354166666 50.664062499999986)"/><use xlink:href="#B" transform="matrix(1,0,0,1,652.4627409650279,137.16004953111693) translate(152.02473958333326 50.664062499999986)"/><use xlink:href="#C" transform="matrix(1,0,0,1,652.4627409650279,137.16004953111693) translate(224.03645833333323 50.664062499999986)"/><use xlink:href="#i" transform="matrix(1,0,0,1,652.4627409650279,137.16004953111693) translate(0 63.997395833333314)"/></g><defs><path fill="#3a414a" d="M604-135c236 0 291-142 291-376v-838h190v859c5 340-142 510-480 510-326 0-463-164-463-492v-877h191v851c-3 222 46 363 271 363" id="D"/><path fill="#3a414a" d="M873-819c-18-114-119-146-250-146-163 0-245 50-245 151 0 151 170 148 294 185 182 54 388 94 388 320 0 240-189 325-439 329-245 4-410-69-454-268l159-31c24 133 136 168 295 165 144-2 270-31 270-171 0-164-195-160-331-202-167-52-350-87-350-299 0-218 173-315 413-313 220 2 373 77 412 260" id="E"/><path fill="#3a414a" d="M617-1102c355 0 481 238 477 599H322c5 222 84 388 301 388 144 0 244-59 284-166l158 45C1002-72 854 20 623 20c-342 0-490-220-490-568 0-346 151-554 484-554zm291 461c-18-192-90-328-289-328-194 0-287 128-295 328h584" id="F"/><path fill="#3a414a" d="M839-1102c70 0 148 7 206 17v167c-112-18-268-36-363 15-129 69-208 203-208 395V0H294c-10-367 32-789-52-1082h171c21 75 41 161 48 250h5c67-152 152-270 373-270" id="G"/><g id="a"><use transform="matrix(0.006510416666666664,0,0,0.006510416666666664,0,0)" xlink:href="#D"/><use transform="matrix(0.006510416666666664,0,0,0.006510416666666664,8.00130208333333,0)" xlink:href="#E"/><use transform="matrix(0.006510416666666664,0,0,0.006510416666666664,16.00260416666666,0)" xlink:href="#F"/><use transform="matrix(0.006510416666666664,0,0,0.006510416666666664,24.003906249999993,0)" xlink:href="#G"/></g><path fill="#3a414a" d="M554 91c-26 118 8 195 133 195h213l-27 139H608c-175 0-267-118-235-303 24-135 74-259 74-401 0-133-108-173-235-182l26-137c170-10 291-81 320-231l69-352c40-175 147-303 352-303h265l-27 139c-125 7-282-24-352 44-37 36-57 86-69 151l-68 346c-33 149-145 232-284 274 115 31 208 119 178 274" id="H"/><use transform="matrix(0.006510416666666664,0,0,0.006510416666666664,0,0)" xlink:href="#H" id="b"/><path fill="#3a414a" d="M967-845H825l84-639h224zm-449 0H377l83-639h224" id="I"/><path fill="#3a414a" d="M419 20c-186 0-282-64-284-243 0-40 5-86 15-138l140-721h180c-47 251-101 497-144 752-25 145 40 219 181 211 211-12 308-150 344-336l122-627h181C1087-721 1010-369 950 0H780c6-58 18-129 28-185h-3C720-71 616 20 419 20" id="J"/><path fill="#3a414a" d="M706-965c-176 0-278 51-278 181 0 125 156 122 261 155 163 51 371 93 326 320C971-85 782 18 512 20c-227 2-392-53-402-268l165-31c1 144 117 166 263 165 166-2 306-45 306-201 0-97-96-115-178-141-139-45-315-63-388-174-17-26-26-59-26-98 0-260 204-371 480-371 203 0 355 61 361 260l-166 20c2-122-100-146-221-146" id="K"/><path fill="#3a414a" d="M726-1102c256 0 385 126 386 379 1 67-11 147-25 220H315c-7 39-13 78-13 121 2 164 74 267 238 267 154 0 260-65 317-166l149 45C916-82 760 20 514 20c-259 0-398-131-398-390 0-357 148-615 421-704 62-20 125-28 189-28zm202 461c22-192-41-335-226-328-212 9-312 142-358 328h584" id="L"/><path fill="#3a414a" d="M523-832c93-143 191-271 425-270 69 0 147 7 203 17l-33 167c-114-19-266-34-366 15-148 73-248 213-284 395L369 0H189l136-701c21-116 30-253 22-381h171c8 76 8 174 0 250h5" id="M"/><path fill="#3a414a" d="M-153 220l19-96h1238l-19 96H-153" id="N"/><path fill="#3a414a" d="M668-142h380L1020 0H38l28-142h422l155-798H324l27-142h499zm23-1150l37-192h200l-37 192H691" id="O"/><path fill="#3a414a" d="M772 0c2-57 14-121 24-174h-5C708-49 608 26 420 26 203 26 113-90 112-311c0-65 8-138 24-221 74-377 241-566 502-566 165 0 259 55 298 184 37-190 73-380 110-570h180C1133-988 1028-504 944 0H772zm109-648c26-189-33-326-219-317-242 11-291 213-338 427-15 68-22 130-23 201 1 149 51 224 193 224 258 0 321-215 372-441 8-34 12-65 15-94" id="P"/><g id="d"><use transform="matrix(0.006510416666666664,0,0,0.006510416666666664,0,0)" xlink:href="#I"/><use transform="matrix(0.006510416666666664,0,0,0.006510416666666664,8.00130208333333,0)" xlink:href="#J"/><use transform="matrix(0.006510416666666664,0,0,0.006510416666666664,16.00260416666666,0)" xlink:href="#K"/><use transform="matrix(0.006510416666666664,0,0,0.006510416666666664,24.003906249999993,0)" xlink:href="#L"/><use transform="matrix(0.006510416666666664,0,0,0.006510416666666664,32.00520833333332,0)" xlink:href="#M"/><use transform="matrix(0.006510416666666664,0,0,0.006510416666666664,40.00651041666665,0)" xlink:href="#N"/><use transform="matrix(0.006510416666666664,0,0,0.006510416666666664,48.00781249999998,0)" xlink:href="#O"/><use transform="matrix(0.006510416666666664,0,0,0.006510416666666664,56.0091145833333,0)" xlink:href="#P"/><use transform="matrix(0.006510416666666664,0,0,0.006510416666666664,64.01041666666664,0)" xlink:href="#I"/></g><path fill="#3a414a" d="M391 0l58-299h235L626 0H391zm152-783l58-299h235l-58 299H543" id="Q"/><use transform="matrix(0.006510416666666664,0,0,0.006510416666666664,0,0)" xlink:href="#Q" id="e"/><path fill="#3a414a" d="M261-1120c230-8 401-96 507-229h166L700-145h353L1025 0H52l28-145h439l199-1021c-97 119-281 184-486 194" id="R"/><path fill="#3a414a" d="M83 363l298-662h265L206 363H83" id="S"/><g id="f"><use transform="matrix(0.006510416666666664,0,0,0.006510416666666664,0,0)" xlink:href="#R"/><use transform="matrix(0.006510416666666664,0,0,0.006510416666666664,8.00130208333333,0)" xlink:href="#S"/></g><path fill="#3a414a" d="M815-1102c202-2 311 102 279 314-40 267-101 525-150 788H763l135-695c7-39 11-71 11-98 2-119-62-175-179-170-208 9-312 151-348 336L260 0H80c67-361 144-713 204-1082h170c-6 58-17 130-28 185h3c86-116 194-203 386-205" id="T"/><path fill="#3a414a" d="M948-272c-17 76-19 161 70 161 21 0 42-3 60-7L1056-6c-45 10-88 14-142 16-138 6-175-86-155-217h-6C661-83 550 15 337 20 138 24 42-104 82-302c49-247 238-349 523-354l236-4c9-47 22-94 22-148 0-118-65-155-184-157-151-3-231 57-266 172l-185-17c67-189 220-292 480-292 245 0 377 119 330 364zm-678-27c-21 109 31 185 140 182 176-5 282-102 348-217 37-66 43-123 59-200-145 7-304-9-409 44-71 36-119 96-138 191" id="U"/><path fill="#3a414a" d="M1000-783c14-86 16-180-76-180-43 0-83 29-120 85s-67 140-88 251L594 0H426c49-261 107-518 150-783 14-86 14-191-77-180-103 13-137 116-173 209-17 43-28 93-39 147L169 0H0c67-361 144-713 204-1082h149c-6 55-18 122-28 175h2c54-95 112-192 254-195 127-2 153 72 158 196 61-99 122-196 274-196 124 0 168 64 168 192 0 67-10 125-22 189L1019 0H851c49-261 106-518 149-783" id="V"/><g id="g"><use transform="matrix(0.006510416666666664,0,0,0.006510416666666664,0,0)" xlink:href="#I"/><use transform="matrix(0.006510416666666664,0,0,0.006510416666666664,8.00130208333333,0)" xlink:href="#T"/><use transform="matrix(0.006510416666666664,0,0,0.006510416666666664,16.00260416666666,0)" xlink:href="#U"/><use transform="matrix(0.006510416666666664,0,0,0.006510416666666664,24.003906249999993,0)" xlink:href="#V"/><use transform="matrix(0.006510416666666664,0,0,0.006510416666666664,32.00520833333332,0)" xlink:href="#L"/><use transform="matrix(0.006510416666666664,0,0,0.006510416666666664,40.00651041666665,0)" xlink:href="#I"/></g><path fill="#3a414a" d="M832 0c78-390 148-786 233-1169-124 253-264 488-400 729H528c-43-241-94-472-121-729C339-774 258-390 184 0H24l262-1349h237c39 239 98 457 113 720 117-256 262-480 395-720h225L994 0H832" id="W"/><path fill="#3a414a" d="M9 279c104 15 163 3 243-53 63-44 133-143 181-237L171-1082h192c62 299 135 587 188 896 174-300 351-597 525-896h190L600 0c-97 160-186 316-352 396-73 35-176 36-265 18" id="X"/><g id="h"><use transform="matrix(0.006510416666666664,0,0,0.006510416666666664,0,0)" xlink:href="#I"/><use transform="matrix(0.006510416666666664,0,0,0.006510416666666664,8.00130208333333,0)" xlink:href="#W"/><use transform="matrix(0.006510416666666664,0,0,0.006510416666666664,16.00260416666666,0)" xlink:href="#U"/><use transform="matrix(0.006510416666666664,0,0,0.006510416666666664,24.003906249999993,0)" xlink:href="#M"/><use transform="matrix(0.006510416666666664,0,0,0.006510416666666664,32.00520833333332,0)" xlink:href="#X"/><use transform="matrix(0.006510416666666664,0,0,0.006510416666666664,40.00651041666665,0)" xlink:href="#I"/></g><path fill="#3a414a" d="M782-829c-28 162 86 226 230 231l-26 137c-170 10-290 80-320 232l-69 351c-41 174-150 303-353 303H-21L6 286c127-7 286 22 354-44 32-31 56-80 69-151l68-347c32-151 143-234 283-276-114-31-202-119-177-272 23-141 76-269 76-420 0-92-49-121-143-121H323l27-139h265c172-5 272 121 236 303" id="Y"/><use transform="matrix(0.006510416666666664,0,0,0.006510416666666664,0,0)" xlink:href="#Y" id="i"/><path fill="#3a414a" d="M708-869c260 2 424 154 372 425-54 284-253 464-590 464C243 20 91-77 84-315l186-21c11 141 96 212 253 209 216-5 334-129 370-313 35-180-76-283-251-282-126 0-208 47-281 101H185l188-728h801l-28 145H511L399-779c77-49 180-91 309-90" id="Z"/><g id="j"><use transform="matrix(0.006510416666666664,0,0,0.006510416666666664,0,0)" xlink:href="#Z"/><use transform="matrix(0.006510416666666664,0,0,0.006510416666666664,8.00130208333333,0)" xlink:href="#S"/></g><path fill="#3a414a" d="M132 0l262-1349h191L353-156h672L995 0H132" id="aa"/><g id="k"><use transform="matrix(0.006510416666666664,0,0,0.006510416666666664,0,0)" xlink:href="#I"/><use transform="matrix(0.006510416666666664,0,0,0.006510416666666664,8.00130208333333,0)" xlink:href="#aa"/><use transform="matrix(0.006510416666666664,0,0,0.006510416666666664,16.00260416666666,0)" xlink:href="#U"/><use transform="matrix(0.006510416666666664,0,0,0.006510416666666664,24.003906249999993,0)" xlink:href="#M"/><use transform="matrix(0.006510416666666664,0,0,0.006510416666666664,32.00520833333332,0)" xlink:href="#M"/><use transform="matrix(0.006510416666666664,0,0,0.006510416666666664,40.00651041666665,0)" xlink:href="#X"/><use transform="matrix(0.006510416666666664,0,0,0.006510416666666664,48.00781249999998,0)" xlink:href="#I"/></g><path fill="#3a414a" d="M1121-976c0 225-142 341-344 379L1177 0H957L591-575H353V0H162v-1349h482c281 3 477 100 477 373zM633-726c181-1 296-73 296-247 0-149-101-223-304-223H353v470h280" id="ab"/><path fill="#3a414a" d="M715 0H502L69-1082h202c94 253 197 500 285 758 19 57 36 126 52 183 96-335 234-626 350-941h201" id="ac"/><path fill="#3a414a" d="M745-142h380V0H143v-142h422v-798H246v-142h499v940zM545-1292v-192h200v192H545" id="ad"/><path fill="#3a414a" d="M1018 0H814c-67-224-138-444-200-673C552-442 476-224 407 0H204L21-1082h178c43 310 105 601 126 933 54-225 128-425 193-638h193c63 212 134 415 185 638 22-336 90-622 136-933h176" id="ae"/><g id="l"><use transform="matrix(0.006510416666666664,0,0,0.006510416666666664,0,0)" xlink:href="#ab"/><use transform="matrix(0.006510416666666664,0,0,0.006510416666666664,8.00130208333333,0)" xlink:href="#F"/><use transform="matrix(0.006510416666666664,0,0,0.006510416666666664,16.00260416666666,0)" xlink:href="#ac"/><use transform="matrix(0.006510416666666664,0,0,0.006510416666666664,24.003906249999993,0)" xlink:href="#ad"/><use transform="matrix(0.006510416666666664,0,0,0.006510416666666664,32.00520833333332,0)" xlink:href="#F"/><use transform="matrix(0.006510416666666664,0,0,0.006510416666666664,40.00651041666665,0)" xlink:href="#ae"/></g><path fill="#3a414a" d="M610 0H397L174-1082h202l131 704c10 72 16 162 23 237 161-331 356-627 533-941h201" id="af"/><path fill="#3a414a" d="M913 0H709c-23-224-51-444-69-673C534-442 415-224 302 0H99l27-1082h178c-17 313-15 643-55 933 97-223 211-425 317-638h193c22 211 51 414 61 638 86-332 210-623 317-933h176" id="ag"/><g id="m"><use transform="matrix(0.006510416666666664,0,0,0.006510416666666664,0,0)" xlink:href="#I"/><use transform="matrix(0.006510416666666664,0,0,0.006510416666666664,8.00130208333333,0)" xlink:href="#M"/><use transform="matrix(0.006510416666666664,0,0,0.006510416666666664,16.00260416666666,0)" xlink:href="#L"/><use transform="matrix(0.006510416666666664,0,0,0.006510416666666664,24.003906249999993,0)" xlink:href="#af"/><use transform="matrix(0.006510416666666664,0,0,0.006510416666666664,32.00520833333332,0)" xlink:href="#O"/><use transform="matrix(0.006510416666666664,0,0,0.006510416666666664,40.00651041666665,0)" xlink:href="#L"/><use transform="matrix(0.006510416666666664,0,0,0.006510416666666664,48.00781249999998,0)" xlink:href="#ag"/><use transform="matrix(0.006510416666666664,0,0,0.006510416666666664,56.0091145833333,0)" xlink:href="#N"/><use transform="matrix(0.006510416666666664,0,0,0.006510416666666664,64.01041666666664,0)" xlink:href="#O"/><use transform="matrix(0.006510416666666664,0,0,0.006510416666666664,72.01171874999997,0)" xlink:href="#P"/><use transform="matrix(0.006510416666666664,0,0,0.006510416666666664,80.0130208333333,0)" xlink:href="#I"/></g><path fill="#3a414a" d="M801-1349c273-6 458 108 405 373-42 211-195 340-418 379L1072 0H852L598-575H360L248 0H57l262-1349h482zM669-726c214-4 349-100 349-300 0-113-89-170-266-170H480l-91 470h280" id="ah"/><g id="n"><use transform="matrix(0.006510416666666664,0,0,0.006510416666666664,0,0)" xlink:href="#I"/><use transform="matrix(0.006510416666666664,0,0,0.006510416666666664,8.00130208333333,0)" xlink:href="#ah"/><use transform="matrix(0.006510416666666664,0,0,0.006510416666666664,16.00260416666666,0)" xlink:href="#R"/><use transform="matrix(0.006510416666666664,0,0,0.006510416666666664,24.003906249999993,0)" xlink:href="#I"/><use transform="matrix(0.006510416666666664,0,0,0.006510416666666664,32.00520833333332,0)" xlink:href="#S"/></g><path fill="#3a414a" d="M574 16c-199 5-309-85-269-285l131-671H268l27-142h170l113-282h120l-55 282h432l-27 142H616c-43 233-105 457-132 696-16 144 198 111 324 99 46-6 96-14 136-22L918-30C819-5 700 13 574 16" id="ai"/><g id="o"><use transform="matrix(0.006510416666666664,0,0,0.006510416666666664,0,0)" xlink:href="#I"/><use transform="matrix(0.006510416666666664,0,0,0.006510416666666664,8.00130208333333,0)" xlink:href="#M"/><use transform="matrix(0.006510416666666664,0,0,0.006510416666666664,16.00260416666666,0)" xlink:href="#L"/><use transform="matrix(0.006510416666666664,0,0,0.006510416666666664,24.003906249999993,0)" xlink:href="#af"/><use transform="matrix(0.006510416666666664,0,0,0.006510416666666664,32.00520833333332,0)" xlink:href="#O"/><use transform="matrix(0.006510416666666664,0,0,0.006510416666666664,40.00651041666665,0)" xlink:href="#L"/><use transform="matrix(0.006510416666666664,0,0,0.006510416666666664,48.00781249999998,0)" xlink:href="#ag"/><use transform="matrix(0.006510416666666664,0,0,0.006510416666666664,56.0091145833333,0)" xlink:href="#N"/><use transform="matrix(0.006510416666666664,0,0,0.006510416666666664,64.01041666666664,0)" xlink:href="#ai"/><use transform="matrix(0.006510416666666664,0,0,0.006510416666666664,72.01171874999997,0)" xlink:href="#O"/><use transform="matrix(0.006510416666666664,0,0,0.006510416666666664,80.0130208333333,0)" xlink:href="#V"/><use transform="matrix(0.006510416666666664,0,0,0.006510416666666664,88.01432291666663,0)" xlink:href="#L"/><use transform="matrix(0.006510416666666664,0,0,0.006510416666666664,96.01562499999996,0)" xlink:href="#I"/></g><path fill="#3a414a" d="M1074-1484C764-1178 497-826 497-240c0 287 95 480 206 665H513C401 244 309 50 309-234c0-588 264-946 575-1250h190" id="aj"/><path fill="#3a414a" d="M772-1370c250-5 434 113 380 368-48 227-231 344-394 464-130 96-274 183-388 290-35 33-63 67-86 102h723L979 0H39l23-117c190-289 528-436 773-668 71-67 136-137 136-262 0-129-96-175-227-175-165 0-275 97-315 238l-180-17c75-217 236-364 523-369" id="ak"/><path fill="#3a414a" d="M778-1370c265 0 387 149 381 421-8 347-108 641-279 816C787-38 668 16 502 20 192 27 89-213 128-534c36-292 118-539 270-692 93-94 212-144 380-144zM332-675c-50 246-71 554 201 548 198-5 278-133 341-289 53-133 101-344 104-531 3-173-58-280-228-277-204 3-283 125-346 284-28 70-51 159-72 265" id="al"/><path fill="#3a414a" d="M319-464l31-160h560l-31 160H319" id="am"/><path fill="#3a414a" d="M794-689c173 21 307 121 272 319-46 257-247 390-554 390C242 20 81-90 93-362l190-17c-8 173 87 252 258 250 204-3 343-96 343-288 0-182-207-196-405-192l31-156c246 10 459-51 459-286 0-122-89-172-225-171-169 1-285 96-324 233l-178-14c75-223 246-362 532-367 246-5 426 101 378 354-35 181-173 283-357 323" id="an"/><path fill="#3a414a" d="M915-832c0 594-261 950-575 1257H148C458 120 728-231 728-816c0-288-97-482-209-668h192c111 180 204 370 204 652" id="ao"/><g id="p"><use transform="matrix(0.006510416666666664,0,0,0.006510416666666664,0,0)" xlink:href="#P"/><use transform="matrix(0.006510416666666664,0,0,0.006510416666666664,8.00130208333333,0)" xlink:href="#U"/><use transform="matrix(0.006510416666666664,0,0,0.006510416666666664,16.00260416666666,0)" xlink:href="#ai"/><use transform="matrix(0.006510416666666664,0,0,0.006510416666666664,24.003906249999993,0)" xlink:href="#L"/><use transform="matrix(0.006510416666666664,0,0,0.006510416666666664,32.00520833333332,0)" xlink:href="#aj"/><use transform="matrix(0.006510416666666664,0,0,0.006510416666666664,40.00651041666665,0)" xlink:href="#I"/><use transform="matrix(0.006510416666666664,0,0,0.006510416666666664,48.00781249999998,0)" xlink:href="#ak"/><use transform="matrix(0.006510416666666664,0,0,0.006510416666666664,56.0091145833333,0)" xlink:href="#al"/><use transform="matrix(0.006510416666666664,0,0,0.006510416666666664,64.01041666666664,0)" xlink:href="#ak"/><use transform="matrix(0.006510416666666664,0,0,0.006510416666666664,72.01171874999997,0)" xlink:href="#ak"/><use transform="matrix(0.006510416666666664,0,0,0.006510416666666664,80.0130208333333,0)" xlink:href="#am"/><use transform="matrix(0.006510416666666664,0,0,0.006510416666666664,88.01432291666663,0)" xlink:href="#al"/><use transform="matrix(0.006510416666666664,0,0,0.006510416666666664,96.01562499999996,0)" xlink:href="#an"/><use transform="matrix(0.006510416666666664,0,0,0.006510416666666664,104.01692708333329,0)" xlink:href="#am"/><use transform="matrix(0.006510416666666664,0,0,0.006510416666666664,112.0182291666666,0)" xlink:href="#al"/><use transform="matrix(0.006510416666666664,0,0,0.006510416666666664,120.01953124999993,0)" xlink:href="#R"/><use transform="matrix(0.006510416666666664,0,0,0.006510416666666664,128.0208333333333,0)" xlink:href="#I"/><use transform="matrix(0.006510416666666664,0,0,0.006510416666666664,136.02213541666663,0)" xlink:href="#ao"/></g><path fill="#3a414a" d="M894-319L832 0H652l62-319H60l27-140 808-890h199L922-461h188l-28 142H894zm-18-835L242-461h500" id="ap"/><g id="q"><use transform="matrix(0.006510416666666664,0,0,0.006510416666666664,0,0)" xlink:href="#ap"/><use transform="matrix(0.006510416666666664,0,0,0.006510416666666664,8.00130208333333,0)" xlink:href="#S"/></g><path fill="#3a414a" d="M747-1226c-195 1-328 74-328 254 0 150 168 158 292 193 206 58 444 122 384 409-56 265-271 388-594 390C217 22 49-81 40-338l192-37c3 179 117 247 303 246 215-2 375-80 375-283 0-168-187-179-325-221-168-51-357-87-357-299 0-308 229-433 548-438 258-4 409 81 417 324l-194 33c-2-154-93-214-252-213" id="aq"/><g id="r"><use transform="matrix(0.006510416666666664,0,0,0.006510416666666664,0,0)" xlink:href="#I"/><use transform="matrix(0.006510416666666664,0,0,0.006510416666666664,8.00130208333333,0)" xlink:href="#aq"/><use transform="matrix(0.006510416666666664,0,0,0.006510416666666664,16.00260416666666,0)" xlink:href="#J"/><use transform="matrix(0.006510416666666664,0,0,0.006510416666666664,24.003906249999993,0)" xlink:href="#K"/><use transform="matrix(0.006510416666666664,0,0,0.006510416666666664,32.00520833333332,0)" xlink:href="#U"/><use transform="matrix(0.006510416666666664,0,0,0.006510416666666664,40.00651041666665,0)" xlink:href="#T"/><use transform="matrix(0.006510416666666664,0,0,0.006510416666666664,48.00781249999998,0)" xlink:href="#I"/></g><g id="s"><use transform="matrix(0.006510416666666664,0,0,0.006510416666666664,0,0)" xlink:href="#ak"/><use transform="matrix(0.006510416666666664,0,0,0.006510416666666664,8.00130208333333,0)" xlink:href="#S"/></g><path fill="#3a414a" d="M332-381c-4 144 41 246 176 246 165 0 233-124 264-281l151-777H612l30-156h501L963-420C908-169 772 20 477 20c-237 0-341-123-338-370" id="ar"/><path fill="#3a414a" d="M724-1102c292 0 423 159 388 460-35 307-154 537-400 628-65 24-136 34-212 34-254-2-388-131-388-387 0-255 97-480 226-595 103-92 231-140 386-140zM381-747C294-559 211-98 524-113c294-14 359-254 399-525 28-194-32-337-222-331-174 5-260 94-320 222" id="as"/><path fill="#3a414a" d="M909-793c2-119-62-175-179-170-208 9-312 151-348 336L260 0H80l288-1484h181c-40 197-71 402-123 587h3c84-115 190-205 379-205 182 0 290 76 289 259 0 38-4 79-13 122L944 0H763l135-695c7-39 11-71 11-98" id="at"/><g id="t"><use transform="matrix(0.006510416666666664,0,0,0.006510416666666664,0,0)" xlink:href="#I"/><use transform="matrix(0.006510416666666664,0,0,0.006510416666666664,8.00130208333333,0)" xlink:href="#ar"/><use transform="matrix(0.006510416666666664,0,0,0.006510416666666664,16.00260416666666,0)" xlink:href="#as"/><use transform="matrix(0.006510416666666664,0,0,0.006510416666666664,24.003906249999993,0)" xlink:href="#at"/><use transform="matrix(0.006510416666666664,0,0,0.006510416666666664,32.00520833333332,0)" xlink:href="#T"/><use transform="matrix(0.006510416666666664,0,0,0.006510416666666664,40.00651041666665,0)" xlink:href="#I"/></g><g id="u"><use transform="matrix(0.006510416666666664,0,0,0.006510416666666664,0,0)" xlink:href="#an"/><use transform="matrix(0.006510416666666664,0,0,0.006510416666666664,8.00130208333333,0)" xlink:href="#S"/></g><path fill="#3a414a" d="M898 0L535-638 339-469 248 0H57l262-1349h191L379-676l703-673h225L692-777 1122 0H898" id="au"/><g id="v"><use transform="matrix(0.006510416666666664,0,0,0.006510416666666664,0,0)" xlink:href="#I"/><use transform="matrix(0.006510416666666664,0,0,0.006510416666666664,8.00130208333333,0)" xlink:href="#au"/><use transform="matrix(0.006510416666666664,0,0,0.006510416666666664,16.00260416666666,0)" xlink:href="#L"/><use transform="matrix(0.006510416666666664,0,0,0.006510416666666664,24.003906249999993,0)" xlink:href="#af"/><use transform="matrix(0.006510416666666664,0,0,0.006510416666666664,32.00520833333332,0)" xlink:href="#O"/><use transform="matrix(0.006510416666666664,0,0,0.006510416666666664,40.00651041666665,0)" xlink:href="#T"/><use transform="matrix(0.006510416666666664,0,0,0.006510416666666664,48.00781249999998,0)" xlink:href="#I"/></g><g id="w"><use transform="matrix(0.006510416666666664,0,0,0.006510416666666664,0,0)" xlink:href="#I"/><use transform="matrix(0.006510416666666664,0,0,0.006510416666666664,8.00130208333333,0)" xlink:href="#ah"/><use transform="matrix(0.006510416666666664,0,0,0.006510416666666664,16.00260416666666,0)" xlink:href="#ak"/><use transform="matrix(0.006510416666666664,0,0,0.006510416666666664,24.003906249999993,0)" xlink:href="#I"/><use transform="matrix(0.006510416666666664,0,0,0.006510416666666664,32.00520833333332,0)" xlink:href="#S"/></g><path fill="#3a414a" d="M802-711c201 25 350 118 350 331C1152-95 921 0 634 0H162v-1349c401 9 908-74 908 327 0 184-111 275-268 311zm-224-69c174-2 300-51 300-218 0-163-124-198-302-198H353v416h225zM353-153c281-2 612 44 606-244-5-271-329-233-606-234v478" id="av"/><path fill="#3a414a" d="M528 20c-247 0-343-132-343-381v-721h180v686c-4 177 45 284 224 277 194-8 279-136 279-336v-627h181c3 360-6 732 6 1082H885c-4-54-7-126-8-185h-3C809-64 714 20 528 20" id="aw"/><path fill="#3a414a" d="M706-1102c241 0 344 136 343 381V0H868v-695c1-168-57-273-220-268-190 6-283 138-283 336V0H185c-3-360 6-732-6-1082h170c4 54 7 126 8 185h3c63-121 164-204 346-205" id="ax"/><g id="x"><use transform="matrix(0.006510416666666664,0,0,0.006510416666666664,0,0)" xlink:href="#av"/><use transform="matrix(0.006510416666666664,0,0,0.006510416666666664,8.00130208333333,0)" xlink:href="#aw"/><use transform="matrix(0.006510416666666664,0,0,0.006510416666666664,16.00260416666666,0)" xlink:href="#E"/><use transform="matrix(0.006510416666666664,0,0,0.006510416666666664,24.003906249999993,0)" xlink:href="#ad"/><use transform="matrix(0.006510416666666664,0,0,0.006510416666666664,32.00520833333332,0)" xlink:href="#ax"/><use transform="matrix(0.006510416666666664,0,0,0.006510416666666664,40.00651041666665,0)" xlink:href="#F"/><use transform="matrix(0.006510416666666664,0,0,0.006510416666666664,48.00781249999998,0)" xlink:href="#E"/><use transform="matrix(0.006510416666666664,0,0,0.006510416666666664,56.0091145833333,0)" xlink:href="#E"/></g><path fill="#3a414a" d="M809-1104c212 0 310 122 306 343-4 250-95 524-208 640C818-30 715 20 589 20c-161 0-261-59-300-184-11 55-26 116-41 164H74c18-68 35-148 49-223l245-1261h180c-39 193-73 391-116 580h4c79-124 190-200 373-200zM348-430c-24 189 33 326 217 317 240-12 292-213 339-427 14-65 21-126 22-196 0-150-52-229-193-229-257 0-320 212-371 441-7 34-11 65-14 94" id="ay"/><g id="y"><use transform="matrix(0.006510416666666664,0,0,0.006510416666666664,0,0)" xlink:href="#I"/><use transform="matrix(0.006510416666666664,0,0,0.006510416666666664,8.00130208333333,0)" xlink:href="#ay"/><use transform="matrix(0.006510416666666664,0,0,0.006510416666666664,16.00260416666666,0)" xlink:href="#J"/><use transform="matrix(0.006510416666666664,0,0,0.006510416666666664,24.003906249999993,0)" xlink:href="#K"/><use transform="matrix(0.006510416666666664,0,0,0.006510416666666664,32.00520833333332,0)" xlink:href="#O"/><use transform="matrix(0.006510416666666664,0,0,0.006510416666666664,40.00651041666665,0)" xlink:href="#T"/><use transform="matrix(0.006510416666666664,0,0,0.006510416666666664,48.00781249999998,0)" xlink:href="#L"/><use transform="matrix(0.006510416666666664,0,0,0.006510416666666664,56.0091145833333,0)" xlink:href="#K"/><use transform="matrix(0.006510416666666664,0,0,0.006510416666666664,64.01041666666664,0)" xlink:href="#K"/><use transform="matrix(0.006510416666666664,0,0,0.006510416666666664,72.01171874999997,0)" xlink:href="#N"/><use transform="matrix(0.006510416666666664,0,0,0.006510416666666664,80.0130208333333,0)" xlink:href="#O"/><use transform="matrix(0.006510416666666664,0,0,0.006510416666666664,88.01432291666663,0)" xlink:href="#P"/><use transform="matrix(0.006510416666666664,0,0,0.006510416666666664,96.01562499999996,0)" xlink:href="#I"/></g><path fill="#3a414a" d="M835-711c190 18 326 126 286 331C1069-115 841 0 529 0H57l262-1349c255 10 562-35 737 61 69 38 115 97 115 197 0 221-142 336-336 380zm-210-69c204-1 347-74 347-264 0-197-289-143-492-152l-80 416h225zm-81 627c228 0 392-77 392-293 0-233-325-177-565-185l-93 478h266" id="az"/><g id="z"><use transform="matrix(0.006510416666666664,0,0,0.006510416666666664,0,0)" xlink:href="#I"/><use transform="matrix(0.006510416666666664,0,0,0.006510416666666664,8.00130208333333,0)" xlink:href="#az"/><use transform="matrix(0.006510416666666664,0,0,0.006510416666666664,16.00260416666666,0)" xlink:href="#an"/><use transform="matrix(0.006510416666666664,0,0,0.006510416666666664,24.003906249999993,0)" xlink:href="#I"/><use transform="matrix(0.006510416666666664,0,0,0.006510416666666664,32.00520833333332,0)" xlink:href="#S"/></g><g id="A"><use transform="matrix(0.006510416666666664,0,0,0.006510416666666664,0,0)" xlink:href="#I"/><use transform="matrix(0.006510416666666664,0,0,0.006510416666666664,8.00130208333333,0)" xlink:href="#T"/><use transform="matrix(0.006510416666666664,0,0,0.006510416666666664,16.00260416666666,0)" xlink:href="#U"/><use transform="matrix(0.006510416666666664,0,0,0.006510416666666664,24.003906249999993,0)" xlink:href="#V"/><use transform="matrix(0.006510416666666664,0,0,0.006510416666666664,32.00520833333332,0)" xlink:href="#L"/><use transform="matrix(0.006510416666666664,0,0,0.006510416666666664,40.00651041666665,0)" xlink:href="#I"/></g><path fill="#3a414a" d="M305-328c2 145 68 191 220 193 255 4 322-161 364-376l163-838h190l-167 859C1015-179 865 20 496 20c-240 0-388-82-386-321 0-51 6-108 19-171l170-877h191c-59 315-126 624-180 944-5 28-5 54-5 77" id="aA"/><path fill="#3a414a" d="M522 20c-267 0-410-127-410-389 0-365 156-619 438-707 169-53 390-23 481 68 54 54 92 128 93 229l-194 14c0-132-80-198-224-196-263 3-339 192-386 415-13 63-19 121-19 174-1 166 74 255 240 253 161-2 266-84 309-215l188 12C961-121 793 20 522 20" id="aB"/><path fill="#3a414a" d="M659-142h380L1011 0H29l28-142h422l233-1200H423l27-142h469" id="aC"/><path fill="#3a414a" d="M743-845H602l83-639h224" id="aD"/><g id="B"><use transform="matrix(0.006510416666666664,0,0,0.006510416666666664,0,0)" xlink:href="#I"/><use transform="matrix(0.006510416666666664,0,0,0.006510416666666664,8.00130208333333,0)" xlink:href="#aA"/><use transform="matrix(0.006510416666666664,0,0,0.006510416666666664,16.00260416666666,0)" xlink:href="#T"/><use transform="matrix(0.006510416666666664,0,0,0.006510416666666664,24.003906249999993,0)" xlink:href="#aB"/><use transform="matrix(0.006510416666666664,0,0,0.006510416666666664,32.00520833333332,0)" xlink:href="#aC"/><use transform="matrix(0.006510416666666664,0,0,0.006510416666666664,40.00651041666665,0)" xlink:href="#L"/><use transform="matrix(0.006510416666666664,0,0,0.006510416666666664,48.00781249999998,0)" xlink:href="#aD"/><use transform="matrix(0.006510416666666664,0,0,0.006510416666666664,56.0091145833333,0)" xlink:href="#K"/></g><path fill="#3a414a" d="M809 0L540-499l-151 98L311 0H131l288-1484h180L419-557l577-525h211L678-617 1020 0H809" id="aE"/><g id="C"><use transform="matrix(0.006510416666666664,0,0,0.006510416666666664,0,0)" xlink:href="#az"/><use transform="matrix(0.006510416666666664,0,0,0.006510416666666664,8.00130208333333,0)" xlink:href="#U"/><use transform="matrix(0.006510416666666664,0,0,0.006510416666666664,16.00260416666666,0)" xlink:href="#aE"/><use transform="matrix(0.006510416666666664,0,0,0.006510416666666664,24.003906249999993,0)" xlink:href="#L"/><use transform="matrix(0.006510416666666664,0,0,0.006510416666666664,32.00520833333332,0)" xlink:href="#M"/><use transform="matrix(0.006510416666666664,0,0,0.006510416666666664,40.00651041666665,0)" xlink:href="#X"/><use transform="matrix(0.006510416666666664,0,0,0.006510416666666664,48.00781249999998,0)" xlink:href="#I"/></g></defs></g></svg>