<svg xmlns="http://www.w3.org/2000/svg" xmlns:xlink="http://www.w3.org/1999/xlink" xmlns:lucid="lucid" width="799" height="476"><g transform="translate(-187 -684)" lucid:page-tab-id="FTplR-ZGqZLE"><path d="M535.37 730c0 16.57-13.43 30-30 30s-30-13.43-30-30 13.43-30 30-30 30 13.43 30 30z" stroke="#3a414a" stroke-width="2" fill="#fff7a1"/><path d="M526.37 760.32H709.1v80H526.38z" fill="none"/><use xlink:href="#a" transform="matrix(1,0,0,1,526.370973457182,760.3234975629372) translate(0 10.664062499999996)"/><use xlink:href="#b" transform="matrix(1,0,0,1,526.370973457182,760.3234975629372) translate(0 23.997395833333325)"/><use xlink:href="#c" transform="matrix(1,0,0,1,526.370973457182,760.3234975629372) translate(0 37.33072916666666)"/><use xlink:href="#d" transform="matrix(1,0,0,1,526.370973457182,760.3234975629372) translate(16.00260416666666 37.33072916666666)"/><use xlink:href="#e" transform="matrix(1,0,0,1,526.370973457182,760.3234975629372) translate(96.01562499999996 37.33072916666666)"/><use xlink:href="#f" transform="matrix(1,0,0,1,526.370973457182,760.3234975629372) translate(112.01822916666661 37.33072916666666)"/><use xlink:href="#c" transform="matrix(1,0,0,1,526.370973457182,760.3234975629372) translate(0 50.664062499999986)"/><use xlink:href="#g" transform="matrix(1,0,0,1,526.370973457182,760.3234975629372) translate(16.00260416666666 50.664062499999986)"/><use xlink:href="#e" transform="matrix(1,0,0,1,526.370973457182,760.3234975629372) translate(96.01562499999996 50.664062499999986)"/><use xlink:href="#h" transform="matrix(1,0,0,1,526.370973457182,760.3234975629372) translate(112.01822916666661 50.664062499999986)"/><use xlink:href="#i" transform="matrix(1,0,0,1,526.370973457182,760.3234975629372) translate(0 63.997395833333314)"/><path d="M800.74 730c0 16.57-13.43 30-30 30s-30-13.43-30-30 13.43-30 30-30 30 13.43 30 30zM260 730.34c0 16.57-13.43 30-30 30s-30-13.43-30-30 13.43-30 30-30 30 13.43 30 30z" stroke="#3a414a" stroke-width="2" fill="#fff7a1"/><path d="M455.88 730.34H262" stroke="#3a414a" stroke-width="2" fill="none"/><path d="M471.15 730.34l-14.27 4.64v-9.27z" stroke="#3a414a" stroke-width="2" fill="#3a414a"/><path d="M262.03 731.34h-1.1l.07-.97-.03-1.03h1.06z" stroke="#3a414a" stroke-width=".05" fill="#3a414a"/><path d="M537.37 730h183.87" stroke="#3a414a" stroke-width="2" fill="none"/><path d="M537.4 731h-1.1l.07-.98-.03-1.02h1.06z" stroke="#3a414a" stroke-width=".05" fill="#3a414a"/><path d="M736.5 730l-14.26 4.64v-9.28z" stroke="#3a414a" stroke-width="2" fill="#3a414a"/><path d="M256 759.32h182.74v80H256z" fill="none"/><use xlink:href="#a" transform="matrix(1,0,0,1,255.9999999999999,759.3234975629372) translate(0 10.664062499999996)"/><use xlink:href="#b" transform="matrix(1,0,0,1,255.9999999999999,759.3234975629372) translate(0 23.997395833333325)"/><use xlink:href="#c" transform="matrix(1,0,0,1,255.9999999999999,759.3234975629372) translate(0 37.33072916666666)"/><use xlink:href="#d" transform="matrix(1,0,0,1,255.9999999999999,759.3234975629372) translate(16.00260416666666 37.33072916666666)"/><use xlink:href="#e" transform="matrix(1,0,0,1,255.9999999999999,759.3234975629372) translate(96.01562499999996 37.33072916666666)"/><use xlink:href="#j" transform="matrix(1,0,0,1,255.9999999999999,759.3234975629372) translate(112.01822916666661 37.33072916666666)"/><use xlink:href="#c" transform="matrix(1,0,0,1,255.9999999999999,759.3234975629372) translate(0 50.664062499999986)"/><use xlink:href="#g" transform="matrix(1,0,0,1,255.9999999999999,759.3234975629372) translate(16.00260416666666 50.664062499999986)"/><use xlink:href="#e" transform="matrix(1,0,0,1,255.9999999999999,759.3234975629372) translate(96.01562499999996 50.664062499999986)"/><use xlink:href="#k" transform="matrix(1,0,0,1,255.9999999999999,759.3234975629372) translate(112.01822916666661 50.664062499999986)"/><use xlink:href="#i" transform="matrix(1,0,0,1,255.9999999999999,759.3234975629372) translate(0 63.997395833333314)"/><path d="M792 752.32h178.03V829H792z" fill="#fff" fill-opacity="0"/><use xlink:href="#a" transform="matrix(1,0,0,1,796.9999999999999,757.3234975629372) translate(0 10.664062499999996)"/><use xlink:href="#b" transform="matrix(1,0,0,1,796.9999999999999,757.3234975629372) translate(0 23.997395833333325)"/><use xlink:href="#c" transform="matrix(1,0,0,1,796.9999999999999,757.3234975629372) translate(0 37.33072916666666)"/><use xlink:href="#d" transform="matrix(1,0,0,1,796.9999999999999,757.3234975629372) translate(16.00260416666666 37.33072916666666)"/><use xlink:href="#e" transform="matrix(1,0,0,1,796.9999999999999,757.3234975629372) translate(96.01562499999996 37.33072916666666)"/><use xlink:href="#l" transform="matrix(1,0,0,1,796.9999999999999,757.3234975629372) translate(112.01822916666661 37.33072916666666)"/><use xlink:href="#c" transform="matrix(1,0,0,1,796.9999999999999,757.3234975629372) translate(0 50.664062499999986)"/><use xlink:href="#g" transform="matrix(1,0,0,1,796.9999999999999,757.3234975629372) translate(16.00260416666666 50.664062499999986)"/><use xlink:href="#e" transform="matrix(1,0,0,1,796.9999999999999,757.3234975629372) translate(96.01562499999996 50.664062499999986)"/><use xlink:href="#m" transform="matrix(1,0,0,1,796.9999999999999,757.3234975629372) translate(112.01822916666661 50.664062499999986)"/><use xlink:href="#i" transform="matrix(1,0,0,1,796.9999999999999,757.3234975629372) translate(0 63.997395833333314)"/><path d="M400 1050c0 16.57-13.43 30-30 30s-30-13.43-30-30 13.43-30 30-30 30 13.43 30 30zM800.74 890c0 16.57-13.43 30-30 30s-30-13.43-30-30 13.43-30 30-30 30 13.43 30 30zM260 890.34c0 16.57-13.43 30-30 30s-30-13.43-30-30 13.43-30 30-30 30 13.43 30 30zM535.37 890.34c0 16.57-13.43 30-30 30s-30-13.43-30-30 13.43-30 30-30 30 13.43 30 30zM665.04 1050c0 16.57-13.43 30-30 30s-30-13.43-30-30 13.43-30 30-30 30 13.43 30 30z" stroke="#3a414a" stroke-width="2" fill="#fff7a1"/><path d="M257 917.34h182.74v80H257z" fill="none"/><g><use xlink:href="#a" transform="matrix(1,0,0,1,256.9999999999999,917.3425453797956) translate(0 10.664062499999996)"/><use xlink:href="#b" transform="matrix(1,0,0,1,256.9999999999999,917.3425453797956) translate(0 23.997395833333325)"/><use xlink:href="#c" transform="matrix(1,0,0,1,256.9999999999999,917.3425453797956) translate(0 37.33072916666666)"/><use xlink:href="#d" transform="matrix(1,0,0,1,256.9999999999999,917.3425453797956) translate(16.00260416666666 37.33072916666666)"/><use xlink:href="#e" transform="matrix(1,0,0,1,256.9999999999999,917.3425453797956) translate(96.01562499999996 37.33072916666666)"/><use xlink:href="#j" transform="matrix(1,0,0,1,256.9999999999999,917.3425453797956) translate(112.01822916666661 37.33072916666666)"/><use xlink:href="#c" transform="matrix(1,0,0,1,256.9999999999999,917.3425453797956) translate(0 50.664062499999986)"/><use xlink:href="#g" transform="matrix(1,0,0,1,256.9999999999999,917.3425453797956) translate(16.00260416666666 50.664062499999986)"/><use xlink:href="#e" transform="matrix(1,0,0,1,256.9999999999999,917.3425453797956) translate(96.01562499999996 50.664062499999986)"/><use xlink:href="#k" transform="matrix(1,0,0,1,256.9999999999999,917.3425453797956) translate(112.01822916666661 50.664062499999986)"/><use xlink:href="#i" transform="matrix(1,0,0,1,256.9999999999999,917.3425453797956) translate(0 63.997395833333314)"/></g><path d="M395.26 1077H578v80H395.26z" fill="none"/><g><use xlink:href="#a" transform="matrix(1,0,0,1,395.2568056377693,1077) translate(0 10.664062499999996)"/><use xlink:href="#b" transform="matrix(1,0,0,1,395.2568056377693,1077) translate(0 23.997395833333325)"/><use xlink:href="#c" transform="matrix(1,0,0,1,395.2568056377693,1077) translate(0 37.33072916666666)"/><use xlink:href="#d" transform="matrix(1,0,0,1,395.2568056377693,1077) translate(16.00260416666666 37.33072916666666)"/><use xlink:href="#e" transform="matrix(1,0,0,1,395.2568056377693,1077) translate(96.01562499999996 37.33072916666666)"/><use xlink:href="#f" transform="matrix(1,0,0,1,395.2568056377693,1077) translate(112.01822916666661 37.33072916666666)"/><use xlink:href="#c" transform="matrix(1,0,0,1,395.2568056377693,1077) translate(0 50.664062499999986)"/><use xlink:href="#g" transform="matrix(1,0,0,1,395.2568056377693,1077) translate(16.00260416666666 50.664062499999986)"/><use xlink:href="#e" transform="matrix(1,0,0,1,395.2568056377693,1077) translate(96.01562499999996 50.664062499999986)"/><use xlink:href="#h" transform="matrix(1,0,0,1,395.2568056377693,1077) translate(112.01822916666661 50.664062499999986)"/><use xlink:href="#i" transform="matrix(1,0,0,1,395.2568056377693,1077) translate(0 63.997395833333314)"/></g><path d="M796 907h178.03v76.67H796z" fill="#fff" fill-opacity="0"/><g><use xlink:href="#a" transform="matrix(1,0,0,1,801,912) translate(0 10.664062499999996)"/><use xlink:href="#b" transform="matrix(1,0,0,1,801,912) translate(0 23.997395833333325)"/><use xlink:href="#c" transform="matrix(1,0,0,1,801,912) translate(0 37.33072916666666)"/><use xlink:href="#d" transform="matrix(1,0,0,1,801,912) translate(16.00260416666666 37.33072916666666)"/><use xlink:href="#e" transform="matrix(1,0,0,1,801,912) translate(96.01562499999996 37.33072916666666)"/><use xlink:href="#l" transform="matrix(1,0,0,1,801,912) translate(112.01822916666661 37.33072916666666)"/><use xlink:href="#c" transform="matrix(1,0,0,1,801,912) translate(0 50.664062499999986)"/><use xlink:href="#g" transform="matrix(1,0,0,1,801,912) translate(16.00260416666666 50.664062499999986)"/><use xlink:href="#e" transform="matrix(1,0,0,1,801,912) translate(96.01562499999996 50.664062499999986)"/><use xlink:href="#m" transform="matrix(1,0,0,1,801,912) translate(112.01822916666661 50.664062499999986)"/><use xlink:href="#i" transform="matrix(1,0,0,1,801,912) translate(0 63.997395833333314)"/></g><path d="M660 1077h182.74v80H660z" fill="none"/><g><use xlink:href="#a" transform="matrix(1,0,0,1,660,1077) translate(0 10.664062499999996)"/><use xlink:href="#b" transform="matrix(1,0,0,1,660,1077) translate(0 23.997395833333325)"/><use xlink:href="#c" transform="matrix(1,0,0,1,660,1077) translate(0 37.33072916666666)"/><use xlink:href="#d" transform="matrix(1,0,0,1,660,1077) translate(16.00260416666666 37.33072916666666)"/><use xlink:href="#e" transform="matrix(1,0,0,1,660,1077) translate(96.01562499999996 37.33072916666666)"/><use xlink:href="#n" transform="matrix(1,0,0,1,660,1077) translate(112.01822916666661 37.33072916666666)"/><use xlink:href="#c" transform="matrix(1,0,0,1,660,1077) translate(0 50.664062499999986)"/><use xlink:href="#g" transform="matrix(1,0,0,1,660,1077) translate(16.00260416666666 50.664062499999986)"/><use xlink:href="#e" transform="matrix(1,0,0,1,660,1077) translate(96.01562499999996 50.664062499999986)"/><use xlink:href="#o" transform="matrix(1,0,0,1,660,1077) translate(112.01822916666661 50.664062499999986)"/><use xlink:href="#i" transform="matrix(1,0,0,1,660,1077) translate(0 63.997395833333314)"/></g><path d="M230.02 922.34l.12 5.86.43 6.78.7 6.7.97 6.55 1.22 6.42 1.47 6.24 1.7 6.03 1.88 5.84 2.1 5.6 2.26 5.4 2.42 5.13 2.56 4.9 2.68 4.65 2.8 4.4 2.9 4.17 2.97 3.93 3.05 3.7 3.13 3.48 3.2 3.26 3.26 3.05 3.3 2.86 3.37 2.67 3.43 2.48 3.46 2.3 3.5 2.14 3.58 1.95 3.63 1.8 3.7 1.64 3.75 1.48 3.82 1.33 3.9 1.2 3.98 1 4.07.87 1.27.22" stroke="#3a414a" stroke-width="2" stroke-linejoin="round" fill="none"/><path d="M229.98 921.34l1.02-.03.02 1.05-2 .04-.02-1.14z" stroke="#3a414a" stroke-width=".05" fill="#3a414a"/><path d="M335.78 1049.72l-14.62 3.37.8-9.24z" stroke="#3a414a" stroke-width="2" fill="#3a414a"/><path d="M402 1049.98l3.35-.07 4.2-.25 4.08-.43 3.95-.6 3.86-.72 3.76-.88 3.67-1.03 3.6-1.18 3.53-1.3 3.47-1.47 3.4-1.6 3.36-1.76 3.32-1.92 3.26-2.07 3.24-2.24 3.18-2.42 3.15-2.6 3.1-2.8 3.07-3 3.02-3.22 2.98-3.44 2.9-3.68 2.87-3.94 2.8-4.2 2.7-4.45 2.6-4.73 2.5-5.02 2.35-5.3 2.2-5.6 2.06-5.86 1.86-6.15 1.64-6.4 1.4-6.6 1.15-6.8.82-6.44" stroke="#3a414a" stroke-width="2" stroke-linejoin="round" fill="none"/><path d="M402.05 1050.98l-1.13.02.08-.98-.03-1.02 1.04-.02z" stroke="#3a414a" stroke-width=".05" fill="#3a414a"/><path d="M505.2 924.57l3.85 14.5-9.26-.5z" stroke="#3a414a" stroke-width="2" fill="#3a414a"/><path d="M537.37 890.36l3.07.07 3.9.24 3.8.4 3.65.54 3.54.7 3.46.8 3.38.94 3.3 1.07 3.23 1.22 3.18 1.33 3.12 1.47 3.08 1.6 3.03 1.76 3 1.9 2.97 2.06 2.93 2.22 2.9 2.4 2.88 2.6 2.85 2.8 2.83 3 2.8 3.24 2.75 3.48 2.74 3.75 2.67 4.03 2.63 4.33 2.55 4.63 2.47 4.97 2.36 5.3 2.25 5.66 2.1 6 1.9 6.36 1.72 6.7 1.48 6.98 1.23 7.27.95 7.5.07.86" stroke="#3a414a" stroke-width="2" stroke-linejoin="round" fill="none"/><path d="M537.42 889.36l-.04 2-1.1-.02.1-.97-.04-1.03z" stroke="#3a414a" stroke-width=".05" fill="#3a414a"/><path d="M634.87 1015.77l-5.35-14.02 9.26-.46z" stroke="#3a414a" stroke-width="2" fill="#3a414a"/><path d="M667.04 1049.98l3.36-.07 4.22-.26 4.1-.43 3.96-.57 3.86-.74 3.78-.9L694 1046l3.62-1.18 3.54-1.3 3.48-1.48 3.42-1.6 3.37-1.77 3.32-1.92 3.28-2.08 3.24-2.25 3.2-2.42 3.15-2.62 3.12-2.8 3.07-3.02 3.04-3.22 2.98-3.46 2.93-3.7 2.87-3.94 2.8-4.2 2.7-4.48 2.6-4.75 2.5-5.04 2.38-5.32 2.2-5.6 2.06-5.9 1.86-6.14 1.64-6.4 1.4-6.63 1.16-6.83.82-6.47" stroke="#3a414a" stroke-width="2" stroke-linejoin="round" fill="none"/><path d="M667.1 1050.98l-1.14.02.08-.98-.04-1.02 1.05-.02z" stroke="#3a414a" stroke-width=".05" fill="#3a414a"/><path d="M770.57 924.23l3.85 14.5-9.26-.5z" stroke="#3a414a" stroke-width="2" fill="#3a414a"/><path d="M580 945.18a6 6 0 0 1 6-6h68a6 6 0 0 1 6 6v22.32a6 6 0 0 1-6 6h-68a6 6 0 0 1-6-6z" stroke="#fff" fill="#fff"/><path d="M528.37 914.3H711.1v80H528.38z" fill="none"/><g><use xlink:href="#a" transform="matrix(1,0,0,1,528.370973457182,914.3149092404087) translate(0 10.664062499999996)"/><use xlink:href="#b" transform="matrix(1,0,0,1,528.370973457182,914.3149092404087) translate(0 23.997395833333325)"/><use xlink:href="#c" transform="matrix(1,0,0,1,528.370973457182,914.3149092404087) translate(0 37.33072916666666)"/><use xlink:href="#d" transform="matrix(1,0,0,1,528.370973457182,914.3149092404087) translate(16.00260416666666 37.33072916666666)"/><use xlink:href="#e" transform="matrix(1,0,0,1,528.370973457182,914.3149092404087) translate(96.01562499999996 37.33072916666666)"/><use xlink:href="#p" transform="matrix(1,0,0,1,528.370973457182,914.3149092404087) translate(112.01822916666661 37.33072916666666)"/><use xlink:href="#c" transform="matrix(1,0,0,1,528.370973457182,914.3149092404087) translate(0 50.664062499999986)"/><use xlink:href="#g" transform="matrix(1,0,0,1,528.370973457182,914.3149092404087) translate(16.00260416666666 50.664062499999986)"/><use xlink:href="#e" transform="matrix(1,0,0,1,528.370973457182,914.3149092404087) translate(96.01562499999996 50.664062499999986)"/><use xlink:href="#q" transform="matrix(1,0,0,1,528.370973457182,914.3149092404087) translate(112.01822916666661 50.664062499999986)"/><use xlink:href="#i" transform="matrix(1,0,0,1,528.370973457182,914.3149092404087) translate(0 63.997395833333314)"/></g><defs><path fill="#3a414a" d="M604-135c236 0 291-142 291-376v-838h190v859c5 340-142 510-480 510-326 0-463-164-463-492v-877h191v851c-3 222 46 363 271 363" id="r"/><path fill="#3a414a" d="M873-819c-18-114-119-146-250-146-163 0-245 50-245 151 0 151 170 148 294 185 182 54 388 94 388 320 0 240-189 325-439 329-245 4-410-69-454-268l159-31c24 133 136 168 295 165 144-2 270-31 270-171 0-164-195-160-331-202-167-52-350-87-350-299 0-218 173-315 413-313 220 2 373 77 412 260" id="s"/><path fill="#3a414a" d="M617-1102c355 0 481 238 477 599H322c5 222 84 388 301 388 144 0 244-59 284-166l158 45C1002-72 854 20 623 20c-342 0-490-220-490-568 0-346 151-554 484-554zm291 461c-18-192-90-328-289-328-194 0-287 128-295 328h584" id="t"/><path fill="#3a414a" d="M839-1102c70 0 148 7 206 17v167c-112-18-268-36-363 15-129 69-208 203-208 395V0H294c-10-367 32-789-52-1082h171c21 75 41 161 48 250h5c67-152 152-270 373-270" id="u"/><g id="a"><use transform="matrix(0.006510416666666664,0,0,0.006510416666666664,0,0)" xlink:href="#r"/><use transform="matrix(0.006510416666666664,0,0,0.006510416666666664,8.00130208333333,0)" xlink:href="#s"/><use transform="matrix(0.006510416666666664,0,0,0.006510416666666664,16.00260416666666,0)" xlink:href="#t"/><use transform="matrix(0.006510416666666664,0,0,0.006510416666666664,24.003906249999993,0)" xlink:href="#u"/></g><path fill="#3a414a" d="M554 91c-26 118 8 195 133 195h213l-27 139H608c-175 0-267-118-235-303 24-135 74-259 74-401 0-133-108-173-235-182l26-137c170-10 291-81 320-231l69-352c40-175 147-303 352-303h265l-27 139c-125 7-282-24-352 44-37 36-57 86-69 151l-68 346c-33 149-145 232-284 274 115 31 208 119 178 274" id="v"/><use transform="matrix(0.006510416666666664,0,0,0.006510416666666664,0,0)" xlink:href="#v" id="b"/><path fill="#3a414a" d="M967-845H825l84-639h224zm-449 0H377l83-639h224" id="w"/><path fill="#3a414a" d="M419 20c-186 0-282-64-284-243 0-40 5-86 15-138l140-721h180c-47 251-101 497-144 752-25 145 40 219 181 211 211-12 308-150 344-336l122-627h181C1087-721 1010-369 950 0H780c6-58 18-129 28-185h-3C720-71 616 20 419 20" id="x"/><path fill="#3a414a" d="M706-965c-176 0-278 51-278 181 0 125 156 122 261 155 163 51 371 93 326 320C971-85 782 18 512 20c-227 2-392-53-402-268l165-31c1 144 117 166 263 165 166-2 306-45 306-201 0-97-96-115-178-141-139-45-315-63-388-174-17-26-26-59-26-98 0-260 204-371 480-371 203 0 355 61 361 260l-166 20c2-122-100-146-221-146" id="y"/><path fill="#3a414a" d="M726-1102c256 0 385 126 386 379 1 67-11 147-25 220H315c-7 39-13 78-13 121 2 164 74 267 238 267 154 0 260-65 317-166l149 45C916-82 760 20 514 20c-259 0-398-131-398-390 0-357 148-615 421-704 62-20 125-28 189-28zm202 461c22-192-41-335-226-328-212 9-312 142-358 328h584" id="z"/><path fill="#3a414a" d="M523-832c93-143 191-271 425-270 69 0 147 7 203 17l-33 167c-114-19-266-34-366 15-148 73-248 213-284 395L369 0H189l136-701c21-116 30-253 22-381h171c8 76 8 174 0 250h5" id="A"/><path fill="#3a414a" d="M-153 220l19-96h1238l-19 96H-153" id="B"/><path fill="#3a414a" d="M668-142h380L1020 0H38l28-142h422l155-798H324l27-142h499zm23-1150l37-192h200l-37 192H691" id="C"/><path fill="#3a414a" d="M772 0c2-57 14-121 24-174h-5C708-49 608 26 420 26 203 26 113-90 112-311c0-65 8-138 24-221 74-377 241-566 502-566 165 0 259 55 298 184 37-190 73-380 110-570h180C1133-988 1028-504 944 0H772zm109-648c26-189-33-326-219-317-242 11-291 213-338 427-15 68-22 130-23 201 1 149 51 224 193 224 258 0 321-215 372-441 8-34 12-65 15-94" id="D"/><g id="d"><use transform="matrix(0.006510416666666664,0,0,0.006510416666666664,0,0)" xlink:href="#w"/><use transform="matrix(0.006510416666666664,0,0,0.006510416666666664,8.00130208333333,0)" xlink:href="#x"/><use transform="matrix(0.006510416666666664,0,0,0.006510416666666664,16.00260416666666,0)" xlink:href="#y"/><use transform="matrix(0.006510416666666664,0,0,0.006510416666666664,24.003906249999993,0)" xlink:href="#z"/><use transform="matrix(0.006510416666666664,0,0,0.006510416666666664,32.00520833333332,0)" xlink:href="#A"/><use transform="matrix(0.006510416666666664,0,0,0.006510416666666664,40.00651041666665,0)" xlink:href="#B"/><use transform="matrix(0.006510416666666664,0,0,0.006510416666666664,48.00781249999998,0)" xlink:href="#C"/><use transform="matrix(0.006510416666666664,0,0,0.006510416666666664,56.0091145833333,0)" xlink:href="#D"/><use transform="matrix(0.006510416666666664,0,0,0.006510416666666664,64.01041666666664,0)" xlink:href="#w"/></g><path fill="#3a414a" d="M391 0l58-299h235L626 0H391zm152-783l58-299h235l-58 299H543" id="E"/><use transform="matrix(0.006510416666666664,0,0,0.006510416666666664,0,0)" xlink:href="#E" id="e"/><path fill="#3a414a" d="M772-1370c250-5 434 113 380 368-48 227-231 344-394 464-130 96-274 183-388 290-35 33-63 67-86 102h723L979 0H39l23-117c190-289 528-436 773-668 71-67 136-137 136-262 0-129-96-175-227-175-165 0-275 97-315 238l-180-17c75-217 236-364 523-369" id="F"/><path fill="#3a414a" d="M83 363l298-662h265L206 363H83" id="G"/><g id="f"><use transform="matrix(0.006510416666666664,0,0,0.006510416666666664,0,0)" xlink:href="#F"/><use transform="matrix(0.006510416666666664,0,0,0.006510416666666664,8.00130208333333,0)" xlink:href="#G"/></g><path fill="#3a414a" d="M815-1102c202-2 311 102 279 314-40 267-101 525-150 788H763l135-695c7-39 11-71 11-98 2-119-62-175-179-170-208 9-312 151-348 336L260 0H80c67-361 144-713 204-1082h170c-6 58-17 130-28 185h3c86-116 194-203 386-205" id="H"/><path fill="#3a414a" d="M948-272c-17 76-19 161 70 161 21 0 42-3 60-7L1056-6c-45 10-88 14-142 16-138 6-175-86-155-217h-6C661-83 550 15 337 20 138 24 42-104 82-302c49-247 238-349 523-354l236-4c9-47 22-94 22-148 0-118-65-155-184-157-151-3-231 57-266 172l-185-17c67-189 220-292 480-292 245 0 377 119 330 364zm-678-27c-21 109 31 185 140 182 176-5 282-102 348-217 37-66 43-123 59-200-145 7-304-9-409 44-71 36-119 96-138 191" id="I"/><path fill="#3a414a" d="M1000-783c14-86 16-180-76-180-43 0-83 29-120 85s-67 140-88 251L594 0H426c49-261 107-518 150-783 14-86 14-191-77-180-103 13-137 116-173 209-17 43-28 93-39 147L169 0H0c67-361 144-713 204-1082h149c-6 55-18 122-28 175h2c54-95 112-192 254-195 127-2 153 72 158 196 61-99 122-196 274-196 124 0 168 64 168 192 0 67-10 125-22 189L1019 0H851c49-261 106-518 149-783" id="J"/><g id="g"><use transform="matrix(0.006510416666666664,0,0,0.006510416666666664,0,0)" xlink:href="#w"/><use transform="matrix(0.006510416666666664,0,0,0.006510416666666664,8.00130208333333,0)" xlink:href="#H"/><use transform="matrix(0.006510416666666664,0,0,0.006510416666666664,16.00260416666666,0)" xlink:href="#I"/><use transform="matrix(0.006510416666666664,0,0,0.006510416666666664,24.003906249999993,0)" xlink:href="#J"/><use transform="matrix(0.006510416666666664,0,0,0.006510416666666664,32.00520833333332,0)" xlink:href="#z"/><use transform="matrix(0.006510416666666664,0,0,0.006510416666666664,40.00651041666665,0)" xlink:href="#w"/></g><path fill="#3a414a" d="M332-381c-4 144 41 246 176 246 165 0 233-124 264-281l151-777H612l30-156h501L963-420C908-169 772 20 477 20c-237 0-341-123-338-370" id="K"/><path fill="#3a414a" d="M724-1102c292 0 423 159 388 460-35 307-154 537-400 628-65 24-136 34-212 34-254-2-388-131-388-387 0-255 97-480 226-595 103-92 231-140 386-140zM381-747C294-559 211-98 524-113c294-14 359-254 399-525 28-194-32-337-222-331-174 5-260 94-320 222" id="L"/><path fill="#3a414a" d="M909-793c2-119-62-175-179-170-208 9-312 151-348 336L260 0H80l288-1484h181c-40 197-71 402-123 587h3c84-115 190-205 379-205 182 0 290 76 289 259 0 38-4 79-13 122L944 0H763l135-695c7-39 11-71 11-98" id="M"/><g id="h"><use transform="matrix(0.006510416666666664,0,0,0.006510416666666664,0,0)" xlink:href="#w"/><use transform="matrix(0.006510416666666664,0,0,0.006510416666666664,8.00130208333333,0)" xlink:href="#K"/><use transform="matrix(0.006510416666666664,0,0,0.006510416666666664,16.00260416666666,0)" xlink:href="#L"/><use transform="matrix(0.006510416666666664,0,0,0.006510416666666664,24.003906249999993,0)" xlink:href="#M"/><use transform="matrix(0.006510416666666664,0,0,0.006510416666666664,32.00520833333332,0)" xlink:href="#H"/><use transform="matrix(0.006510416666666664,0,0,0.006510416666666664,40.00651041666665,0)" xlink:href="#w"/></g><path fill="#3a414a" d="M782-829c-28 162 86 226 230 231l-26 137c-170 10-290 80-320 232l-69 351c-41 174-150 303-353 303H-21L6 286c127-7 286 22 354-44 32-31 56-80 69-151l68-347c32-151 143-234 283-276-114-31-202-119-177-272 23-141 76-269 76-420 0-92-49-121-143-121H323l27-139h265c172-5 272 121 236 303" id="N"/><use transform="matrix(0.006510416666666664,0,0,0.006510416666666664,0,0)" xlink:href="#N" id="i"/><path fill="#3a414a" d="M261-1120c230-8 401-96 507-229h166L700-145h353L1025 0H52l28-145h439l199-1021c-97 119-281 184-486 194" id="O"/><g id="j"><use transform="matrix(0.006510416666666664,0,0,0.006510416666666664,0,0)" xlink:href="#O"/><use transform="matrix(0.006510416666666664,0,0,0.006510416666666664,8.00130208333333,0)" xlink:href="#G"/></g><path fill="#3a414a" d="M832 0c78-390 148-786 233-1169-124 253-264 488-400 729H528c-43-241-94-472-121-729C339-774 258-390 184 0H24l262-1349h237c39 239 98 457 113 720 117-256 262-480 395-720h225L994 0H832" id="P"/><path fill="#3a414a" d="M9 279c104 15 163 3 243-53 63-44 133-143 181-237L171-1082h192c62 299 135 587 188 896 174-300 351-597 525-896h190L600 0c-97 160-186 316-352 396-73 35-176 36-265 18" id="Q"/><g id="k"><use transform="matrix(0.006510416666666664,0,0,0.006510416666666664,0,0)" xlink:href="#w"/><use transform="matrix(0.006510416666666664,0,0,0.006510416666666664,8.00130208333333,0)" xlink:href="#P"/><use transform="matrix(0.006510416666666664,0,0,0.006510416666666664,16.00260416666666,0)" xlink:href="#I"/><use transform="matrix(0.006510416666666664,0,0,0.006510416666666664,24.003906249999993,0)" xlink:href="#A"/><use transform="matrix(0.006510416666666664,0,0,0.006510416666666664,32.00520833333332,0)" xlink:href="#Q"/><use transform="matrix(0.006510416666666664,0,0,0.006510416666666664,40.00651041666665,0)" xlink:href="#w"/></g><path fill="#3a414a" d="M794-689c173 21 307 121 272 319-46 257-247 390-554 390C242 20 81-90 93-362l190-17c-8 173 87 252 258 250 204-3 343-96 343-288 0-182-207-196-405-192l31-156c246 10 459-51 459-286 0-122-89-172-225-171-169 1-285 96-324 233l-178-14c75-223 246-362 532-367 246-5 426 101 378 354-35 181-173 283-357 323" id="R"/><g id="l"><use transform="matrix(0.006510416666666664,0,0,0.006510416666666664,0,0)" xlink:href="#R"/><use transform="matrix(0.006510416666666664,0,0,0.006510416666666664,8.00130208333333,0)" xlink:href="#G"/></g><path fill="#3a414a" d="M898 0L535-638 339-469 248 0H57l262-1349h191L379-676l703-673h225L692-777 1122 0H898" id="S"/><path fill="#3a414a" d="M610 0H397L174-1082h202l131 704c10 72 16 162 23 237 161-331 356-627 533-941h201" id="T"/><g id="m"><use transform="matrix(0.006510416666666664,0,0,0.006510416666666664,0,0)" xlink:href="#w"/><use transform="matrix(0.006510416666666664,0,0,0.006510416666666664,8.00130208333333,0)" xlink:href="#S"/><use transform="matrix(0.006510416666666664,0,0,0.006510416666666664,16.00260416666666,0)" xlink:href="#z"/><use transform="matrix(0.006510416666666664,0,0,0.006510416666666664,24.003906249999993,0)" xlink:href="#T"/><use transform="matrix(0.006510416666666664,0,0,0.006510416666666664,32.00520833333332,0)" xlink:href="#C"/><use transform="matrix(0.006510416666666664,0,0,0.006510416666666664,40.00651041666665,0)" xlink:href="#H"/><use transform="matrix(0.006510416666666664,0,0,0.006510416666666664,48.00781249999998,0)" xlink:href="#w"/></g><path fill="#3a414a" d="M708-869c260 2 424 154 372 425-54 284-253 464-590 464C243 20 91-77 84-315l186-21c11 141 96 212 253 209 216-5 334-129 370-313 35-180-76-283-251-282-126 0-208 47-281 101H185l188-728h801l-28 145H511L399-779c77-49 180-91 309-90" id="U"/><g id="n"><use transform="matrix(0.006510416666666664,0,0,0.006510416666666664,0,0)" xlink:href="#U"/><use transform="matrix(0.006510416666666664,0,0,0.006510416666666664,8.00130208333333,0)" xlink:href="#G"/></g><path fill="#3a414a" d="M132 0l262-1349h191L353-156h672L995 0H132" id="V"/><g id="o"><use transform="matrix(0.006510416666666664,0,0,0.006510416666666664,0,0)" xlink:href="#w"/><use transform="matrix(0.006510416666666664,0,0,0.006510416666666664,8.00130208333333,0)" xlink:href="#V"/><use transform="matrix(0.006510416666666664,0,0,0.006510416666666664,16.00260416666666,0)" xlink:href="#I"/><use transform="matrix(0.006510416666666664,0,0,0.006510416666666664,24.003906249999993,0)" xlink:href="#A"/><use transform="matrix(0.006510416666666664,0,0,0.006510416666666664,32.00520833333332,0)" xlink:href="#A"/><use transform="matrix(0.006510416666666664,0,0,0.006510416666666664,40.00651041666665,0)" xlink:href="#Q"/><use transform="matrix(0.006510416666666664,0,0,0.006510416666666664,48.00781249999998,0)" xlink:href="#w"/></g><path fill="#3a414a" d="M894-319L832 0H652l62-319H60l27-140 808-890h199L922-461h188l-28 142H894zm-18-835L242-461h500" id="W"/><g id="p"><use transform="matrix(0.006510416666666664,0,0,0.006510416666666664,0,0)" xlink:href="#W"/><use transform="matrix(0.006510416666666664,0,0,0.006510416666666664,8.00130208333333,0)" xlink:href="#G"/></g><path fill="#3a414a" d="M747-1226c-195 1-328 74-328 254 0 150 168 158 292 193 206 58 444 122 384 409-56 265-271 388-594 390C217 22 49-81 40-338l192-37c3 179 117 247 303 246 215-2 375-80 375-283 0-168-187-179-325-221-168-51-357-87-357-299 0-308 229-433 548-438 258-4 409 81 417 324l-194 33c-2-154-93-214-252-213" id="X"/><g id="q"><use transform="matrix(0.006510416666666664,0,0,0.006510416666666664,0,0)" xlink:href="#w"/><use transform="matrix(0.006510416666666664,0,0,0.006510416666666664,8.00130208333333,0)" xlink:href="#X"/><use transform="matrix(0.006510416666666664,0,0,0.006510416666666664,16.00260416666666,0)" xlink:href="#x"/><use transform="matrix(0.006510416666666664,0,0,0.006510416666666664,24.003906249999993,0)" xlink:href="#y"/><use transform="matrix(0.006510416666666664,0,0,0.006510416666666664,32.00520833333332,0)" xlink:href="#I"/><use transform="matrix(0.006510416666666664,0,0,0.006510416666666664,40.00651041666665,0)" xlink:href="#H"/><use transform="matrix(0.006510416666666664,0,0,0.006510416666666664,48.00781249999998,0)" xlink:href="#w"/></g></defs></g></svg>