<svg xmlns="http://www.w3.org/2000/svg" xmlns:xlink="http://www.w3.org/1999/xlink" xmlns:lucid="lucid" width="792" height="180"><g transform="translate(-186 -483)" lucid:page-tab-id="FTplR-ZGqZLE"><path d="M800 554c0 16.57-13.43 30-30 30s-30-13.43-30-30 13.43-30 30-30 30 13.43 30 30zM260 554c0 16.57-13.43 30-30 30s-30-13.43-30-30 13.43-30 30-30 30 13.43 30 30z" stroke="#3a414a" stroke-width="2" fill="#fff7a1"/><path d="M260 580h182.74v80H260z" fill="none"/><use xlink:href="#a" transform="matrix(1,0,0,1,260,580) translate(0 10.664062499999996)"/><use xlink:href="#b" transform="matrix(1,0,0,1,260,580) translate(0 23.997395833333325)"/><use xlink:href="#c" transform="matrix(1,0,0,1,260,580) translate(0 37.33072916666666)"/><use xlink:href="#d" transform="matrix(1,0,0,1,260,580) translate(16.00260416666666 37.33072916666666)"/><use xlink:href="#e" transform="matrix(1,0,0,1,260,580) translate(96.01562499999996 37.33072916666666)"/><use xlink:href="#f" transform="matrix(1,0,0,1,260,580) translate(112.01822916666661 37.33072916666666)"/><use xlink:href="#c" transform="matrix(1,0,0,1,260,580) translate(0 50.664062499999986)"/><use xlink:href="#g" transform="matrix(1,0,0,1,260,580) translate(16.00260416666666 50.664062499999986)"/><use xlink:href="#e" transform="matrix(1,0,0,1,260,580) translate(96.01562499999996 50.664062499999986)"/><use xlink:href="#h" transform="matrix(1,0,0,1,260,580) translate(112.01822916666661 50.664062499999986)"/><use xlink:href="#i" transform="matrix(1,0,0,1,260,580) translate(0 63.997395833333314)"/><path d="M794 573h178.03v76.67H794z" fill="#fff" fill-opacity="0"/><g><use xlink:href="#a" transform="matrix(1,0,0,1,799,578) translate(0 10.664062499999996)"/><use xlink:href="#b" transform="matrix(1,0,0,1,799,578) translate(0 23.997395833333325)"/><use xlink:href="#c" transform="matrix(1,0,0,1,799,578) translate(0 37.33072916666666)"/><use xlink:href="#d" transform="matrix(1,0,0,1,799,578) translate(16.00260416666666 37.33072916666666)"/><use xlink:href="#e" transform="matrix(1,0,0,1,799,578) translate(96.01562499999996 37.33072916666666)"/><use xlink:href="#j" transform="matrix(1,0,0,1,799,578) translate(112.01822916666661 37.33072916666666)"/><use xlink:href="#c" transform="matrix(1,0,0,1,799,578) translate(0 50.664062499999986)"/><use xlink:href="#g" transform="matrix(1,0,0,1,799,578) translate(16.00260416666666 50.664062499999986)"/><use xlink:href="#e" transform="matrix(1,0,0,1,799,578) translate(96.01562499999996 50.664062499999986)"/><use xlink:href="#k" transform="matrix(1,0,0,1,799,578) translate(112.01822916666661 50.664062499999986)"/><use xlink:href="#i" transform="matrix(1,0,0,1,799,578) translate(0 63.997395833333314)"/></g><path d="M444 578c-13.25 0-24-10.75-24-24 0-10.6 6.5-19.55 16.58-22.83C436 500 476 494 492 506c8-18 48-12 48 6 24-6 48 18 32 48 16 24 0 54-32 42-8 15.6-40 15.6-48 0-16 12-48 6-48-24z" stroke="#3a414a" stroke-width="2" fill="#fff"/><g><use xlink:href="#l" transform="matrix(1,0,0,1,425,499) translate(25.49218750000003 58.78906249999999)"/></g><path d="M262 554h156" stroke="#3a414a" stroke-width="2" stroke-linejoin="round" fill="none"/><path d="M262.03 555h-1.1l.07-.98-.03-1.02h1.06zM419 553.97l.05 1.03h-1.08v-2h1.13z" stroke="#3a414a" stroke-width=".05" fill="#3a414a"/><path d="M576.67 554.2H720.5" stroke="#3a414a" stroke-width="2" stroke-linejoin="round" fill="none"/><path d="M576.7 555.2h-1.38l.05-.12.62-1.88h.7z" stroke="#3a414a" stroke-width=".05" fill="#3a414a"/><path d="M735.77 554.2l-14.27 4.64v-9.27z" stroke="#3a414a" stroke-width="2" fill="#3a414a"/><defs><path fill="#3a414a" d="M604-135c236 0 291-142 291-376v-838h190v859c5 340-142 510-480 510-326 0-463-164-463-492v-877h191v851c-3 222 46 363 271 363" id="m"/><path fill="#3a414a" d="M873-819c-18-114-119-146-250-146-163 0-245 50-245 151 0 151 170 148 294 185 182 54 388 94 388 320 0 240-189 325-439 329-245 4-410-69-454-268l159-31c24 133 136 168 295 165 144-2 270-31 270-171 0-164-195-160-331-202-167-52-350-87-350-299 0-218 173-315 413-313 220 2 373 77 412 260" id="n"/><path fill="#3a414a" d="M617-1102c355 0 481 238 477 599H322c5 222 84 388 301 388 144 0 244-59 284-166l158 45C1002-72 854 20 623 20c-342 0-490-220-490-568 0-346 151-554 484-554zm291 461c-18-192-90-328-289-328-194 0-287 128-295 328h584" id="o"/><path fill="#3a414a" d="M839-1102c70 0 148 7 206 17v167c-112-18-268-36-363 15-129 69-208 203-208 395V0H294c-10-367 32-789-52-1082h171c21 75 41 161 48 250h5c67-152 152-270 373-270" id="p"/><g id="a"><use transform="matrix(0.006510416666666664,0,0,0.006510416666666664,0,0)" xlink:href="#m"/><use transform="matrix(0.006510416666666664,0,0,0.006510416666666664,8.00130208333333,0)" xlink:href="#n"/><use transform="matrix(0.006510416666666664,0,0,0.006510416666666664,16.00260416666666,0)" xlink:href="#o"/><use transform="matrix(0.006510416666666664,0,0,0.006510416666666664,24.003906249999993,0)" xlink:href="#p"/></g><path fill="#3a414a" d="M554 91c-26 118 8 195 133 195h213l-27 139H608c-175 0-267-118-235-303 24-135 74-259 74-401 0-133-108-173-235-182l26-137c170-10 291-81 320-231l69-352c40-175 147-303 352-303h265l-27 139c-125 7-282-24-352 44-37 36-57 86-69 151l-68 346c-33 149-145 232-284 274 115 31 208 119 178 274" id="q"/><use transform="matrix(0.006510416666666664,0,0,0.006510416666666664,0,0)" xlink:href="#q" id="b"/><path fill="#3a414a" d="M967-845H825l84-639h224zm-449 0H377l83-639h224" id="r"/><path fill="#3a414a" d="M419 20c-186 0-282-64-284-243 0-40 5-86 15-138l140-721h180c-47 251-101 497-144 752-25 145 40 219 181 211 211-12 308-150 344-336l122-627h181C1087-721 1010-369 950 0H780c6-58 18-129 28-185h-3C720-71 616 20 419 20" id="s"/><path fill="#3a414a" d="M706-965c-176 0-278 51-278 181 0 125 156 122 261 155 163 51 371 93 326 320C971-85 782 18 512 20c-227 2-392-53-402-268l165-31c1 144 117 166 263 165 166-2 306-45 306-201 0-97-96-115-178-141-139-45-315-63-388-174-17-26-26-59-26-98 0-260 204-371 480-371 203 0 355 61 361 260l-166 20c2-122-100-146-221-146" id="t"/><path fill="#3a414a" d="M726-1102c256 0 385 126 386 379 1 67-11 147-25 220H315c-7 39-13 78-13 121 2 164 74 267 238 267 154 0 260-65 317-166l149 45C916-82 760 20 514 20c-259 0-398-131-398-390 0-357 148-615 421-704 62-20 125-28 189-28zm202 461c22-192-41-335-226-328-212 9-312 142-358 328h584" id="u"/><path fill="#3a414a" d="M523-832c93-143 191-271 425-270 69 0 147 7 203 17l-33 167c-114-19-266-34-366 15-148 73-248 213-284 395L369 0H189l136-701c21-116 30-253 22-381h171c8 76 8 174 0 250h5" id="v"/><path fill="#3a414a" d="M-153 220l19-96h1238l-19 96H-153" id="w"/><path fill="#3a414a" d="M668-142h380L1020 0H38l28-142h422l155-798H324l27-142h499zm23-1150l37-192h200l-37 192H691" id="x"/><path fill="#3a414a" d="M772 0c2-57 14-121 24-174h-5C708-49 608 26 420 26 203 26 113-90 112-311c0-65 8-138 24-221 74-377 241-566 502-566 165 0 259 55 298 184 37-190 73-380 110-570h180C1133-988 1028-504 944 0H772zm109-648c26-189-33-326-219-317-242 11-291 213-338 427-15 68-22 130-23 201 1 149 51 224 193 224 258 0 321-215 372-441 8-34 12-65 15-94" id="y"/><g id="d"><use transform="matrix(0.006510416666666664,0,0,0.006510416666666664,0,0)" xlink:href="#r"/><use transform="matrix(0.006510416666666664,0,0,0.006510416666666664,8.00130208333333,0)" xlink:href="#s"/><use transform="matrix(0.006510416666666664,0,0,0.006510416666666664,16.00260416666666,0)" xlink:href="#t"/><use transform="matrix(0.006510416666666664,0,0,0.006510416666666664,24.003906249999993,0)" xlink:href="#u"/><use transform="matrix(0.006510416666666664,0,0,0.006510416666666664,32.00520833333332,0)" xlink:href="#v"/><use transform="matrix(0.006510416666666664,0,0,0.006510416666666664,40.00651041666665,0)" xlink:href="#w"/><use transform="matrix(0.006510416666666664,0,0,0.006510416666666664,48.00781249999998,0)" xlink:href="#x"/><use transform="matrix(0.006510416666666664,0,0,0.006510416666666664,56.0091145833333,0)" xlink:href="#y"/><use transform="matrix(0.006510416666666664,0,0,0.006510416666666664,64.01041666666664,0)" xlink:href="#r"/></g><path fill="#3a414a" d="M391 0l58-299h235L626 0H391zm152-783l58-299h235l-58 299H543" id="z"/><use transform="matrix(0.006510416666666664,0,0,0.006510416666666664,0,0)" xlink:href="#z" id="e"/><path fill="#3a414a" d="M261-1120c230-8 401-96 507-229h166L700-145h353L1025 0H52l28-145h439l199-1021c-97 119-281 184-486 194" id="A"/><path fill="#3a414a" d="M83 363l298-662h265L206 363H83" id="B"/><g id="f"><use transform="matrix(0.006510416666666664,0,0,0.006510416666666664,0,0)" xlink:href="#A"/><use transform="matrix(0.006510416666666664,0,0,0.006510416666666664,8.00130208333333,0)" xlink:href="#B"/></g><path fill="#3a414a" d="M815-1102c202-2 311 102 279 314-40 267-101 525-150 788H763l135-695c7-39 11-71 11-98 2-119-62-175-179-170-208 9-312 151-348 336L260 0H80c67-361 144-713 204-1082h170c-6 58-17 130-28 185h3c86-116 194-203 386-205" id="C"/><path fill="#3a414a" d="M948-272c-17 76-19 161 70 161 21 0 42-3 60-7L1056-6c-45 10-88 14-142 16-138 6-175-86-155-217h-6C661-83 550 15 337 20 138 24 42-104 82-302c49-247 238-349 523-354l236-4c9-47 22-94 22-148 0-118-65-155-184-157-151-3-231 57-266 172l-185-17c67-189 220-292 480-292 245 0 377 119 330 364zm-678-27c-21 109 31 185 140 182 176-5 282-102 348-217 37-66 43-123 59-200-145 7-304-9-409 44-71 36-119 96-138 191" id="D"/><path fill="#3a414a" d="M1000-783c14-86 16-180-76-180-43 0-83 29-120 85s-67 140-88 251L594 0H426c49-261 107-518 150-783 14-86 14-191-77-180-103 13-137 116-173 209-17 43-28 93-39 147L169 0H0c67-361 144-713 204-1082h149c-6 55-18 122-28 175h2c54-95 112-192 254-195 127-2 153 72 158 196 61-99 122-196 274-196 124 0 168 64 168 192 0 67-10 125-22 189L1019 0H851c49-261 106-518 149-783" id="E"/><g id="g"><use transform="matrix(0.006510416666666664,0,0,0.006510416666666664,0,0)" xlink:href="#r"/><use transform="matrix(0.006510416666666664,0,0,0.006510416666666664,8.00130208333333,0)" xlink:href="#C"/><use transform="matrix(0.006510416666666664,0,0,0.006510416666666664,16.00260416666666,0)" xlink:href="#D"/><use transform="matrix(0.006510416666666664,0,0,0.006510416666666664,24.003906249999993,0)" xlink:href="#E"/><use transform="matrix(0.006510416666666664,0,0,0.006510416666666664,32.00520833333332,0)" xlink:href="#u"/><use transform="matrix(0.006510416666666664,0,0,0.006510416666666664,40.00651041666665,0)" xlink:href="#r"/></g><path fill="#3a414a" d="M832 0c78-390 148-786 233-1169-124 253-264 488-400 729H528c-43-241-94-472-121-729C339-774 258-390 184 0H24l262-1349h237c39 239 98 457 113 720 117-256 262-480 395-720h225L994 0H832" id="F"/><path fill="#3a414a" d="M9 279c104 15 163 3 243-53 63-44 133-143 181-237L171-1082h192c62 299 135 587 188 896 174-300 351-597 525-896h190L600 0c-97 160-186 316-352 396-73 35-176 36-265 18" id="G"/><g id="h"><use transform="matrix(0.006510416666666664,0,0,0.006510416666666664,0,0)" xlink:href="#r"/><use transform="matrix(0.006510416666666664,0,0,0.006510416666666664,8.00130208333333,0)" xlink:href="#F"/><use transform="matrix(0.006510416666666664,0,0,0.006510416666666664,16.00260416666666,0)" xlink:href="#D"/><use transform="matrix(0.006510416666666664,0,0,0.006510416666666664,24.003906249999993,0)" xlink:href="#v"/><use transform="matrix(0.006510416666666664,0,0,0.006510416666666664,32.00520833333332,0)" xlink:href="#G"/><use transform="matrix(0.006510416666666664,0,0,0.006510416666666664,40.00651041666665,0)" xlink:href="#r"/></g><path fill="#3a414a" d="M782-829c-28 162 86 226 230 231l-26 137c-170 10-290 80-320 232l-69 351c-41 174-150 303-353 303H-21L6 286c127-7 286 22 354-44 32-31 56-80 69-151l68-347c32-151 143-234 283-276-114-31-202-119-177-272 23-141 76-269 76-420 0-92-49-121-143-121H323l27-139h265c172-5 272 121 236 303" id="H"/><use transform="matrix(0.006510416666666664,0,0,0.006510416666666664,0,0)" xlink:href="#H" id="i"/><path fill="#3a414a" d="M794-689c173 21 307 121 272 319-46 257-247 390-554 390C242 20 81-90 93-362l190-17c-8 173 87 252 258 250 204-3 343-96 343-288 0-182-207-196-405-192l31-156c246 10 459-51 459-286 0-122-89-172-225-171-169 1-285 96-324 233l-178-14c75-223 246-362 532-367 246-5 426 101 378 354-35 181-173 283-357 323" id="I"/><g id="j"><use transform="matrix(0.006510416666666664,0,0,0.006510416666666664,0,0)" xlink:href="#I"/><use transform="matrix(0.006510416666666664,0,0,0.006510416666666664,8.00130208333333,0)" xlink:href="#B"/></g><path fill="#3a414a" d="M898 0L535-638 339-469 248 0H57l262-1349h191L379-676l703-673h225L692-777 1122 0H898" id="J"/><path fill="#3a414a" d="M610 0H397L174-1082h202l131 704c10 72 16 162 23 237 161-331 356-627 533-941h201" id="K"/><g id="k"><use transform="matrix(0.006510416666666664,0,0,0.006510416666666664,0,0)" xlink:href="#r"/><use transform="matrix(0.006510416666666664,0,0,0.006510416666666664,8.00130208333333,0)" xlink:href="#J"/><use transform="matrix(0.006510416666666664,0,0,0.006510416666666664,16.00260416666666,0)" xlink:href="#u"/><use transform="matrix(0.006510416666666664,0,0,0.006510416666666664,24.003906249999993,0)" xlink:href="#K"/><use transform="matrix(0.006510416666666664,0,0,0.006510416666666664,32.00520833333332,0)" xlink:href="#x"/><use transform="matrix(0.006510416666666664,0,0,0.006510416666666664,40.00651041666665,0)" xlink:href="#C"/><use transform="matrix(0.006510416666666664,0,0,0.006510416666666664,48.00781249999998,0)" xlink:href="#r"/></g><path fill="#333" d="M385-1193v494h676v158H385V0H194v-1349h891v156H385" id="L"/><path fill="#333" d="M1121-976c0 225-142 341-344 379L1177 0H957L591-575H353V0H162v-1349h482c281 3 477 100 477 373zM633-726c181-1 296-73 296-247 0-149-101-223-304-223H353v470h280" id="M"/><path fill="#333" d="M202-1349h823v156H709v1037h316V0H202v-156h316v-1037H202v-156" id="N"/><path fill="#333" d="M162 0v-1349h919v156H353v422h668v154H353v461h769V0H162" id="O"/><path fill="#333" d="M912-211c-10-84-18-177-18-274v-864h172V0H836L316-1130c7 79 16 167 16 254V0H162v-1349h222" id="P"/><path fill="#333" d="M473-1349c438-1 655 221 652 661C1122-268 945-8 532 0H162v-1349h311zm42 1193c308-4 416-205 418-532 2-330-131-509-459-505H353v1037h162" id="Q"/><path fill="#333" d="M614-1226c-167 1-283 53-283 213 0 183 186 193 334 234 230 63 463 120 463 409 0 286-219 387-518 390C309 23 131-98 79-338l185-37c34 165 149 248 351 246 184-2 324-58 324-238 0-203-207-221-372-266-210-57-422-111-422-377 0-267 201-356 470-360 279-5 430 101 480 324l-188 33c-28-141-121-215-293-213" id="R"/><path fill="#333" d="M-5 220v-96h1238v96H-5" id="S"/><path fill="#333" d="M1018 0H810c-67-251-137-496-194-756C558-495 487-250 419 0H211L0-1349h189c48 393 110 772 142 1181 58-262 128-512 197-763h175c69 251 139 500 197 763 37-402 92-789 139-1181h189" id="T"/><path fill="#333" d="M709-1193V0H519v-1193H76v-156h1076v156H709" id="U"/><path fill="#333" d="M875 0v-623H353V0H162v-1349h191v566h522v-566h191V0H875" id="V"/><g id="l"><use transform="matrix(0.0065104166666666635,0,0,0.0065104166666666635,0,0)" xlink:href="#L"/><use transform="matrix(0.0065104166666666635,0,0,0.0065104166666666635,8.001302083333329,0)" xlink:href="#M"/><use transform="matrix(0.0065104166666666635,0,0,0.0065104166666666635,16.002604166666657,0)" xlink:href="#N"/><use transform="matrix(0.0065104166666666635,0,0,0.0065104166666666635,24.003906249999986,0)" xlink:href="#O"/><use transform="matrix(0.0065104166666666635,0,0,0.0065104166666666635,32.005208333333314,0)" xlink:href="#P"/><use transform="matrix(0.0065104166666666635,0,0,0.0065104166666666635,40.00651041666664,0)" xlink:href="#Q"/><use transform="matrix(0.0065104166666666635,0,0,0.0065104166666666635,48.00781249999997,0)" xlink:href="#R"/><use transform="matrix(0.0065104166666666635,0,0,0.0065104166666666635,56.00911458333331,0)" xlink:href="#S"/><use transform="matrix(0.0065104166666666635,0,0,0.0065104166666666635,64.01041666666663,0)" xlink:href="#T"/><use transform="matrix(0.0065104166666666635,0,0,0.0065104166666666635,72.01171874999996,0)" xlink:href="#N"/><use transform="matrix(0.0065104166666666635,0,0,0.0065104166666666635,80.01302083333329,0)" xlink:href="#U"/><use transform="matrix(0.0065104166666666635,0,0,0.0065104166666666635,88.01432291666661,0)" xlink:href="#V"/></g></defs></g></svg>