<svg xmlns="http://www.w3.org/2000/svg" xmlns:xlink="http://www.w3.org/1999/xlink" xmlns:lucid="lucid" width="711" height="262"><g transform="translate(-161 -425)" lucid:page-tab-id=".Zpl2yx4eO25"><path d="M809.33 614.67c0 16.57-13.43 30-30 30s-30-13.43-30-30 13.43-30 30-30 30 13.43 30 30zM269.33 614.67c0 16.57-13.43 30-30 30s-30-13.43-30-30 13.43-30 30-30 30 13.43 30 30z" stroke="#3a414a" stroke-width="2" fill="#fff7a1"/><path d="M453.33 638.67c-13.25 0-24-10.75-24-24 0-10.6 6.5-19.55 16.6-22.83-.6-31.17 39.4-37.17 55.4-25.17 8-18 48-12 48 6 24-6 48 18 32 48 16 24 0 54-32 42-8 15.6-40 15.6-48 0-16 12-48 6-48-24z" stroke="#3a414a" stroke-width="2" fill="#fff"/><use xlink:href="#a" transform="matrix(1,0,0,1,434.3333333333333,559.6666666666666) translate(25.49218750000003 58.78906249999999)"/><path d="M271.34 614.67h156" stroke="#3a414a" stroke-width="2" stroke-linejoin="round" fill="none"/><path d="M271.36 615.67h-1.1l.07-.98-.03-1.03h1.06zM428.33 614.64l.06 1.03h-1.1v-2h1.14z" stroke="#3a414a" stroke-width=".05" fill="#3a414a"/><path d="M586 614.87h143.84" stroke="#3a414a" stroke-width="2" stroke-linejoin="round" fill="none"/><path d="M586.02 615.87h-1.37l.05-.12.63-1.88h.7z" stroke="#3a414a" stroke-width=".05" fill="#3a414a"/><path d="M745.1 614.87l-14.26 4.63v-9.27z" stroke="#3a414a" stroke-width="2" fill="#3a414a"/><path d="M269.33 470c0 16.57-13.43 30-30 30s-30-13.43-30-30 13.43-30 30-30 30 13.43 30 30zM809.33 470c0 16.57-13.43 30-30 30s-30-13.43-30-30 13.43-30 30-30 30 13.43 30 30z" stroke="#3a414a" stroke-width="2" fill="#fff7a1"/><path d="M239.33 502v63.16" stroke="#3a414a" stroke-width="2" stroke-linejoin="round" fill="none"/><path d="M239.3 501l1.03-.03v1.06h-2v-1.1z" stroke="#3a414a" stroke-width=".05" fill="#3a414a"/><path d="M239.33 580.43l-4.63-14.27h9.27z" stroke="#3a414a" stroke-width="2" fill="#3a414a"/><use xlink:href="#b" transform="matrix(1,0,0,1,175.32421874999994,549.4094985465864) translate(0 10.6640625)"/><path d="M779.33 502v63.16" stroke="#3a414a" stroke-width="2" stroke-linejoin="round" fill="none"/><path d="M779.3 501l1.03-.03v1.06h-2v-1.1z" stroke="#3a414a" stroke-width=".05" fill="#3a414a"/><path d="M779.33 580.43l-4.63-14.27h9.27z" stroke="#3a414a" stroke-width="2" fill="#3a414a"/><use xlink:href="#b" transform="matrix(1,0,0,1,715.32421875,549.4094985465864) translate(0 10.6640625)"/><path d="M253 626.33h55v37.34h-55z" fill="none"/><use xlink:href="#c" transform="matrix(1,0,0,1,253,626.3333333333334) translate(11.49739583333334 22.997395833333332)"/><path d="M795.33 629.67h55V667h-55z" fill="none"/><use xlink:href="#c" transform="matrix(1,0,0,1,795.3333333333333,629.6666666666666) translate(11.49739583333334 22.997395833333332)"/><path d="M249 480h75v37.33h-75z" fill="none"/><use xlink:href="#d" transform="matrix(1,0,0,1,249,480) translate(13.49609375000001 22.997395833333332)"/><path d="M793 479h75v37.33h-75z" fill="none"/><use xlink:href="#d" transform="matrix(1,0,0,1,793,479) translate(13.49609375000001 22.997395833333332)"/><defs><path fill="#333" d="M385-1193v494h676v158H385V0H194v-1349h891v156H385" id="e"/><path fill="#333" d="M1121-976c0 225-142 341-344 379L1177 0H957L591-575H353V0H162v-1349h482c281 3 477 100 477 373zM633-726c181-1 296-73 296-247 0-149-101-223-304-223H353v470h280" id="f"/><path fill="#333" d="M202-1349h823v156H709v1037h316V0H202v-156h316v-1037H202v-156" id="g"/><path fill="#333" d="M162 0v-1349h919v156H353v422h668v154H353v461h769V0H162" id="h"/><path fill="#333" d="M912-211c-10-84-18-177-18-274v-864h172V0H836L316-1130c7 79 16 167 16 254V0H162v-1349h222" id="i"/><path fill="#333" d="M473-1349c438-1 655 221 652 661C1122-268 945-8 532 0H162v-1349h311zm42 1193c308-4 416-205 418-532 2-330-131-509-459-505H353v1037h162" id="j"/><path fill="#333" d="M614-1226c-167 1-283 53-283 213 0 183 186 193 334 234 230 63 463 120 463 409 0 286-219 387-518 390C309 23 131-98 79-338l185-37c34 165 149 248 351 246 184-2 324-58 324-238 0-203-207-221-372-266-210-57-422-111-422-377 0-267 201-356 470-360 279-5 430 101 480 324l-188 33c-28-141-121-215-293-213" id="k"/><path fill="#333" d="M-5 220v-96h1238v96H-5" id="l"/><path fill="#333" d="M1018 0H810c-67-251-137-496-194-756C558-495 487-250 419 0H211L0-1349h189c48 393 110 772 142 1181 58-262 128-512 197-763h175c69 251 139 500 197 763 37-402 92-789 139-1181h189" id="m"/><path fill="#333" d="M709-1193V0H519v-1193H76v-156h1076v156H709" id="n"/><path fill="#333" d="M875 0v-623H353V0H162v-1349h191v566h522v-566h191V0H875" id="o"/><g id="a"><use transform="matrix(0.0065104166666666635,0,0,0.0065104166666666635,0,0)" xlink:href="#e"/><use transform="matrix(0.0065104166666666635,0,0,0.0065104166666666635,8.001302083333329,0)" xlink:href="#f"/><use transform="matrix(0.0065104166666666635,0,0,0.0065104166666666635,16.002604166666657,0)" xlink:href="#g"/><use transform="matrix(0.0065104166666666635,0,0,0.0065104166666666635,24.003906249999986,0)" xlink:href="#h"/><use transform="matrix(0.0065104166666666635,0,0,0.0065104166666666635,32.005208333333314,0)" xlink:href="#i"/><use transform="matrix(0.0065104166666666635,0,0,0.0065104166666666635,40.00651041666664,0)" xlink:href="#j"/><use transform="matrix(0.0065104166666666635,0,0,0.0065104166666666635,48.00781249999997,0)" xlink:href="#k"/><use transform="matrix(0.0065104166666666635,0,0,0.0065104166666666635,56.00911458333331,0)" xlink:href="#l"/><use transform="matrix(0.0065104166666666635,0,0,0.0065104166666666635,64.01041666666663,0)" xlink:href="#m"/><use transform="matrix(0.0065104166666666635,0,0,0.0065104166666666635,72.01171874999996,0)" xlink:href="#g"/><use transform="matrix(0.0065104166666666635,0,0,0.0065104166666666635,80.01302083333329,0)" xlink:href="#n"/><use transform="matrix(0.0065104166666666635,0,0,0.0065104166666666635,88.01432291666661,0)" xlink:href="#o"/></g><path fill="#333" d="M285-1169c8 382 2 780 4 1169H129v-1349h237c86 239 188 461 253 720 69-258 169-481 255-720h225V0H937c2-390-5-788 6-1169-75 255-170 488-259 729H547c-90-240-185-475-262-729" id="p"/><path fill="#333" d="M1034 0L896-382H333L196 0H0l510-1349h217L1228 0h-194zM847-531c-77-225-157-447-231-674-69 231-154 451-232 674h463" id="q"/><path fill="#333" d="M802-711c201 25 350 118 350 331C1152-95 921 0 634 0H162v-1349c401 9 908-74 908 327 0 184-111 275-268 311zm-224-69c174-2 300-51 300-218 0-163-124-198-302-198H353v416h225zM353-153c281-2 612 44 606-244-5-271-329-233-606-234v478" id="r"/><path fill="#333" d="M708-584V0H520v-584L36-1349h205l374 611 372-611h205" id="s"/><g id="b"><use transform="matrix(0.006510416666666667,0,0,0.006510416666666667,0,0)" xlink:href="#p"/><use transform="matrix(0.006510416666666667,0,0,0.006510416666666667,8.001302083333334,0)" xlink:href="#q"/><use transform="matrix(0.006510416666666667,0,0,0.006510416666666667,16.002604166666668,0)" xlink:href="#j"/><use transform="matrix(0.006510416666666667,0,0,0.006510416666666667,24.00390625,0)" xlink:href="#h"/><use transform="matrix(0.006510416666666667,0,0,0.006510416666666667,32.005208333333336,0)" xlink:href="#l"/><use transform="matrix(0.006510416666666667,0,0,0.006510416666666667,40.00651041666667,0)" xlink:href="#r"/><use transform="matrix(0.006510416666666667,0,0,0.006510416666666667,48.00781250000001,0)" xlink:href="#s"/></g><path fill="#3a414a" d="M604-135c236 0 291-142 291-376v-838h190v859c5 340-142 510-480 510-326 0-463-164-463-492v-877h191v851c-3 222 46 363 271 363" id="t"/><path fill="#3a414a" d="M873-819c-18-114-119-146-250-146-163 0-245 50-245 151 0 151 170 148 294 185 182 54 388 94 388 320 0 240-189 325-439 329-245 4-410-69-454-268l159-31c24 133 136 168 295 165 144-2 270-31 270-171 0-164-195-160-331-202-167-52-350-87-350-299 0-218 173-315 413-313 220 2 373 77 412 260" id="u"/><path fill="#3a414a" d="M617-1102c355 0 481 238 477 599H322c5 222 84 388 301 388 144 0 244-59 284-166l158 45C1002-72 854 20 623 20c-342 0-490-220-490-568 0-346 151-554 484-554zm291 461c-18-192-90-328-289-328-194 0-287 128-295 328h584" id="v"/><path fill="#3a414a" d="M839-1102c70 0 148 7 206 17v167c-112-18-268-36-363 15-129 69-208 203-208 395V0H294c-10-367 32-789-52-1082h171c21 75 41 161 48 250h5c67-152 152-270 373-270" id="w"/><g id="c"><use transform="matrix(0.006510416666666664,0,0,0.006510416666666664,0,0)" xlink:href="#t"/><use transform="matrix(0.006510416666666664,0,0,0.006510416666666664,8.00130208333333,0)" xlink:href="#u"/><use transform="matrix(0.006510416666666664,0,0,0.006510416666666664,16.00260416666666,0)" xlink:href="#v"/><use transform="matrix(0.006510416666666664,0,0,0.006510416666666664,24.003906249999993,0)" xlink:href="#w"/></g><path fill="#3a414a" d="M1121-976c0 225-142 341-344 379L1177 0H957L591-575H353V0H162v-1349h482c281 3 477 100 477 373zM633-726c181-1 296-73 296-247 0-149-101-223-304-223H353v470h280" id="x"/><path fill="#3a414a" d="M715 0H502L69-1082h202c94 253 197 500 285 758 19 57 36 126 52 183 96-335 234-626 350-941h201" id="y"/><path fill="#3a414a" d="M745-142h380V0H143v-142h422v-798H246v-142h499v940zM545-1292v-192h200v192H545" id="z"/><path fill="#3a414a" d="M1018 0H814c-67-224-138-444-200-673C552-442 476-224 407 0H204L21-1082h178c43 310 105 601 126 933 54-225 128-425 193-638h193c63 212 134 415 185 638 22-336 90-622 136-933h176" id="A"/><g id="d"><use transform="matrix(0.006510416666666664,0,0,0.006510416666666664,0,0)" xlink:href="#x"/><use transform="matrix(0.006510416666666664,0,0,0.006510416666666664,8.00130208333333,0)" xlink:href="#v"/><use transform="matrix(0.006510416666666664,0,0,0.006510416666666664,16.00260416666666,0)" xlink:href="#y"/><use transform="matrix(0.006510416666666664,0,0,0.006510416666666664,24.003906249999993,0)" xlink:href="#z"/><use transform="matrix(0.006510416666666664,0,0,0.006510416666666664,32.00520833333332,0)" xlink:href="#v"/><use transform="matrix(0.006510416666666664,0,0,0.006510416666666664,40.00651041666665,0)" xlink:href="#A"/></g></defs></g></svg>