<svg xmlns="http://www.w3.org/2000/svg" width="487" height="113">         <defs>            <style type="text/css">    @namespace "http://www.w3.org/2000/svg";    .line                 {fill: none; stroke: #332900; stroke-width: 1;}    .bold-line            {stroke: #141000; shape-rendering: crispEdges; stroke-width: 2;}    .thin-line            {stroke: #1F1800; shape-rendering: crispEdges}    .filled               {fill: #332900; stroke: none;}    text.terminal         {font-family: Verdana, Sans-serif;                            font-size: 12px;                            fill: #141000;                            font-weight: bold;                          }    text.nonterminal      {font-family: Verdana, Sans-serif;                            font-size: 12px;                            fill: #1A1400;                            font-weight: normal;                          }    text.regexp           {font-family: Verdana, Sans-serif;                            font-size: 12px;                            fill: #1F1800;                            font-weight: normal;                          }    rect, circle, polygon {fill: #332900; stroke: #332900;}    rect.terminal         {fill: #FFDB4D; stroke: #332900; stroke-width: 1;}    rect.nonterminal      {fill: #FFEC9E; stroke: #332900; stroke-width: 1;}    rect.text             {fill: none; stroke: none;}    polygon.regexp        {fill: #FFF4C7; stroke: #332900; stroke-width: 1;}  </style>         </defs>         <polygon points="9 33 1 29 1 37"/>         <polygon points="17 33 9 29 9 37"/><a xmlns:xlink="http://www.w3.org/1999/xlink" xlink:href="#VertexDefinition" xlink:title="VertexDefinition">            <rect x="31" y="19" width="122" height="32"/>            <rect x="29" y="17" width="122" height="32" class="nonterminal"/>            <text class="nonterminal" x="39" y="37">VertexDefinition</text></a><rect x="213" y="19" width="24" height="32" rx="10"/>         <rect x="211" y="17" width="24" height="32" class="terminal" rx="10"/>         <text class="terminal" x="221" y="37">,</text><a xmlns:xlink="http://www.w3.org/1999/xlink" xlink:href="#VertexDefinition" xlink:title="VertexDefinition">            <rect x="277" y="19" width="122" height="32"/>            <rect x="275" y="17" width="122" height="32" class="nonterminal"/>            <text class="nonterminal" x="285" y="37">VertexDefinition</text></a><a xmlns:xlink="http://www.w3.org/1999/xlink" xlink:href="#EdgeDefinition" xlink:title="EdgeDefinition">            <rect x="277" y="63" width="112" height="32"/>            <rect x="275" y="61" width="112" height="32" class="nonterminal"/>            <text class="nonterminal" x="285" y="81">EdgeDefinition</text></a><svg:path xmlns:svg="http://www.w3.org/2000/svg" class="line" d="m17 33 h2 m0 0 h10 m122 0 h10 m40 0 h10 m24 0 h10 m20 0 h10 m122 0 h10 m-162 0 h20 m142 0 h20 m-182 0 q10 0 10 10 m162 0 q0 -10 10 -10 m-172 10 v24 m162 0 v-24 m-162 24 q0 10 10 10 m142 0 q10 0 10 -10 m-152 10 h10 m112 0 h10 m0 0 h10 m-226 -44 l20 0 m-1 0 q-9 0 -9 -10 l0 -12 q0 -10 10 -10 m226 32 l20 0 m-20 0 q10 0 10 -10 l0 -12 q0 -10 -10 -10 m-226 0 h10 m0 0 h216 m-266 32 h20 m266 0 h20 m-306 0 q10 0 10 10 m286 0 q0 -10 10 -10 m-296 10 v58 m286 0 v-58 m-286 58 q0 10 10 10 m266 0 q10 0 10 -10 m-276 10 h10 m0 0 h256 m23 -78 h-3"/>         <polygon points="477 33 485 29 485 37"/>         <polygon points="477 33 469 29 469 37"/></svg>