<?xml version="1.0" encoding="UTF-8"?>
<svg id="Layer_1" data-name="Layer 1" xmlns="http://www.w3.org/2000/svg" viewBox="0 0 672.52 443.26">
  <defs>
    <style>
      .cls-1, .cls-2 {
        fill: #fff;
      }

      .cls-3 {
        fill: #20438a;
      }

      .cls-2, .cls-4 {
        fill-rule: evenodd;
      }

      .cls-4 {
        fill: #f6d639;
      }
    </style>
  </defs>
  <g>
    <path class="cls-3" d="M645.53,130.06c-28.9-49.52-54.78-142.73-132.34-114.09-7.11-3.54-10.24-11.06-15.97-15.97-28.1,13.72-62.33,.04-95.84,2.28-32.46,2.18-61.96,17.14-93.55,20.54-22.68,2.44-48.84-2.69-73.02-4.56C157.07,12.24,91.05,9.13,15.76,4.56c55.65,16.61,111.53,32.99,164.29,52.48-55.64-6.74-114.51-22.4-164.29-27.38,48.03,26.51,109.01,52.24,148.32,79.86-40.66-14.11-86.73-34.96-125.5-43.35,43.18,28.21,83.57,52.88,120.25,74.27,19.08,11.13,37.01,21.18,50.83,28.96,48.28,27.17,88.33,48.81,94.59,52.09,23.12,12.12,83.26,34.79,238.52,24.83,12.05-23.1,27.49-46.17,47.29-67.92,18.17-19.96,37.25-35.79,55.48-48.35Z"/>
    <path class="cls-2" d="M451.58,20.54c5.24,9.97,10.94,19.48,9.13,36.51-18.24-9.19-44.17-10.34-41.07,18.25,9.66-1.75,5.74-17.08,13.69-20.54,19.78,8.36,39.69,16.6,59.33,25.1-6.85,76.32,105.69,84.54,118.65,20.54,6.87,5.29,8.32,16.02,11.41,25.1-43.8,26.17-72.19,67.76-98.12,111.81h-77.58c43.84-70.49-22.06-150.38-109.53-146.03,50.96,5.17,133.19,51.07,93.55,109.53-35.11,51.78-128.81,15.83-164.29-18.25-23.92-22.98-49.03-59.54-27.38-86.71,8.27,.1,4.63,12.11,9.13,15.97C277.93,44.16,358.88,3.56,451.58,20.54Z"/>
    <path class="cls-2" d="M492.65,20.54c8.39,4.54,12.3,13.56,22.82,15.97-6.77,9.2-15.43,16.52-18.25,29.66-10.86-2.07-20.7-5.16-31.95-6.85,3.88-18.17,18.31-25.81,27.38-38.79Z"/>
    <path class="cls-4" d="M556.54,22.82c-8.97,3.89-20.13,4.7-29.66,2.28,7.04-5.82,19.98-4.85,29.66-2.28Z"/>
    <path class="cls-4" d="M542.85,41.07c38.37-8.8,59.19,14.6,59.33,43.35,.28,58.2-84.22,62.56-93.55,11.41-6.09-33.38,10.64-49.35,34.23-54.76Z"/>
  </g>
  <path class="cls-2" d="M585.5,99.76c-2.55,8.08-11.17,26.25,.26,10.18,9.96-14.01,8.37-20.49,7.65-26.36-.72-5.87-2-8.27-3.39-9.34-1.39-1.07-1.18,14.96-4.52,25.52Z"/>
  <rect class="cls-1" x="228.17" y="279.55" width=".7" height="6.7"/>
</svg>