<svg xmlns="http://www.w3.org/2000/svg" width="515" height="113">         <defs>            <style type="text/css">    @namespace "http://www.w3.org/2000/svg";    .line                 {fill: none; stroke: #333300; stroke-width: 1;}    .bold-line            {stroke: #141400; shape-rendering: crispEdges; stroke-width: 2;}    .thin-line            {stroke: #1F1F00; shape-rendering: crispEdges}    .filled               {fill: #333300; stroke: none;}    text.terminal         {font-family: Verdana, Sans-serif;                            font-size: 12px;                            fill: #141400;                            font-weight: bold;                          }    text.nonterminal      {font-family: Verdana, Sans-serif;                            font-size: 12px;                            fill: #1A1A00;                            font-weight: normal;                          }    text.regexp           {font-family: Verdana, Sans-serif;                            font-size: 12px;                            fill: #1F1F00;                            font-weight: normal;                          }    rect, circle, polygon {fill: #333300; stroke: #333300;}    rect.terminal         {fill: #FFFF4D; stroke: #333300; stroke-width: 1;}    rect.nonterminal      {fill: #FFFF9E; stroke: #333300; stroke-width: 1;}    rect.text             {fill: none; stroke: none;}    polygon.regexp        {fill: #FFFFC7; stroke: #333300; stroke-width: 1;}  </style>         </defs>         <polygon points="9 33 1 29 1 37"/>         <polygon points="17 33 9 29 9 37"/><a xmlns:xlink="http://www.w3.org/1999/xlink" xlink:href="#VertexConstructor" xlink:title="VertexConstructor">            <rect x="31" y="19" width="136" height="32"/>            <rect x="29" y="17" width="136" height="32" class="nonterminal"/>            <text class="nonterminal" x="39" y="37">VertexConstructor</text></a><rect x="227" y="19" width="24" height="32" rx="10"/>         <rect x="225" y="17" width="24" height="32" class="terminal" rx="10"/>         <text class="terminal" x="235" y="37">,</text><a xmlns:xlink="http://www.w3.org/1999/xlink" xlink:href="#VertexConstructor" xlink:title="VertexConstructor">            <rect x="291" y="19" width="136" height="32"/>            <rect x="289" y="17" width="136" height="32" class="nonterminal"/>            <text class="nonterminal" x="299" y="37">VertexConstructor</text></a><a xmlns:xlink="http://www.w3.org/1999/xlink" xlink:href="#EdgeConstructor" xlink:title="EdgeConstructor">            <rect x="291" y="63" width="126" height="32"/>            <rect x="289" y="61" width="126" height="32" class="nonterminal"/>            <text class="nonterminal" x="299" y="81">EdgeConstructor</text></a><svg:path xmlns:svg="http://www.w3.org/2000/svg" class="line" d="m17 33 h2 m0 0 h10 m136 0 h10 m40 0 h10 m24 0 h10 m20 0 h10 m136 0 h10 m-176 0 h20 m156 0 h20 m-196 0 q10 0 10 10 m176 0 q0 -10 10 -10 m-186 10 v24 m176 0 v-24 m-176 24 q0 10 10 10 m156 0 q10 0 10 -10 m-166 10 h10 m126 0 h10 m0 0 h10 m-240 -44 l20 0 m-1 0 q-9 0 -9 -10 l0 -12 q0 -10 10 -10 m240 32 l20 0 m-20 0 q10 0 10 -10 l0 -12 q0 -10 -10 -10 m-240 0 h10 m0 0 h230 m-280 32 h20 m280 0 h20 m-320 0 q10 0 10 10 m300 0 q0 -10 10 -10 m-310 10 v58 m300 0 v-58 m-300 58 q0 10 10 10 m280 0 q10 0 10 -10 m-290 10 h10 m0 0 h270 m23 -78 h-3"/>         <polygon points="505 33 513 29 513 37"/>         <polygon points="505 33 497 29 497 37"/></svg>