<?xml version="1.0" encoding="UTF-8"?>
<svg xmlns="http://www.w3.org/2000/svg" width="615" height="113">
   <defs>
      <style type="text/css">
    @namespace "http://www.w3.org/2000/svg";
    .line                 {fill: none; stroke: #332900; stroke-width: 1;}
    .bold-line            {stroke: #141000; shape-rendering: crispEdges; stroke-width: 2;}
    .thin-line            {stroke: #1F1800; shape-rendering: crispEdges}
    .filled               {fill: #332900; stroke: none;}
    text.terminal         {font-family: Verdana, Sans-serif;
                            font-size: 12px;
                            fill: #141000;
                            font-weight: bold;
                          }
    text.nonterminal      {font-family: Verdana, Sans-serif;
                            font-size: 12px;
                            fill: #1A1400;
                            font-weight: normal;
                          }
    text.regexp           {font-family: Verdana, Sans-serif;
                            font-size: 12px;
                            fill: #1F1800;
                            font-weight: normal;
                          }
    rect, circle, polygon {fill: #332900; stroke: #332900;}
    rect.terminal         {fill: #FFDB4D; stroke: #332900; stroke-width: 1;}
    rect.nonterminal      {fill: #FFEC9E; stroke: #332900; stroke-width: 1;}
    rect.text             {fill: none; stroke: none;}
    polygon.regexp        {fill: #FFF4C7; stroke: #332900; stroke-width: 1;}
  </style>
   </defs>
   <polygon points="9 61 1 57 1 65"/>
   <polygon points="17 61 9 57 9 65"/>
   <rect x="31" y="47" width="68" height="32" rx="10"/>
   <rect x="29"
          y="45"
          width="68"
          height="32"
          class="terminal"
          rx="10"/>
   <text class="terminal" x="39" y="65">GROUP</text>
   <rect x="119" y="47" width="38" height="32" rx="10"/>
   <rect x="117"
          y="45"
          width="38"
          height="32"
          class="terminal"
          rx="10"/>
   <text class="terminal" x="127" y="65">BY</text>
   <a xmlns:xlink="http://www.w3.org/1999/xlink"
       xlink:href="#NamedExpr"
       xlink:title="NamedExpr">
      <rect x="197" y="47" width="92" height="32"/>
      <rect x="195" y="45" width="92" height="32" class="nonterminal"/>
      <text class="nonterminal" x="205" y="65">NamedExpr</text>
   </a>
   <rect x="197" y="3" width="24" height="32" rx="10"/>
   <rect x="195"
          y="1"
          width="24"
          height="32"
          class="terminal"
          rx="10"/>
   <text class="terminal" x="205" y="21">,</text>
   <rect x="349" y="79" width="68" height="32" rx="10"/>
   <rect x="347"
          y="77"
          width="68"
          height="32"
          class="terminal"
          rx="10"/>
   <text class="terminal" x="357" y="97">GROUP</text>
   <rect x="437" y="79" width="38" height="32" rx="10"/>
   <rect x="435"
          y="77"
          width="38"
          height="32"
          class="terminal"
          rx="10"/>
   <text class="terminal" x="445" y="97">AS</text>
   <a xmlns:xlink="http://www.w3.org/1999/xlink"
       xlink:href="#Variable"
       xlink:title="Variable">
      <rect x="495" y="79" width="72" height="32"/>
      <rect x="493" y="77" width="72" height="32" class="nonterminal"/>
      <text class="nonterminal" x="503" y="97">Variable</text>
   </a>
   <path class="line"
          d="m17 61 h2 m0 0 h10 m68 0 h10 m0 0 h10 m38 0 h10 m20 0 h10 m92 0 h10 m-132 0 l20 0 m-1 0 q-9 0 -9 -10 l0 -24 q0 -10 10 -10 m112 44 l20 0 m-20 0 q10 0 10 -10 l0 -24 q0 -10 -10 -10 m-112 0 h10 m24 0 h10 m0 0 h68 m40 44 h10 m0 0 h228 m-258 0 h20 m238 0 h20 m-278 0 q10 0 10 10 m258 0 q0 -10 10 -10 m-268 10 v12 m258 0 v-12 m-258 12 q0 10 10 10 m238 0 q10 0 10 -10 m-248 10 h10 m68 0 h10 m0 0 h10 m38 0 h10 m0 0 h10 m72 0 h10 m23 -32 h-3"/>
   <polygon points="605 61 613 57 613 65"/>
   <polygon points="605 61 597 57 597 65"/>
</svg>
