<?xml version="1.0" encoding="UTF-8"?>
<svg xmlns="http://www.w3.org/2000/svg" width="589" height="301">
   <defs>
      <style type="text/css">
    @namespace "http://www.w3.org/2000/svg";
    .line                 {fill: none; stroke: #332900; stroke-width: 1;}
    .bold-line            {stroke: #141000; shape-rendering: crispEdges; stroke-width: 2;}
    .thin-line            {stroke: #1F1800; shape-rendering: crispEdges}
    .filled               {fill: #332900; stroke: none;}
    text.terminal         {font-family: Verdana, Sans-serif;
                            font-size: 12px;
                            fill: #141000;
                            font-weight: bold;
                          }
    text.nonterminal      {font-family: Verdana, Sans-serif;
                            font-size: 12px;
                            fill: #1A1400;
                            font-weight: normal;
                          }
    text.regexp           {font-family: Verdana, Sans-serif;
                            font-size: 12px;
                            fill: #1F1800;
                            font-weight: normal;
                          }
    rect, circle, polygon {fill: #332900; stroke: #332900;}
    rect.terminal         {fill: #FFDB4D; stroke: #332900; stroke-width: 1;}
    rect.nonterminal      {fill: #FFEC9E; stroke: #332900; stroke-width: 1;}
    rect.text             {fill: none; stroke: none;}
    polygon.regexp        {fill: #FFF4C7; stroke: #332900; stroke-width: 1;}
  </style>
   </defs>
   <polygon points="9 17 1 13 1 21"/>
   <polygon points="17 17 9 13 9 21"/>
   <a xmlns:xlink="http://www.w3.org/1999/xlink"
       xlink:href="#OrdinaryGroupingSet"
       xlink:title="OrdinaryGroupingSet">
      <rect x="51" y="3" width="152" height="32"/>
      <rect x="49" y="1" width="152" height="32" class="nonterminal"/>
      <text class="nonterminal" x="59" y="21">OrdinaryGroupingSet</text>
   </a>
   <rect x="71" y="91" width="94" height="32" rx="10"/>
   <rect x="69"
          y="89"
          width="94"
          height="32"
          class="terminal"
          rx="10"/>
   <text class="terminal" x="79" y="109">GROUPING</text>
   <rect x="185" y="91" width="54" height="32" rx="10"/>
   <rect x="183"
          y="89"
          width="54"
          height="32"
          class="terminal"
          rx="10"/>
   <text class="terminal" x="193" y="109">SETS</text>
   <rect x="259" y="91" width="26" height="32" rx="10"/>
   <rect x="257"
          y="89"
          width="26"
          height="32"
          class="terminal"
          rx="10"/>
   <text class="terminal" x="267" y="109">(</text>
   <a xmlns:xlink="http://www.w3.org/1999/xlink"
       xlink:href="#GroupingElement"
       xlink:title="GroupingElement">
      <rect x="325" y="91" width="130" height="32"/>
      <rect x="323" y="89" width="130" height="32" class="nonterminal"/>
      <text class="nonterminal" x="333" y="109">GroupingElement</text>
   </a>
   <rect x="325" y="47" width="24" height="32" rx="10"/>
   <rect x="323"
          y="45"
          width="24"
          height="32"
          class="terminal"
          rx="10"/>
   <text class="terminal" x="333" y="65">,</text>
   <rect x="91" y="179" width="74" height="32" rx="10"/>
   <rect x="89"
          y="177"
          width="74"
          height="32"
          class="terminal"
          rx="10"/>
   <text class="terminal" x="99" y="197">ROLLUP</text>
   <rect x="91" y="223" width="56" height="32" rx="10"/>
   <rect x="89"
          y="221"
          width="56"
          height="32"
          class="terminal"
          rx="10"/>
   <text class="terminal" x="99" y="241">CUBE</text>
   <rect x="205" y="179" width="26" height="32" rx="10"/>
   <rect x="203"
          y="177"
          width="26"
          height="32"
          class="terminal"
          rx="10"/>
   <text class="terminal" x="213" y="197">(</text>
   <a xmlns:xlink="http://www.w3.org/1999/xlink"
       xlink:href="#OrdinaryGroupingSet"
       xlink:title="OrdinaryGroupingSet">
      <rect x="271" y="179" width="152" height="32"/>
      <rect x="269" y="177" width="152" height="32" class="nonterminal"/>
      <text class="nonterminal" x="279" y="197">OrdinaryGroupingSet</text>
   </a>
   <rect x="271" y="135" width="24" height="32" rx="10"/>
   <rect x="269"
          y="133"
          width="24"
          height="32"
          class="terminal"
          rx="10"/>
   <text class="terminal" x="279" y="153">,</text>
   <rect x="71" y="267" width="26" height="32" rx="10"/>
   <rect x="69"
          y="265"
          width="26"
          height="32"
          class="terminal"
          rx="10"/>
   <text class="terminal" x="79" y="285">(</text>
   <rect x="515" y="91" width="26" height="32" rx="10"/>
   <rect x="513"
          y="89"
          width="26"
          height="32"
          class="terminal"
          rx="10"/>
   <text class="terminal" x="523" y="109">)</text>
   <path class="line"
          d="m17 17 h2 m20 0 h10 m152 0 h10 m0 0 h338 m-530 0 h20 m510 0 h20 m-550 0 q10 0 10 10 m530 0 q0 -10 10 -10 m-540 10 v68 m530 0 v-68 m-530 68 q0 10 10 10 m510 0 q10 0 10 -10 m-500 10 h10 m94 0 h10 m0 0 h10 m54 0 h10 m0 0 h10 m26 0 h10 m20 0 h10 m130 0 h10 m-170 0 l20 0 m-1 0 q-9 0 -9 -10 l0 -24 q0 -10 10 -10 m150 44 l20 0 m-20 0 q10 0 10 -10 l0 -24 q0 -10 -10 -10 m-150 0 h10 m24 0 h10 m0 0 h106 m-424 44 h20 m424 0 h20 m-464 0 q10 0 10 10 m444 0 q0 -10 10 -10 m-454 10 v68 m444 0 v-68 m-444 68 q0 10 10 10 m424 0 q10 0 10 -10 m-414 10 h10 m74 0 h10 m-114 0 h20 m94 0 h20 m-134 0 q10 0 10 10 m114 0 q0 -10 10 -10 m-124 10 v24 m114 0 v-24 m-114 24 q0 10 10 10 m94 0 q10 0 10 -10 m-104 10 h10 m56 0 h10 m0 0 h18 m20 -44 h10 m26 0 h10 m20 0 h10 m152 0 h10 m-192 0 l20 0 m-1 0 q-9 0 -9 -10 l0 -24 q0 -10 10 -10 m172 44 l20 0 m-20 0 q10 0 10 -10 l0 -24 q0 -10 -10 -10 m-172 0 h10 m24 0 h10 m0 0 h128 m20 44 h32 m-434 -10 v20 m444 0 v-20 m-444 20 v68 m444 0 v-68 m-444 68 q0 10 10 10 m424 0 q10 0 10 -10 m-434 10 h10 m26 0 h10 m0 0 h378 m20 -176 h10 m26 0 h10 m23 -88 h-3"/>
   <polygon points="579 17 587 13 587 21"/>
   <polygon points="579 17 571 13 571 21"/>
</svg>
