<?xml version="1.0" encoding="UTF-8"?>
<svg xmlns="http://www.w3.org/2000/svg" width="277" height="37">
   <defs>
      <style type="text/css">
    @namespace "http://www.w3.org/2000/svg";
    .line                 {fill: none; stroke: #332200; stroke-width: 1;}
    .bold-line            {stroke: #140E00; shape-rendering: crispEdges; stroke-width: 2;}
    .thin-line            {stroke: #1F1400; shape-rendering: crispEdges}
    .filled               {fill: #332200; stroke: none;}
    text.terminal         {font-family: Verdana, Sans-serif;
                            font-size: 12px;
                            fill: #140E00;
                            font-weight: bold;
                          }
    text.nonterminal      {font-family: Verdana, Sans-serif;
                            font-size: 12px;
                            fill: #1A1100;
                            font-weight: normal;
                          }
    text.regexp           {font-family: Verdana, Sans-serif;
                            font-size: 12px;
                            fill: #1F1400;
                            font-weight: normal;
                          }
    rect, circle, polygon {fill: #332200; stroke: #332200;}
    rect.terminal         {fill: #FFC34D; stroke: #332200; stroke-width: 1;}
    rect.nonterminal      {fill: #FFDF9E; stroke: #332200; stroke-width: 1;}
    rect.text             {fill: none; stroke: none;}
    polygon.regexp        {fill: #FFECC7; stroke: #332200; stroke-width: 1;}
  </style>
   </defs>
   <polygon points="9 17 1 13 1 21"/>
   <polygon points="17 17 9 13 9 21"/>
   <rect x="31" y="3" width="68" height="32" rx="10"/>
   <rect x="29"
          y="1"
          width="68"
          height="32"
          class="terminal"
          rx="10"/>
   <text class="terminal" x="39" y="21">GROUP</text>
   <rect x="119" y="3" width="38" height="32" rx="10"/>
   <rect x="117"
          y="1"
          width="38"
          height="32"
          class="terminal"
          rx="10"/>
   <text class="terminal" x="127" y="21">AS</text>
   <a xmlns:xlink="http://www.w3.org/1999/xlink"
       xlink:href="#Variable"
       xlink:title="Variable">
      <rect x="177" y="3" width="72" height="32"/>
      <rect x="175" y="1" width="72" height="32" class="nonterminal"/>
      <text class="nonterminal" x="185" y="21">Variable</text>
   </a>
   <path class="line"
          d="m17 17 h2 m0 0 h10 m68 0 h10 m0 0 h10 m38 0 h10 m0 0 h10 m72 0 h10 m3 0 h-3"/>
   <polygon points="267 17 275 13 275 21"/>
   <polygon points="267 17 259 13 259 21"/>
</svg>
