<svg xmlns="http://www.w3.org/2000/svg" width="643" height="167">         <defs>            <style type="text/css">    @namespace "http://www.w3.org/2000/svg";    .line                 {fill: none; stroke: #333300; stroke-width: 1;}    .bold-line            {stroke: #141400; shape-rendering: crispEdges; stroke-width: 2;}    .thin-line            {stroke: #1F1F00; shape-rendering: crispEdges}    .filled               {fill: #333300; stroke: none;}    text.terminal         {font-family: Verdana, Sans-serif;                            font-size: 12px;                            fill: #141400;                            font-weight: bold;                          }    text.nonterminal      {font-family: Verdana, Sans-serif;                            font-size: 12px;                            fill: #1A1A00;                            font-weight: normal;                          }    text.regexp           {font-family: Verdana, Sans-serif;                            font-size: 12px;                            fill: #1F1F00;                            font-weight: normal;                          }    rect, circle, polygon {fill: #333300; stroke: #333300;}    rect.terminal         {fill: #FFFF4D; stroke: #333300; stroke-width: 1;}    rect.nonterminal      {fill: #FFFF9E; stroke: #333300; stroke-width: 1;}    rect.text             {fill: none; stroke: none;}    polygon.regexp        {fill: #FFFFC7; stroke: #333300; stroke-width: 1;}  </style>         </defs>         <polygon points="9 17 1 13 1 21"/>         <polygon points="17 17 9 13 9 21"/>         <rect x="51" y="3" width="70" height="32" rx="10"/>         <rect x="49" y="1" width="70" height="32" class="terminal" rx="10"/>         <text class="terminal" x="59" y="21">INSERT</text>         <rect x="51" y="47" width="74" height="32" rx="10"/>         <rect x="49" y="45" width="74" height="32" class="terminal" rx="10"/>         <text class="terminal" x="59" y="65">UPSERT</text>         <rect x="165" y="3" width="56" height="32" rx="10"/>         <rect x="163" y="1" width="56" height="32" class="terminal" rx="10"/>         <text class="terminal" x="173" y="21">INTO</text><a xmlns:xlink="http://www.w3.org/1999/xlink" xlink:href="#QualifiedName" xlink:title="QualifiedName">            <rect x="241" y="3" width="112" height="32"/>            <rect x="239" y="1" width="112" height="32" class="nonterminal"/>            <text class="nonterminal" x="249" y="21">QualifiedName</text></a><rect x="393" y="35" width="38" height="32" rx="10"/>         <rect x="391" y="33" width="38" height="32" class="terminal" rx="10"/>         <text class="terminal" x="401" y="53">AS</text><a xmlns:xlink="http://www.w3.org/1999/xlink" xlink:href="#Variable" xlink:title="Variable">            <rect x="451" y="35" width="72" height="32"/>            <rect x="449" y="33" width="72" height="32" class="nonterminal"/>            <text class="nonterminal" x="459" y="53">Variable</text></a><a xmlns:xlink="http://www.w3.org/1999/xlink" xlink:href="#Query" xlink:title="Query">            <rect x="563" y="3" width="58" height="32"/>            <rect x="561" y="1" width="58" height="32" class="nonterminal"/>            <text class="nonterminal" x="571" y="21">Query</text></a><rect x="427" y="133" width="100" height="32" rx="10"/>         <rect x="425" y="131" width="100" height="32" class="terminal" rx="10"/>         <text class="terminal" x="435" y="151">RETURNING</text><a xmlns:xlink="http://www.w3.org/1999/xlink" xlink:href="#Expr" xlink:title="Expr">            <rect x="547" y="133" width="48" height="32"/>            <rect x="545" y="131" width="48" height="32" class="nonterminal"/>            <text class="nonterminal" x="555" y="151">Expr</text></a><svg:path xmlns:svg="http://www.w3.org/2000/svg" class="line" d="m17 17 h2 m20 0 h10 m70 0 h10 m0 0 h4 m-114 0 h20 m94 0 h20 m-134 0 q10 0 10 10 m114 0 q0 -10 10 -10 m-124 10 v24 m114 0 v-24 m-114 24 q0 10 10 10 m94 0 q10 0 10 -10 m-104 10 h10 m74 0 h10 m20 -44 h10 m56 0 h10 m0 0 h10 m112 0 h10 m20 0 h10 m0 0 h140 m-170 0 h20 m150 0 h20 m-190 0 q10 0 10 10 m170 0 q0 -10 10 -10 m-180 10 v12 m170 0 v-12 m-170 12 q0 10 10 10 m150 0 q10 0 10 -10 m-160 10 h10 m38 0 h10 m0 0 h10 m72 0 h10 m20 -32 h10 m58 0 h10 m2 0 l2 0 m2 0 l2 0 m2 0 l2 0 m-258 98 l2 0 m2 0 l2 0 m2 0 l2 0 m22 0 h10 m0 0 h178 m-208 0 h20 m188 0 h20 m-228 0 q10 0 10 10 m208 0 q0 -10 10 -10 m-218 10 v12 m208 0 v-12 m-208 12 q0 10 10 10 m188 0 q10 0 10 -10 m-198 10 h10 m100 0 h10 m0 0 h10 m48 0 h10 m23 -32 h-3"/>         <polygon points="633 115 641 111 641 119"/>         <polygon points="633 115 625 111 625 119"/></svg>