<svg xmlns="http://www.w3.org/2000/svg" width="603" height="157">         <defs>            <style type="text/css">    @namespace "http://www.w3.org/2000/svg";    .line                 {fill: none; stroke: #332900; stroke-width: 1;}    .bold-line            {stroke: #141000; shape-rendering: crispEdges; stroke-width: 2;}    .thin-line            {stroke: #1F1800; shape-rendering: crispEdges}    .filled               {fill: #332900; stroke: none;}    text.terminal         {font-family: Verdana, Sans-serif;                            font-size: 12px;                            fill: #141000;                            font-weight: bold;                          }    text.nonterminal      {font-family: Verdana, Sans-serif;                            font-size: 12px;                            fill: #1A1400;                            font-weight: normal;                          }    text.regexp           {font-family: Verdana, Sans-serif;                            font-size: 12px;                            fill: #1F1800;                            font-weight: normal;                          }    rect, circle, polygon {fill: #332900; stroke: #332900;}    rect.terminal         {fill: #FFDB4D; stroke: #332900; stroke-width: 1;}    rect.nonterminal      {fill: #FFEC9E; stroke: #332900; stroke-width: 1;}    rect.text             {fill: none; stroke: none;}    polygon.regexp        {fill: #FFF4C7; stroke: #332900; stroke-width: 1;}  </style>         </defs>         <polygon points="9 17 1 13 1 21"/>         <polygon points="17 17 9 13 9 21"/>         <rect x="51" y="35" width="64" height="32" rx="10"/>         <rect x="49" y="33" width="64" height="32" class="terminal" rx="10"/>         <text class="terminal" x="59" y="53">INNER</text>         <rect x="71" y="79" width="52" height="32" rx="10"/>         <rect x="69" y="77" width="52" height="32" class="terminal" rx="10"/>         <text class="terminal" x="79" y="97">LEFT</text>         <rect x="71" y="123" width="64" height="32" rx="10"/>         <rect x="69" y="121" width="64" height="32" class="terminal" rx="10"/>         <text class="terminal" x="79" y="141">RIGHT</text>         <rect x="175" y="79" width="66" height="32" rx="10"/>         <rect x="173" y="77" width="66" height="32" class="terminal" rx="10"/>         <text class="terminal" x="183" y="97">OUTER</text>         <rect x="281" y="3" width="54" height="32" rx="10"/>         <rect x="279" y="1" width="54" height="32" class="terminal" rx="10"/>         <text class="terminal" x="289" y="21">JOIN</text><a xmlns:xlink="http://www.w3.org/1999/xlink" xlink:href="#NamedExpr" xlink:title="NamedExpr">            <rect x="355" y="3" width="92" height="32"/>            <rect x="353" y="1" width="92" height="32" class="nonterminal"/>            <text class="nonterminal" x="363" y="21">NamedExpr</text></a><rect x="467" y="3" width="40" height="32" rx="10"/>         <rect x="465" y="1" width="40" height="32" class="terminal" rx="10"/>         <text class="terminal" x="475" y="21">ON</text><a xmlns:xlink="http://www.w3.org/1999/xlink" xlink:href="#Expr" xlink:title="Expr">            <rect x="527" y="3" width="48" height="32"/>            <rect x="525" y="1" width="48" height="32" class="nonterminal"/>            <text class="nonterminal" x="535" y="21">Expr</text></a><svg:path xmlns:svg="http://www.w3.org/2000/svg" class="line" d="m17 17 h2 m20 0 h10 m0 0 h200 m-230 0 h20 m210 0 h20 m-250 0 q10 0 10 10 m230 0 q0 -10 10 -10 m-240 10 v12 m230 0 v-12 m-230 12 q0 10 10 10 m210 0 q10 0 10 -10 m-220 10 h10 m64 0 h10 m0 0 h126 m-220 -10 v20 m230 0 v-20 m-230 20 v24 m230 0 v-24 m-230 24 q0 10 10 10 m210 0 q10 0 10 -10 m-200 10 h10 m52 0 h10 m0 0 h12 m-104 0 h20 m84 0 h20 m-124 0 q10 0 10 10 m104 0 q0 -10 10 -10 m-114 10 v24 m104 0 v-24 m-104 24 q0 10 10 10 m84 0 q10 0 10 -10 m-94 10 h10 m64 0 h10 m20 -44 h10 m66 0 h10 m20 -76 h10 m54 0 h10 m0 0 h10 m92 0 h10 m0 0 h10 m40 0 h10 m0 0 h10 m48 0 h10 m3 0 h-3"/>         <polygon points="593 17 601 13 601 21"/>         <polygon points="593 17 585 13 585 21"/></svg>