<svg xmlns="http://www.w3.org/2000/svg" width="291" height="71">         <defs>            <style type="text/css">    @namespace "http://www.w3.org/2000/svg";    .line                 {fill: none; stroke: #333300; stroke-width: 1;}    .bold-line            {stroke: #141400; shape-rendering: crispEdges; stroke-width: 2;}    .thin-line            {stroke: #1F1F00; shape-rendering: crispEdges}    .filled               {fill: #333300; stroke: none;}    text.terminal         {font-family: Verdana, Sans-serif;                            font-size: 12px;                            fill: #141400;                            font-weight: bold;                          }    text.nonterminal      {font-family: Verdana, Sans-serif;                            font-size: 12px;                            fill: #1A1A00;                            font-weight: normal;                          }    text.regexp           {font-family: Verdana, Sans-serif;                            font-size: 12px;                            fill: #1F1F00;                            font-weight: normal;                          }    rect, circle, polygon {fill: #333300; stroke: #333300;}    rect.terminal         {fill: #FFFF4D; stroke: #333300; stroke-width: 1;}    rect.nonterminal      {fill: #FFFF9E; stroke: #333300; stroke-width: 1;}    rect.text             {fill: none; stroke: none;}    polygon.regexp        {fill: #FFFFC7; stroke: #333300; stroke-width: 1;}  </style>         </defs>         <polygon points="9 51 1 47 1 55"/>         <polygon points="17 51 9 47 9 55"/><a xmlns:xlink="http://www.w3.org/1999/xlink" xlink:href="#MatchExpr" xlink:title="MatchExpr">            <rect x="31" y="37" width="86" height="32"/>            <rect x="29" y="35" width="86" height="32" class="nonterminal"/>            <text class="nonterminal" x="39" y="55">MatchExpr</text></a><a xmlns:xlink="http://www.w3.org/1999/xlink" xlink:href="#MatchStep" xlink:title="MatchStep">            <rect x="157" y="3" width="86" height="32"/>            <rect x="155" y="1" width="86" height="32" class="nonterminal"/>            <text class="nonterminal" x="165" y="21">MatchStep</text></a><svg:path xmlns:svg="http://www.w3.org/2000/svg" class="line" d="m17 51 h2 m0 0 h10 m86 0 h10 m20 0 h10 m0 0 h96 m-126 0 l20 0 m-1 0 q-9 0 -9 -10 l0 -14 q0 -10 10 -10 m106 34 l20 0 m-20 0 q10 0 10 -10 l0 -14 q0 -10 -10 -10 m-106 0 h10 m86 0 h10 m23 34 h-3"/>         <polygon points="281 51 289 47 289 55"/>         <polygon points="281 51 273 47 273 55"/></svg>