<svg xmlns="http://www.w3.org/2000/svg" width="511" height="145">         <defs>            <style type="text/css">    @namespace "http://www.w3.org/2000/svg";    .line                 {fill: none; stroke: #333300; stroke-width: 1;}    .bold-line            {stroke: #141400; shape-rendering: crispEdges; stroke-width: 2;}    .thin-line            {stroke: #1F1F00; shape-rendering: crispEdges}    .filled               {fill: #333300; stroke: none;}    text.terminal         {font-family: Verdana, Sans-serif;                            font-size: 12px;                            fill: #141400;                            font-weight: bold;                          }    text.nonterminal      {font-family: Verdana, Sans-serif;                            font-size: 12px;                            fill: #1A1A00;                            font-weight: normal;                          }    text.regexp           {font-family: Verdana, Sans-serif;                            font-size: 12px;                            fill: #1F1F00;                            font-weight: normal;                          }    rect, circle, polygon {fill: #333300; stroke: #333300;}    rect.terminal         {fill: #FFFF4D; stroke: #333300; stroke-width: 1;}    rect.nonterminal      {fill: #FFFF9E; stroke: #333300; stroke-width: 1;}    rect.text             {fill: none; stroke: none;}    polygon.regexp        {fill: #FFFFC7; stroke: #333300; stroke-width: 1;}  </style>         </defs>         <polygon points="9 61 1 57 1 65"/>         <polygon points="17 61 9 57 9 65"/>         <rect x="31" y="47" width="68" height="32" rx="10"/>         <rect x="29" y="45" width="68" height="32" class="terminal" rx="10"/>         <text class="terminal" x="39" y="65">MATCH</text><a xmlns:xlink="http://www.w3.org/1999/xlink" xlink:href="#PatternExpr" xlink:title="PatternExpr">            <rect x="139" y="47" width="94" height="32"/>            <rect x="137" y="45" width="94" height="32" class="nonterminal"/>            <text class="nonterminal" x="147" y="65">PatternExpr</text></a><rect x="293" y="111" width="38" height="32" rx="10"/>         <rect x="291" y="109" width="38" height="32" class="terminal" rx="10"/>         <text class="terminal" x="301" y="129">AS</text><a xmlns:xlink="http://www.w3.org/1999/xlink" xlink:href="#Variable" xlink:title="Variable">            <rect x="371" y="79" width="72" height="32"/>            <rect x="369" y="77" width="72" height="32" class="nonterminal"/>            <text class="nonterminal" x="379" y="97">Variable</text></a><rect x="139" y="3" width="24" height="32" rx="10"/>         <rect x="137" y="1" width="24" height="32" class="terminal" rx="10"/>         <text class="terminal" x="147" y="21">,</text>         <svg:path xmlns:svg="http://www.w3.org/2000/svg" class="line" d="m17 61 h2 m0 0 h10 m68 0 h10 m20 0 h10 m94 0 h10 m20 0 h10 m0 0 h180 m-210 0 h20 m190 0 h20 m-230 0 q10 0 10 10 m210 0 q0 -10 10 -10 m-220 10 v12 m210 0 v-12 m-210 12 q0 10 10 10 m190 0 q10 0 10 -10 m-180 10 h10 m0 0 h48 m-78 0 h20 m58 0 h20 m-98 0 q10 0 10 10 m78 0 q0 -10 10 -10 m-88 10 v12 m78 0 v-12 m-78 12 q0 10 10 10 m58 0 q10 0 10 -10 m-68 10 h10 m38 0 h10 m20 -32 h10 m72 0 h10 m-344 -32 l20 0 m-1 0 q-9 0 -9 -10 l0 -24 q0 -10 10 -10 m344 44 l20 0 m-20 0 q10 0 10 -10 l0 -24 q0 -10 -10 -10 m-344 0 h10 m24 0 h10 m0 0 h300 m23 44 h-3"/>         <polygon points="501 61 509 57 509 65"/>         <polygon points="501 61 493 57 493 65"/></svg>