<svg xmlns="http://www.w3.org/2000/svg" width="343" height="69">         <defs>            <style type="text/css">    @namespace "http://www.w3.org/2000/svg";    .line                 {fill: none; stroke: #333300; stroke-width: 1;}    .bold-line            {stroke: #141400; shape-rendering: crispEdges; stroke-width: 2;}    .thin-line            {stroke: #1F1F00; shape-rendering: crispEdges}    .filled               {fill: #333300; stroke: none;}    text.terminal         {font-family: Verdana, Sans-serif;                            font-size: 12px;                            fill: #141400;                            font-weight: bold;                          }    text.nonterminal      {font-family: Verdana, Sans-serif;                            font-size: 12px;                            fill: #1A1A00;                            font-weight: normal;                          }    text.regexp           {font-family: Verdana, Sans-serif;                            font-size: 12px;                            fill: #1F1F00;                            font-weight: normal;                          }    rect, circle, polygon {fill: #333300; stroke: #333300;}    rect.terminal         {fill: #FFFF4D; stroke: #333300; stroke-width: 1;}    rect.nonterminal      {fill: #FFFF9E; stroke: #333300; stroke-width: 1;}    rect.text             {fill: none; stroke: none;}    polygon.regexp        {fill: #FFFFC7; stroke: #333300; stroke-width: 1;}  </style>         </defs>         <polygon points="9 17 1 13 1 21"/>         <polygon points="17 17 9 13 9 21"/>         <rect x="31" y="3" width="52" height="32" rx="10"/>         <rect x="29" y="1" width="52" height="32" class="terminal" rx="10"/>         <text class="terminal" x="39" y="21">LEFT</text>         <rect x="123" y="35" width="66" height="32" rx="10"/>         <rect x="121" y="33" width="66" height="32" class="terminal" rx="10"/>         <text class="terminal" x="131" y="53">OUTER</text><a xmlns:xlink="http://www.w3.org/1999/xlink" xlink:href="#MatchExpr" xlink:title="MatchExpr">            <rect x="229" y="3" width="86" height="32"/>            <rect x="227" y="1" width="86" height="32" class="nonterminal"/>            <text class="nonterminal" x="237" y="21">MatchExpr</text></a><svg:path xmlns:svg="http://www.w3.org/2000/svg" class="line" d="m17 17 h2 m0 0 h10 m52 0 h10 m20 0 h10 m0 0 h76 m-106 0 h20 m86 0 h20 m-126 0 q10 0 10 10 m106 0 q0 -10 10 -10 m-116 10 v12 m106 0 v-12 m-106 12 q0 10 10 10 m86 0 q10 0 10 -10 m-96 10 h10 m66 0 h10 m20 -32 h10 m86 0 h10 m3 0 h-3"/>         <polygon points="333 17 341 13 341 21"/>         <polygon points="333 17 325 13 325 21"/></svg>