<svg xmlns="http://www.w3.org/2000/svg" width="323" height="125">         <defs>            <style type="text/css">    @namespace "http://www.w3.org/2000/svg";    .line                 {fill: none; stroke: #333300; stroke-width: 1;}    .bold-line            {stroke: #141400; shape-rendering: crispEdges; stroke-width: 2;}    .thin-line            {stroke: #1F1F00; shape-rendering: crispEdges}    .filled               {fill: #333300; stroke: none;}    text.terminal         {font-family: Verdana, Sans-serif;                            font-size: 12px;                            fill: #141400;                            font-weight: bold;                          }    text.nonterminal      {font-family: Verdana, Sans-serif;                            font-size: 12px;                            fill: #1A1A00;                            font-weight: normal;                          }    text.regexp           {font-family: Verdana, Sans-serif;                            font-size: 12px;                            fill: #1F1F00;                            font-weight: normal;                          }    rect, circle, polygon {fill: #333300; stroke: #333300;}    rect.terminal         {fill: #FFFF4D; stroke: #333300; stroke-width: 1;}    rect.nonterminal      {fill: #FFFF9E; stroke: #333300; stroke-width: 1;}    rect.text             {fill: none; stroke: none;}    polygon.regexp        {fill: #FFFFC7; stroke: #333300; stroke-width: 1;}  </style>         </defs>         <polygon points="9 17 1 13 1 21"/>         <polygon points="17 17 9 13 9 21"/><a xmlns:xlink="http://www.w3.org/1999/xlink" xlink:href="#NamedExpr" xlink:title="NamedExpr">            <rect x="51" y="3" width="92" height="32"/>            <rect x="49" y="1" width="92" height="32" class="nonterminal"/>            <text class="nonterminal" x="59" y="21">NamedExpr</text></a><rect x="51" y="91" width="26" height="32" rx="10"/>         <rect x="49" y="89" width="26" height="32" class="terminal" rx="10"/>         <text class="terminal" x="59" y="109">(</text><a xmlns:xlink="http://www.w3.org/1999/xlink" xlink:href="#NamedExpr" xlink:title="NamedExpr">            <rect x="117" y="91" width="92" height="32"/>            <rect x="115" y="89" width="92" height="32" class="nonterminal"/>            <text class="nonterminal" x="125" y="109">NamedExpr</text></a><rect x="117" y="47" width="24" height="32" rx="10"/>         <rect x="115" y="45" width="24" height="32" class="terminal" rx="10"/>         <text class="terminal" x="125" y="65">,</text>         <rect x="249" y="91" width="26" height="32" rx="10"/>         <rect x="247" y="89" width="26" height="32" class="terminal" rx="10"/>         <text class="terminal" x="257" y="109">)</text>         <svg:path xmlns:svg="http://www.w3.org/2000/svg" class="line" d="m17 17 h2 m20 0 h10 m92 0 h10 m0 0 h132 m-264 0 h20 m244 0 h20 m-284 0 q10 0 10 10 m264 0 q0 -10 10 -10 m-274 10 v68 m264 0 v-68 m-264 68 q0 10 10 10 m244 0 q10 0 10 -10 m-254 10 h10 m26 0 h10 m20 0 h10 m92 0 h10 m-132 0 l20 0 m-1 0 q-9 0 -9 -10 l0 -24 q0 -10 10 -10 m112 44 l20 0 m-20 0 q10 0 10 -10 l0 -24 q0 -10 -10 -10 m-112 0 h10 m24 0 h10 m0 0 h68 m20 44 h10 m26 0 h10 m23 -88 h-3"/>         <polygon points="313 17 321 13 321 21"/>         <polygon points="313 17 305 13 305 21"/></svg>