<svg xmlns="http://www.w3.org/2000/svg" width="441" height="125">         <defs>            <style type="text/css">    @namespace "http://www.w3.org/2000/svg";    .line                 {fill: none; stroke: #332900; stroke-width: 1;}    .bold-line            {stroke: #141000; shape-rendering: crispEdges; stroke-width: 2;}    .thin-line            {stroke: #1F1800; shape-rendering: crispEdges}    .filled               {fill: #332900; stroke: none;}    text.terminal         {font-family: Verdana, Sans-serif;                            font-size: 12px;                            fill: #141000;                            font-weight: bold;                          }    text.nonterminal      {font-family: Verdana, Sans-serif;                            font-size: 12px;                            fill: #1A1400;                            font-weight: normal;                          }    text.regexp           {font-family: Verdana, Sans-serif;                            font-size: 12px;                            fill: #1F1800;                            font-weight: normal;                          }    rect, circle, polygon {fill: #332900; stroke: #332900;}    rect.terminal         {fill: #FFDB4D; stroke: #332900; stroke-width: 1;}    rect.nonterminal      {fill: #FFEC9E; stroke: #332900; stroke-width: 1;}    rect.text             {fill: none; stroke: none;}    polygon.regexp        {fill: #FFF4C7; stroke: #332900; stroke-width: 1;}  </style>         </defs>         <polygon points="9 17 1 13 1 21"/>         <polygon points="17 17 9 13 9 21"/>         <rect x="31" y="3" width="24" height="32" rx="10"/>         <rect x="29" y="1" width="24" height="32" class="terminal" rx="10"/>         <text class="terminal" x="39" y="21">:</text><a xmlns:xlink="http://www.w3.org/1999/xlink" xlink:href="#LabelName" xlink:title="LabelName">            <rect x="95" y="3" width="90" height="32"/>            <rect x="93" y="1" width="90" height="32" class="nonterminal"/>            <text class="nonterminal" x="103" y="21">LabelName</text></a><rect x="95" y="91" width="26" height="32" rx="10"/>         <rect x="93" y="89" width="26" height="32" class="terminal" rx="10"/>         <text class="terminal" x="103" y="109">(</text><a xmlns:xlink="http://www.w3.org/1999/xlink" xlink:href="#ParenthesizedLabelSet" xlink:title="ParenthesizedLabelSet">            <rect x="161" y="91" width="166" height="32"/>            <rect x="159" y="89" width="166" height="32" class="nonterminal"/>            <text class="nonterminal" x="169" y="109">ParenthesizedLabelSet</text></a><rect x="161" y="47" width="26" height="32" rx="10"/>         <rect x="159" y="45" width="26" height="32" class="terminal" rx="10"/>         <text class="terminal" x="169" y="65">|</text>         <rect x="367" y="91" width="26" height="32" rx="10"/>         <rect x="365" y="89" width="26" height="32" class="terminal" rx="10"/>         <text class="terminal" x="375" y="109">)</text>         <svg:path xmlns:svg="http://www.w3.org/2000/svg" class="line" d="m17 17 h2 m0 0 h10 m24 0 h10 m20 0 h10 m90 0 h10 m0 0 h208 m-338 0 h20 m318 0 h20 m-358 0 q10 0 10 10 m338 0 q0 -10 10 -10 m-348 10 v68 m338 0 v-68 m-338 68 q0 10 10 10 m318 0 q10 0 10 -10 m-328 10 h10 m26 0 h10 m20 0 h10 m166 0 h10 m-206 0 l20 0 m-1 0 q-9 0 -9 -10 l0 -24 q0 -10 10 -10 m186 44 l20 0 m-20 0 q10 0 10 -10 l0 -24 q0 -10 -10 -10 m-186 0 h10 m26 0 h10 m0 0 h140 m20 44 h10 m26 0 h10 m23 -88 h-3"/>         <polygon points="431 17 439 13 439 21"/>         <polygon points="431 17 423 13 423 21"/></svg>