<?xml version="1.0" encoding="UTF-8"?>
<svg xmlns="http://www.w3.org/2000/svg" width="803" height="89">
   <defs>
      <style type="text/css">
    @namespace "http://www.w3.org/2000/svg";
    .line                 {fill: none; stroke: #332200; stroke-width: 1;}
    .bold-line            {stroke: #140E00; shape-rendering: crispEdges; stroke-width: 2;}
    .thin-line            {stroke: #1F1400; shape-rendering: crispEdges}
    .filled               {fill: #332200; stroke: none;}
    text.terminal         {font-family: Verdana, Sans-serif;
                            font-size: 12px;
                            fill: #140E00;
                            font-weight: bold;
                          }
    text.nonterminal      {font-family: Verdana, Sans-serif;
                            font-size: 12px;
                            fill: #1A1100;
                            font-weight: normal;
                          }
    text.regexp           {font-family: Verdana, Sans-serif;
                            font-size: 12px;
                            fill: #1F1400;
                            font-weight: normal;
                          }
    rect, circle, polygon {fill: #332200; stroke: #332200;}
    rect.terminal         {fill: #FFC34D; stroke: #332200; stroke-width: 1;}
    rect.nonterminal      {fill: #FFDF9E; stroke: #332200; stroke-width: 1;}
    rect.text             {fill: none; stroke: none;}
    polygon.regexp        {fill: #FFECC7; stroke: #332200; stroke-width: 1;}
  </style>
   </defs>
   <polygon points="9 5 1 1 1 9"/>
   <polygon points="17 5 9 1 9 9"/>
   <a xmlns:xlink="http://www.w3.org/1999/xlink"
       xlink:href="#Variable"
       xlink:title="Variable">
      <rect x="51" y="23" width="72" height="32"/>
      <rect x="49" y="21" width="72" height="32" class="nonterminal"/>
      <text class="nonterminal" x="59" y="41">Variable</text>
   </a>
   <rect x="183" y="23" width="24" height="32" rx="10"/>
   <rect x="181"
          y="21"
          width="24"
          height="32"
          class="terminal"
          rx="10"/>
   <text class="terminal" x="191" y="41">:</text>
   <rect x="247" y="55" width="30" height="32" rx="10"/>
   <rect x="245"
          y="53"
          width="30"
          height="32"
          class="terminal"
          rx="10"/>
   <text class="terminal" x="255" y="73">^</text>
   <a xmlns:xlink="http://www.w3.org/1999/xlink"
       xlink:href="#LabelSet"
       xlink:title="LabelSet">
      <rect x="317" y="23" width="74" height="32"/>
      <rect x="315" y="21" width="74" height="32" class="nonterminal"/>
      <text class="nonterminal" x="325" y="41">LabelSet</text>
   </a>
   <a xmlns:xlink="http://www.w3.org/1999/xlink"
       xlink:href="#RepetitionQuantifier"
       xlink:title="RepetitionQuantifier">
      <rect x="411" y="23" width="146" height="32"/>
      <rect x="409" y="21" width="146" height="32" class="nonterminal"/>
      <text class="nonterminal" x="419" y="41">RepetitionQuantifier</text>
   </a>
   <rect x="617" y="23" width="70" height="32" rx="10"/>
   <rect x="615"
          y="21"
          width="70"
          height="32"
          class="terminal"
          rx="10"/>
   <text class="terminal" x="625" y="41">WHERE</text>
   <a xmlns:xlink="http://www.w3.org/1999/xlink"
       xlink:href="#Expr"
       xlink:title="Expr">
      <rect x="707" y="23" width="48" height="32"/>
      <rect x="705" y="21" width="48" height="32" class="nonterminal"/>
      <text class="nonterminal" x="715" y="41">Expr</text>
   </a>
   <path class="line"
          d="m17 5 h2 m20 0 h10 m0 0 h82 m-112 0 h20 m92 0 h20 m-132 0 q10 0 10 10 m112 0 q0 -10 10 -10 m-122 10 v12 m112 0 v-12 m-112 12 q0 10 10 10 m92 0 q10 0 10 -10 m-102 10 h10 m72 0 h10 m40 -32 h10 m0 0 h384 m-414 0 h20 m394 0 h20 m-434 0 q10 0 10 10 m414 0 q0 -10 10 -10 m-424 10 v12 m414 0 v-12 m-414 12 q0 10 10 10 m394 0 q10 0 10 -10 m-404 10 h10 m24 0 h10 m20 0 h10 m0 0 h40 m-70 0 h20 m50 0 h20 m-90 0 q10 0 10 10 m70 0 q0 -10 10 -10 m-80 10 v12 m70 0 v-12 m-70 12 q0 10 10 10 m50 0 q10 0 10 -10 m-60 10 h10 m30 0 h10 m20 -32 h10 m74 0 h10 m0 0 h10 m146 0 h10 m40 -32 h10 m0 0 h148 m-178 0 h20 m158 0 h20 m-198 0 q10 0 10 10 m178 0 q0 -10 10 -10 m-188 10 v12 m178 0 v-12 m-178 12 q0 10 10 10 m158 0 q10 0 10 -10 m-168 10 h10 m70 0 h10 m0 0 h10 m48 0 h10 m23 -32 h-3"/>
   <polygon points="793 5 801 1 801 9"/>
   <polygon points="793 5 785 1 785 9"/>
</svg>
