<?xml version="1.0" encoding="UTF-8"?>
<svg xmlns="http://www.w3.org/2000/svg" width="459" height="113">
   <defs>
      <style type="text/css">
    @namespace "http://www.w3.org/2000/svg";
    .line                 {fill: none; stroke: #332200; stroke-width: 1;}
    .bold-line            {stroke: #140E00; shape-rendering: crispEdges; stroke-width: 2;}
    .thin-line            {stroke: #1F1400; shape-rendering: crispEdges}
    .filled               {fill: #332200; stroke: none;}
    text.terminal         {font-family: Verdana, Sans-serif;
                            font-size: 12px;
                            fill: #140E00;
                            font-weight: bold;
                          }
    text.nonterminal      {font-family: Verdana, Sans-serif;
                            font-size: 12px;
                            fill: #1A1100;
                            font-weight: normal;
                          }
    text.regexp           {font-family: Verdana, Sans-serif;
                            font-size: 12px;
                            fill: #1F1400;
                            font-weight: normal;
                          }
    rect, circle, polygon {fill: #332200; stroke: #332200;}
    rect.terminal         {fill: #FFC34D; stroke: #332200; stroke-width: 1;}
    rect.nonterminal      {fill: #FFDF9E; stroke: #332200; stroke-width: 1;}
    rect.text             {fill: none; stroke: none;}
    polygon.regexp        {fill: #FFECC7; stroke: #332200; stroke-width: 1;}
  </style>
   </defs>
   <polygon points="9 17 1 13 1 21"/>
   <polygon points="17 17 9 13 9 21"/>
   <rect x="51" y="3" width="26" height="32" rx="10"/>
   <rect x="49"
          y="1"
          width="26"
          height="32"
          class="terminal"
          rx="10"/>
   <text class="terminal" x="59" y="21">-</text>
   <rect x="97" y="3" width="26" height="32" rx="10"/>
   <rect x="95"
          y="1"
          width="26"
          height="32"
          class="terminal"
          rx="10"/>
   <text class="terminal" x="105" y="21">[</text>
   <a xmlns:xlink="http://www.w3.org/1999/xlink"
       xlink:href="#PathDetail"
       xlink:title="PathDetail">
      <rect x="143" y="3" width="86" height="32"/>
      <rect x="141" y="1" width="86" height="32" class="nonterminal"/>
      <text class="nonterminal" x="151" y="21">PathDetail</text>
   </a>
   <rect x="249" y="3" width="26" height="32" rx="10"/>
   <rect x="247"
          y="1"
          width="26"
          height="32"
          class="terminal"
          rx="10"/>
   <text class="terminal" x="257" y="21">]</text>
   <rect x="295" y="3" width="26" height="32" rx="10"/>
   <rect x="293"
          y="1"
          width="26"
          height="32"
          class="terminal"
          rx="10"/>
   <text class="terminal" x="303" y="21">-</text>
   <rect x="361" y="35" width="30" height="32" rx="10"/>
   <rect x="359"
          y="33"
          width="30"
          height="32"
          class="terminal"
          rx="10"/>
   <text class="terminal" x="369" y="53">&gt;</text>
   <rect x="51" y="79" width="30" height="32" rx="10"/>
   <rect x="49"
          y="77"
          width="30"
          height="32"
          class="terminal"
          rx="10"/>
   <text class="terminal" x="59" y="97">&lt;</text>
   <rect x="101" y="79" width="26" height="32" rx="10"/>
   <rect x="99"
          y="77"
          width="26"
          height="32"
          class="terminal"
          rx="10"/>
   <text class="terminal" x="109" y="97">-</text>
   <rect x="147" y="79" width="26" height="32" rx="10"/>
   <rect x="145"
          y="77"
          width="26"
          height="32"
          class="terminal"
          rx="10"/>
   <text class="terminal" x="155" y="97">[</text>
   <a xmlns:xlink="http://www.w3.org/1999/xlink"
       xlink:href="#PathDetail"
       xlink:title="PathDetail">
      <rect x="193" y="79" width="86" height="32"/>
      <rect x="191" y="77" width="86" height="32" class="nonterminal"/>
      <text class="nonterminal" x="201" y="97">PathDetail</text>
   </a>
   <rect x="299" y="79" width="26" height="32" rx="10"/>
   <rect x="297"
          y="77"
          width="26"
          height="32"
          class="terminal"
          rx="10"/>
   <text class="terminal" x="307" y="97">]</text>
   <rect x="345" y="79" width="26" height="32" rx="10"/>
   <rect x="343"
          y="77"
          width="26"
          height="32"
          class="terminal"
          rx="10"/>
   <text class="terminal" x="353" y="97">-</text>
   <path class="line"
          d="m17 17 h2 m20 0 h10 m26 0 h10 m0 0 h10 m26 0 h10 m0 0 h10 m86 0 h10 m0 0 h10 m26 0 h10 m0 0 h10 m26 0 h10 m20 0 h10 m0 0 h40 m-70 0 h20 m50 0 h20 m-90 0 q10 0 10 10 m70 0 q0 -10 10 -10 m-80 10 v12 m70 0 v-12 m-70 12 q0 10 10 10 m50 0 q10 0 10 -10 m-60 10 h10 m30 0 h10 m-380 -32 h20 m380 0 h20 m-420 0 q10 0 10 10 m400 0 q0 -10 10 -10 m-410 10 v56 m400 0 v-56 m-400 56 q0 10 10 10 m380 0 q10 0 10 -10 m-390 10 h10 m30 0 h10 m0 0 h10 m26 0 h10 m0 0 h10 m26 0 h10 m0 0 h10 m86 0 h10 m0 0 h10 m26 0 h10 m0 0 h10 m26 0 h10 m0 0 h40 m23 -76 h-3"/>
   <polygon points="449 17 457 13 457 21"/>
   <polygon points="449 17 441 13 441 21"/>
</svg>
