<svg xmlns="http://www.w3.org/2000/svg" width="207" height="81">         <defs>            <style type="text/css">    @namespace "http://www.w3.org/2000/svg";    .line                 {fill: none; stroke: #333300; stroke-width: 1;}    .bold-line            {stroke: #141400; shape-rendering: crispEdges; stroke-width: 2;}    .thin-line            {stroke: #1F1F00; shape-rendering: crispEdges}    .filled               {fill: #333300; stroke: none;}    text.terminal         {font-family: Verdana, Sans-serif;                            font-size: 12px;                            fill: #141400;                            font-weight: bold;                          }    text.nonterminal      {font-family: Verdana, Sans-serif;                            font-size: 12px;                            fill: #1A1A00;                            font-weight: normal;                          }    text.regexp           {font-family: Verdana, Sans-serif;                            font-size: 12px;                            fill: #1F1F00;                            font-weight: normal;                          }    rect, circle, polygon {fill: #333300; stroke: #333300;}    rect.terminal         {fill: #FFFF4D; stroke: #333300; stroke-width: 1;}    rect.nonterminal      {fill: #FFFF9E; stroke: #333300; stroke-width: 1;}    rect.text             {fill: none; stroke: none;}    polygon.regexp        {fill: #FFFFC7; stroke: #333300; stroke-width: 1;}  </style>         </defs>         <polygon points="9 61 1 57 1 65"/>         <polygon points="17 61 9 57 9 65"/><a xmlns:xlink="http://www.w3.org/1999/xlink" xlink:href="#VertexPattern" xlink:title="VertexPattern">            <rect x="51" y="47" width="108" height="32"/>            <rect x="49" y="45" width="108" height="32" class="nonterminal"/>            <text class="nonterminal" x="59" y="65">VertexPattern</text></a><a xmlns:xlink="http://www.w3.org/1999/xlink" xlink:href="#EdgePattern" xlink:title="EdgePattern">            <rect x="51" y="3" width="98" height="32"/>            <rect x="49" y="1" width="98" height="32" class="nonterminal"/>            <text class="nonterminal" x="59" y="21">EdgePattern</text></a><svg:path xmlns:svg="http://www.w3.org/2000/svg" class="line" d="m17 61 h2 m20 0 h10 m108 0 h10 m-148 0 l20 0 m-1 0 q-9 0 -9 -10 l0 -24 q0 -10 10 -10 m128 44 l20 0 m-20 0 q10 0 10 -10 l0 -24 q0 -10 -10 -10 m-128 0 h10 m98 0 h10 m0 0 h10 m23 44 h-3"/>         <polygon points="197 61 205 57 205 65"/>         <polygon points="197 61 189 57 189 65"/></svg>