<svg xmlns="http://www.w3.org/2000/svg" width="391" height="113">         <defs>            <style type="text/css">    @namespace "http://www.w3.org/2000/svg";    .line                 {fill: none; stroke: #332900; stroke-width: 1;}    .bold-line            {stroke: #141000; shape-rendering: crispEdges; stroke-width: 2;}    .thin-line            {stroke: #1F1800; shape-rendering: crispEdges}    .filled               {fill: #332900; stroke: none;}    text.terminal         {font-family: Verdana, Sans-serif;                            font-size: 12px;                            fill: #141000;                            font-weight: bold;                          }    text.nonterminal      {font-family: Verdana, Sans-serif;                            font-size: 12px;                            fill: #1A1400;                            font-weight: normal;                          }    text.regexp           {font-family: Verdana, Sans-serif;                            font-size: 12px;                            fill: #1F1800;                            font-weight: normal;                          }    rect, circle, polygon {fill: #332900; stroke: #332900;}    rect.terminal         {fill: #FFDB4D; stroke: #332900; stroke-width: 1;}    rect.nonterminal      {fill: #FFEC9E; stroke: #332900; stroke-width: 1;}    rect.text             {fill: none; stroke: none;}    polygon.regexp        {fill: #FFF4C7; stroke: #332900; stroke-width: 1;}  </style>         </defs>         <polygon points="9 17 1 13 1 21"/>         <polygon points="17 17 9 13 9 21"/><a xmlns:xlink="http://www.w3.org/1999/xlink" xlink:href="#SelectClause" xlink:title="SelectClause">            <rect x="51" y="3" width="102" height="32"/>            <rect x="49" y="1" width="102" height="32" class="nonterminal"/>            <text class="nonterminal" x="59" y="21">SelectClause</text></a><a xmlns:xlink="http://www.w3.org/1999/xlink" xlink:href="#StreamGenerator" xlink:title="StreamGenerator">            <rect x="193" y="35" width="130" height="32"/>            <rect x="191" y="33" width="130" height="32" class="nonterminal"/>            <text class="nonterminal" x="201" y="53">StreamGenerator</text></a><a xmlns:xlink="http://www.w3.org/1999/xlink" xlink:href="#StreamGenerator" xlink:title="StreamGenerator">            <rect x="51" y="79" width="130" height="32"/>            <rect x="49" y="77" width="130" height="32" class="nonterminal"/>            <text class="nonterminal" x="59" y="97">StreamGenerator</text></a><a xmlns:xlink="http://www.w3.org/1999/xlink" xlink:href="#SelectClause" xlink:title="SelectClause">            <rect x="201" y="79" width="102" height="32"/>            <rect x="199" y="77" width="102" height="32" class="nonterminal"/>            <text class="nonterminal" x="209" y="97">SelectClause</text></a><svg:path xmlns:svg="http://www.w3.org/2000/svg" class="line" d="m17 17 h2 m20 0 h10 m102 0 h10 m20 0 h10 m0 0 h140 m-170 0 h20 m150 0 h20 m-190 0 q10 0 10 10 m170 0 q0 -10 10 -10 m-180 10 v12 m170 0 v-12 m-170 12 q0 10 10 10 m150 0 q10 0 10 -10 m-160 10 h10 m130 0 h10 m-312 -32 h20 m312 0 h20 m-352 0 q10 0 10 10 m332 0 q0 -10 10 -10 m-342 10 v56 m332 0 v-56 m-332 56 q0 10 10 10 m312 0 q10 0 10 -10 m-322 10 h10 m130 0 h10 m0 0 h10 m102 0 h10 m0 0 h40 m23 -76 h-3"/>         <polygon points="381 17 389 13 389 21"/>         <polygon points="381 17 373 13 373 21"/></svg>