<svg xmlns="http://www.w3.org/2000/svg" width="551" height="113">         <defs>            <style type="text/css">    @namespace "http://www.w3.org/2000/svg";    .line                 {fill: none; stroke: #332900; stroke-width: 1;}    .bold-line            {stroke: #141000; shape-rendering: crispEdges; stroke-width: 2;}    .thin-line            {stroke: #1F1800; shape-rendering: crispEdges}    .filled               {fill: #332900; stroke: none;}    text.terminal         {font-family: Verdana, Sans-serif;                            font-size: 12px;                            fill: #141000;                            font-weight: bold;                          }    text.nonterminal      {font-family: Verdana, Sans-serif;                            font-size: 12px;                            fill: #1A1400;                            font-weight: normal;                          }    text.regexp           {font-family: Verdana, Sans-serif;                            font-size: 12px;                            fill: #1F1800;                            font-weight: normal;                          }    rect, circle, polygon {fill: #332900; stroke: #332900;}    rect.terminal         {fill: #FFDB4D; stroke: #332900; stroke-width: 1;}    rect.nonterminal      {fill: #FFEC9E; stroke: #332900; stroke-width: 1;}    rect.text             {fill: none; stroke: none;}    polygon.regexp        {fill: #FFF4C7; stroke: #332900; stroke-width: 1;}  </style>         </defs>         <polygon points="9 17 1 13 1 21"/>         <polygon points="17 17 9 13 9 21"/>         <rect x="51" y="3" width="30" height="32" rx="10"/>         <rect x="49" y="1" width="30" height="32" class="terminal" rx="10"/>         <text class="terminal" x="59" y="21">+</text>         <rect x="51" y="47" width="28" height="32" rx="10"/>         <rect x="49" y="45" width="28" height="32" class="terminal" rx="10"/>         <text class="terminal" x="59" y="65">{</text><a xmlns:xlink="http://www.w3.org/1999/xlink" xlink:href="#IntegerLiteral" xlink:title="IntegerLiteral">            <rect x="119" y="79" width="106" height="32"/>            <rect x="117" y="77" width="106" height="32" class="nonterminal"/>            <text class="nonterminal" x="127" y="97">IntegerLiteral</text></a><rect x="265" y="47" width="24" height="32" rx="10"/>         <rect x="263" y="45" width="24" height="32" class="terminal" rx="10"/>         <text class="terminal" x="273" y="65">,</text><a xmlns:xlink="http://www.w3.org/1999/xlink" xlink:href="#IntegerLiteral" xlink:title="IntegerLiteral">            <rect x="329" y="79" width="106" height="32"/>            <rect x="327" y="77" width="106" height="32" class="nonterminal"/>            <text class="nonterminal" x="337" y="97">IntegerLiteral</text></a><rect x="475" y="47" width="28" height="32" rx="10"/>         <rect x="473" y="45" width="28" height="32" class="terminal" rx="10"/>         <text class="terminal" x="483" y="65">}</text>         <svg:path xmlns:svg="http://www.w3.org/2000/svg" class="line" d="m17 17 h2 m20 0 h10 m30 0 h10 m0 0 h422 m-492 0 h20 m472 0 h20 m-512 0 q10 0 10 10 m492 0 q0 -10 10 -10 m-502 10 v24 m492 0 v-24 m-492 24 q0 10 10 10 m472 0 q10 0 10 -10 m-482 10 h10 m28 0 h10 m20 0 h10 m0 0 h116 m-146 0 h20 m126 0 h20 m-166 0 q10 0 10 10 m146 0 q0 -10 10 -10 m-156 10 v12 m146 0 v-12 m-146 12 q0 10 10 10 m126 0 q10 0 10 -10 m-136 10 h10 m106 0 h10 m20 -32 h10 m24 0 h10 m20 0 h10 m0 0 h116 m-146 0 h20 m126 0 h20 m-166 0 q10 0 10 10 m146 0 q0 -10 10 -10 m-156 10 v12 m146 0 v-12 m-146 12 q0 10 10 10 m126 0 q10 0 10 -10 m-136 10 h10 m106 0 h10 m20 -32 h10 m28 0 h10 m23 -44 h-3"/>         <polygon points="541 17 549 13 549 21"/>         <polygon points="541 17 533 13 533 21"/></svg>