<svg xmlns="http://www.w3.org/2000/svg" width="511" height="113">         <defs>            <style type="text/css">    @namespace "http://www.w3.org/2000/svg";    .line                 {fill: none; stroke: #333300; stroke-width: 1;}    .bold-line            {stroke: #141400; shape-rendering: crispEdges; stroke-width: 2;}    .thin-line            {stroke: #1F1F00; shape-rendering: crispEdges}    .filled               {fill: #333300; stroke: none;}    text.terminal         {font-family: Verdana, Sans-serif;                            font-size: 12px;                            fill: #141400;                            font-weight: bold;                          }    text.nonterminal      {font-family: Verdana, Sans-serif;                            font-size: 12px;                            fill: #1A1A00;                            font-weight: normal;                          }    text.regexp           {font-family: Verdana, Sans-serif;                            font-size: 12px;                            fill: #1F1F00;                            font-weight: normal;                          }    rect, circle, polygon {fill: #333300; stroke: #333300;}    rect.terminal         {fill: #FFFF4D; stroke: #333300; stroke-width: 1;}    rect.nonterminal      {fill: #FFFF9E; stroke: #333300; stroke-width: 1;}    rect.text             {fill: none; stroke: none;}    polygon.regexp        {fill: #FFFFC7; stroke: #333300; stroke-width: 1;}  </style>         </defs>         <polygon points="9 17 1 13 1 21"/>         <polygon points="17 17 9 13 9 21"/>         <rect x="31" y="3" width="28" height="32" rx="10"/>         <rect x="29" y="1" width="28" height="32" class="terminal" rx="10"/>         <text class="terminal" x="39" y="21">{</text><a xmlns:xlink="http://www.w3.org/1999/xlink" xlink:href="#IntegerLiteral" xlink:title="IntegerLiteral">            <rect x="119" y="35" width="106" height="32"/>            <rect x="117" y="33" width="106" height="32" class="nonterminal"/>            <text class="nonterminal" x="127" y="53">IntegerLiteral</text></a><rect x="265" y="3" width="24" height="32" rx="10"/>         <rect x="263" y="1" width="24" height="32" class="terminal" rx="10"/>         <text class="terminal" x="273" y="21">,</text><a xmlns:xlink="http://www.w3.org/1999/xlink" xlink:href="#IntegerLiteral" xlink:title="IntegerLiteral">            <rect x="309" y="3" width="106" height="32"/>            <rect x="307" y="1" width="106" height="32" class="nonterminal"/>            <text class="nonterminal" x="317" y="21">IntegerLiteral</text></a><a xmlns:xlink="http://www.w3.org/1999/xlink" xlink:href="#IntegerLiteral" xlink:title="IntegerLiteral">            <rect x="99" y="79" width="106" height="32"/>            <rect x="97" y="77" width="106" height="32" class="nonterminal"/>            <text class="nonterminal" x="107" y="97">IntegerLiteral</text></a><rect x="225" y="79" width="24" height="32" rx="10"/>         <rect x="223" y="77" width="24" height="32" class="terminal" rx="10"/>         <text class="terminal" x="233" y="97">,</text>         <rect x="455" y="3" width="28" height="32" rx="10"/>         <rect x="453" y="1" width="28" height="32" class="terminal" rx="10"/>         <text class="terminal" x="463" y="21">}</text>         <svg:path xmlns:svg="http://www.w3.org/2000/svg" class="line" d="m17 17 h2 m0 0 h10 m28 0 h10 m40 0 h10 m0 0 h116 m-146 0 h20 m126 0 h20 m-166 0 q10 0 10 10 m146 0 q0 -10 10 -10 m-156 10 v12 m146 0 v-12 m-146 12 q0 10 10 10 m126 0 q10 0 10 -10 m-136 10 h10 m106 0 h10 m20 -32 h10 m24 0 h10 m0 0 h10 m106 0 h10 m-356 0 h20 m336 0 h20 m-376 0 q10 0 10 10 m356 0 q0 -10 10 -10 m-366 10 v56 m356 0 v-56 m-356 56 q0 10 10 10 m336 0 q10 0 10 -10 m-346 10 h10 m106 0 h10 m0 0 h10 m24 0 h10 m0 0 h166 m20 -76 h10 m28 0 h10 m3 0 h-3"/>         <polygon points="501 17 509 13 509 21"/>         <polygon points="501 17 493 13 493 21"/></svg>