<svg xmlns="http://www.w3.org/2000/svg" width="793" height="147">         <defs>            <style type="text/css">    @namespace "http://www.w3.org/2000/svg";    .line                 {fill: none; stroke: #332900; stroke-width: 1;}    .bold-line            {stroke: #141000; shape-rendering: crispEdges; stroke-width: 2;}    .thin-line            {stroke: #1F1800; shape-rendering: crispEdges}    .filled               {fill: #332900; stroke: none;}    text.terminal         {font-family: Verdana, Sans-serif;                            font-size: 12px;                            fill: #141000;                            font-weight: bold;                          }    text.nonterminal      {font-family: Verdana, Sans-serif;                            font-size: 12px;                            fill: #1A1400;                            font-weight: normal;                          }    text.regexp           {font-family: Verdana, Sans-serif;                            font-size: 12px;                            fill: #1F1800;                            font-weight: normal;                          }    rect, circle, polygon {fill: #332900; stroke: #332900;}    rect.terminal         {fill: #FFDB4D; stroke: #332900; stroke-width: 1;}    rect.nonterminal      {fill: #FFEC9E; stroke: #332900; stroke-width: 1;}    rect.text             {fill: none; stroke: none;}    polygon.regexp        {fill: #FFF4C7; stroke: #332900; stroke-width: 1;}  </style>         </defs>         <polygon points="9 51 1 47 1 55"/>         <polygon points="17 51 9 47 9 55"/><a xmlns:xlink="http://www.w3.org/1999/xlink" xlink:href="#WithClause" xlink:title="WithClause">            <rect x="51" y="69" width="92" height="32"/>            <rect x="49" y="67" width="92" height="32" class="nonterminal"/>            <text class="nonterminal" x="59" y="87">WithClause</text></a><a xmlns:xlink="http://www.w3.org/1999/xlink" xlink:href="#QueryBlock" xlink:title="QueryBlock">            <rect x="183" y="37" width="90" height="32"/>            <rect x="181" y="35" width="90" height="32" class="nonterminal"/>            <text class="nonterminal" x="191" y="55">QueryBlock</text></a><a xmlns:xlink="http://www.w3.org/1999/xlink" xlink:href="#UnionOption" xlink:title="UnionOption">            <rect x="313" y="3" width="98" height="32"/>            <rect x="311" y="1" width="98" height="32" class="nonterminal"/>            <text class="nonterminal" x="321" y="21">UnionOption</text></a><a xmlns:xlink="http://www.w3.org/1999/xlink" xlink:href="#OrderByClause" xlink:title="OrderByClause">            <rect x="471" y="69" width="114" height="32"/>            <rect x="469" y="67" width="114" height="32" class="nonterminal"/>            <text class="nonterminal" x="479" y="87">OrderByClause</text></a><a xmlns:xlink="http://www.w3.org/1999/xlink" xlink:href="#LimitClause" xlink:title="LimitClause">            <rect x="645" y="69" width="94" height="32"/>            <rect x="643" y="67" width="94" height="32" class="nonterminal"/>            <text class="nonterminal" x="653" y="87">LimitClause</text></a><a xmlns:xlink="http://www.w3.org/1999/xlink" xlink:href="#OffsetClause" xlink:title="OffsetClause">            <rect x="645" y="113" width="100" height="32"/>            <rect x="643" y="111" width="100" height="32" class="nonterminal"/>            <text class="nonterminal" x="653" y="131">OffsetClause</text></a><svg:path xmlns:svg="http://www.w3.org/2000/svg" class="line" d="m17 51 h2 m20 0 h10 m0 0 h102 m-132 0 h20 m112 0 h20 m-152 0 q10 0 10 10 m132 0 q0 -10 10 -10 m-142 10 v12 m132 0 v-12 m-132 12 q0 10 10 10 m112 0 q10 0 10 -10 m-122 10 h10 m92 0 h10 m20 -32 h10 m90 0 h10 m20 0 h10 m0 0 h108 m-138 0 l20 0 m-1 0 q-9 0 -9 -10 l0 -14 q0 -10 10 -10 m118 34 l20 0 m-20 0 q10 0 10 -10 l0 -14 q0 -10 -10 -10 m-118 0 h10 m98 0 h10 m40 34 h10 m0 0 h124 m-154 0 h20 m134 0 h20 m-174 0 q10 0 10 10 m154 0 q0 -10 10 -10 m-164 10 v12 m154 0 v-12 m-154 12 q0 10 10 10 m134 0 q10 0 10 -10 m-144 10 h10 m114 0 h10 m40 -32 h10 m0 0 h110 m-140 0 h20 m120 0 h20 m-160 0 q10 0 10 10 m140 0 q0 -10 10 -10 m-150 10 v12 m140 0 v-12 m-140 12 q0 10 10 10 m120 0 q10 0 10 -10 m-130 10 h10 m94 0 h10 m0 0 h6 m-130 -10 v20 m140 0 v-20 m-140 20 v24 m140 0 v-24 m-140 24 q0 10 10 10 m120 0 q10 0 10 -10 m-130 10 h10 m100 0 h10 m23 -76 h-3"/>         <polygon points="783 51 791 47 791 55"/>         <polygon points="783 51 775 47 775 55"/></svg>