<svg xmlns="http://www.w3.org/2000/svg" width="517" height="187">         <defs>            <style type="text/css">    @namespace "http://www.w3.org/2000/svg";    .line                 {fill: none; stroke: #333300; stroke-width: 1;}    .bold-line            {stroke: #141400; shape-rendering: crispEdges; stroke-width: 2;}    .thin-line            {stroke: #1F1F00; shape-rendering: crispEdges}    .filled               {fill: #333300; stroke: none;}    text.terminal         {font-family: Verdana, Sans-serif;                            font-size: 12px;                            fill: #141400;                            font-weight: bold;                          }    text.nonterminal      {font-family: Verdana, Sans-serif;                            font-size: 12px;                            fill: #1A1A00;                            font-weight: normal;                          }    text.regexp           {font-family: Verdana, Sans-serif;                            font-size: 12px;                            fill: #1F1F00;                            font-weight: normal;                          }    rect, circle, polygon {fill: #333300; stroke: #333300;}    rect.terminal         {fill: #FFFF4D; stroke: #333300; stroke-width: 1;}    rect.nonterminal      {fill: #FFFF9E; stroke: #333300; stroke-width: 1;}    rect.text             {fill: none; stroke: none;}    polygon.regexp        {fill: #FFFFC7; stroke: #333300; stroke-width: 1;}  </style>         </defs>         <polygon points="11 17 3 13 3 21"/>         <polygon points="19 17 11 13 11 21"/><a xmlns:xlink="http://www.w3.org/1999/xlink" xlink:href="#FromClause" xlink:title="FromClause">            <rect x="33" y="3" width="94" height="32"/>            <rect x="31" y="1" width="94" height="32" class="nonterminal"/>            <text class="nonterminal" x="41" y="21">FromClause</text></a><a xmlns:xlink="http://www.w3.org/1999/xlink" xlink:href="#LetClause" xlink:title="LetClause">            <rect x="167" y="35" width="82" height="32"/>            <rect x="165" y="33" width="82" height="32" class="nonterminal"/>            <text class="nonterminal" x="175" y="53">LetClause</text></a><a xmlns:xlink="http://www.w3.org/1999/xlink" xlink:href="#WhereClause" xlink:title="WhereClause">            <rect x="309" y="35" width="104" height="32"/>            <rect x="307" y="33" width="104" height="32" class="nonterminal"/>            <text class="nonterminal" x="317" y="53">WhereClause</text></a><a xmlns:xlink="http://www.w3.org/1999/xlink" xlink:href="#GroupByClause" xlink:title="GroupByClause">            <rect x="45" y="121" width="116" height="32"/>            <rect x="43" y="119" width="116" height="32" class="nonterminal"/>            <text class="nonterminal" x="53" y="139">GroupByClause</text></a><a xmlns:xlink="http://www.w3.org/1999/xlink" xlink:href="#LetClause" xlink:title="LetClause">            <rect x="201" y="153" width="82" height="32"/>            <rect x="199" y="151" width="82" height="32" class="nonterminal"/>            <text class="nonterminal" x="209" y="171">LetClause</text></a><a xmlns:xlink="http://www.w3.org/1999/xlink" xlink:href="#HavingClause" xlink:title="HavingClause">            <rect x="343" y="153" width="106" height="32"/>            <rect x="341" y="151" width="106" height="32" class="nonterminal"/>            <text class="nonterminal" x="351" y="171">HavingClause</text></a><svg:path xmlns:svg="http://www.w3.org/2000/svg" class="line" d="m19 17 h2 m0 0 h10 m94 0 h10 m20 0 h10 m0 0 h92 m-122 0 h20 m102 0 h20 m-142 0 q10 0 10 10 m122 0 q0 -10 10 -10 m-132 10 v12 m122 0 v-12 m-122 12 q0 10 10 10 m102 0 q10 0 10 -10 m-112 10 h10 m82 0 h10 m40 -32 h10 m0 0 h114 m-144 0 h20 m124 0 h20 m-164 0 q10 0 10 10 m144 0 q0 -10 10 -10 m-154 10 v12 m144 0 v-12 m-144 12 q0 10 10 10 m124 0 q10 0 10 -10 m-134 10 h10 m104 0 h10 m22 -32 l2 0 m2 0 l2 0 m2 0 l2 0 m-452 86 l2 0 m2 0 l2 0 m2 0 l2 0 m22 0 h10 m0 0 h434 m-464 0 h20 m444 0 h20 m-484 0 q10 0 10 10 m464 0 q0 -10 10 -10 m-474 10 v12 m464 0 v-12 m-464 12 q0 10 10 10 m444 0 q10 0 10 -10 m-454 10 h10 m116 0 h10 m20 0 h10 m0 0 h92 m-122 0 h20 m102 0 h20 m-142 0 q10 0 10 10 m122 0 q0 -10 10 -10 m-132 10 v12 m122 0 v-12 m-122 12 q0 10 10 10 m102 0 q10 0 10 -10 m-112 10 h10 m82 0 h10 m40 -32 h10 m0 0 h116 m-146 0 h20 m126 0 h20 m-166 0 q10 0 10 10 m146 0 q0 -10 10 -10 m-156 10 v12 m146 0 v-12 m-146 12 q0 10 10 10 m126 0 q10 0 10 -10 m-136 10 h10 m106 0 h10 m43 -64 h-3"/>         <polygon points="507 103 515 99 515 107"/>         <polygon points="507 103 499 99 499 107"/></svg>