<?xml version="1.0" encoding="UTF-8"?>
<svg xmlns="http://www.w3.org/2000/svg" width="943" height="101">
   <defs>
      <style type="text/css">
    @namespace "http://www.w3.org/2000/svg";
    .line                 {fill: none; stroke: #332900; stroke-width: 1;}
    .bold-line            {stroke: #141000; shape-rendering: crispEdges; stroke-width: 2;}
    .thin-line            {stroke: #1F1800; shape-rendering: crispEdges}
    .filled               {fill: #332900; stroke: none;}
    text.terminal         {font-family: Verdana, Sans-serif;
                            font-size: 12px;
                            fill: #141000;
                            font-weight: bold;
                          }
    text.nonterminal      {font-family: Verdana, Sans-serif;
                            font-size: 12px;
                            fill: #1A1400;
                            font-weight: normal;
                          }
    text.regexp           {font-family: Verdana, Sans-serif;
                            font-size: 12px;
                            fill: #1F1800;
                            font-weight: normal;
                          }
    rect, circle, polygon {fill: #332900; stroke: #332900;}
    rect.terminal         {fill: #FFDB4D; stroke: #332900; stroke-width: 1;}
    rect.nonterminal      {fill: #FFEC9E; stroke: #332900; stroke-width: 1;}
    rect.text             {fill: none; stroke: none;}
    polygon.regexp        {fill: #FFF4C7; stroke: #332900; stroke-width: 1;}
  </style>
   </defs>
   <polygon points="9 17 1 13 1 21"/>
   <polygon points="17 17 9 13 9 21"/>
   <a xmlns:xlink="http://www.w3.org/1999/xlink"
       xlink:href="#FromClause"
       xlink:title="FromClause">
      <rect x="31" y="3" width="94" height="32"/>
      <rect x="29" y="1" width="94" height="32" class="nonterminal"/>
      <text class="nonterminal" x="39" y="21">FromClause</text>
   </a>
   <a xmlns:xlink="http://www.w3.org/1999/xlink"
       xlink:href="#LetClause"
       xlink:title="LetClause">
      <rect x="165" y="35" width="82" height="32"/>
      <rect x="163" y="33" width="82" height="32" class="nonterminal"/>
      <text class="nonterminal" x="173" y="53">LetClause</text>
   </a>
   <a xmlns:xlink="http://www.w3.org/1999/xlink"
       xlink:href="#WhereClause"
       xlink:title="WhereClause">
      <rect x="307" y="35" width="104" height="32"/>
      <rect x="305" y="33" width="104" height="32" class="nonterminal"/>
      <text class="nonterminal" x="315" y="53">WhereClause</text>
   </a>
   <a xmlns:xlink="http://www.w3.org/1999/xlink"
       xlink:href="#GroupByClause"
       xlink:title="GroupByClause">
      <rect x="471" y="35" width="116" height="32"/>
      <rect x="469" y="33" width="116" height="32" class="nonterminal"/>
      <text class="nonterminal" x="479" y="53">GroupByClause</text>
   </a>
   <a xmlns:xlink="http://www.w3.org/1999/xlink"
       xlink:href="#LetClause"
       xlink:title="LetClause">
      <rect x="627" y="67" width="82" height="32"/>
      <rect x="625" y="65" width="82" height="32" class="nonterminal"/>
      <text class="nonterminal" x="635" y="85">LetClause</text>
   </a>
   <a xmlns:xlink="http://www.w3.org/1999/xlink"
       xlink:href="#HavingClause"
       xlink:title="HavingClause">
      <rect x="769" y="67" width="106" height="32"/>
      <rect x="767" y="65" width="106" height="32" class="nonterminal"/>
      <text class="nonterminal" x="777" y="85">HavingClause</text>
   </a>
   <path class="line"
          d="m17 17 h2 m0 0 h10 m94 0 h10 m20 0 h10 m0 0 h92 m-122 0 h20 m102 0 h20 m-142 0 q10 0 10 10 m122 0 q0 -10 10 -10 m-132 10 v12 m122 0 v-12 m-122 12 q0 10 10 10 m102 0 q10 0 10 -10 m-112 10 h10 m82 0 h10 m40 -32 h10 m0 0 h114 m-144 0 h20 m124 0 h20 m-164 0 q10 0 10 10 m144 0 q0 -10 10 -10 m-154 10 v12 m144 0 v-12 m-144 12 q0 10 10 10 m124 0 q10 0 10 -10 m-134 10 h10 m104 0 h10 m40 -32 h10 m0 0 h434 m-464 0 h20 m444 0 h20 m-484 0 q10 0 10 10 m464 0 q0 -10 10 -10 m-474 10 v12 m464 0 v-12 m-464 12 q0 10 10 10 m444 0 q10 0 10 -10 m-454 10 h10 m116 0 h10 m20 0 h10 m0 0 h92 m-122 0 h20 m102 0 h20 m-142 0 q10 0 10 10 m122 0 q0 -10 10 -10 m-132 10 v12 m122 0 v-12 m-122 12 q0 10 10 10 m102 0 q10 0 10 -10 m-112 10 h10 m82 0 h10 m40 -32 h10 m0 0 h116 m-146 0 h20 m126 0 h20 m-166 0 q10 0 10 10 m146 0 q0 -10 10 -10 m-156 10 v12 m146 0 v-12 m-146 12 q0 10 10 10 m126 0 q10 0 10 -10 m-136 10 h10 m106 0 h10 m43 -64 h-3"/>
   <polygon points="933 17 941 13 941 21"/>
   <polygon points="933 17 925 13 925 21"/>
</svg>
