<?xml version="1.0" encoding="UTF-8"?>
<svg xmlns="http://www.w3.org/2000/svg" width="591" height="145">
   <defs>
      <style type="text/css">
    @namespace "http://www.w3.org/2000/svg";
    .line                 {fill: none; stroke: #332200; stroke-width: 1;}
    .bold-line            {stroke: #140E00; shape-rendering: crispEdges; stroke-width: 2;}
    .thin-line            {stroke: #1F1400; shape-rendering: crispEdges}
    .filled               {fill: #332200; stroke: none;}
    text.terminal         {font-family: Verdana, Sans-serif;
                            font-size: 12px;
                            fill: #140E00;
                            font-weight: bold;
                          }
    text.nonterminal      {font-family: Verdana, Sans-serif;
                            font-size: 12px;
                            fill: #1A1100;
                            font-weight: normal;
                          }
    text.regexp           {font-family: Verdana, Sans-serif;
                            font-size: 12px;
                            fill: #1F1400;
                            font-weight: normal;
                          }
    rect, circle, polygon {fill: #332200; stroke: #332200;}
    rect.terminal         {fill: #FFC34D; stroke: #332200; stroke-width: 1;}
    rect.nonterminal      {fill: #FFDF9E; stroke: #332200; stroke-width: 1;}
    rect.text             {fill: none; stroke: none;}
    polygon.regexp        {fill: #FFECC7; stroke: #332200; stroke-width: 1;}
  </style>
   </defs>
   <polygon points="9 17 1 13 1 21"/>
   <polygon points="17 17 9 13 9 21"/>
   <rect x="51" y="35" width="64" height="32" rx="10"/>
   <rect x="49"
          y="33"
          width="64"
          height="32"
          class="terminal"
          rx="10"/>
   <text class="terminal" x="59" y="53">INNER</text>
   <rect x="51" y="79" width="52" height="32" rx="10"/>
   <rect x="49"
          y="77"
          width="52"
          height="32"
          class="terminal"
          rx="10"/>
   <text class="terminal" x="59" y="97">LEFT</text>
   <rect x="143" y="111" width="66" height="32" rx="10"/>
   <rect x="141"
          y="109"
          width="66"
          height="32"
          class="terminal"
          rx="10"/>
   <text class="terminal" x="151" y="129">OUTER</text>
   <rect x="269" y="3" width="54" height="32" rx="10"/>
   <rect x="267"
          y="1"
          width="54"
          height="32"
          class="terminal"
          rx="10"/>
   <text class="terminal" x="277" y="21">JOIN</text>
   <a xmlns:xlink="http://www.w3.org/1999/xlink"
       xlink:href="#NamedExpr"
       xlink:title="NamedExpr">
      <rect x="343" y="3" width="92" height="32"/>
      <rect x="341" y="1" width="92" height="32" class="nonterminal"/>
      <text class="nonterminal" x="351" y="21">NamedExpr</text>
   </a>
   <rect x="455" y="3" width="40" height="32" rx="10"/>
   <rect x="453"
          y="1"
          width="40"
          height="32"
          class="terminal"
          rx="10"/>
   <text class="terminal" x="463" y="21">ON</text>
   <a xmlns:xlink="http://www.w3.org/1999/xlink"
       xlink:href="#Expr"
       xlink:title="Expr">
      <rect x="515" y="3" width="48" height="32"/>
      <rect x="513" y="1" width="48" height="32" class="nonterminal"/>
      <text class="nonterminal" x="523" y="21">Expr</text>
   </a>
   <path class="line"
          d="m17 17 h2 m20 0 h10 m0 0 h188 m-218 0 h20 m198 0 h20 m-238 0 q10 0 10 10 m218 0 q0 -10 10 -10 m-228 10 v12 m218 0 v-12 m-218 12 q0 10 10 10 m198 0 q10 0 10 -10 m-208 10 h10 m64 0 h10 m0 0 h114 m-208 -10 v20 m218 0 v-20 m-218 20 v24 m218 0 v-24 m-218 24 q0 10 10 10 m198 0 q10 0 10 -10 m-208 10 h10 m52 0 h10 m20 0 h10 m0 0 h76 m-106 0 h20 m86 0 h20 m-126 0 q10 0 10 10 m106 0 q0 -10 10 -10 m-116 10 v12 m106 0 v-12 m-106 12 q0 10 10 10 m86 0 q10 0 10 -10 m-96 10 h10 m66 0 h10 m40 -108 h10 m54 0 h10 m0 0 h10 m92 0 h10 m0 0 h10 m40 0 h10 m0 0 h10 m48 0 h10 m3 0 h-3"/>
   <polygon points="581 17 589 13 589 21"/>
   <polygon points="581 17 573 13 573 21"/>
</svg>
