<svg xmlns="http://www.w3.org/2000/svg" width="537" height="113">         <defs>            <style type="text/css">    @namespace "http://www.w3.org/2000/svg";    .line                 {fill: none; stroke: #333300; stroke-width: 1;}    .bold-line            {stroke: #141400; shape-rendering: crispEdges; stroke-width: 2;}    .thin-line            {stroke: #1F1F00; shape-rendering: crispEdges}    .filled               {fill: #333300; stroke: none;}    text.terminal         {font-family: Verdana, Sans-serif;                            font-size: 12px;                            fill: #141400;                            font-weight: bold;                          }    text.nonterminal      {font-family: Verdana, Sans-serif;                            font-size: 12px;                            fill: #1A1A00;                            font-weight: normal;                          }    text.regexp           {font-family: Verdana, Sans-serif;                            font-size: 12px;                            fill: #1F1F00;                            font-weight: normal;                          }    rect, circle, polygon {fill: #333300; stroke: #333300;}    rect.terminal         {fill: #FFFF4D; stroke: #333300; stroke-width: 1;}    rect.nonterminal      {fill: #FFFF9E; stroke: #333300; stroke-width: 1;}    rect.text             {fill: none; stroke: none;}    polygon.regexp        {fill: #FFFFC7; stroke: #333300; stroke-width: 1;}  </style>         </defs>         <polygon points="9 61 1 57 1 65"/>         <polygon points="17 61 9 57 9 65"/>         <rect x="31" y="47" width="26" height="32" rx="10"/>         <rect x="29" y="45" width="26" height="32" class="terminal" rx="10"/>         <text class="terminal" x="39" y="65">(</text><a xmlns:xlink="http://www.w3.org/1999/xlink" xlink:href="#Variable" xlink:title="Variable">            <rect x="97" y="79" width="72" height="32"/>            <rect x="95" y="77" width="72" height="32" class="nonterminal"/>            <text class="nonterminal" x="105" y="97">Variable</text></a><rect x="229" y="47" width="24" height="32" rx="10"/>         <rect x="227" y="45" width="24" height="32" class="terminal" rx="10"/>         <text class="terminal" x="237" y="65">:</text><a xmlns:xlink="http://www.w3.org/1999/xlink" xlink:href="#LabelName" xlink:title="LabelName">            <rect x="313" y="47" width="90" height="32"/>            <rect x="311" y="45" width="90" height="32" class="nonterminal"/>            <text class="nonterminal" x="321" y="65">LabelName</text></a><rect x="313" y="3" width="26" height="32" rx="10"/>         <rect x="311" y="1" width="26" height="32" class="terminal" rx="10"/>         <text class="terminal" x="321" y="21">|</text>         <rect x="483" y="47" width="26" height="32" rx="10"/>         <rect x="481" y="45" width="26" height="32" class="terminal" rx="10"/>         <text class="terminal" x="491" y="65">)</text>         <svg:path xmlns:svg="http://www.w3.org/2000/svg" class="line" d="m17 61 h2 m0 0 h10 m26 0 h10 m20 0 h10 m0 0 h82 m-112 0 h20 m92 0 h20 m-132 0 q10 0 10 10 m112 0 q0 -10 10 -10 m-122 10 v12 m112 0 v-12 m-112 12 q0 10 10 10 m92 0 q10 0 10 -10 m-102 10 h10 m72 0 h10 m40 -32 h10 m24 0 h10 m40 0 h10 m90 0 h10 m-130 0 l20 0 m-1 0 q-9 0 -9 -10 l0 -24 q0 -10 10 -10 m110 44 l20 0 m-20 0 q10 0 10 -10 l0 -24 q0 -10 -10 -10 m-110 0 h10 m26 0 h10 m0 0 h64 m-150 44 h20 m150 0 h20 m-190 0 q10 0 10 10 m170 0 q0 -10 10 -10 m-180 10 v14 m170 0 v-14 m-170 14 q0 10 10 10 m150 0 q10 0 10 -10 m-160 10 h10 m0 0 h140 m-234 -34 h20 m234 0 h20 m-274 0 q10 0 10 10 m254 0 q0 -10 10 -10 m-264 10 v30 m254 0 v-30 m-254 30 q0 10 10 10 m234 0 q10 0 10 -10 m-244 10 h10 m0 0 h224 m20 -50 h10 m26 0 h10 m3 0 h-3"/>         <polygon points="527 61 535 57 535 65"/>         <polygon points="527 61 519 57 519 65"/></svg>