<?xml version="1.0" encoding="UTF-8"?>
<svg xmlns="http://www.w3.org/2000/svg" width="735" height="169">
   <defs>
      <style type="text/css">
    @namespace "http://www.w3.org/2000/svg";
    .line                 {fill: none; stroke: #332900; stroke-width: 1;}
    .bold-line            {stroke: #141000; shape-rendering: crispEdges; stroke-width: 2;}
    .thin-line            {stroke: #1F1800; shape-rendering: crispEdges}
    .filled               {fill: #332900; stroke: none;}
    text.terminal         {font-family: Verdana, Sans-serif;
                            font-size: 12px;
                            fill: #141000;
                            font-weight: bold;
                          }
    text.nonterminal      {font-family: Verdana, Sans-serif;
                            font-size: 12px;
                            fill: #1A1400;
                            font-weight: normal;
                          }
    text.regexp           {font-family: Verdana, Sans-serif;
                            font-size: 12px;
                            fill: #1F1800;
                            font-weight: normal;
                          }
    rect, circle, polygon {fill: #332900; stroke: #332900;}
    rect.terminal         {fill: #FFDB4D; stroke: #332900; stroke-width: 1;}
    rect.nonterminal      {fill: #FFEC9E; stroke: #332900; stroke-width: 1;}
    rect.text             {fill: none; stroke: none;}
    polygon.regexp        {fill: #FFF4C7; stroke: #332900; stroke-width: 1;}
  </style>
   </defs>
   <polygon points="9 17 1 13 1 21"/>
   <polygon points="17 17 9 13 9 21"/>
   <a xmlns:xlink="http://www.w3.org/1999/xlink"
       xlink:href="#VertexDefinition"
       xlink:title="VertexDefinition">
      <rect x="31" y="3" width="122" height="32"/>
      <rect x="29" y="1" width="122" height="32" class="nonterminal"/>
      <text class="nonterminal" x="39" y="21">VertexDefinition</text>
   </a>
   <a xmlns:xlink="http://www.w3.org/1999/xlink"
       xlink:href="#VertexConstructorDetail"
       xlink:title="VertexConstructorDetail">
      <rect x="173" y="3" width="172" height="32"/>
      <rect x="171" y="1" width="172" height="32" class="nonterminal"/>
      <text class="nonterminal" x="181" y="21">VertexConstructorDetail</text>
   </a>
   <rect x="365" y="3" width="38" height="32" rx="10"/>
   <rect x="363"
          y="1"
          width="38"
          height="32"
          class="terminal"
          rx="10"/>
   <text class="terminal" x="373" y="21">AS</text>
   <a xmlns:xlink="http://www.w3.org/1999/xlink"
       xlink:href="#QualifiedName"
       xlink:title="QualifiedName">
      <rect x="443" y="3" width="112" height="32"/>
      <rect x="441" y="1" width="112" height="32" class="nonterminal"/>
      <text class="nonterminal" x="451" y="21">QualifiedName</text>
   </a>
   <a xmlns:xlink="http://www.w3.org/1999/xlink"
       xlink:href="#Selection"
       xlink:title="Selection">
      <rect x="443" y="47" width="78" height="32"/>
      <rect x="441" y="45" width="78" height="32" class="nonterminal"/>
      <text class="nonterminal" x="451" y="65">Selection</text>
   </a>
   <rect x="443" y="91" width="26" height="32" rx="10"/>
   <rect x="441"
          y="89"
          width="26"
          height="32"
          class="terminal"
          rx="10"/>
   <text class="terminal" x="451" y="109">(</text>
   <a xmlns:xlink="http://www.w3.org/1999/xlink"
       xlink:href="#QualifiedName"
       xlink:title="QualifiedName">
      <rect x="509" y="91" width="112" height="32"/>
      <rect x="507" y="89" width="112" height="32" class="nonterminal"/>
      <text class="nonterminal" x="517" y="109">QualifiedName</text>
   </a>
   <a xmlns:xlink="http://www.w3.org/1999/xlink"
       xlink:href="#Selection"
       xlink:title="Selection">
      <rect x="509" y="135" width="78" height="32"/>
      <rect x="507" y="133" width="78" height="32" class="nonterminal"/>
      <text class="nonterminal" x="517" y="153">Selection</text>
   </a>
   <rect x="661" y="91" width="26" height="32" rx="10"/>
   <rect x="659"
          y="89"
          width="26"
          height="32"
          class="terminal"
          rx="10"/>
   <text class="terminal" x="669" y="109">)</text>
   <path class="line"
          d="m17 17 h2 m0 0 h10 m122 0 h10 m0 0 h10 m172 0 h10 m0 0 h10 m38 0 h10 m20 0 h10 m112 0 h10 m0 0 h132 m-284 0 h20 m264 0 h20 m-304 0 q10 0 10 10 m284 0 q0 -10 10 -10 m-294 10 v24 m284 0 v-24 m-284 24 q0 10 10 10 m264 0 q10 0 10 -10 m-274 10 h10 m78 0 h10 m0 0 h166 m-274 -10 v20 m284 0 v-20 m-284 20 v24 m284 0 v-24 m-284 24 q0 10 10 10 m264 0 q10 0 10 -10 m-274 10 h10 m26 0 h10 m20 0 h10 m112 0 h10 m-152 0 h20 m132 0 h20 m-172 0 q10 0 10 10 m152 0 q0 -10 10 -10 m-162 10 v24 m152 0 v-24 m-152 24 q0 10 10 10 m132 0 q10 0 10 -10 m-142 10 h10 m78 0 h10 m0 0 h34 m20 -44 h10 m26 0 h10 m23 -88 h-3"/>
   <polygon points="725 17 733 13 733 21"/>
   <polygon points="725 17 717 13 717 21"/>
</svg>
