<svg xmlns="http://www.w3.org/2000/svg" width="675" height="69">         <defs>            <style type="text/css">    @namespace "http://www.w3.org/2000/svg";    .line                 {fill: none; stroke: #332900; stroke-width: 1;}    .bold-line            {stroke: #141000; shape-rendering: crispEdges; stroke-width: 2;}    .thin-line            {stroke: #1F1800; shape-rendering: crispEdges}    .filled               {fill: #332900; stroke: none;}    text.terminal         {font-family: Verdana, Sans-serif;                            font-size: 12px;                            fill: #141000;                            font-weight: bold;                          }    text.nonterminal      {font-family: Verdana, Sans-serif;                            font-size: 12px;                            fill: #1A1400;                            font-weight: normal;                          }    text.regexp           {font-family: Verdana, Sans-serif;                            font-size: 12px;                            fill: #1F1800;                            font-weight: normal;                          }    rect, circle, polygon {fill: #332900; stroke: #332900;}    rect.terminal         {fill: #FFDB4D; stroke: #332900; stroke-width: 1;}    rect.nonterminal      {fill: #FFEC9E; stroke: #332900; stroke-width: 1;}    rect.text             {fill: none; stroke: none;}    polygon.regexp        {fill: #FFF4C7; stroke: #332900; stroke-width: 1;}  </style>         </defs>         <polygon points="9 17 1 13 1 21"/>         <polygon points="17 17 9 13 9 21"/>         <rect x="31" y="3" width="26" height="32" rx="10"/>         <rect x="29" y="1" width="26" height="32" class="terminal" rx="10"/>         <text class="terminal" x="39" y="21">(</text><a xmlns:xlink="http://www.w3.org/1999/xlink" xlink:href="#Variable" xlink:title="Variable">            <rect x="97" y="35" width="72" height="32"/>            <rect x="95" y="33" width="72" height="32" class="nonterminal"/>            <text class="nonterminal" x="105" y="53">Variable</text></a><a xmlns:xlink="http://www.w3.org/1999/xlink" xlink:href="#LabelSetDetail" xlink:title="LabelSetDetail">            <rect x="229" y="35" width="112" height="32"/>            <rect x="227" y="33" width="112" height="32" class="nonterminal"/>            <text class="nonterminal" x="237" y="53">LabelSetDetail</text></a><rect x="401" y="35" width="70" height="32" rx="10"/>         <rect x="399" y="33" width="70" height="32" class="terminal" rx="10"/>         <text class="terminal" x="409" y="53">WHERE</text><a xmlns:xlink="http://www.w3.org/1999/xlink" xlink:href="#Expression" xlink:title="Expression">            <rect x="491" y="35" width="90" height="32"/>            <rect x="489" y="33" width="90" height="32" class="nonterminal"/>            <text class="nonterminal" x="499" y="53">Expression</text></a><rect x="621" y="3" width="26" height="32" rx="10"/>         <rect x="619" y="1" width="26" height="32" class="terminal" rx="10"/>         <text class="terminal" x="629" y="21">)</text>         <svg:path xmlns:svg="http://www.w3.org/2000/svg" class="line" d="m17 17 h2 m0 0 h10 m26 0 h10 m20 0 h10 m0 0 h82 m-112 0 h20 m92 0 h20 m-132 0 q10 0 10 10 m112 0 q0 -10 10 -10 m-122 10 v12 m112 0 v-12 m-112 12 q0 10 10 10 m92 0 q10 0 10 -10 m-102 10 h10 m72 0 h10 m40 -32 h10 m0 0 h122 m-152 0 h20 m132 0 h20 m-172 0 q10 0 10 10 m152 0 q0 -10 10 -10 m-162 10 v12 m152 0 v-12 m-152 12 q0 10 10 10 m132 0 q10 0 10 -10 m-142 10 h10 m112 0 h10 m40 -32 h10 m0 0 h190 m-220 0 h20 m200 0 h20 m-240 0 q10 0 10 10 m220 0 q0 -10 10 -10 m-230 10 v12 m220 0 v-12 m-220 12 q0 10 10 10 m200 0 q10 0 10 -10 m-210 10 h10 m70 0 h10 m0 0 h10 m90 0 h10 m20 -32 h10 m26 0 h10 m3 0 h-3"/>         <polygon points="665 17 673 13 673 21"/>         <polygon points="665 17 657 13 657 21"/></svg>