<?xml version="1.0" encoding="UTF-8"?>
<svg xmlns="http://www.w3.org/2000/svg" width="377" height="37">
   <defs>
      <style type="text/css">
    @namespace "http://www.w3.org/2000/svg";
    .line                 {fill: none; stroke: #332200; stroke-width: 1;}
    .bold-line            {stroke: #140E00; shape-rendering: crispEdges; stroke-width: 2;}
    .thin-line            {stroke: #1F1400; shape-rendering: crispEdges}
    .filled               {fill: #332200; stroke: none;}
    text.terminal         {font-family: Verdana, Sans-serif;
                            font-size: 12px;
                            fill: #140E00;
                            font-weight: bold;
                          }
    text.nonterminal      {font-family: Verdana, Sans-serif;
                            font-size: 12px;
                            fill: #1A1100;
                            font-weight: normal;
                          }
    text.regexp           {font-family: Verdana, Sans-serif;
                            font-size: 12px;
                            fill: #1F1400;
                            font-weight: normal;
                          }
    rect, circle, polygon {fill: #332200; stroke: #332200;}
    rect.terminal         {fill: #FFC34D; stroke: #332200; stroke-width: 1;}
    rect.nonterminal      {fill: #FFDF9E; stroke: #332200; stroke-width: 1;}
    rect.text             {fill: none; stroke: none;}
    polygon.regexp        {fill: #FFECC7; stroke: #332200; stroke-width: 1;}
  </style>
   </defs>
   <polygon points="9 17 1 13 1 21"/>
   <polygon points="17 17 9 13 9 21"/>
   <rect x="31" y="3" width="72" height="32" rx="10"/>
   <rect x="29"
          y="1"
          width="72"
          height="32"
          class="terminal"
          rx="10"/>
   <text class="terminal" x="39" y="21">VERTEX</text>
   <rect x="123" y="3" width="26" height="32" rx="10"/>
   <rect x="121"
          y="1"
          width="26"
          height="32"
          class="terminal"
          rx="10"/>
   <text class="terminal" x="131" y="21">(</text>
   <rect x="169" y="3" width="24" height="32" rx="10"/>
   <rect x="167"
          y="1"
          width="24"
          height="32"
          class="terminal"
          rx="10"/>
   <text class="terminal" x="177" y="21">:</text>
   <a xmlns:xlink="http://www.w3.org/1999/xlink"
       xlink:href="#LabelName"
       xlink:title="LabelName">
      <rect x="213" y="3" width="90" height="32"/>
      <rect x="211" y="1" width="90" height="32" class="nonterminal"/>
      <text class="nonterminal" x="221" y="21">LabelName</text>
   </a>
   <rect x="323" y="3" width="26" height="32" rx="10"/>
   <rect x="321"
          y="1"
          width="26"
          height="32"
          class="terminal"
          rx="10"/>
   <text class="terminal" x="331" y="21">)</text>
   <path class="line"
          d="m17 17 h2 m0 0 h10 m72 0 h10 m0 0 h10 m26 0 h10 m0 0 h10 m24 0 h10 m0 0 h10 m90 0 h10 m0 0 h10 m26 0 h10 m3 0 h-3"/>
   <polygon points="367 17 375 13 375 21"/>
   <polygon points="367 17 359 13 359 21"/>
</svg>
