<svg xmlns="http://www.w3.org/2000/svg" width="959" height="213">         <defs>            <style type="text/css">    @namespace "http://www.w3.org/2000/svg";    .line                 {fill: none; stroke: #332900; stroke-width: 1;}    .bold-line            {stroke: #141000; shape-rendering: crispEdges; stroke-width: 2;}    .thin-line            {stroke: #1F1800; shape-rendering: crispEdges}    .filled               {fill: #332900; stroke: none;}    text.terminal         {font-family: Verdana, Sans-serif;                            font-size: 12px;                            fill: #141000;                            font-weight: bold;                          }    text.nonterminal      {font-family: Verdana, Sans-serif;                            font-size: 12px;                            fill: #1A1400;                            font-weight: normal;                          }    text.regexp           {font-family: Verdana, Sans-serif;                            font-size: 12px;                            fill: #1F1800;                            font-weight: normal;                          }    rect, circle, polygon {fill: #332900; stroke: #332900;}    rect.terminal         {fill: #FFDB4D; stroke: #332900; stroke-width: 1;}    rect.nonterminal      {fill: #FFEC9E; stroke: #332900; stroke-width: 1;}    rect.text             {fill: none; stroke: none;}    polygon.regexp        {fill: #FFF4C7; stroke: #332900; stroke-width: 1;}  </style>         </defs>         <polygon points="9 61 1 57 1 65"/>         <polygon points="17 61 9 57 9 65"/><a xmlns:xlink="http://www.w3.org/1999/xlink" xlink:href="#VertexDefinition" xlink:title="VertexDefinition">            <rect x="31" y="47" width="122" height="32"/>            <rect x="29" y="45" width="122" height="32" class="nonterminal"/>            <text class="nonterminal" x="39" y="65">VertexDefinition</text></a><rect x="173" y="47" width="84" height="32" rx="10"/>         <rect x="171" y="45" width="84" height="32" class="terminal" rx="10"/>         <text class="terminal" x="181" y="65">PRIMARY</text>         <rect x="277" y="47" width="46" height="32" rx="10"/>         <rect x="275" y="45" width="46" height="32" class="terminal" rx="10"/>         <text class="terminal" x="285" y="65">KEY</text>         <rect x="343" y="47" width="26" height="32" rx="10"/>         <rect x="341" y="45" width="26" height="32" class="terminal" rx="10"/>         <text class="terminal" x="351" y="65">(</text><a xmlns:xlink="http://www.w3.org/1999/xlink" xlink:href="#NestedField" xlink:title="NestedField">            <rect x="409" y="47" width="94" height="32"/>            <rect x="407" y="45" width="94" height="32" class="nonterminal"/>            <text class="nonterminal" x="417" y="65">NestedField</text></a><rect x="409" y="3" width="24" height="32" rx="10"/>         <rect x="407" y="1" width="24" height="32" class="terminal" rx="10"/>         <text class="terminal" x="417" y="21">,</text>         <rect x="543" y="47" width="26" height="32" rx="10"/>         <rect x="541" y="45" width="26" height="32" class="terminal" rx="10"/>         <text class="terminal" x="551" y="65">)</text>         <rect x="589" y="47" width="38" height="32" rx="10"/>         <rect x="587" y="45" width="38" height="32" class="terminal" rx="10"/>         <text class="terminal" x="597" y="65">AS</text><a xmlns:xlink="http://www.w3.org/1999/xlink" xlink:href="#QualifiedName" xlink:title="QualifiedName">            <rect x="667" y="47" width="112" height="32"/>            <rect x="665" y="45" width="112" height="32" class="nonterminal"/>            <text class="nonterminal" x="675" y="65">QualifiedName</text></a><a xmlns:xlink="http://www.w3.org/1999/xlink" xlink:href="#Selection" xlink:title="Selection">            <rect x="667" y="91" width="78" height="32"/>            <rect x="665" y="89" width="78" height="32" class="nonterminal"/>            <text class="nonterminal" x="675" y="109">Selection</text></a><rect x="667" y="135" width="26" height="32" rx="10"/>         <rect x="665" y="133" width="26" height="32" class="terminal" rx="10"/>         <text class="terminal" x="675" y="153">(</text><a xmlns:xlink="http://www.w3.org/1999/xlink" xlink:href="#QualifiedName" xlink:title="QualifiedName">            <rect x="733" y="135" width="112" height="32"/>            <rect x="731" y="133" width="112" height="32" class="nonterminal"/>            <text class="nonterminal" x="741" y="153">QualifiedName</text></a><a xmlns:xlink="http://www.w3.org/1999/xlink" xlink:href="#Selection" xlink:title="Selection">            <rect x="733" y="179" width="78" height="32"/>            <rect x="731" y="177" width="78" height="32" class="nonterminal"/>            <text class="nonterminal" x="741" y="197">Selection</text></a><rect x="885" y="135" width="26" height="32" rx="10"/>         <rect x="883" y="133" width="26" height="32" class="terminal" rx="10"/>         <text class="terminal" x="893" y="153">)</text>         <svg:path xmlns:svg="http://www.w3.org/2000/svg" class="line" d="m17 61 h2 m0 0 h10 m122 0 h10 m0 0 h10 m84 0 h10 m0 0 h10 m46 0 h10 m0 0 h10 m26 0 h10 m20 0 h10 m94 0 h10 m-134 0 l20 0 m-1 0 q-9 0 -9 -10 l0 -24 q0 -10 10 -10 m114 44 l20 0 m-20 0 q10 0 10 -10 l0 -24 q0 -10 -10 -10 m-114 0 h10 m24 0 h10 m0 0 h70 m20 44 h10 m26 0 h10 m0 0 h10 m38 0 h10 m20 0 h10 m112 0 h10 m0 0 h132 m-284 0 h20 m264 0 h20 m-304 0 q10 0 10 10 m284 0 q0 -10 10 -10 m-294 10 v24 m284 0 v-24 m-284 24 q0 10 10 10 m264 0 q10 0 10 -10 m-274 10 h10 m78 0 h10 m0 0 h166 m-274 -10 v20 m284 0 v-20 m-284 20 v24 m284 0 v-24 m-284 24 q0 10 10 10 m264 0 q10 0 10 -10 m-274 10 h10 m26 0 h10 m20 0 h10 m112 0 h10 m-152 0 h20 m132 0 h20 m-172 0 q10 0 10 10 m152 0 q0 -10 10 -10 m-162 10 v24 m152 0 v-24 m-152 24 q0 10 10 10 m132 0 q10 0 10 -10 m-142 10 h10 m78 0 h10 m0 0 h34 m20 -44 h10 m26 0 h10 m23 -88 h-3"/>         <polygon points="949 61 957 57 957 65"/>         <polygon points="949 61 941 57 941 65"/></svg>