<?xml version="1.0" encoding="UTF-8"?>
<svg xmlns="http://www.w3.org/2000/svg" width="455" height="81">
   <defs>
      <style type="text/css">
    @namespace "http://www.w3.org/2000/svg";
    .line                 {fill: none; stroke: #332200; stroke-width: 1;}
    .bold-line            {stroke: #140E00; shape-rendering: crispEdges; stroke-width: 2;}
    .thin-line            {stroke: #1F1400; shape-rendering: crispEdges}
    .filled               {fill: #332200; stroke: none;}
    text.terminal         {font-family: Verdana, Sans-serif;
                            font-size: 12px;
                            fill: #140E00;
                            font-weight: bold;
                          }
    text.nonterminal      {font-family: Verdana, Sans-serif;
                            font-size: 12px;
                            fill: #1A1100;
                            font-weight: normal;
                          }
    text.regexp           {font-family: Verdana, Sans-serif;
                            font-size: 12px;
                            fill: #1F1400;
                            font-weight: normal;
                          }
    rect, circle, polygon {fill: #332200; stroke: #332200;}
    rect.terminal         {fill: #FFC34D; stroke: #332200; stroke-width: 1;}
    rect.nonterminal      {fill: #FFDF9E; stroke: #332200; stroke-width: 1;}
    rect.text             {fill: none; stroke: none;}
    polygon.regexp        {fill: #FFECC7; stroke: #332200; stroke-width: 1;}
  </style>
   </defs>
   <polygon points="9 61 1 57 1 65"/>
   <polygon points="17 61 9 57 9 65"/>
   <rect x="31" y="47" width="84" height="32" rx="10"/>
   <rect x="29"
          y="45"
          width="84"
          height="32"
          class="terminal"
          rx="10"/>
   <text class="terminal" x="39" y="65">PRIMARY</text>
   <rect x="135" y="47" width="46" height="32" rx="10"/>
   <rect x="133"
          y="45"
          width="46"
          height="32"
          class="terminal"
          rx="10"/>
   <text class="terminal" x="143" y="65">KEY</text>
   <rect x="201" y="47" width="26" height="32" rx="10"/>
   <rect x="199"
          y="45"
          width="26"
          height="32"
          class="terminal"
          rx="10"/>
   <text class="terminal" x="209" y="65">(</text>
   <a xmlns:xlink="http://www.w3.org/1999/xlink"
       xlink:href="#NestedField"
       xlink:title="NestedField">
      <rect x="267" y="47" width="94" height="32"/>
      <rect x="265" y="45" width="94" height="32" class="nonterminal"/>
      <text class="nonterminal" x="275" y="65">NestedField</text>
   </a>
   <rect x="267" y="3" width="24" height="32" rx="10"/>
   <rect x="265"
          y="1"
          width="24"
          height="32"
          class="terminal"
          rx="10"/>
   <text class="terminal" x="275" y="21">,</text>
   <rect x="401" y="47" width="26" height="32" rx="10"/>
   <rect x="399"
          y="45"
          width="26"
          height="32"
          class="terminal"
          rx="10"/>
   <text class="terminal" x="409" y="65">)</text>
   <path class="line"
          d="m17 61 h2 m0 0 h10 m84 0 h10 m0 0 h10 m46 0 h10 m0 0 h10 m26 0 h10 m20 0 h10 m94 0 h10 m-134 0 l20 0 m-1 0 q-9 0 -9 -10 l0 -24 q0 -10 10 -10 m114 44 l20 0 m-20 0 q10 0 10 -10 l0 -24 q0 -10 -10 -10 m-114 0 h10 m24 0 h10 m0 0 h70 m20 44 h10 m26 0 h10 m3 0 h-3"/>
   <polygon points="445 61 453 57 453 65"/>
   <polygon points="445 61 437 57 437 65"/>
</svg>
