<?xml version="1.0" encoding="UTF-8"?>
<svg xmlns="http://www.w3.org/2000/svg" width="473" height="81">
   <defs>
      <style type="text/css">
    @namespace "http://www.w3.org/2000/svg";
    .line                 {fill: none; stroke: #332900; stroke-width: 1;}
    .bold-line            {stroke: #141000; shape-rendering: crispEdges; stroke-width: 2;}
    .thin-line            {stroke: #1F1800; shape-rendering: crispEdges}
    .filled               {fill: #332900; stroke: none;}
    text.terminal         {font-family: Verdana, Sans-serif;
                            font-size: 12px;
                            fill: #141000;
                            font-weight: bold;
                          }
    text.nonterminal      {font-family: Verdana, Sans-serif;
                            font-size: 12px;
                            fill: #1A1400;
                            font-weight: normal;
                          }
    text.regexp           {font-family: Verdana, Sans-serif;
                            font-size: 12px;
                            fill: #1F1800;
                            font-weight: normal;
                          }
    rect, circle, polygon {fill: #332900; stroke: #332900;}
    rect.terminal         {fill: #FFDB4D; stroke: #332900; stroke-width: 1;}
    rect.nonterminal      {fill: #FFEC9E; stroke: #332900; stroke-width: 1;}
    rect.text             {fill: none; stroke: none;}
    polygon.regexp        {fill: #FFF4C7; stroke: #332900; stroke-width: 1;}
  </style>
   </defs>
   <polygon points="9 17 1 13 1 21"/>
   <polygon points="17 17 9 13 9 21"/>
   <rect x="51" y="3" width="66" height="32" rx="10"/>
   <rect x="49"
          y="1"
          width="66"
          height="32"
          class="terminal"
          rx="10"/>
   <text class="terminal" x="59" y="21">GRAPH</text>
   <a xmlns:xlink="http://www.w3.org/1999/xlink"
       xlink:href="#Identifier"
       xlink:title="Identifier">
      <rect x="137" y="3" width="78" height="32"/>
      <rect x="135" y="1" width="78" height="32" class="nonterminal"/>
      <text class="nonterminal" x="145" y="21">Identifier</text>
   </a>
   <rect x="235" y="3" width="38" height="32" rx="10"/>
   <rect x="233"
          y="1"
          width="38"
          height="32"
          class="terminal"
          rx="10"/>
   <text class="terminal" x="243" y="21">AS</text>
   <a xmlns:xlink="http://www.w3.org/1999/xlink"
       xlink:href="#GraphConstructor"
       xlink:title="GraphConstructor">
      <rect x="293" y="3" width="132" height="32"/>
      <rect x="291" y="1" width="132" height="32" class="nonterminal"/>
      <text class="nonterminal" x="301" y="21">GraphConstructor</text>
   </a>
   <a xmlns:xlink="http://www.w3.org/1999/xlink"
       xlink:href="#Variable"
       xlink:title="Variable">
      <rect x="51" y="47" width="72" height="32"/>
      <rect x="49" y="45" width="72" height="32" class="nonterminal"/>
      <text class="nonterminal" x="59" y="65">Variable</text>
   </a>
   <rect x="143" y="47" width="38" height="32" rx="10"/>
   <rect x="141"
          y="45"
          width="38"
          height="32"
          class="terminal"
          rx="10"/>
   <text class="terminal" x="151" y="65">AS</text>
   <a xmlns:xlink="http://www.w3.org/1999/xlink"
       xlink:href="#Expr"
       xlink:title="Expr">
      <rect x="201" y="47" width="48" height="32"/>
      <rect x="199" y="45" width="48" height="32" class="nonterminal"/>
      <text class="nonterminal" x="209" y="65">Expr</text>
   </a>
   <path class="line"
          d="m17 17 h2 m20 0 h10 m66 0 h10 m0 0 h10 m78 0 h10 m0 0 h10 m38 0 h10 m0 0 h10 m132 0 h10 m-414 0 h20 m394 0 h20 m-434 0 q10 0 10 10 m414 0 q0 -10 10 -10 m-424 10 v24 m414 0 v-24 m-414 24 q0 10 10 10 m394 0 q10 0 10 -10 m-404 10 h10 m72 0 h10 m0 0 h10 m38 0 h10 m0 0 h10 m48 0 h10 m0 0 h176 m23 -44 h-3"/>
   <polygon points="463 17 471 13 471 21"/>
   <polygon points="463 17 455 13 455 21"/>
</svg>
